<?xml version="1.0" encoding="utf-8" standalone="no"?>
<!DOCTYPE svg PUBLIC "-//W3C//DTD SVG 1.1//EN"
  "http://www.w3.org/Graphics/SVG/1.1/DTD/svg11.dtd">
<svg xmlns:xlink="http://www.w3.org/1999/xlink" width="460.8pt" height="345.6pt" viewBox="0 0 460.8 345.6" xmlns="http://www.w3.org/2000/svg" version="1.1">
 <metadata>
  <rdf:RDF xmlns:dc="http://purl.org/dc/elements/1.1/" xmlns:cc="http://creativecommons.org/ns#" xmlns:rdf="http://www.w3.org/1999/02/22-rdf-syntax-ns#">
   <cc:Work>
    <dc:type rdf:resource="http://purl.org/dc/dcmitype/StillImage"/>
    <dc:date>2023-05-18T18:01:27.483931</dc:date>
    <dc:format>image/svg+xml</dc:format>
    <dc:creator>
     <cc:Agent>
      <dc:title>Matplotlib v3.6.0, https://matplotlib.org/</dc:title>
     </cc:Agent>
    </dc:creator>
   </cc:Work>
  </rdf:RDF>
 </metadata>
 <defs>
  <style type="text/css">*{stroke-linejoin: round; stroke-linecap: butt}</style>
 </defs>
 <g id="figure_1">
  <g id="patch_1">
   <path d="M 0 345.6 
L 460.8 345.6 
L 460.8 0 
L 0 0 
z
" style="fill: #ffffff"/>
  </g>
  <g id="axes_1">
   <g id="patch_2">
    <path d="M 57.6 307.584 
L 414.72 307.584 
L 414.72 41.472 
L 57.6 41.472 
z
" style="fill: #ffffff"/>
   </g>
   <g id="matplotlib.axis_1">
    <g id="xtick_1">
     <g id="line2d_1">
      <path d="M 73.832727 307.584 
L 73.832727 41.472 
" clip-path="url(#p780793f479)" style="fill: none; stroke: #b0b0b0; stroke-width: 0.8; stroke-linecap: square"/>
     </g>
     <g id="line2d_2">
      <defs>
       <path id="mad8e91990c" d="M 0 0 
L 0 3.5 
" style="stroke: #000000; stroke-width: 0.8"/>
      </defs>
      <g>
       <use xlink:href="#mad8e91990c" x="73.832727" y="307.584" style="stroke: #000000; stroke-width: 0.8"/>
      </g>
     </g>
     <g id="text_1">
      <!-- 0 -->
      <g transform="translate(70.651477 322.182437) scale(0.1 -0.1)">
       <defs>
        <path id="DejaVuSans-30" d="M 2034 4250 
Q 1547 4250 1301 3770 
Q 1056 3291 1056 2328 
Q 1056 1369 1301 889 
Q 1547 409 2034 409 
Q 2525 409 2770 889 
Q 3016 1369 3016 2328 
Q 3016 3291 2770 3770 
Q 2525 4250 2034 4250 
z
M 2034 4750 
Q 2819 4750 3233 4129 
Q 3647 3509 3647 2328 
Q 3647 1150 3233 529 
Q 2819 -91 2034 -91 
Q 1250 -91 836 529 
Q 422 1150 422 2328 
Q 422 3509 836 4129 
Q 1250 4750 2034 4750 
z
" transform="scale(0.015625)"/>
       </defs>
       <use xlink:href="#DejaVuSans-30"/>
      </g>
     </g>
    </g>
    <g id="xtick_2">
     <g id="line2d_3">
      <path d="M 128.122785 307.584 
L 128.122785 41.472 
" clip-path="url(#p780793f479)" style="fill: none; stroke: #b0b0b0; stroke-width: 0.8; stroke-linecap: square"/>
     </g>
     <g id="line2d_4">
      <g>
       <use xlink:href="#mad8e91990c" x="128.122785" y="307.584" style="stroke: #000000; stroke-width: 0.8"/>
      </g>
     </g>
     <g id="text_2">
      <!-- 50 -->
      <g transform="translate(121.760285 322.182437) scale(0.1 -0.1)">
       <defs>
        <path id="DejaVuSans-35" d="M 691 4666 
L 3169 4666 
L 3169 4134 
L 1269 4134 
L 1269 2991 
Q 1406 3038 1543 3061 
Q 1681 3084 1819 3084 
Q 2600 3084 3056 2656 
Q 3513 2228 3513 1497 
Q 3513 744 3044 326 
Q 2575 -91 1722 -91 
Q 1428 -91 1123 -41 
Q 819 9 494 109 
L 494 744 
Q 775 591 1075 516 
Q 1375 441 1709 441 
Q 2250 441 2565 725 
Q 2881 1009 2881 1497 
Q 2881 1984 2565 2268 
Q 2250 2553 1709 2553 
Q 1456 2553 1204 2497 
Q 953 2441 691 2322 
L 691 4666 
z
" transform="scale(0.015625)"/>
       </defs>
       <use xlink:href="#DejaVuSans-35"/>
       <use xlink:href="#DejaVuSans-30" x="63.623047"/>
      </g>
     </g>
    </g>
    <g id="xtick_3">
     <g id="line2d_5">
      <path d="M 182.412843 307.584 
L 182.412843 41.472 
" clip-path="url(#p780793f479)" style="fill: none; stroke: #b0b0b0; stroke-width: 0.8; stroke-linecap: square"/>
     </g>
     <g id="line2d_6">
      <g>
       <use xlink:href="#mad8e91990c" x="182.412843" y="307.584" style="stroke: #000000; stroke-width: 0.8"/>
      </g>
     </g>
     <g id="text_3">
      <!-- 100 -->
      <g transform="translate(172.869093 322.182437) scale(0.1 -0.1)">
       <defs>
        <path id="DejaVuSans-31" d="M 794 531 
L 1825 531 
L 1825 4091 
L 703 3866 
L 703 4441 
L 1819 4666 
L 2450 4666 
L 2450 531 
L 3481 531 
L 3481 0 
L 794 0 
L 794 531 
z
" transform="scale(0.015625)"/>
       </defs>
       <use xlink:href="#DejaVuSans-31"/>
       <use xlink:href="#DejaVuSans-30" x="63.623047"/>
       <use xlink:href="#DejaVuSans-30" x="127.246094"/>
      </g>
     </g>
    </g>
    <g id="xtick_4">
     <g id="line2d_7">
      <path d="M 236.702901 307.584 
L 236.702901 41.472 
" clip-path="url(#p780793f479)" style="fill: none; stroke: #b0b0b0; stroke-width: 0.8; stroke-linecap: square"/>
     </g>
     <g id="line2d_8">
      <g>
       <use xlink:href="#mad8e91990c" x="236.702901" y="307.584" style="stroke: #000000; stroke-width: 0.8"/>
      </g>
     </g>
     <g id="text_4">
      <!-- 150 -->
      <g transform="translate(227.159151 322.182437) scale(0.1 -0.1)">
       <use xlink:href="#DejaVuSans-31"/>
       <use xlink:href="#DejaVuSans-35" x="63.623047"/>
       <use xlink:href="#DejaVuSans-30" x="127.246094"/>
      </g>
     </g>
    </g>
    <g id="xtick_5">
     <g id="line2d_9">
      <path d="M 290.992958 307.584 
L 290.992958 41.472 
" clip-path="url(#p780793f479)" style="fill: none; stroke: #b0b0b0; stroke-width: 0.8; stroke-linecap: square"/>
     </g>
     <g id="line2d_10">
      <g>
       <use xlink:href="#mad8e91990c" x="290.992958" y="307.584" style="stroke: #000000; stroke-width: 0.8"/>
      </g>
     </g>
     <g id="text_5">
      <!-- 200 -->
      <g transform="translate(281.449208 322.182437) scale(0.1 -0.1)">
       <defs>
        <path id="DejaVuSans-32" d="M 1228 531 
L 3431 531 
L 3431 0 
L 469 0 
L 469 531 
Q 828 903 1448 1529 
Q 2069 2156 2228 2338 
Q 2531 2678 2651 2914 
Q 2772 3150 2772 3378 
Q 2772 3750 2511 3984 
Q 2250 4219 1831 4219 
Q 1534 4219 1204 4116 
Q 875 4013 500 3803 
L 500 4441 
Q 881 4594 1212 4672 
Q 1544 4750 1819 4750 
Q 2544 4750 2975 4387 
Q 3406 4025 3406 3419 
Q 3406 3131 3298 2873 
Q 3191 2616 2906 2266 
Q 2828 2175 2409 1742 
Q 1991 1309 1228 531 
z
" transform="scale(0.015625)"/>
       </defs>
       <use xlink:href="#DejaVuSans-32"/>
       <use xlink:href="#DejaVuSans-30" x="63.623047"/>
       <use xlink:href="#DejaVuSans-30" x="127.246094"/>
      </g>
     </g>
    </g>
    <g id="xtick_6">
     <g id="line2d_11">
      <path d="M 345.283016 307.584 
L 345.283016 41.472 
" clip-path="url(#p780793f479)" style="fill: none; stroke: #b0b0b0; stroke-width: 0.8; stroke-linecap: square"/>
     </g>
     <g id="line2d_12">
      <g>
       <use xlink:href="#mad8e91990c" x="345.283016" y="307.584" style="stroke: #000000; stroke-width: 0.8"/>
      </g>
     </g>
     <g id="text_6">
      <!-- 250 -->
      <g transform="translate(335.739266 322.182437) scale(0.1 -0.1)">
       <use xlink:href="#DejaVuSans-32"/>
       <use xlink:href="#DejaVuSans-35" x="63.623047"/>
       <use xlink:href="#DejaVuSans-30" x="127.246094"/>
      </g>
     </g>
    </g>
    <g id="xtick_7">
     <g id="line2d_13">
      <path d="M 399.573074 307.584 
L 399.573074 41.472 
" clip-path="url(#p780793f479)" style="fill: none; stroke: #b0b0b0; stroke-width: 0.8; stroke-linecap: square"/>
     </g>
     <g id="line2d_14">
      <g>
       <use xlink:href="#mad8e91990c" x="399.573074" y="307.584" style="stroke: #000000; stroke-width: 0.8"/>
      </g>
     </g>
     <g id="text_7">
      <!-- 300 -->
      <g transform="translate(390.029324 322.182437) scale(0.1 -0.1)">
       <defs>
        <path id="DejaVuSans-33" d="M 2597 2516 
Q 3050 2419 3304 2112 
Q 3559 1806 3559 1356 
Q 3559 666 3084 287 
Q 2609 -91 1734 -91 
Q 1441 -91 1130 -33 
Q 819 25 488 141 
L 488 750 
Q 750 597 1062 519 
Q 1375 441 1716 441 
Q 2309 441 2620 675 
Q 2931 909 2931 1356 
Q 2931 1769 2642 2001 
Q 2353 2234 1838 2234 
L 1294 2234 
L 1294 2753 
L 1863 2753 
Q 2328 2753 2575 2939 
Q 2822 3125 2822 3475 
Q 2822 3834 2567 4026 
Q 2313 4219 1838 4219 
Q 1578 4219 1281 4162 
Q 984 4106 628 3988 
L 628 4550 
Q 988 4650 1302 4700 
Q 1616 4750 1894 4750 
Q 2613 4750 3031 4423 
Q 3450 4097 3450 3541 
Q 3450 3153 3228 2886 
Q 3006 2619 2597 2516 
z
" transform="scale(0.015625)"/>
       </defs>
       <use xlink:href="#DejaVuSans-33"/>
       <use xlink:href="#DejaVuSans-30" x="63.623047"/>
       <use xlink:href="#DejaVuSans-30" x="127.246094"/>
      </g>
     </g>
    </g>
    <g id="text_8">
     <!-- Generations -->
     <g transform="translate(205.662344 335.860562) scale(0.1 -0.1)">
      <defs>
       <path id="DejaVuSans-47" d="M 3809 666 
L 3809 1919 
L 2778 1919 
L 2778 2438 
L 4434 2438 
L 4434 434 
Q 4069 175 3628 42 
Q 3188 -91 2688 -91 
Q 1594 -91 976 548 
Q 359 1188 359 2328 
Q 359 3472 976 4111 
Q 1594 4750 2688 4750 
Q 3144 4750 3555 4637 
Q 3966 4525 4313 4306 
L 4313 3634 
Q 3963 3931 3569 4081 
Q 3175 4231 2741 4231 
Q 1884 4231 1454 3753 
Q 1025 3275 1025 2328 
Q 1025 1384 1454 906 
Q 1884 428 2741 428 
Q 3075 428 3337 486 
Q 3600 544 3809 666 
z
" transform="scale(0.015625)"/>
       <path id="DejaVuSans-65" d="M 3597 1894 
L 3597 1613 
L 953 1613 
Q 991 1019 1311 708 
Q 1631 397 2203 397 
Q 2534 397 2845 478 
Q 3156 559 3463 722 
L 3463 178 
Q 3153 47 2828 -22 
Q 2503 -91 2169 -91 
Q 1331 -91 842 396 
Q 353 884 353 1716 
Q 353 2575 817 3079 
Q 1281 3584 2069 3584 
Q 2775 3584 3186 3129 
Q 3597 2675 3597 1894 
z
M 3022 2063 
Q 3016 2534 2758 2815 
Q 2500 3097 2075 3097 
Q 1594 3097 1305 2825 
Q 1016 2553 972 2059 
L 3022 2063 
z
" transform="scale(0.015625)"/>
       <path id="DejaVuSans-6e" d="M 3513 2113 
L 3513 0 
L 2938 0 
L 2938 2094 
Q 2938 2591 2744 2837 
Q 2550 3084 2163 3084 
Q 1697 3084 1428 2787 
Q 1159 2491 1159 1978 
L 1159 0 
L 581 0 
L 581 3500 
L 1159 3500 
L 1159 2956 
Q 1366 3272 1645 3428 
Q 1925 3584 2291 3584 
Q 2894 3584 3203 3211 
Q 3513 2838 3513 2113 
z
" transform="scale(0.015625)"/>
       <path id="DejaVuSans-72" d="M 2631 2963 
Q 2534 3019 2420 3045 
Q 2306 3072 2169 3072 
Q 1681 3072 1420 2755 
Q 1159 2438 1159 1844 
L 1159 0 
L 581 0 
L 581 3500 
L 1159 3500 
L 1159 2956 
Q 1341 3275 1631 3429 
Q 1922 3584 2338 3584 
Q 2397 3584 2469 3576 
Q 2541 3569 2628 3553 
L 2631 2963 
z
" transform="scale(0.015625)"/>
       <path id="DejaVuSans-61" d="M 2194 1759 
Q 1497 1759 1228 1600 
Q 959 1441 959 1056 
Q 959 750 1161 570 
Q 1363 391 1709 391 
Q 2188 391 2477 730 
Q 2766 1069 2766 1631 
L 2766 1759 
L 2194 1759 
z
M 3341 1997 
L 3341 0 
L 2766 0 
L 2766 531 
Q 2569 213 2275 61 
Q 1981 -91 1556 -91 
Q 1019 -91 701 211 
Q 384 513 384 1019 
Q 384 1609 779 1909 
Q 1175 2209 1959 2209 
L 2766 2209 
L 2766 2266 
Q 2766 2663 2505 2880 
Q 2244 3097 1772 3097 
Q 1472 3097 1187 3025 
Q 903 2953 641 2809 
L 641 3341 
Q 956 3463 1253 3523 
Q 1550 3584 1831 3584 
Q 2591 3584 2966 3190 
Q 3341 2797 3341 1997 
z
" transform="scale(0.015625)"/>
       <path id="DejaVuSans-74" d="M 1172 4494 
L 1172 3500 
L 2356 3500 
L 2356 3053 
L 1172 3053 
L 1172 1153 
Q 1172 725 1289 603 
Q 1406 481 1766 481 
L 2356 481 
L 2356 0 
L 1766 0 
Q 1100 0 847 248 
Q 594 497 594 1153 
L 594 3053 
L 172 3053 
L 172 3500 
L 594 3500 
L 594 4494 
L 1172 4494 
z
" transform="scale(0.015625)"/>
       <path id="DejaVuSans-69" d="M 603 3500 
L 1178 3500 
L 1178 0 
L 603 0 
L 603 3500 
z
M 603 4863 
L 1178 4863 
L 1178 4134 
L 603 4134 
L 603 4863 
z
" transform="scale(0.015625)"/>
       <path id="DejaVuSans-6f" d="M 1959 3097 
Q 1497 3097 1228 2736 
Q 959 2375 959 1747 
Q 959 1119 1226 758 
Q 1494 397 1959 397 
Q 2419 397 2687 759 
Q 2956 1122 2956 1747 
Q 2956 2369 2687 2733 
Q 2419 3097 1959 3097 
z
M 1959 3584 
Q 2709 3584 3137 3096 
Q 3566 2609 3566 1747 
Q 3566 888 3137 398 
Q 2709 -91 1959 -91 
Q 1206 -91 779 398 
Q 353 888 353 1747 
Q 353 2609 779 3096 
Q 1206 3584 1959 3584 
z
" transform="scale(0.015625)"/>
       <path id="DejaVuSans-73" d="M 2834 3397 
L 2834 2853 
Q 2591 2978 2328 3040 
Q 2066 3103 1784 3103 
Q 1356 3103 1142 2972 
Q 928 2841 928 2578 
Q 928 2378 1081 2264 
Q 1234 2150 1697 2047 
L 1894 2003 
Q 2506 1872 2764 1633 
Q 3022 1394 3022 966 
Q 3022 478 2636 193 
Q 2250 -91 1575 -91 
Q 1294 -91 989 -36 
Q 684 19 347 128 
L 347 722 
Q 666 556 975 473 
Q 1284 391 1588 391 
Q 1994 391 2212 530 
Q 2431 669 2431 922 
Q 2431 1156 2273 1281 
Q 2116 1406 1581 1522 
L 1381 1569 
Q 847 1681 609 1914 
Q 372 2147 372 2553 
Q 372 3047 722 3315 
Q 1072 3584 1716 3584 
Q 2034 3584 2315 3537 
Q 2597 3491 2834 3397 
z
" transform="scale(0.015625)"/>
      </defs>
      <use xlink:href="#DejaVuSans-47"/>
      <use xlink:href="#DejaVuSans-65" x="77.490234"/>
      <use xlink:href="#DejaVuSans-6e" x="139.013672"/>
      <use xlink:href="#DejaVuSans-65" x="202.392578"/>
      <use xlink:href="#DejaVuSans-72" x="263.916016"/>
      <use xlink:href="#DejaVuSans-61" x="305.029297"/>
      <use xlink:href="#DejaVuSans-74" x="366.308594"/>
      <use xlink:href="#DejaVuSans-69" x="405.517578"/>
      <use xlink:href="#DejaVuSans-6f" x="433.300781"/>
      <use xlink:href="#DejaVuSans-6e" x="494.482422"/>
      <use xlink:href="#DejaVuSans-73" x="557.861328"/>
     </g>
    </g>
   </g>
   <g id="matplotlib.axis_2">
    <g id="ytick_1">
     <g id="line2d_15">
      <path d="M 57.6 283.60679 
L 414.72 283.60679 
" clip-path="url(#p780793f479)" style="fill: none; stroke: #b0b0b0; stroke-width: 0.8; stroke-linecap: square"/>
     </g>
     <g id="line2d_16">
      <defs>
       <path id="m0cc31c1258" d="M 0 0 
L -3.5 0 
" style="stroke: #000000; stroke-width: 0.8"/>
      </defs>
      <g>
       <use xlink:href="#m0cc31c1258" x="57.6" y="283.60679" style="stroke: #000000; stroke-width: 0.8"/>
      </g>
     </g>
     <g id="text_9">
      <!-- 300 -->
      <g transform="translate(31.5125 287.406009) scale(0.1 -0.1)">
       <use xlink:href="#DejaVuSans-33"/>
       <use xlink:href="#DejaVuSans-30" x="63.623047"/>
       <use xlink:href="#DejaVuSans-30" x="127.246094"/>
      </g>
     </g>
    </g>
    <g id="ytick_2">
     <g id="line2d_17">
      <path d="M 57.6 238.965899 
L 414.72 238.965899 
" clip-path="url(#p780793f479)" style="fill: none; stroke: #b0b0b0; stroke-width: 0.8; stroke-linecap: square"/>
     </g>
     <g id="line2d_18">
      <g>
       <use xlink:href="#m0cc31c1258" x="57.6" y="238.965899" style="stroke: #000000; stroke-width: 0.8"/>
      </g>
     </g>
     <g id="text_10">
      <!-- 350 -->
      <g transform="translate(31.5125 242.765118) scale(0.1 -0.1)">
       <use xlink:href="#DejaVuSans-33"/>
       <use xlink:href="#DejaVuSans-35" x="63.623047"/>
       <use xlink:href="#DejaVuSans-30" x="127.246094"/>
      </g>
     </g>
    </g>
    <g id="ytick_3">
     <g id="line2d_19">
      <path d="M 57.6 194.325008 
L 414.72 194.325008 
" clip-path="url(#p780793f479)" style="fill: none; stroke: #b0b0b0; stroke-width: 0.8; stroke-linecap: square"/>
     </g>
     <g id="line2d_20">
      <g>
       <use xlink:href="#m0cc31c1258" x="57.6" y="194.325008" style="stroke: #000000; stroke-width: 0.8"/>
      </g>
     </g>
     <g id="text_11">
      <!-- 400 -->
      <g transform="translate(31.5125 198.124227) scale(0.1 -0.1)">
       <defs>
        <path id="DejaVuSans-34" d="M 2419 4116 
L 825 1625 
L 2419 1625 
L 2419 4116 
z
M 2253 4666 
L 3047 4666 
L 3047 1625 
L 3713 1625 
L 3713 1100 
L 3047 1100 
L 3047 0 
L 2419 0 
L 2419 1100 
L 313 1100 
L 313 1709 
L 2253 4666 
z
" transform="scale(0.015625)"/>
       </defs>
       <use xlink:href="#DejaVuSans-34"/>
       <use xlink:href="#DejaVuSans-30" x="63.623047"/>
       <use xlink:href="#DejaVuSans-30" x="127.246094"/>
      </g>
     </g>
    </g>
    <g id="ytick_4">
     <g id="line2d_21">
      <path d="M 57.6 149.684117 
L 414.72 149.684117 
" clip-path="url(#p780793f479)" style="fill: none; stroke: #b0b0b0; stroke-width: 0.8; stroke-linecap: square"/>
     </g>
     <g id="line2d_22">
      <g>
       <use xlink:href="#m0cc31c1258" x="57.6" y="149.684117" style="stroke: #000000; stroke-width: 0.8"/>
      </g>
     </g>
     <g id="text_12">
      <!-- 450 -->
      <g transform="translate(31.5125 153.483336) scale(0.1 -0.1)">
       <use xlink:href="#DejaVuSans-34"/>
       <use xlink:href="#DejaVuSans-35" x="63.623047"/>
       <use xlink:href="#DejaVuSans-30" x="127.246094"/>
      </g>
     </g>
    </g>
    <g id="ytick_5">
     <g id="line2d_23">
      <path d="M 57.6 105.043226 
L 414.72 105.043226 
" clip-path="url(#p780793f479)" style="fill: none; stroke: #b0b0b0; stroke-width: 0.8; stroke-linecap: square"/>
     </g>
     <g id="line2d_24">
      <g>
       <use xlink:href="#m0cc31c1258" x="57.6" y="105.043226" style="stroke: #000000; stroke-width: 0.8"/>
      </g>
     </g>
     <g id="text_13">
      <!-- 500 -->
      <g transform="translate(31.5125 108.842445) scale(0.1 -0.1)">
       <use xlink:href="#DejaVuSans-35"/>
       <use xlink:href="#DejaVuSans-30" x="63.623047"/>
       <use xlink:href="#DejaVuSans-30" x="127.246094"/>
      </g>
     </g>
    </g>
    <g id="ytick_6">
     <g id="line2d_25">
      <path d="M 57.6 60.402335 
L 414.72 60.402335 
" clip-path="url(#p780793f479)" style="fill: none; stroke: #b0b0b0; stroke-width: 0.8; stroke-linecap: square"/>
     </g>
     <g id="line2d_26">
      <g>
       <use xlink:href="#m0cc31c1258" x="57.6" y="60.402335" style="stroke: #000000; stroke-width: 0.8"/>
      </g>
     </g>
     <g id="text_14">
      <!-- 550 -->
      <g transform="translate(31.5125 64.201554) scale(0.1 -0.1)">
       <use xlink:href="#DejaVuSans-35"/>
       <use xlink:href="#DejaVuSans-35" x="63.623047"/>
       <use xlink:href="#DejaVuSans-30" x="127.246094"/>
      </g>
     </g>
    </g>
    <g id="text_15">
     <!-- Fitness -->
     <g transform="translate(25.432812 191.845187) rotate(-90) scale(0.1 -0.1)">
      <defs>
       <path id="DejaVuSans-46" d="M 628 4666 
L 3309 4666 
L 3309 4134 
L 1259 4134 
L 1259 2759 
L 3109 2759 
L 3109 2228 
L 1259 2228 
L 1259 0 
L 628 0 
L 628 4666 
z
" transform="scale(0.015625)"/>
      </defs>
      <use xlink:href="#DejaVuSans-46"/>
      <use xlink:href="#DejaVuSans-69" x="50.269531"/>
      <use xlink:href="#DejaVuSans-74" x="78.052734"/>
      <use xlink:href="#DejaVuSans-6e" x="117.261719"/>
      <use xlink:href="#DejaVuSans-65" x="180.640625"/>
      <use xlink:href="#DejaVuSans-73" x="242.164062"/>
      <use xlink:href="#DejaVuSans-73" x="294.263672"/>
     </g>
    </g>
   </g>
   <g id="line2d_27">
    <path d="M 73.832727 199.431926 
L 74.918528 201.369341 
L 95.54875 201.369341 
L 96.634552 165.587435 
L 97.720353 157.719478 
L 98.806154 156.981186 
L 99.891955 136.595408 
L 100.977756 153.973144 
L 102.063557 139.063305 
L 103.149358 164.716254 
L 104.23516 157.933754 
L 105.320961 157.500828 
L 106.406762 158.944914 
L 107.492563 146.523542 
L 108.578364 171.166407 
L 109.664165 154.219632 
L 110.749967 149.101052 
L 111.835768 148.023476 
L 114.00737 156.454652 
L 115.093171 137.585525 
L 116.178972 144.274692 
L 117.264773 160.071709 
L 118.350575 167.290485 
L 119.436376 159.6691 
L 120.522177 160.744126 
L 121.607978 138.004602 
L 122.693779 155.461174 
L 123.77958 144.755763 
L 124.865382 140.191095 
L 125.951183 134.024093 
L 127.036984 157.141772 
L 128.122785 167.094065 
L 129.208586 148.57265 
L 130.294387 151.692957 
L 131.380189 141.648757 
L 132.46599 159.855238 
L 133.551791 181.282866 
L 134.637592 147.675277 
L 135.723393 176.325801 
L 136.809194 151.452247 
L 137.894995 141.983563 
L 138.980797 144.862901 
L 140.066598 153.898217 
L 141.152399 161.600502 
L 142.2382 134.470502 
L 143.324001 152.380791 
L 144.409802 130.752735 
L 145.495604 136.113286 
L 146.581405 161.272893 
L 147.667206 142.773707 
L 148.753007 152.730202 
L 149.838808 153.201819 
L 150.924609 134.113374 
L 152.01041 160.818081 
L 153.096212 140.615889 
L 154.182013 160.219367 
L 155.267814 140.027108 
L 156.353615 164.789137 
L 157.439416 155.128555 
L 158.525217 138.238193 
L 159.611019 190.211044 
L 160.69682 152.201863 
L 161.782621 164.774489 
L 162.868422 132.374384 
L 163.954223 133.123222 
L 165.040024 143.93437 
L 166.125825 137.804174 
L 167.211627 146.094625 
L 168.297428 144.799879 
L 169.383229 172.629535 
L 170.46903 167.272628 
L 171.554831 148.20204 
L 172.640632 145.916426 
L 173.726434 169.611811 
L 174.812235 142.41658 
L 176.983837 189.628787 
L 178.069638 157.844472 
L 179.155439 169.111833 
L 180.24124 141.666613 
L 181.327042 163.058528 
L 182.412843 131.149219 
L 183.498644 137.22038 
L 184.584445 160.665776 
L 185.670246 171.058176 
L 186.756047 167.254772 
L 188.92765 127.435097 
L 190.013451 143.434392 
L 191.099252 182.611238 
L 192.185053 152.541134 
L 193.270854 145.095034 
L 194.356656 162.95139 
L 195.442457 148.184183 
L 196.528258 131.077794 
L 197.614059 160.558638 
L 198.69986 169.361822 
L 199.785661 138.077486 
L 200.871462 144.166503 
L 201.957264 144.041509 
L 203.043065 167.397623 
L 204.128866 150.434084 
L 205.214667 156.648096 
L 206.300468 141.398768 
L 207.386269 143.041553 
L 208.472071 147.452073 
L 209.557872 161.469312 
L 210.643673 159.647964 
L 211.729474 142.648713 
L 212.815275 148.130614 
L 213.901076 155.523146 
L 214.986877 156.862372 
L 216.072679 168.272584 
L 217.15848 154.094637 
L 218.244281 157.790903 
L 219.330082 140.791652 
L 220.415883 145.11289 
L 221.501684 135.452601 
L 222.587486 181.932697 
L 223.673287 169.843944 
L 224.759088 151.219764 
L 225.844889 148.34489 
L 226.93069 144.987895 
L 228.016491 157.076649 
L 229.102292 149.576979 
L 230.188094 134.863341 
L 231.273895 139.505994 
L 232.359696 132.167032 
L 233.445497 165.040584 
L 234.531298 161.397887 
L 235.617099 148.773443 
L 236.702901 160.558638 
L 237.788702 159.380119 
L 238.874503 159.594395 
L 239.960304 160.612207 
L 241.046105 132.256313 
L 242.131906 172.058132 
L 243.217708 135.041905 
L 244.303509 169.326109 
L 245.38931 151.791167 
L 246.475111 137.041817 
L 247.560912 140.291674 
L 248.646713 131.059937 
L 249.732514 156.201687 
L 250.818316 142.523718 
L 251.904117 142.523718 
L 252.989918 142.363011 
L 254.075719 163.237092 
L 255.16152 156.683809 
L 256.247321 151.201907 
L 257.333123 158.826572 
L 258.418924 149.844824 
L 259.504725 163.790639 
L 260.590526 162.094285 
L 261.676327 156.2374 
L 262.762128 155.023168 
L 263.847929 141.809464 
L 264.933731 155.130306 
L 266.019532 165.861976 
L 267.105333 166.147678 
L 268.191134 159.826528 
L 269.276935 137.506082 
L 270.362736 156.023124 
L 271.448538 147.148515 
L 272.534339 163.379943 
L 273.62014 175.700829 
L 274.705941 180.361338 
L 275.791742 153.951786 
L 276.877543 151.094769 
L 277.963344 156.505245 
L 279.049146 159.844384 
L 280.134947 136.452557 
L 281.220748 158.630152 
L 282.306549 140.809508 
L 283.39235 163.469224 
L 284.478151 137.381088 
L 285.563953 142.291586 
L 286.649754 158.326594 
L 287.735555 152.701841 
L 288.821356 150.755499 
L 289.907157 162.005003 
L 290.992958 164.540606 
L 292.07876 143.00584 
L 293.164561 162.915677 
L 294.250362 165.183435 
L 295.336163 134.559783 
L 296.421964 131.363495 
L 297.507765 179.575658 
L 298.593566 157.737334 
L 299.679368 163.469224 
L 300.765169 139.131011 
L 301.85097 152.719698 
L 302.936771 171.040319 
L 304.022572 166.915501 
L 305.108373 136.916822 
L 306.194175 131.184932 
L 307.279976 134.202656 
L 308.365777 166.594087 
L 309.451578 163.004959 
L 310.537379 134.363363 
L 311.62318 180.307768 
L 312.708981 158.665864 
L 313.794783 128.863606 
L 314.880584 146.755675 
L 315.966385 152.148294 
L 317.052186 169.129689 
L 318.137987 143.612956 
L 319.223788 148.023476 
L 320.30959 161.112185 
L 321.395391 152.255433 
L 322.481192 154.451764 
L 323.566993 150.70193 
L 324.652794 140.488094 
L 325.738595 154.737466 
L 326.824396 143.684381 
L 327.910198 145.595012 
L 328.995999 162.201423 
L 330.0818 154.344626 
L 331.167601 175.665116 
L 332.253402 139.220292 
L 333.339203 155.987411 
L 334.425005 140.648801 
L 336.596607 160.933622 
L 337.682408 147.684205 
L 338.768209 128.935031 
L 339.85401 155.808847 
L 340.939811 137.202524 
L 342.025613 142.720138 
L 343.111414 154.987455 
L 344.197215 143.309398 
L 345.283016 165.951258 
L 346.368817 160.915765 
L 347.454618 158.808715 
L 348.54042 180.236343 
L 349.626221 152.505422 
L 350.712022 143.130834 
L 352.883624 155.469577 
L 353.969425 163.308517 
L 355.055227 148.952007 
L 356.141028 173.040231 
L 357.226829 155.380295 
L 358.31263 163.969202 
L 359.398431 161.558594 
L 360.484232 141.434481 
L 361.570033 175.932961 
L 362.655835 130.970656 
L 363.741636 159.630108 
L 364.827437 133.613396 
L 365.913238 149.987675 
L 366.999039 172.522397 
L 368.08484 154.862461 
L 369.170642 159.808671 
L 370.256443 145.595012 
L 371.342244 163.165666 
L 372.428045 163.129954 
L 373.513846 168.236872 
L 374.599647 140.952359 
L 375.685448 152.148294 
L 376.77125 147.916338 
L 377.857051 173.968762 
L 378.942852 153.380383 
L 380.028653 148.702018 
L 381.114454 167.540474 
L 383.286057 134.452645 
L 384.371858 158.14803 
L 385.457659 140.791652 
L 386.54346 154.71961 
L 387.629261 146.862813 
L 388.715062 170.79033 
L 389.800863 152.95183 
L 390.886665 160.808627 
L 391.972466 164.415611 
L 393.058267 155.45172 
L 395.229869 155.594571 
L 396.31567 139.398856 
L 397.401472 142.523718 
L 398.487273 167.665468 
L 398.487273 167.665468 
" clip-path="url(#p780793f479)" style="fill: none; stroke: #0000ff; stroke-width: 1.5; stroke-linecap: square"/>
   </g>
   <g id="line2d_28">
    <path d="M 73.832727 289.602997 
L 74.918528 295.488 
L 95.54875 295.488 
L 96.634552 246.959803 
L 97.720353 241.37429 
L 98.806154 238.211516 
L 99.891955 207.880884 
L 100.977756 236.658214 
L 102.063557 208.663794 
L 103.149358 253.376613 
L 104.23516 243.807339 
L 105.320961 240.710403 
L 106.406762 241.376664 
L 107.492563 222.861337 
L 108.578364 265.065192 
L 109.664165 234.296748 
L 110.749967 227.966523 
L 111.835768 228.267091 
L 112.921569 233.625122 
L 114.00737 239.711576 
L 115.093171 207.814081 
L 116.178972 223.016815 
L 117.264773 251.603546 
L 118.350575 256.703422 
L 119.436376 250.537242 
L 120.522177 255.121487 
L 121.607978 214.905033 
L 122.693779 244.827882 
L 123.77958 223.610783 
L 124.865382 216.229701 
L 125.951183 207.098973 
L 127.036984 245.587184 
L 128.122785 261.404242 
L 129.208586 231.538465 
L 130.294387 237.144707 
L 131.380189 218.164306 
L 133.551791 280.185868 
L 134.637592 223.488172 
L 135.723393 268.770412 
L 136.809194 238.327486 
L 137.894995 222.173239 
L 138.980797 229.306477 
L 140.066598 238.655373 
L 141.152399 253.413625 
L 142.2382 208.173348 
L 143.324001 240.738828 
L 144.409802 206.603543 
L 145.495604 217.595815 
L 146.581405 254.982617 
L 147.667206 229.084731 
L 148.753007 245.047293 
L 149.838808 242.977821 
L 150.924609 212.25736 
L 152.01041 255.936374 
L 153.096212 217.747019 
L 154.182013 247.769067 
L 155.267814 219.608832 
L 156.353615 256.449095 
L 157.439416 245.099568 
L 158.525217 220.502853 
L 159.611019 288.832664 
L 160.69682 239.405385 
L 161.782621 256.34481 
L 162.868422 208.516493 
L 163.954223 210.576877 
L 165.040024 227.944715 
L 166.125825 219.529075 
L 167.211627 229.303606 
L 168.297428 226.42131 
L 169.383229 267.072149 
L 170.46903 263.782436 
L 171.554831 231.886385 
L 172.640632 230.774012 
L 173.726434 262.147103 
L 174.812235 222.345471 
L 175.898036 254.767454 
L 176.983837 290.725227 
L 178.069638 247.310522 
L 179.155439 265.76464 
L 180.24124 223.540586 
L 181.327042 257.621801 
L 182.412843 202.248594 
L 183.498644 215.030867 
L 184.584445 256.50872 
L 185.670246 267.365605 
L 186.756047 267.14436 
L 187.841849 234.136233 
L 188.92765 196.850828 
L 190.013451 223.964382 
L 191.099252 282.94325 
L 192.185053 242.634372 
L 193.270854 234.444646 
L 194.356656 255.470584 
L 195.442457 231.78978 
L 196.528258 204.369896 
L 197.614059 249.269996 
L 198.69986 265.181926 
L 199.785661 218.811126 
L 200.871462 221.783894 
L 201.957264 227.34872 
L 203.043065 263.567052 
L 204.128866 239.553826 
L 205.214667 245.814273 
L 206.300468 225.564177 
L 207.386269 226.502239 
L 208.472071 233.001213 
L 209.557872 257.727165 
L 210.643673 252.913948 
L 211.729474 221.462358 
L 212.815275 227.295882 
L 213.901076 244.98941 
L 214.986877 247.77893 
L 216.072679 263.884443 
L 217.15848 239.768016 
L 218.244281 249.703424 
L 219.330082 218.645358 
L 220.415883 226.347271 
L 221.501684 207.695944 
L 222.587486 279.530817 
L 224.759088 239.032931 
L 225.844889 233.484749 
L 226.93069 234.668556 
L 228.016491 244.608508 
L 229.102292 237.509634 
L 230.188094 203.783788 
L 231.273895 215.922855 
L 232.359696 199.051873 
L 233.445497 259.129181 
L 234.531298 249.096713 
L 235.617099 229.660863 
L 236.702901 252.752044 
L 237.788702 252.729764 
L 238.874503 254.380747 
L 239.960304 252.298914 
L 241.046105 196.843828 
L 242.131906 268.412065 
L 243.217708 212.378896 
L 244.303509 259.740303 
L 245.38931 235.38195 
L 246.475111 216.701054 
L 247.560912 215.434107 
L 248.646713 199.834039 
L 249.732514 245.451367 
L 250.818316 224.758102 
L 251.904117 220.053725 
L 252.989918 225.894314 
L 254.075719 250.892651 
L 255.16152 244.610793 
L 256.247321 235.506086 
L 257.333123 249.749897 
L 258.418924 231.722146 
L 259.504725 262.116111 
L 260.590526 255.644936 
L 261.676327 244.775332 
L 262.762128 245.461777 
L 263.847929 219.948865 
L 264.933731 242.170153 
L 266.019532 261.016025 
L 267.105333 260.363466 
L 268.191134 246.113896 
L 269.276935 212.457436 
L 270.362736 248.67942 
L 271.448538 227.45436 
L 272.534339 255.855978 
L 273.62014 274.442283 
L 274.705941 280.572215 
L 275.791742 240.506372 
L 276.877543 238.808764 
L 277.963344 242.055226 
L 279.049146 250.963411 
L 280.134947 206.970401 
L 281.220748 246.16865 
L 282.306549 217.116221 
L 283.39235 257.87434 
L 284.478151 211.760537 
L 285.563953 226.307411 
L 286.649754 250.831213 
L 287.735555 238.442645 
L 288.821356 237.246278 
L 289.907157 256.514567 
L 290.992958 255.720652 
L 292.07876 226.719638 
L 293.164561 256.836325 
L 294.250362 257.264556 
L 295.336163 213.335748 
L 296.421964 200.863325 
L 297.507765 284.278371 
L 298.593566 253.017602 
L 299.679368 261.383649 
L 300.765169 217.437942 
L 302.936771 270.066147 
L 304.022572 263.729934 
L 305.108373 211.261961 
L 306.194175 204.888877 
L 307.279976 210.911163 
L 308.365777 262.145018 
L 309.451578 252.455474 
L 310.537379 210.827434 
L 311.62318 277.508734 
L 312.708981 250.035884 
L 313.794783 201.891179 
L 314.880584 230.193031 
L 315.966385 237.693579 
L 317.052186 258.5375 
L 318.137987 224.760617 
L 319.223788 237.418933 
L 320.30959 256.213839 
L 321.395391 239.640843 
L 322.481192 245.691562 
L 323.566993 235.362154 
L 324.652794 212.594893 
L 325.738595 243.834352 
L 326.824396 218.437718 
L 327.910198 226.619415 
L 328.995999 252.912327 
L 330.0818 245.362714 
L 331.167601 271.154434 
L 332.253402 220.092446 
L 333.339203 245.221041 
L 334.425005 220.193536 
L 335.510806 240.211173 
L 336.596607 253.558555 
L 337.682408 229.995919 
L 338.768209 196.744191 
L 339.85401 244.399235 
L 340.939811 210.837533 
L 342.025613 221.694303 
L 343.111414 241.952569 
L 344.197215 227.929503 
L 345.283016 261.061844 
L 346.368817 255.231155 
L 347.454618 250.214302 
L 348.54042 281.470119 
L 349.626221 240.754736 
L 350.712022 225.055247 
L 352.883624 250.008865 
L 353.969425 256.357922 
L 355.055227 235.37985 
L 356.141028 265.808662 
L 357.226829 240.009797 
L 358.31263 253.422776 
L 359.398431 251.603554 
L 360.484232 219.257997 
L 361.570033 273.498138 
L 362.655835 201.415274 
L 363.741636 250.886923 
L 364.827437 204.595726 
L 365.913238 233.365696 
L 366.999039 273.958618 
L 368.08484 248.13146 
L 369.170642 253.069399 
L 370.256443 231.970711 
L 371.342244 257.403972 
L 372.428045 255.531967 
L 373.513846 264.294492 
L 374.599647 220.53249 
L 375.685448 238.968309 
L 376.77125 235.128964 
L 377.857051 267.940542 
L 378.942852 237.013352 
L 380.028653 232.028901 
L 381.114454 266.037664 
L 382.200255 237.716197 
L 383.286057 215.33729 
L 384.371858 250.742362 
L 385.457659 220.794896 
L 386.54346 243.125664 
L 387.629261 226.337714 
L 388.715062 264.458411 
L 389.800863 237.073959 
L 390.886665 247.609845 
L 391.972466 251.102521 
L 393.058267 237.577996 
L 394.144068 244.434066 
L 395.229869 243.762108 
L 396.31567 213.218476 
L 397.401472 224.631993 
L 398.487273 257.601611 
L 398.487273 257.601611 
" clip-path="url(#p780793f479)" style="fill: none; stroke-dasharray: 9.6,2.4,1.5,2.4; stroke-dashoffset: 0; stroke: #008000; stroke-width: 1.5"/>
   </g>
   <g id="line2d_29">
    <path d="M 73.832727 109.260855 
L 74.918528 107.250682 
L 95.54875 107.250682 
L 96.634552 84.215066 
L 97.720353 74.064666 
L 98.806154 75.750856 
L 99.891955 65.309932 
L 100.977756 71.288074 
L 102.063557 69.462816 
L 103.149358 76.055895 
L 104.23516 72.060169 
L 106.406762 76.513163 
L 107.492563 70.185747 
L 108.578364 77.267622 
L 109.664165 74.142515 
L 110.749967 70.235582 
L 111.835768 67.779861 
L 114.00737 73.197728 
L 115.093171 67.356968 
L 116.178972 65.532568 
L 117.264773 68.539872 
L 118.350575 77.877547 
L 119.436376 68.800958 
L 120.522177 66.366764 
L 121.607978 61.104172 
L 122.693779 66.094465 
L 123.77958 65.900742 
L 124.865382 64.152489 
L 125.951183 60.949212 
L 127.036984 68.696359 
L 128.122785 72.783888 
L 129.208586 65.606835 
L 130.294387 66.241208 
L 131.380189 65.133207 
L 132.46599 72.042751 
L 133.551791 82.379863 
L 134.637592 71.862382 
L 135.723393 83.88119 
L 136.809194 64.577007 
L 137.894995 61.793888 
L 138.980797 60.419325 
L 140.066598 69.141062 
L 141.152399 69.787379 
L 142.2382 60.767655 
L 143.324001 64.022754 
L 144.409802 54.901927 
L 145.495604 54.630758 
L 146.581405 67.563168 
L 147.667206 56.462683 
L 148.753007 60.41311 
L 149.838808 63.425818 
L 150.924609 55.969389 
L 152.01041 65.699788 
L 153.096212 63.484759 
L 154.182013 72.669668 
L 155.267814 60.445384 
L 156.353615 73.129179 
L 157.439416 65.157543 
L 158.525217 55.973532 
L 159.611019 91.589423 
L 160.69682 64.998342 
L 161.782621 73.204168 
L 162.868422 56.232274 
L 163.954223 55.669567 
L 165.040024 59.924026 
L 166.125825 56.079273 
L 167.211627 62.885644 
L 168.297428 63.178447 
L 169.383229 78.186922 
L 170.46903 70.762821 
L 171.554831 64.517694 
L 172.640632 61.05884 
L 173.726434 77.076519 
L 174.812235 62.487689 
L 175.898036 77.885029 
L 176.983837 88.532346 
L 178.069638 68.378422 
L 179.155439 72.459026 
L 180.24124 59.792641 
L 181.327042 68.495255 
L 182.412843 60.049845 
L 183.498644 59.409894 
L 184.584445 64.822833 
L 185.670246 74.750747 
L 187.841849 59.375117 
L 188.92765 58.019366 
L 190.013451 62.904403 
L 191.099252 82.279227 
L 192.185053 62.447897 
L 193.270854 55.745421 
L 194.356656 70.432196 
L 195.442457 64.578587 
L 196.528258 57.785692 
L 197.614059 71.84728 
L 198.69986 73.541718 
L 199.785661 57.343845 
L 200.871462 66.549112 
L 201.957264 60.734297 
L 203.043065 71.228194 
L 204.128866 61.314342 
L 205.214667 67.48192 
L 206.300468 57.233359 
L 208.472071 61.902932 
L 209.557872 65.21146 
L 210.643673 66.38198 
L 211.729474 63.835068 
L 212.815275 68.965347 
L 213.901076 66.056882 
L 214.986877 65.945815 
L 216.072679 72.660726 
L 217.15848 68.421259 
L 218.244281 65.878382 
L 219.330082 62.937946 
L 220.415883 63.878509 
L 221.501684 63.209259 
L 222.587486 84.334577 
L 223.673287 79.427266 
L 224.759088 63.406596 
L 225.844889 63.205032 
L 226.93069 55.307234 
L 228.016491 69.54479 
L 229.102292 61.644324 
L 230.188094 65.942894 
L 231.273895 63.089133 
L 232.359696 65.28219 
L 233.445497 70.951987 
L 234.531298 73.699061 
L 235.617099 67.886023 
L 236.702901 68.365232 
L 237.788702 66.030474 
L 238.874503 64.808043 
L 239.960304 68.925501 
L 241.046105 67.668798 
L 242.131906 75.704198 
L 243.217708 57.704914 
L 244.303509 78.911916 
L 246.475111 57.382579 
L 247.560912 65.14924 
L 248.646713 62.285836 
L 249.732514 66.952008 
L 250.818316 60.289334 
L 251.904117 64.993711 
L 252.989918 58.831709 
L 254.075719 75.581533 
L 255.16152 68.756825 
L 256.247321 66.897729 
L 257.333123 67.903246 
L 258.418924 67.967503 
L 259.504725 65.465167 
L 260.590526 68.543634 
L 261.676327 67.699468 
L 262.762128 64.584558 
L 263.847929 63.670063 
L 264.933731 68.090459 
L 266.019532 70.707927 
L 267.105333 71.931889 
L 268.191134 73.539159 
L 269.276935 62.554728 
L 270.362736 63.366827 
L 271.448538 66.842669 
L 272.534339 70.903907 
L 273.62014 76.959374 
L 274.705941 80.15046 
L 275.791742 67.397201 
L 276.877543 63.380775 
L 277.963344 70.955265 
L 279.049146 68.725357 
L 280.134947 65.934713 
L 281.220748 71.091654 
L 282.306549 64.502795 
L 283.39235 69.064108 
L 284.478151 63.001638 
L 285.563953 58.275761 
L 286.649754 65.821974 
L 287.735555 66.961038 
L 288.821356 64.26472 
L 289.907157 67.49544 
L 290.992958 73.360559 
L 292.07876 59.292041 
L 293.164561 68.995029 
L 294.250362 73.102313 
L 295.336163 55.783818 
L 296.421964 61.863666 
L 297.507765 74.872945 
L 298.593566 62.457066 
L 299.679368 65.5548 
L 300.765169 60.824079 
L 301.85097 62.592138 
L 302.936771 72.014492 
L 304.022572 70.101068 
L 305.108373 62.571683 
L 306.194175 57.480987 
L 307.279976 57.494149 
L 308.365777 71.043155 
L 309.451578 73.554444 
L 310.537379 57.899293 
L 311.62318 83.106803 
L 312.708981 67.295845 
L 313.794783 55.836033 
L 314.880584 63.318319 
L 315.966385 66.60301 
L 317.052186 79.721878 
L 318.137987 62.465295 
L 319.223788 58.628019 
L 320.30959 66.010532 
L 321.395391 64.870022 
L 322.481192 63.211967 
L 323.566993 66.041705 
L 324.652794 68.381294 
L 325.738595 65.64058 
L 326.824396 68.931045 
L 327.910198 64.570608 
L 328.995999 71.490519 
L 330.0818 63.326539 
L 331.167601 80.175798 
L 332.253402 58.348138 
L 333.339203 66.753781 
L 334.425005 61.104066 
L 335.510806 60.549857 
L 336.596607 68.308689 
L 337.682408 65.372491 
L 338.768209 61.125871 
L 339.85401 67.21846 
L 340.939811 63.567515 
L 342.025613 63.745973 
L 343.111414 68.022341 
L 344.197215 58.689293 
L 345.283016 70.840671 
L 346.368817 66.600375 
L 347.454618 67.403129 
L 348.54042 79.002567 
L 349.626221 64.256107 
L 350.712022 61.206422 
L 351.797823 61.809136 
L 352.883624 60.930289 
L 353.969425 70.259112 
L 355.055227 62.524163 
L 356.141028 80.271801 
L 357.226829 70.750793 
L 358.31263 74.515629 
L 359.398431 71.513634 
L 360.484232 63.610964 
L 361.570033 78.367784 
L 362.655835 60.526037 
L 363.741636 68.373293 
L 364.827437 62.631067 
L 365.913238 66.609655 
L 366.999039 71.086176 
L 368.08484 61.593461 
L 369.170642 66.547944 
L 370.256443 59.219312 
L 371.342244 68.92736 
L 372.428045 70.72794 
L 373.513846 72.179251 
L 374.599647 61.372227 
L 375.685448 65.32828 
L 376.77125 60.703712 
L 377.857051 79.996982 
L 378.942852 69.747414 
L 380.028653 65.375134 
L 381.114454 69.043284 
L 382.200255 63.866226 
L 383.286057 53.568 
L 384.371858 65.553698 
L 385.457659 60.788407 
L 386.54346 66.313555 
L 387.629261 67.387911 
L 388.715062 77.12225 
L 389.800863 68.829701 
L 390.886665 74.007409 
L 391.972466 77.728702 
L 393.058267 73.325445 
L 394.144068 66.505087 
L 395.229869 67.427034 
L 396.31567 65.579236 
L 397.401472 60.415444 
L 398.487273 77.729325 
L 398.487273 77.729325 
" clip-path="url(#p780793f479)" style="fill: none; stroke-dasharray: 9.6,2.4,1.5,2.4; stroke-dashoffset: 0; stroke: #008000; stroke-width: 1.5"/>
   </g>
   <g id="line2d_30">
    <path d="M 73.832727 105.043226 
L 74.918528 95.22223 
L 96.634552 95.22223 
L 97.720353 91.650959 
L 104.23516 91.650959 
L 105.320961 85.401234 
L 107.492563 85.401234 
L 108.578364 84.508416 
L 110.749967 84.508416 
L 111.835768 72.901785 
L 141.152399 72.901785 
L 142.2382 65.759242 
L 218.244281 65.759242 
L 219.330082 64.866424 
L 398.487273 64.866424 
L 398.487273 64.866424 
" clip-path="url(#p780793f479)" style="fill: none; stroke: #ff0000; stroke-width: 1.5; stroke-linecap: square"/>
   </g>
   <g id="patch_3">
    <path d="M 57.6 307.584 
L 57.6 41.472 
" style="fill: none; stroke: #000000; stroke-width: 0.8; stroke-linejoin: miter; stroke-linecap: square"/>
   </g>
   <g id="patch_4">
    <path d="M 414.72 307.584 
L 414.72 41.472 
" style="fill: none; stroke: #000000; stroke-width: 0.8; stroke-linejoin: miter; stroke-linecap: square"/>
   </g>
   <g id="patch_5">
    <path d="M 57.6 307.584 
L 414.72 307.584 
" style="fill: none; stroke: #000000; stroke-width: 0.8; stroke-linejoin: miter; stroke-linecap: square"/>
   </g>
   <g id="patch_6">
    <path d="M 57.6 41.472 
L 414.72 41.472 
" style="fill: none; stroke: #000000; stroke-width: 0.8; stroke-linejoin: miter; stroke-linecap: square"/>
   </g>
   <g id="text_16">
    <!-- Population's average and best fitness -->
    <g transform="translate(123.529687 35.472) scale(0.12 -0.12)">
     <defs>
      <path id="DejaVuSans-50" d="M 1259 4147 
L 1259 2394 
L 2053 2394 
Q 2494 2394 2734 2622 
Q 2975 2850 2975 3272 
Q 2975 3691 2734 3919 
Q 2494 4147 2053 4147 
L 1259 4147 
z
M 628 4666 
L 2053 4666 
Q 2838 4666 3239 4311 
Q 3641 3956 3641 3272 
Q 3641 2581 3239 2228 
Q 2838 1875 2053 1875 
L 1259 1875 
L 1259 0 
L 628 0 
L 628 4666 
z
" transform="scale(0.015625)"/>
      <path id="DejaVuSans-70" d="M 1159 525 
L 1159 -1331 
L 581 -1331 
L 581 3500 
L 1159 3500 
L 1159 2969 
Q 1341 3281 1617 3432 
Q 1894 3584 2278 3584 
Q 2916 3584 3314 3078 
Q 3713 2572 3713 1747 
Q 3713 922 3314 415 
Q 2916 -91 2278 -91 
Q 1894 -91 1617 61 
Q 1341 213 1159 525 
z
M 3116 1747 
Q 3116 2381 2855 2742 
Q 2594 3103 2138 3103 
Q 1681 3103 1420 2742 
Q 1159 2381 1159 1747 
Q 1159 1113 1420 752 
Q 1681 391 2138 391 
Q 2594 391 2855 752 
Q 3116 1113 3116 1747 
z
" transform="scale(0.015625)"/>
      <path id="DejaVuSans-75" d="M 544 1381 
L 544 3500 
L 1119 3500 
L 1119 1403 
Q 1119 906 1312 657 
Q 1506 409 1894 409 
Q 2359 409 2629 706 
Q 2900 1003 2900 1516 
L 2900 3500 
L 3475 3500 
L 3475 0 
L 2900 0 
L 2900 538 
Q 2691 219 2414 64 
Q 2138 -91 1772 -91 
Q 1169 -91 856 284 
Q 544 659 544 1381 
z
M 1991 3584 
L 1991 3584 
z
" transform="scale(0.015625)"/>
      <path id="DejaVuSans-6c" d="M 603 4863 
L 1178 4863 
L 1178 0 
L 603 0 
L 603 4863 
z
" transform="scale(0.015625)"/>
      <path id="DejaVuSans-27" d="M 1147 4666 
L 1147 2931 
L 616 2931 
L 616 4666 
L 1147 4666 
z
" transform="scale(0.015625)"/>
      <path id="DejaVuSans-20" transform="scale(0.015625)"/>
      <path id="DejaVuSans-76" d="M 191 3500 
L 800 3500 
L 1894 563 
L 2988 3500 
L 3597 3500 
L 2284 0 
L 1503 0 
L 191 3500 
z
" transform="scale(0.015625)"/>
      <path id="DejaVuSans-67" d="M 2906 1791 
Q 2906 2416 2648 2759 
Q 2391 3103 1925 3103 
Q 1463 3103 1205 2759 
Q 947 2416 947 1791 
Q 947 1169 1205 825 
Q 1463 481 1925 481 
Q 2391 481 2648 825 
Q 2906 1169 2906 1791 
z
M 3481 434 
Q 3481 -459 3084 -895 
Q 2688 -1331 1869 -1331 
Q 1566 -1331 1297 -1286 
Q 1028 -1241 775 -1147 
L 775 -588 
Q 1028 -725 1275 -790 
Q 1522 -856 1778 -856 
Q 2344 -856 2625 -561 
Q 2906 -266 2906 331 
L 2906 616 
Q 2728 306 2450 153 
Q 2172 0 1784 0 
Q 1141 0 747 490 
Q 353 981 353 1791 
Q 353 2603 747 3093 
Q 1141 3584 1784 3584 
Q 2172 3584 2450 3431 
Q 2728 3278 2906 2969 
L 2906 3500 
L 3481 3500 
L 3481 434 
z
" transform="scale(0.015625)"/>
      <path id="DejaVuSans-64" d="M 2906 2969 
L 2906 4863 
L 3481 4863 
L 3481 0 
L 2906 0 
L 2906 525 
Q 2725 213 2448 61 
Q 2172 -91 1784 -91 
Q 1150 -91 751 415 
Q 353 922 353 1747 
Q 353 2572 751 3078 
Q 1150 3584 1784 3584 
Q 2172 3584 2448 3432 
Q 2725 3281 2906 2969 
z
M 947 1747 
Q 947 1113 1208 752 
Q 1469 391 1925 391 
Q 2381 391 2643 752 
Q 2906 1113 2906 1747 
Q 2906 2381 2643 2742 
Q 2381 3103 1925 3103 
Q 1469 3103 1208 2742 
Q 947 2381 947 1747 
z
" transform="scale(0.015625)"/>
      <path id="DejaVuSans-62" d="M 3116 1747 
Q 3116 2381 2855 2742 
Q 2594 3103 2138 3103 
Q 1681 3103 1420 2742 
Q 1159 2381 1159 1747 
Q 1159 1113 1420 752 
Q 1681 391 2138 391 
Q 2594 391 2855 752 
Q 3116 1113 3116 1747 
z
M 1159 2969 
Q 1341 3281 1617 3432 
Q 1894 3584 2278 3584 
Q 2916 3584 3314 3078 
Q 3713 2572 3713 1747 
Q 3713 922 3314 415 
Q 2916 -91 2278 -91 
Q 1894 -91 1617 61 
Q 1341 213 1159 525 
L 1159 0 
L 581 0 
L 581 4863 
L 1159 4863 
L 1159 2969 
z
" transform="scale(0.015625)"/>
      <path id="DejaVuSans-66" d="M 2375 4863 
L 2375 4384 
L 1825 4384 
Q 1516 4384 1395 4259 
Q 1275 4134 1275 3809 
L 1275 3500 
L 2222 3500 
L 2222 3053 
L 1275 3053 
L 1275 0 
L 697 0 
L 697 3053 
L 147 3053 
L 147 3500 
L 697 3500 
L 697 3744 
Q 697 4328 969 4595 
Q 1241 4863 1831 4863 
L 2375 4863 
z
" transform="scale(0.015625)"/>
     </defs>
     <use xlink:href="#DejaVuSans-50"/>
     <use xlink:href="#DejaVuSans-6f" x="56.677734"/>
     <use xlink:href="#DejaVuSans-70" x="117.859375"/>
     <use xlink:href="#DejaVuSans-75" x="181.335938"/>
     <use xlink:href="#DejaVuSans-6c" x="244.714844"/>
     <use xlink:href="#DejaVuSans-61" x="272.498047"/>
     <use xlink:href="#DejaVuSans-74" x="333.777344"/>
     <use xlink:href="#DejaVuSans-69" x="372.986328"/>
     <use xlink:href="#DejaVuSans-6f" x="400.769531"/>
     <use xlink:href="#DejaVuSans-6e" x="461.951172"/>
     <use xlink:href="#DejaVuSans-27" x="525.330078"/>
     <use xlink:href="#DejaVuSans-73" x="552.820312"/>
     <use xlink:href="#DejaVuSans-20" x="604.919922"/>
     <use xlink:href="#DejaVuSans-61" x="636.707031"/>
     <use xlink:href="#DejaVuSans-76" x="697.986328"/>
     <use xlink:href="#DejaVuSans-65" x="757.166016"/>
     <use xlink:href="#DejaVuSans-72" x="818.689453"/>
     <use xlink:href="#DejaVuSans-61" x="859.802734"/>
     <use xlink:href="#DejaVuSans-67" x="921.082031"/>
     <use xlink:href="#DejaVuSans-65" x="984.558594"/>
     <use xlink:href="#DejaVuSans-20" x="1046.082031"/>
     <use xlink:href="#DejaVuSans-61" x="1077.869141"/>
     <use xlink:href="#DejaVuSans-6e" x="1139.148438"/>
     <use xlink:href="#DejaVuSans-64" x="1202.527344"/>
     <use xlink:href="#DejaVuSans-20" x="1266.003906"/>
     <use xlink:href="#DejaVuSans-62" x="1297.791016"/>
     <use xlink:href="#DejaVuSans-65" x="1361.267578"/>
     <use xlink:href="#DejaVuSans-73" x="1422.791016"/>
     <use xlink:href="#DejaVuSans-74" x="1474.890625"/>
     <use xlink:href="#DejaVuSans-20" x="1514.099609"/>
     <use xlink:href="#DejaVuSans-66" x="1545.886719"/>
     <use xlink:href="#DejaVuSans-69" x="1581.091797"/>
     <use xlink:href="#DejaVuSans-74" x="1608.875"/>
     <use xlink:href="#DejaVuSans-6e" x="1648.083984"/>
     <use xlink:href="#DejaVuSans-65" x="1711.462891"/>
     <use xlink:href="#DejaVuSans-73" x="1772.986328"/>
     <use xlink:href="#DejaVuSans-73" x="1825.085938"/>
    </g>
   </g>
   <g id="legend_1">
    <g id="patch_7">
     <path d="M 334.779375 302.584 
L 407.72 302.584 
Q 409.72 302.584 409.72 300.584 
L 409.72 242.8715 
Q 409.72 240.8715 407.72 240.8715 
L 334.779375 240.8715 
Q 332.779375 240.8715 332.779375 242.8715 
L 332.779375 300.584 
Q 332.779375 302.584 334.779375 302.584 
z
" style="fill: #ffffff; opacity: 0.8; stroke: #cccccc; stroke-linejoin: miter"/>
    </g>
    <g id="line2d_31">
     <path d="M 336.779375 248.969937 
L 346.779375 248.969937 
L 356.779375 248.969937 
" style="fill: none; stroke: #0000ff; stroke-width: 1.5; stroke-linecap: square"/>
    </g>
    <g id="text_17">
     <!-- average -->
     <g transform="translate(364.779375 252.469937) scale(0.1 -0.1)">
      <use xlink:href="#DejaVuSans-61"/>
      <use xlink:href="#DejaVuSans-76" x="61.279297"/>
      <use xlink:href="#DejaVuSans-65" x="120.458984"/>
      <use xlink:href="#DejaVuSans-72" x="181.982422"/>
      <use xlink:href="#DejaVuSans-61" x="223.095703"/>
      <use xlink:href="#DejaVuSans-67" x="284.375"/>
      <use xlink:href="#DejaVuSans-65" x="347.851562"/>
     </g>
    </g>
    <g id="line2d_32">
     <path d="M 336.779375 263.648062 
L 346.779375 263.648062 
L 356.779375 263.648062 
" style="fill: none; stroke-dasharray: 9.6,2.4,1.5,2.4; stroke-dashoffset: 0; stroke: #008000; stroke-width: 1.5"/>
    </g>
    <g id="text_18">
     <!-- -1 sd -->
     <g transform="translate(364.779375 267.148062) scale(0.1 -0.1)">
      <defs>
       <path id="DejaVuSans-2d" d="M 313 2009 
L 1997 2009 
L 1997 1497 
L 313 1497 
L 313 2009 
z
" transform="scale(0.015625)"/>
      </defs>
      <use xlink:href="#DejaVuSans-2d"/>
      <use xlink:href="#DejaVuSans-31" x="36.083984"/>
      <use xlink:href="#DejaVuSans-20" x="99.707031"/>
      <use xlink:href="#DejaVuSans-73" x="131.494141"/>
      <use xlink:href="#DejaVuSans-64" x="183.59375"/>
     </g>
    </g>
    <g id="line2d_33">
     <path d="M 336.779375 278.326187 
L 346.779375 278.326187 
L 356.779375 278.326187 
" style="fill: none; stroke-dasharray: 9.6,2.4,1.5,2.4; stroke-dashoffset: 0; stroke: #008000; stroke-width: 1.5"/>
    </g>
    <g id="text_19">
     <!-- +1 sd -->
     <g transform="translate(364.779375 281.826187) scale(0.1 -0.1)">
      <defs>
       <path id="DejaVuSans-2b" d="M 2944 4013 
L 2944 2272 
L 4684 2272 
L 4684 1741 
L 2944 1741 
L 2944 0 
L 2419 0 
L 2419 1741 
L 678 1741 
L 678 2272 
L 2419 2272 
L 2419 4013 
L 2944 4013 
z
" transform="scale(0.015625)"/>
      </defs>
      <use xlink:href="#DejaVuSans-2b"/>
      <use xlink:href="#DejaVuSans-31" x="83.789062"/>
      <use xlink:href="#DejaVuSans-20" x="147.412109"/>
      <use xlink:href="#DejaVuSans-73" x="179.199219"/>
      <use xlink:href="#DejaVuSans-64" x="231.298828"/>
     </g>
    </g>
    <g id="line2d_34">
     <path d="M 336.779375 293.004312 
L 346.779375 293.004312 
L 356.779375 293.004312 
" style="fill: none; stroke: #ff0000; stroke-width: 1.5; stroke-linecap: square"/>
    </g>
    <g id="text_20">
     <!-- best -->
     <g transform="translate(364.779375 296.504312) scale(0.1 -0.1)">
      <use xlink:href="#DejaVuSans-62"/>
      <use xlink:href="#DejaVuSans-65" x="63.476562"/>
      <use xlink:href="#DejaVuSans-73" x="125"/>
      <use xlink:href="#DejaVuSans-74" x="177.099609"/>
     </g>
    </g>
   </g>
  </g>
 </g>
 <defs>
  <clipPath id="p780793f479">
   <rect x="57.6" y="41.472" width="357.12" height="266.112"/>
  </clipPath>
 </defs>
</svg>
