<?xml version="1.0" encoding="UTF-8" standalone="no"?>
<!DOCTYPE svg PUBLIC "-//W3C//DTD SVG 1.1//EN"
 "http://www.w3.org/Graphics/SVG/1.1/DTD/svg11.dtd">
<!-- Generated by graphviz version 8.0.3 (20230416.2022)
 -->
<!-- Pages: 1 -->
<svg width="657pt" height="205pt"
 viewBox="0.00 0.00 656.50 205.48" xmlns="http://www.w3.org/2000/svg" xmlns:xlink="http://www.w3.org/1999/xlink">
<g id="graph0" class="graph" transform="scale(1 1) rotate(0) translate(4 201.48)">
<polygon fill="white" stroke="none" points="-4,4 -4,-201.48 652.5,-201.48 652.5,4 -4,4"/>
<!-- 0&#45;Pregnancies -->
<g id="node1" class="node">
<title>0&#45;Pregnancies</title>
<polygon fill="lightgray" stroke="black" points="66,-197.48 0,-197.48 0,-179.48 66,-179.48 66,-197.48"/>
<text text-anchor="middle" x="33" y="-186.28" font-family="Times New Roman,serif" font-size="9.00">0&#45;Pregnancies</text>
</g>
<!-- 66 -->
<g id="node10" class="node">
<title>66</title>
<ellipse fill="white" stroke="black" cx="194" cy="-125.1" rx="18.27" ry="18.27"/>
<text text-anchor="middle" x="194" y="-122.9" font-family="Times New Roman,serif" font-size="9.00">66</text>
</g>
<!-- 0&#45;Pregnancies&#45;&gt;66 -->
<g id="edge1" class="edge">
<title>0&#45;Pregnancies&#45;&gt;66</title>
<path fill="none" stroke="green" stroke-width="0.41" d="M55.05,-179.07C84.55,-167.83 136.78,-147.91 168.11,-135.97"/>
<polygon fill="green" stroke="green" stroke-width="0.41" points="169.02,-139.36 177.12,-132.53 166.53,-132.82 169.02,-139.36"/>
</g>
<!-- 1&#45;Glucose -->
<g id="node2" class="node">
<title>1&#45;Glucose</title>
<polygon fill="lightgray" stroke="black" points="137.5,-197.48 84.5,-197.48 84.5,-179.48 137.5,-179.48 137.5,-197.48"/>
<text text-anchor="middle" x="111" y="-186.28" font-family="Times New Roman,serif" font-size="9.00">1&#45;Glucose</text>
</g>
<!-- 1&#45;Glucose&#45;&gt;66 -->
<g id="edge2" class="edge">
<title>1&#45;Glucose&#45;&gt;66</title>
<path fill="none" stroke="red" stroke-width="0.73" d="M122.19,-179.2C134.62,-170.01 155.02,-154.92 170.91,-143.17"/>
<polygon fill="red" stroke="red" stroke-width="0.73" points="173.69,-145.47 179.65,-136.71 169.53,-139.84 173.69,-145.47"/>
</g>
<!-- 68 -->
<g id="node11" class="node">
<title>68</title>
<ellipse fill="white" stroke="black" cx="272" cy="-125.1" rx="18.27" ry="18.27"/>
<text text-anchor="middle" x="272" y="-122.9" font-family="Times New Roman,serif" font-size="9.00">68</text>
</g>
<!-- 1&#45;Glucose&#45;&gt;68 -->
<g id="edge3" class="edge">
<title>1&#45;Glucose&#45;&gt;68</title>
<path fill="none" stroke="red" stroke-width="0.63" stroke-dasharray="1,5" d="M133.05,-179.07C162.55,-167.83 214.78,-147.91 246.11,-135.97"/>
<polygon fill="red" stroke="red" stroke-width="0.63" points="247.02,-139.36 255.12,-132.53 244.53,-132.82 247.02,-139.36"/>
</g>
<!-- 2&#45;BloodPressure -->
<g id="node3" class="node">
<title>2&#45;BloodPressure</title>
<polygon fill="lightgray" stroke="black" points="232.5,-197.48 155.5,-197.48 155.5,-179.48 232.5,-179.48 232.5,-197.48"/>
<text text-anchor="middle" x="194" y="-186.28" font-family="Times New Roman,serif" font-size="9.00">2&#45;BloodPressure</text>
</g>
<!-- 2&#45;BloodPressure&#45;&gt;66 -->
<g id="edge4" class="edge">
<title>2&#45;BloodPressure&#45;&gt;66</title>
<path fill="none" stroke="green" stroke-width="1.3" d="M194,-179.2C194,-172.85 194,-163.68 194,-154.75"/>
<polygon fill="green" stroke="green" stroke-width="1.3" points="197.5,-154.79 194,-144.79 190.5,-154.79 197.5,-154.79"/>
</g>
<!-- 2&#45;BloodPressure&#45;&gt;68 -->
<g id="edge5" class="edge">
<title>2&#45;BloodPressure&#45;&gt;68</title>
<path fill="none" stroke="red" stroke-width="0.18" stroke-dasharray="1,5" d="M204.52,-179.2C216.17,-170.03 235.27,-155 250.18,-143.27"/>
<polygon fill="red" stroke="red" stroke-width="0.18" points="252.27,-146.08 257.96,-137.14 247.94,-140.58 252.27,-146.08"/>
</g>
<!-- 3&#45;SkinThickness -->
<g id="node4" class="node">
<title>3&#45;SkinThickness</title>
<polygon fill="lightgray" stroke="black" points="648.5,-197.48 571.5,-197.48 571.5,-179.48 648.5,-179.48 648.5,-197.48"/>
<text text-anchor="middle" x="610" y="-186.28" font-family="Times New Roman,serif" font-size="9.00">3&#45;SkinThickness</text>
</g>
<!-- 4&#45;Insulin -->
<g id="node5" class="node">
<title>4&#45;Insulin</title>
<polygon fill="lightgray" stroke="black" points="360.5,-197.48 311.5,-197.48 311.5,-179.48 360.5,-179.48 360.5,-197.48"/>
<text text-anchor="middle" x="336" y="-186.28" font-family="Times New Roman,serif" font-size="9.00">4&#45;Insulin</text>
</g>
<!-- 4&#45;Insulin&#45;&gt;68 -->
<g id="edge6" class="edge">
<title>4&#45;Insulin&#45;&gt;68</title>
<path fill="none" stroke="green" stroke-width="0.25" stroke-dasharray="1,5" d="M327.37,-179.2C318.33,-170.53 303.81,-156.61 291.91,-145.19"/>
<polygon fill="green" stroke="green" stroke-width="0.25" points="294.55,-142.88 284.91,-138.48 289.71,-147.93 294.55,-142.88"/>
</g>
<!-- 5&#45;BMI -->
<g id="node6" class="node">
<title>5&#45;BMI</title>
<polygon fill="lightgray" stroke="black" points="293,-197.48 251,-197.48 251,-179.48 293,-179.48 293,-197.48"/>
<text text-anchor="middle" x="272" y="-186.28" font-family="Times New Roman,serif" font-size="9.00">5&#45;BMI</text>
</g>
<!-- 5&#45;BMI&#45;&gt;66 -->
<g id="edge7" class="edge">
<title>5&#45;BMI&#45;&gt;66</title>
<path fill="none" stroke="red" stroke-width="0.15" d="M261.48,-179.2C249.83,-170.03 230.73,-155 215.82,-143.27"/>
<polygon fill="red" stroke="red" stroke-width="0.15" points="218.06,-140.58 208.04,-137.14 213.73,-146.08 218.06,-140.58"/>
</g>
<!-- 5&#45;BMI&#45;&gt;68 -->
<g id="edge8" class="edge">
<title>5&#45;BMI&#45;&gt;68</title>
<path fill="none" stroke="green" stroke-width="0.13" d="M272,-179.2C272,-172.57 272,-162.86 272,-153.56"/>
<polygon fill="green" stroke="green" stroke-width="0.13" points="275.5,-153.79 272,-143.79 268.5,-153.79 275.5,-153.79"/>
</g>
<!-- 6&#45;DiabetesPedigreeFunction -->
<g id="node7" class="node">
<title>6&#45;DiabetesPedigreeFunction</title>
<polygon fill="lightgray" stroke="black" points="497,-197.48 379,-197.48 379,-179.48 497,-179.48 497,-197.48"/>
<text text-anchor="middle" x="438" y="-186.28" font-family="Times New Roman,serif" font-size="9.00">6&#45;DiabetesPedigreeFunction</text>
</g>
<!-- 6&#45;DiabetesPedigreeFunction&#45;&gt;68 -->
<g id="edge9" class="edge">
<title>6&#45;DiabetesPedigreeFunction&#45;&gt;68</title>
<path fill="none" stroke="red" stroke-width="0.28" d="M415.27,-179.07C384.69,-167.77 330.43,-147.7 298.18,-135.78"/>
<polygon fill="red" stroke="red" stroke-width="0.28" points="299.52,-132.54 288.93,-132.36 297.09,-139.11 299.52,-132.54"/>
</g>
<!-- 7&#45;Age -->
<g id="node8" class="node">
<title>7&#45;Age</title>
<polygon fill="lightgray" stroke="black" points="553,-197.48 515,-197.48 515,-179.48 553,-179.48 553,-197.48"/>
<text text-anchor="middle" x="534" y="-186.28" font-family="Times New Roman,serif" font-size="9.00">7&#45;Age</text>
</g>
<!-- 7&#45;Age&#45;&gt;68 -->
<g id="edge10" class="edge">
<title>7&#45;Age&#45;&gt;68</title>
<path fill="none" stroke="red" stroke-width="0.4" stroke-dasharray="1,5" d="M514.76,-181.83C511.83,-181.02 508.84,-180.21 506,-179.48 431.83,-160.44 343.57,-141.23 299.66,-131.9"/>
<polygon fill="red" stroke="red" stroke-width="0.4" points="300.5,-128.5 289.99,-129.85 299.05,-135.35 300.5,-128.5"/>
</g>
<!-- Outcome -->
<g id="node9" class="node">
<title>Outcome</title>
<ellipse fill="lightblue" stroke="black" cx="233" cy="-35.36" rx="35.21" ry="35.21"/>
<text text-anchor="middle" x="233" y="-33.16" font-family="Times New Roman,serif" font-size="9.00">Outcome</text>
</g>
<!-- 66&#45;&gt;Outcome -->
<g id="edge11" class="edge">
<title>66&#45;&gt;Outcome</title>
<path fill="none" stroke="red" stroke-width="1.68" d="M201.15,-108C204.84,-99.7 209.53,-89.15 214.17,-78.72"/>
<polygon fill="red" stroke="red" stroke-width="1.68" points="217.08,-80.54 217.94,-69.98 210.68,-77.7 217.08,-80.54"/>
</g>
<!-- 68&#45;&gt;Outcome -->
<g id="edge12" class="edge">
<title>68&#45;&gt;Outcome</title>
<path fill="none" stroke="green" stroke-width="0.55" d="M264.85,-108C260.96,-99.27 255.97,-88.04 251.1,-77.07"/>
<polygon fill="green" stroke="green" stroke-width="0.55" points="254.32,-75.7 247.06,-67.98 247.92,-78.54 254.32,-75.7"/>
</g>
</g>
</svg>
