<?xml version="1.0" encoding="UTF-8" standalone="no"?>
<!DOCTYPE svg PUBLIC "-//W3C//DTD SVG 1.1//EN"
 "http://www.w3.org/Graphics/SVG/1.1/DTD/svg11.dtd">
<!-- Generated by graphviz version 8.0.3 (20230416.2022)
 -->
<!-- Pages: 1 -->
<svg width="325pt" height="203pt"
 viewBox="0.00 0.00 325.00 202.65" xmlns="http://www.w3.org/2000/svg" xmlns:xlink="http://www.w3.org/1999/xlink">
<g id="graph0" class="graph" transform="scale(1 1) rotate(0) translate(4 198.65)">
<polygon fill="white" stroke="none" points="-4,4 -4,-198.65 321,-198.65 321,4 -4,4"/>
<!-- A -->
<g id="node1" class="node">
<title>A</title>
<polygon fill="lightgray" stroke="black" points="107.5,-194.65 84.5,-194.65 84.5,-176.65 107.5,-176.65 107.5,-194.65"/>
<text text-anchor="middle" x="96" y="-183.45" font-family="Times New Roman,serif" font-size="9.00">A</text>
</g>
<!-- 5 -->
<g id="node10" class="node">
<title>5</title>
<ellipse fill="white" stroke="black" cx="134" cy="-125.8" rx="14.7" ry="14.7"/>
<text text-anchor="middle" x="134" y="-123.6" font-family="Times New Roman,serif" font-size="9.00">5</text>
</g>
<!-- A&#45;&gt;5 -->
<g id="edge1" class="edge">
<title>A&#45;&gt;5</title>
<path fill="none" stroke="red" stroke-width="0.23" d="M101.28,-176.61C106.38,-168.85 114.3,-156.79 121.07,-146.48"/>
<polygon fill="red" stroke="red" stroke-width="0.23" points="123.84,-148.65 126.4,-138.37 117.99,-144.81 123.84,-148.65"/>
</g>
<!-- 6 -->
<g id="node11" class="node">
<title>6</title>
<ellipse fill="white" stroke="black" cx="182" cy="-125.8" rx="14.7" ry="14.7"/>
<text text-anchor="middle" x="182" y="-123.6" font-family="Times New Roman,serif" font-size="9.00">6</text>
</g>
<!-- A&#45;&gt;6 -->
<g id="edge2" class="edge">
<title>A&#45;&gt;6</title>
<path fill="none" stroke="green" stroke-width="0.45" d="M107.96,-176.61C121.95,-167.2 145.33,-151.47 162.08,-140.2"/>
<polygon fill="green" stroke="green" stroke-width="0.45" points="163.8,-143.26 170.14,-134.78 159.89,-137.46 163.8,-143.26"/>
</g>
<!-- B -->
<g id="node2" class="node">
<title>B</title>
<polygon fill="lightgray" stroke="black" points="148.5,-194.65 125.5,-194.65 125.5,-176.65 148.5,-176.65 148.5,-194.65"/>
<text text-anchor="middle" x="137" y="-183.45" font-family="Times New Roman,serif" font-size="9.00">B</text>
</g>
<!-- B&#45;&gt;5 -->
<g id="edge3" class="edge">
<title>B&#45;&gt;5</title>
<path fill="none" stroke="red" stroke-width="0.17" d="M136.58,-176.61C136.23,-169.84 135.71,-159.81 135.23,-150.52"/>
<polygon fill="red" stroke="red" stroke-width="0.17" points="138.73,-150.36 134.71,-140.56 131.74,-150.73 138.73,-150.36"/>
</g>
<!-- B&#45;&gt;6 -->
<g id="edge4" class="edge">
<title>B&#45;&gt;6</title>
<path fill="none" stroke="red" stroke-width="0.42" d="M143.26,-176.61C149.43,-168.67 159.1,-156.24 167.23,-145.79"/>
<polygon fill="red" stroke="red" stroke-width="0.42" points="169.95,-147.99 173.33,-137.95 164.43,-143.69 169.95,-147.99"/>
</g>
<!-- &#45;3 -->
<g id="node3" class="node">
<title>&#45;3</title>
<polygon fill="lightgray" stroke="black" points="191,-194.65 167,-194.65 167,-176.65 191,-176.65 191,-194.65"/>
<text text-anchor="middle" x="179" y="-183.45" font-family="Times New Roman,serif" font-size="9.00">&#45;3</text>
</g>
<!-- &#45;3&#45;&gt;5 -->
<g id="edge5" class="edge">
<title>&#45;3&#45;&gt;5</title>
<path fill="none" stroke="red" stroke-width="0.3" d="M172.74,-176.61C166.57,-168.67 156.9,-156.24 148.77,-145.79"/>
<polygon fill="red" stroke="red" stroke-width="0.3" points="151.57,-143.69 142.67,-137.95 146.05,-147.99 151.57,-143.69"/>
</g>
<!-- &#45;3&#45;&gt;6 -->
<g id="edge6" class="edge">
<title>&#45;3&#45;&gt;6</title>
<path fill="none" stroke="red" stroke-width="0.49" d="M179.42,-176.61C179.77,-169.84 180.29,-159.81 180.77,-150.52"/>
<polygon fill="red" stroke="red" stroke-width="0.49" points="184.26,-150.73 181.29,-140.56 177.27,-150.36 184.26,-150.73"/>
</g>
<!-- &#45;4 -->
<g id="node4" class="node">
<title>&#45;4</title>
<polygon fill="lightgray" stroke="black" points="233,-194.65 209,-194.65 209,-176.65 233,-176.65 233,-194.65"/>
<text text-anchor="middle" x="221" y="-183.45" font-family="Times New Roman,serif" font-size="9.00">&#45;4</text>
</g>
<!-- &#45;4&#45;&gt;5 -->
<g id="edge7" class="edge">
<title>&#45;4&#45;&gt;5</title>
<path fill="none" stroke="red" stroke-width="0.61" d="M208.54,-176.36C194.37,-166.95 171.05,-151.44 154.26,-140.27"/>
<polygon fill="red" stroke="red" stroke-width="0.61" points="156.43,-137.51 146.16,-134.89 152.55,-143.34 156.43,-137.51"/>
</g>
<!-- &#45;4&#45;&gt;6 -->
<g id="edge8" class="edge">
<title>&#45;4&#45;&gt;6</title>
<path fill="none" stroke="red" stroke-width="0.15" d="M215.58,-176.61C210.34,-168.85 202.22,-156.79 195.27,-146.48"/>
<polygon fill="red" stroke="red" stroke-width="0.15" points="198.29,-144.71 189.8,-138.37 192.49,-148.62 198.29,-144.71"/>
</g>
<!-- &#45;5 -->
<g id="node5" class="node">
<title>&#45;5</title>
<polygon fill="lightgray" stroke="black" points="275,-194.65 251,-194.65 251,-176.65 275,-176.65 275,-194.65"/>
<text text-anchor="middle" x="263" y="-183.45" font-family="Times New Roman,serif" font-size="9.00">&#45;5</text>
</g>
<!-- &#45;5&#45;&gt;5 -->
<g id="edge9" class="edge">
<title>&#45;5&#45;&gt;5</title>
<path fill="none" stroke="green" stroke-width="0.11" d="M250.53,-179.66C226.62,-170.04 175.18,-149.16 158,-140.65 156.88,-140.1 155.75,-139.52 154.61,-138.92"/>
<polygon fill="green" stroke="green" stroke-width="0.11" points="156.49,-135.95 146.05,-134.15 153.08,-142.07 156.49,-135.95"/>
</g>
<!-- &#45;5&#45;&gt;6 -->
<g id="edge10" class="edge">
<title>&#45;5&#45;&gt;6</title>
<path fill="none" stroke="green" stroke-width="0.16" d="M251.39,-176.36C238.48,-167.14 217.37,-152.07 201.83,-140.96"/>
<polygon fill="green" stroke="green" stroke-width="0.16" points="204.02,-138.23 193.85,-135.26 199.95,-143.92 204.02,-138.23"/>
</g>
<!-- &#45;6 -->
<g id="node6" class="node">
<title>&#45;6</title>
<polygon fill="lightgray" stroke="black" points="317,-194.65 293,-194.65 293,-176.65 317,-176.65 317,-194.65"/>
<text text-anchor="middle" x="305" y="-183.45" font-family="Times New Roman,serif" font-size="9.00">&#45;6</text>
</g>
<!-- &#45;6&#45;&gt;5 -->
<g id="edge11" class="edge">
<title>&#45;6&#45;&gt;5</title>
<path fill="none" stroke="red" stroke-width="0.1" d="M292.63,-179.74C289.81,-178.67 286.81,-177.59 284,-176.65 228.74,-158.27 211.62,-163.38 158,-140.65 156.85,-140.17 155.69,-139.64 154.54,-139.08"/>
<polygon fill="red" stroke="red" stroke-width="0.1" points="156.38,-136.09 145.91,-134.45 153.06,-142.26 156.38,-136.09"/>
</g>
<!-- &#45;6&#45;&gt;6 -->
<g id="edge12" class="edge">
<title>&#45;6&#45;&gt;6</title>
<path fill="none" stroke="red" stroke-width="0.31" d="M292.76,-178.89C272.08,-169.17 229.98,-149.37 204.06,-137.18"/>
<polygon fill="red" stroke="red" stroke-width="0.31" points="205.84,-134.15 195.31,-133.06 202.87,-140.48 205.84,-134.15"/>
</g>
<!-- &#45;7 -->
<g id="node7" class="node">
<title>&#45;7</title>
<polygon fill="lightgray" stroke="black" points="24,-194.65 0,-194.65 0,-176.65 24,-176.65 24,-194.65"/>
<text text-anchor="middle" x="12" y="-183.45" font-family="Times New Roman,serif" font-size="9.00">&#45;7</text>
</g>
<!-- &#45;7&#45;&gt;5 -->
<g id="edge13" class="edge">
<title>&#45;7&#45;&gt;5</title>
<path fill="none" stroke="red" stroke-width="0.32" d="M24.14,-178.89C44.56,-169.21 86.04,-149.54 111.78,-137.34"/>
<polygon fill="red" stroke="red" stroke-width="0.32" points="113.27,-140.51 120.8,-133.06 110.27,-134.18 113.27,-140.51"/>
</g>
<!-- &#45;7&#45;&gt;6 -->
<g id="edge14" class="edge">
<title>&#45;7&#45;&gt;6</title>
<path fill="none" stroke="red" stroke-width="0.25" d="M24.38,-179.74C27.19,-178.68 30.19,-177.59 33,-176.65 87.84,-158.35 104.79,-163.27 158,-140.65 159.15,-140.16 160.3,-139.63 161.46,-139.08"/>
<polygon fill="red" stroke="red" stroke-width="0.25" points="162.94,-142.26 170.09,-134.44 159.62,-136.09 162.94,-142.26"/>
</g>
<!-- &#45;8 -->
<g id="node8" class="node">
<title>&#45;8</title>
<polygon fill="lightgray" stroke="black" points="66,-194.65 42,-194.65 42,-176.65 66,-176.65 66,-194.65"/>
<text text-anchor="middle" x="54" y="-183.45" font-family="Times New Roman,serif" font-size="9.00">&#45;8</text>
</g>
<!-- &#45;8&#45;&gt;5 -->
<g id="edge15" class="edge">
<title>&#45;8&#45;&gt;5</title>
<path fill="none" stroke="red" stroke-width="0.63" d="M65.46,-176.36C78.22,-167.14 99.06,-152.07 114.42,-140.96"/>
<polygon fill="red" stroke="red" stroke-width="0.63" points="116.25,-143.96 122.3,-135.26 112.14,-138.29 116.25,-143.96"/>
</g>
<!-- &#45;8&#45;&gt;6 -->
<g id="edge16" class="edge">
<title>&#45;8&#45;&gt;6</title>
<path fill="none" stroke="green" stroke-width="0.29" d="M66.39,-179.98C86.11,-172.42 125.71,-156.72 158,-140.65 159.11,-140.1 160.25,-139.51 161.39,-138.91"/>
<polygon fill="green" stroke="green" stroke-width="0.29" points="162.92,-142.07 169.95,-134.14 159.51,-135.95 162.92,-142.07"/>
</g>
<!-- A XOR B -->
<g id="node9" class="node">
<title>A XOR B</title>
<ellipse fill="lightblue" stroke="black" cx="158" cy="-37.48" rx="37.45" ry="37.45"/>
<text text-anchor="middle" x="158" y="-35.28" font-family="Times New Roman,serif" font-size="9.00">A XOR B</text>
</g>
<!-- 5&#45;&gt;A XOR B -->
<g id="edge17" class="edge">
<title>5&#45;&gt;A XOR B</title>
<path fill="none" stroke="green" stroke-width="0.15" d="M137.75,-111.31C139.89,-103.62 142.71,-93.48 145.56,-83.22"/>
<polygon fill="green" stroke="green" stroke-width="0.15" points="148.86,-84.41 148.17,-73.84 142.12,-82.53 148.86,-84.41"/>
</g>
<!-- 6&#45;&gt;A XOR B -->
<g id="edge18" class="edge">
<title>6&#45;&gt;A XOR B</title>
<path fill="none" stroke="green" stroke-width="0.34" d="M178.25,-111.31C176.11,-103.62 173.29,-93.48 170.44,-83.22"/>
<polygon fill="green" stroke="green" stroke-width="0.34" points="173.88,-82.53 167.83,-73.84 167.14,-84.41 173.88,-82.53"/>
</g>
</g>
</svg>
