<?xml version="1.0" encoding="utf-8" standalone="no"?>
<!DOCTYPE svg PUBLIC "-//W3C//DTD SVG 1.1//EN"
  "http://www.w3.org/Graphics/SVG/1.1/DTD/svg11.dtd">
<svg xmlns:xlink="http://www.w3.org/1999/xlink" width="460.8pt" height="345.6pt" viewBox="0 0 460.8 345.6" xmlns="http://www.w3.org/2000/svg" version="1.1">
 <metadata>
  <rdf:RDF xmlns:dc="http://purl.org/dc/elements/1.1/" xmlns:cc="http://creativecommons.org/ns#" xmlns:rdf="http://www.w3.org/1999/02/22-rdf-syntax-ns#">
   <cc:Work>
    <dc:type rdf:resource="http://purl.org/dc/dcmitype/StillImage"/>
    <dc:date>2023-05-18T15:06:51.923619</dc:date>
    <dc:format>image/svg+xml</dc:format>
    <dc:creator>
     <cc:Agent>
      <dc:title>Matplotlib v3.6.0, https://matplotlib.org/</dc:title>
     </cc:Agent>
    </dc:creator>
   </cc:Work>
  </rdf:RDF>
 </metadata>
 <defs>
  <style type="text/css">*{stroke-linejoin: round; stroke-linecap: butt}</style>
 </defs>
 <g id="figure_1">
  <g id="patch_1">
   <path d="M 0 345.6 
L 460.8 345.6 
L 460.8 0 
L 0 0 
z
" style="fill: #ffffff"/>
  </g>
  <g id="axes_1">
   <g id="patch_2">
    <path d="M 57.6 307.584 
L 414.72 307.584 
L 414.72 41.472 
L 57.6 41.472 
z
" style="fill: #ffffff"/>
   </g>
   <g id="PolyCollection_1">
    <path d="M 73.832727 306.57024 
L 73.832727 307.584 
L 109.905455 307.584 
L 145.978182 307.584 
L 182.050909 307.584 
L 218.123636 307.584 
L 254.196364 307.584 
L 290.269091 307.584 
L 326.341818 307.584 
L 362.414545 307.584 
L 398.487273 307.584 
L 398.487273 305.55648 
L 398.487273 305.55648 
L 362.414545 305.55648 
L 326.341818 305.55648 
L 290.269091 305.55648 
L 254.196364 305.55648 
L 218.123636 305.55648 
L 182.050909 305.55648 
L 145.978182 305.55648 
L 109.905455 305.55648 
L 73.832727 306.57024 
z
" clip-path="url(#pc1f9ec1f89)" style="fill: #1f77b4"/>
   </g>
   <g id="PolyCollection_2">
    <path d="M 73.832727 305.55648 
L 73.832727 306.57024 
L 109.905455 305.55648 
L 145.978182 305.55648 
L 182.050909 305.55648 
L 218.123636 305.55648 
L 254.196364 305.55648 
L 290.269091 305.55648 
L 326.341818 305.55648 
L 362.414545 305.55648 
L 398.487273 305.55648 
L 398.487273 303.52896 
L 398.487273 303.52896 
L 362.414545 303.52896 
L 326.341818 303.52896 
L 290.269091 303.52896 
L 254.196364 303.52896 
L 218.123636 303.52896 
L 182.050909 303.52896 
L 145.978182 303.52896 
L 109.905455 303.52896 
L 73.832727 305.55648 
z
" clip-path="url(#pc1f9ec1f89)" style="fill: #ff7f0e"/>
   </g>
   <g id="PolyCollection_3">
    <path d="M 73.832727 304.54272 
L 73.832727 305.55648 
L 109.905455 303.52896 
L 145.978182 303.52896 
L 182.050909 303.52896 
L 218.123636 303.52896 
L 254.196364 303.52896 
L 290.269091 303.52896 
L 326.341818 303.52896 
L 362.414545 303.52896 
L 398.487273 303.52896 
L 398.487273 301.50144 
L 398.487273 301.50144 
L 362.414545 301.50144 
L 326.341818 301.50144 
L 290.269091 301.50144 
L 254.196364 301.50144 
L 218.123636 301.50144 
L 182.050909 301.50144 
L 145.978182 301.50144 
L 109.905455 301.50144 
L 73.832727 304.54272 
z
" clip-path="url(#pc1f9ec1f89)" style="fill: #2ca02c"/>
   </g>
   <g id="PolyCollection_4">
    <path d="M 73.832727 303.52896 
L 73.832727 304.54272 
L 109.905455 301.50144 
L 145.978182 301.50144 
L 182.050909 301.50144 
L 218.123636 301.50144 
L 254.196364 301.50144 
L 290.269091 301.50144 
L 326.341818 301.50144 
L 362.414545 301.50144 
L 398.487273 301.50144 
L 398.487273 299.47392 
L 398.487273 299.47392 
L 362.414545 299.47392 
L 326.341818 299.47392 
L 290.269091 299.47392 
L 254.196364 299.47392 
L 218.123636 299.47392 
L 182.050909 299.47392 
L 145.978182 299.47392 
L 109.905455 299.47392 
L 73.832727 303.52896 
z
" clip-path="url(#pc1f9ec1f89)" style="fill: #d62728"/>
   </g>
   <g id="PolyCollection_5">
    <path d="M 73.832727 302.5152 
L 73.832727 303.52896 
L 109.905455 299.47392 
L 145.978182 299.47392 
L 182.050909 299.47392 
L 218.123636 299.47392 
L 254.196364 299.47392 
L 290.269091 299.47392 
L 326.341818 299.47392 
L 362.414545 299.47392 
L 398.487273 299.47392 
L 398.487273 297.4464 
L 398.487273 297.4464 
L 362.414545 297.4464 
L 326.341818 297.4464 
L 290.269091 297.4464 
L 254.196364 297.4464 
L 218.123636 297.4464 
L 182.050909 297.4464 
L 145.978182 297.4464 
L 109.905455 297.4464 
L 73.832727 302.5152 
z
" clip-path="url(#pc1f9ec1f89)" style="fill: #9467bd"/>
   </g>
   <g id="PolyCollection_6">
    <path d="M 73.832727 301.50144 
L 73.832727 302.5152 
L 109.905455 297.4464 
L 145.978182 297.4464 
L 182.050909 297.4464 
L 218.123636 297.4464 
L 254.196364 297.4464 
L 290.269091 297.4464 
L 326.341818 297.4464 
L 362.414545 297.4464 
L 398.487273 297.4464 
L 398.487273 295.41888 
L 398.487273 295.41888 
L 362.414545 295.41888 
L 326.341818 295.41888 
L 290.269091 295.41888 
L 254.196364 295.41888 
L 218.123636 295.41888 
L 182.050909 295.41888 
L 145.978182 295.41888 
L 109.905455 295.41888 
L 73.832727 301.50144 
z
" clip-path="url(#pc1f9ec1f89)" style="fill: #8c564b"/>
   </g>
   <g id="PolyCollection_7">
    <path d="M 73.832727 300.48768 
L 73.832727 301.50144 
L 109.905455 295.41888 
L 145.978182 295.41888 
L 182.050909 295.41888 
L 218.123636 295.41888 
L 254.196364 295.41888 
L 290.269091 295.41888 
L 326.341818 295.41888 
L 362.414545 295.41888 
L 398.487273 295.41888 
L 398.487273 293.39136 
L 398.487273 293.39136 
L 362.414545 293.39136 
L 326.341818 293.39136 
L 290.269091 293.39136 
L 254.196364 293.39136 
L 218.123636 293.39136 
L 182.050909 293.39136 
L 145.978182 293.39136 
L 109.905455 293.39136 
L 73.832727 300.48768 
z
" clip-path="url(#pc1f9ec1f89)" style="fill: #e377c2"/>
   </g>
   <g id="PolyCollection_8">
    <path d="M 73.832727 299.47392 
L 73.832727 300.48768 
L 109.905455 293.39136 
L 145.978182 293.39136 
L 182.050909 293.39136 
L 218.123636 293.39136 
L 254.196364 293.39136 
L 290.269091 293.39136 
L 326.341818 293.39136 
L 362.414545 293.39136 
L 398.487273 293.39136 
L 398.487273 291.36384 
L 398.487273 291.36384 
L 362.414545 291.36384 
L 326.341818 291.36384 
L 290.269091 291.36384 
L 254.196364 291.36384 
L 218.123636 291.36384 
L 182.050909 291.36384 
L 145.978182 291.36384 
L 109.905455 291.36384 
L 73.832727 299.47392 
z
" clip-path="url(#pc1f9ec1f89)" style="fill: #7f7f7f"/>
   </g>
   <g id="PolyCollection_9">
    <path d="M 73.832727 298.46016 
L 73.832727 299.47392 
L 109.905455 291.36384 
L 145.978182 291.36384 
L 182.050909 291.36384 
L 218.123636 291.36384 
L 254.196364 291.36384 
L 290.269091 291.36384 
L 326.341818 291.36384 
L 362.414545 291.36384 
L 398.487273 291.36384 
L 398.487273 289.33632 
L 398.487273 289.33632 
L 362.414545 289.33632 
L 326.341818 289.33632 
L 290.269091 289.33632 
L 254.196364 289.33632 
L 218.123636 289.33632 
L 182.050909 289.33632 
L 145.978182 289.33632 
L 109.905455 289.33632 
L 73.832727 298.46016 
z
" clip-path="url(#pc1f9ec1f89)" style="fill: #bcbd22"/>
   </g>
   <g id="PolyCollection_10">
    <path d="M 73.832727 297.4464 
L 73.832727 298.46016 
L 109.905455 289.33632 
L 145.978182 289.33632 
L 182.050909 289.33632 
L 218.123636 289.33632 
L 254.196364 289.33632 
L 290.269091 289.33632 
L 326.341818 289.33632 
L 362.414545 289.33632 
L 398.487273 289.33632 
L 398.487273 287.3088 
L 398.487273 287.3088 
L 362.414545 287.3088 
L 326.341818 287.3088 
L 290.269091 287.3088 
L 254.196364 287.3088 
L 218.123636 287.3088 
L 182.050909 287.3088 
L 145.978182 287.3088 
L 109.905455 287.3088 
L 73.832727 297.4464 
z
" clip-path="url(#pc1f9ec1f89)" style="fill: #17becf"/>
   </g>
   <g id="PolyCollection_11">
    <path d="M 73.832727 296.43264 
L 73.832727 297.4464 
L 109.905455 287.3088 
L 145.978182 287.3088 
L 182.050909 287.3088 
L 218.123636 287.3088 
L 254.196364 287.3088 
L 290.269091 287.3088 
L 326.341818 287.3088 
L 362.414545 287.3088 
L 398.487273 287.3088 
L 398.487273 285.28128 
L 398.487273 285.28128 
L 362.414545 285.28128 
L 326.341818 285.28128 
L 290.269091 285.28128 
L 254.196364 285.28128 
L 218.123636 285.28128 
L 182.050909 285.28128 
L 145.978182 285.28128 
L 109.905455 285.28128 
L 73.832727 296.43264 
z
" clip-path="url(#pc1f9ec1f89)" style="fill: #1f77b4"/>
   </g>
   <g id="PolyCollection_12">
    <path d="M 73.832727 295.41888 
L 73.832727 296.43264 
L 109.905455 285.28128 
L 145.978182 285.28128 
L 182.050909 285.28128 
L 218.123636 285.28128 
L 254.196364 285.28128 
L 290.269091 285.28128 
L 326.341818 285.28128 
L 362.414545 285.28128 
L 398.487273 285.28128 
L 398.487273 283.25376 
L 398.487273 283.25376 
L 362.414545 283.25376 
L 326.341818 283.25376 
L 290.269091 283.25376 
L 254.196364 283.25376 
L 218.123636 283.25376 
L 182.050909 283.25376 
L 145.978182 283.25376 
L 109.905455 283.25376 
L 73.832727 295.41888 
z
" clip-path="url(#pc1f9ec1f89)" style="fill: #ff7f0e"/>
   </g>
   <g id="PolyCollection_13">
    <path d="M 73.832727 294.40512 
L 73.832727 295.41888 
L 109.905455 283.25376 
L 145.978182 283.25376 
L 182.050909 283.25376 
L 218.123636 283.25376 
L 254.196364 283.25376 
L 290.269091 283.25376 
L 326.341818 283.25376 
L 362.414545 283.25376 
L 398.487273 283.25376 
L 398.487273 281.22624 
L 398.487273 281.22624 
L 362.414545 281.22624 
L 326.341818 281.22624 
L 290.269091 281.22624 
L 254.196364 281.22624 
L 218.123636 281.22624 
L 182.050909 281.22624 
L 145.978182 281.22624 
L 109.905455 281.22624 
L 73.832727 294.40512 
z
" clip-path="url(#pc1f9ec1f89)" style="fill: #2ca02c"/>
   </g>
   <g id="PolyCollection_14">
    <path d="M 73.832727 293.39136 
L 73.832727 294.40512 
L 109.905455 281.22624 
L 145.978182 281.22624 
L 182.050909 281.22624 
L 218.123636 281.22624 
L 254.196364 281.22624 
L 290.269091 281.22624 
L 326.341818 281.22624 
L 362.414545 281.22624 
L 398.487273 281.22624 
L 398.487273 279.19872 
L 398.487273 279.19872 
L 362.414545 279.19872 
L 326.341818 279.19872 
L 290.269091 279.19872 
L 254.196364 279.19872 
L 218.123636 279.19872 
L 182.050909 279.19872 
L 145.978182 279.19872 
L 109.905455 279.19872 
L 73.832727 293.39136 
z
" clip-path="url(#pc1f9ec1f89)" style="fill: #d62728"/>
   </g>
   <g id="PolyCollection_15">
    <path d="M 73.832727 292.3776 
L 73.832727 293.39136 
L 109.905455 279.19872 
L 145.978182 279.19872 
L 182.050909 279.19872 
L 218.123636 279.19872 
L 254.196364 279.19872 
L 290.269091 279.19872 
L 326.341818 279.19872 
L 362.414545 279.19872 
L 398.487273 279.19872 
L 398.487273 277.1712 
L 398.487273 277.1712 
L 362.414545 277.1712 
L 326.341818 277.1712 
L 290.269091 277.1712 
L 254.196364 277.1712 
L 218.123636 277.1712 
L 182.050909 277.1712 
L 145.978182 277.1712 
L 109.905455 277.1712 
L 73.832727 292.3776 
z
" clip-path="url(#pc1f9ec1f89)" style="fill: #9467bd"/>
   </g>
   <g id="PolyCollection_16">
    <path d="M 73.832727 291.36384 
L 73.832727 292.3776 
L 109.905455 277.1712 
L 145.978182 277.1712 
L 182.050909 277.1712 
L 218.123636 277.1712 
L 254.196364 277.1712 
L 290.269091 277.1712 
L 326.341818 277.1712 
L 362.414545 277.1712 
L 398.487273 277.1712 
L 398.487273 275.14368 
L 398.487273 275.14368 
L 362.414545 275.14368 
L 326.341818 275.14368 
L 290.269091 275.14368 
L 254.196364 275.14368 
L 218.123636 275.14368 
L 182.050909 275.14368 
L 145.978182 275.14368 
L 109.905455 275.14368 
L 73.832727 291.36384 
z
" clip-path="url(#pc1f9ec1f89)" style="fill: #8c564b"/>
   </g>
   <g id="PolyCollection_17">
    <path d="M 73.832727 290.35008 
L 73.832727 291.36384 
L 109.905455 275.14368 
L 145.978182 275.14368 
L 182.050909 275.14368 
L 218.123636 275.14368 
L 254.196364 275.14368 
L 290.269091 275.14368 
L 326.341818 275.14368 
L 362.414545 275.14368 
L 398.487273 275.14368 
L 398.487273 273.11616 
L 398.487273 273.11616 
L 362.414545 273.11616 
L 326.341818 273.11616 
L 290.269091 273.11616 
L 254.196364 273.11616 
L 218.123636 273.11616 
L 182.050909 273.11616 
L 145.978182 273.11616 
L 109.905455 273.11616 
L 73.832727 290.35008 
z
" clip-path="url(#pc1f9ec1f89)" style="fill: #e377c2"/>
   </g>
   <g id="PolyCollection_18">
    <path d="M 73.832727 289.33632 
L 73.832727 290.35008 
L 109.905455 273.11616 
L 145.978182 273.11616 
L 182.050909 273.11616 
L 218.123636 273.11616 
L 254.196364 273.11616 
L 290.269091 273.11616 
L 326.341818 273.11616 
L 362.414545 273.11616 
L 398.487273 273.11616 
L 398.487273 271.08864 
L 398.487273 271.08864 
L 362.414545 271.08864 
L 326.341818 271.08864 
L 290.269091 271.08864 
L 254.196364 271.08864 
L 218.123636 271.08864 
L 182.050909 271.08864 
L 145.978182 271.08864 
L 109.905455 271.08864 
L 73.832727 289.33632 
z
" clip-path="url(#pc1f9ec1f89)" style="fill: #7f7f7f"/>
   </g>
   <g id="PolyCollection_19">
    <path d="M 73.832727 288.32256 
L 73.832727 289.33632 
L 109.905455 271.08864 
L 145.978182 271.08864 
L 182.050909 271.08864 
L 218.123636 271.08864 
L 254.196364 271.08864 
L 290.269091 271.08864 
L 326.341818 271.08864 
L 362.414545 271.08864 
L 398.487273 271.08864 
L 398.487273 269.06112 
L 398.487273 269.06112 
L 362.414545 269.06112 
L 326.341818 269.06112 
L 290.269091 269.06112 
L 254.196364 269.06112 
L 218.123636 269.06112 
L 182.050909 269.06112 
L 145.978182 269.06112 
L 109.905455 269.06112 
L 73.832727 288.32256 
z
" clip-path="url(#pc1f9ec1f89)" style="fill: #bcbd22"/>
   </g>
   <g id="PolyCollection_20">
    <path d="M 73.832727 287.3088 
L 73.832727 288.32256 
L 109.905455 269.06112 
L 145.978182 269.06112 
L 182.050909 269.06112 
L 218.123636 269.06112 
L 254.196364 269.06112 
L 290.269091 269.06112 
L 326.341818 269.06112 
L 362.414545 269.06112 
L 398.487273 269.06112 
L 398.487273 267.0336 
L 398.487273 267.0336 
L 362.414545 267.0336 
L 326.341818 267.0336 
L 290.269091 267.0336 
L 254.196364 267.0336 
L 218.123636 267.0336 
L 182.050909 267.0336 
L 145.978182 267.0336 
L 109.905455 267.0336 
L 73.832727 287.3088 
z
" clip-path="url(#pc1f9ec1f89)" style="fill: #17becf"/>
   </g>
   <g id="PolyCollection_21">
    <path d="M 73.832727 286.29504 
L 73.832727 287.3088 
L 109.905455 267.0336 
L 145.978182 267.0336 
L 182.050909 267.0336 
L 218.123636 267.0336 
L 254.196364 267.0336 
L 290.269091 267.0336 
L 326.341818 267.0336 
L 362.414545 267.0336 
L 398.487273 267.0336 
L 398.487273 265.00608 
L 398.487273 265.00608 
L 362.414545 265.00608 
L 326.341818 265.00608 
L 290.269091 265.00608 
L 254.196364 265.00608 
L 218.123636 265.00608 
L 182.050909 265.00608 
L 145.978182 265.00608 
L 109.905455 265.00608 
L 73.832727 286.29504 
z
" clip-path="url(#pc1f9ec1f89)" style="fill: #1f77b4"/>
   </g>
   <g id="PolyCollection_22">
    <path d="M 73.832727 285.28128 
L 73.832727 286.29504 
L 109.905455 265.00608 
L 145.978182 265.00608 
L 182.050909 265.00608 
L 218.123636 265.00608 
L 254.196364 265.00608 
L 290.269091 265.00608 
L 326.341818 265.00608 
L 362.414545 265.00608 
L 398.487273 265.00608 
L 398.487273 262.97856 
L 398.487273 262.97856 
L 362.414545 262.97856 
L 326.341818 262.97856 
L 290.269091 262.97856 
L 254.196364 262.97856 
L 218.123636 262.97856 
L 182.050909 262.97856 
L 145.978182 262.97856 
L 109.905455 262.97856 
L 73.832727 285.28128 
z
" clip-path="url(#pc1f9ec1f89)" style="fill: #ff7f0e"/>
   </g>
   <g id="PolyCollection_23">
    <path d="M 73.832727 284.26752 
L 73.832727 285.28128 
L 109.905455 262.97856 
L 145.978182 262.97856 
L 182.050909 262.97856 
L 218.123636 262.97856 
L 254.196364 262.97856 
L 290.269091 262.97856 
L 326.341818 262.97856 
L 362.414545 262.97856 
L 398.487273 262.97856 
L 398.487273 260.95104 
L 398.487273 260.95104 
L 362.414545 260.95104 
L 326.341818 260.95104 
L 290.269091 260.95104 
L 254.196364 260.95104 
L 218.123636 260.95104 
L 182.050909 260.95104 
L 145.978182 260.95104 
L 109.905455 260.95104 
L 73.832727 284.26752 
z
" clip-path="url(#pc1f9ec1f89)" style="fill: #2ca02c"/>
   </g>
   <g id="PolyCollection_24">
    <path d="M 73.832727 283.25376 
L 73.832727 284.26752 
L 109.905455 260.95104 
L 145.978182 260.95104 
L 182.050909 260.95104 
L 218.123636 260.95104 
L 254.196364 260.95104 
L 290.269091 260.95104 
L 326.341818 260.95104 
L 362.414545 260.95104 
L 398.487273 260.95104 
L 398.487273 258.92352 
L 398.487273 258.92352 
L 362.414545 258.92352 
L 326.341818 258.92352 
L 290.269091 258.92352 
L 254.196364 258.92352 
L 218.123636 258.92352 
L 182.050909 258.92352 
L 145.978182 258.92352 
L 109.905455 258.92352 
L 73.832727 283.25376 
z
" clip-path="url(#pc1f9ec1f89)" style="fill: #d62728"/>
   </g>
   <g id="PolyCollection_25">
    <path d="M 73.832727 282.24 
L 73.832727 283.25376 
L 109.905455 258.92352 
L 145.978182 258.92352 
L 182.050909 258.92352 
L 218.123636 258.92352 
L 254.196364 258.92352 
L 290.269091 258.92352 
L 326.341818 258.92352 
L 362.414545 258.92352 
L 398.487273 258.92352 
L 398.487273 256.896 
L 398.487273 256.896 
L 362.414545 256.896 
L 326.341818 256.896 
L 290.269091 256.896 
L 254.196364 256.896 
L 218.123636 256.896 
L 182.050909 256.896 
L 145.978182 256.896 
L 109.905455 256.896 
L 73.832727 282.24 
z
" clip-path="url(#pc1f9ec1f89)" style="fill: #9467bd"/>
   </g>
   <g id="PolyCollection_26">
    <path d="M 73.832727 281.22624 
L 73.832727 282.24 
L 109.905455 256.896 
L 145.978182 256.896 
L 182.050909 256.896 
L 218.123636 256.896 
L 254.196364 256.896 
L 290.269091 256.896 
L 326.341818 256.896 
L 362.414545 256.896 
L 398.487273 256.896 
L 398.487273 254.86848 
L 398.487273 254.86848 
L 362.414545 254.86848 
L 326.341818 254.86848 
L 290.269091 254.86848 
L 254.196364 254.86848 
L 218.123636 254.86848 
L 182.050909 254.86848 
L 145.978182 254.86848 
L 109.905455 254.86848 
L 73.832727 281.22624 
z
" clip-path="url(#pc1f9ec1f89)" style="fill: #8c564b"/>
   </g>
   <g id="PolyCollection_27">
    <path d="M 73.832727 280.21248 
L 73.832727 281.22624 
L 109.905455 254.86848 
L 145.978182 254.86848 
L 182.050909 254.86848 
L 218.123636 254.86848 
L 254.196364 254.86848 
L 290.269091 254.86848 
L 326.341818 254.86848 
L 362.414545 254.86848 
L 398.487273 254.86848 
L 398.487273 252.84096 
L 398.487273 252.84096 
L 362.414545 252.84096 
L 326.341818 252.84096 
L 290.269091 252.84096 
L 254.196364 252.84096 
L 218.123636 252.84096 
L 182.050909 252.84096 
L 145.978182 252.84096 
L 109.905455 252.84096 
L 73.832727 280.21248 
z
" clip-path="url(#pc1f9ec1f89)" style="fill: #e377c2"/>
   </g>
   <g id="PolyCollection_28">
    <path d="M 73.832727 279.19872 
L 73.832727 280.21248 
L 109.905455 252.84096 
L 145.978182 252.84096 
L 182.050909 252.84096 
L 218.123636 252.84096 
L 254.196364 252.84096 
L 290.269091 252.84096 
L 326.341818 252.84096 
L 362.414545 252.84096 
L 398.487273 252.84096 
L 398.487273 250.81344 
L 398.487273 250.81344 
L 362.414545 250.81344 
L 326.341818 250.81344 
L 290.269091 250.81344 
L 254.196364 250.81344 
L 218.123636 250.81344 
L 182.050909 250.81344 
L 145.978182 250.81344 
L 109.905455 250.81344 
L 73.832727 279.19872 
z
" clip-path="url(#pc1f9ec1f89)" style="fill: #7f7f7f"/>
   </g>
   <g id="PolyCollection_29">
    <path d="M 73.832727 278.18496 
L 73.832727 279.19872 
L 109.905455 250.81344 
L 145.978182 250.81344 
L 182.050909 250.81344 
L 218.123636 250.81344 
L 254.196364 250.81344 
L 290.269091 250.81344 
L 326.341818 250.81344 
L 362.414545 250.81344 
L 398.487273 250.81344 
L 398.487273 248.78592 
L 398.487273 248.78592 
L 362.414545 248.78592 
L 326.341818 248.78592 
L 290.269091 248.78592 
L 254.196364 248.78592 
L 218.123636 248.78592 
L 182.050909 248.78592 
L 145.978182 248.78592 
L 109.905455 248.78592 
L 73.832727 278.18496 
z
" clip-path="url(#pc1f9ec1f89)" style="fill: #bcbd22"/>
   </g>
   <g id="PolyCollection_30">
    <path d="M 73.832727 277.1712 
L 73.832727 278.18496 
L 109.905455 248.78592 
L 145.978182 248.78592 
L 182.050909 248.78592 
L 218.123636 248.78592 
L 254.196364 248.78592 
L 290.269091 248.78592 
L 326.341818 248.78592 
L 362.414545 248.78592 
L 398.487273 248.78592 
L 398.487273 246.7584 
L 398.487273 246.7584 
L 362.414545 246.7584 
L 326.341818 246.7584 
L 290.269091 246.7584 
L 254.196364 246.7584 
L 218.123636 246.7584 
L 182.050909 246.7584 
L 145.978182 246.7584 
L 109.905455 246.7584 
L 73.832727 277.1712 
z
" clip-path="url(#pc1f9ec1f89)" style="fill: #17becf"/>
   </g>
   <g id="PolyCollection_31">
    <path d="M 73.832727 276.15744 
L 73.832727 277.1712 
L 109.905455 246.7584 
L 145.978182 246.7584 
L 182.050909 246.7584 
L 218.123636 246.7584 
L 254.196364 246.7584 
L 290.269091 246.7584 
L 326.341818 246.7584 
L 362.414545 246.7584 
L 398.487273 246.7584 
L 398.487273 244.73088 
L 398.487273 244.73088 
L 362.414545 244.73088 
L 326.341818 244.73088 
L 290.269091 244.73088 
L 254.196364 244.73088 
L 218.123636 244.73088 
L 182.050909 244.73088 
L 145.978182 244.73088 
L 109.905455 244.73088 
L 73.832727 276.15744 
z
" clip-path="url(#pc1f9ec1f89)" style="fill: #1f77b4"/>
   </g>
   <g id="PolyCollection_32">
    <path d="M 73.832727 275.14368 
L 73.832727 276.15744 
L 109.905455 244.73088 
L 145.978182 244.73088 
L 182.050909 244.73088 
L 218.123636 244.73088 
L 254.196364 244.73088 
L 290.269091 244.73088 
L 326.341818 244.73088 
L 362.414545 244.73088 
L 398.487273 244.73088 
L 398.487273 242.70336 
L 398.487273 242.70336 
L 362.414545 242.70336 
L 326.341818 242.70336 
L 290.269091 242.70336 
L 254.196364 242.70336 
L 218.123636 242.70336 
L 182.050909 242.70336 
L 145.978182 242.70336 
L 109.905455 242.70336 
L 73.832727 275.14368 
z
" clip-path="url(#pc1f9ec1f89)" style="fill: #ff7f0e"/>
   </g>
   <g id="PolyCollection_33">
    <path d="M 73.832727 274.12992 
L 73.832727 275.14368 
L 109.905455 242.70336 
L 145.978182 242.70336 
L 182.050909 242.70336 
L 218.123636 242.70336 
L 254.196364 242.70336 
L 290.269091 242.70336 
L 326.341818 242.70336 
L 362.414545 242.70336 
L 398.487273 242.70336 
L 398.487273 240.67584 
L 398.487273 240.67584 
L 362.414545 240.67584 
L 326.341818 240.67584 
L 290.269091 240.67584 
L 254.196364 240.67584 
L 218.123636 240.67584 
L 182.050909 240.67584 
L 145.978182 240.67584 
L 109.905455 240.67584 
L 73.832727 274.12992 
z
" clip-path="url(#pc1f9ec1f89)" style="fill: #2ca02c"/>
   </g>
   <g id="PolyCollection_34">
    <path d="M 73.832727 273.11616 
L 73.832727 274.12992 
L 109.905455 240.67584 
L 145.978182 240.67584 
L 182.050909 240.67584 
L 218.123636 240.67584 
L 254.196364 240.67584 
L 290.269091 240.67584 
L 326.341818 240.67584 
L 362.414545 240.67584 
L 398.487273 240.67584 
L 398.487273 238.64832 
L 398.487273 238.64832 
L 362.414545 238.64832 
L 326.341818 238.64832 
L 290.269091 238.64832 
L 254.196364 238.64832 
L 218.123636 238.64832 
L 182.050909 238.64832 
L 145.978182 238.64832 
L 109.905455 238.64832 
L 73.832727 273.11616 
z
" clip-path="url(#pc1f9ec1f89)" style="fill: #d62728"/>
   </g>
   <g id="PolyCollection_35">
    <path d="M 73.832727 272.1024 
L 73.832727 273.11616 
L 109.905455 238.64832 
L 145.978182 238.64832 
L 182.050909 238.64832 
L 218.123636 238.64832 
L 254.196364 238.64832 
L 290.269091 238.64832 
L 326.341818 238.64832 
L 362.414545 238.64832 
L 398.487273 238.64832 
L 398.487273 236.6208 
L 398.487273 236.6208 
L 362.414545 236.6208 
L 326.341818 236.6208 
L 290.269091 236.6208 
L 254.196364 236.6208 
L 218.123636 236.6208 
L 182.050909 236.6208 
L 145.978182 236.6208 
L 109.905455 236.6208 
L 73.832727 272.1024 
z
" clip-path="url(#pc1f9ec1f89)" style="fill: #9467bd"/>
   </g>
   <g id="PolyCollection_36">
    <path d="M 73.832727 271.08864 
L 73.832727 272.1024 
L 109.905455 236.6208 
L 145.978182 236.6208 
L 182.050909 236.6208 
L 218.123636 236.6208 
L 254.196364 236.6208 
L 290.269091 236.6208 
L 326.341818 236.6208 
L 362.414545 236.6208 
L 398.487273 236.6208 
L 398.487273 234.59328 
L 398.487273 234.59328 
L 362.414545 234.59328 
L 326.341818 234.59328 
L 290.269091 234.59328 
L 254.196364 234.59328 
L 218.123636 234.59328 
L 182.050909 234.59328 
L 145.978182 234.59328 
L 109.905455 234.59328 
L 73.832727 271.08864 
z
" clip-path="url(#pc1f9ec1f89)" style="fill: #8c564b"/>
   </g>
   <g id="PolyCollection_37">
    <path d="M 73.832727 270.07488 
L 73.832727 271.08864 
L 109.905455 234.59328 
L 145.978182 234.59328 
L 182.050909 234.59328 
L 218.123636 234.59328 
L 254.196364 234.59328 
L 290.269091 234.59328 
L 326.341818 234.59328 
L 362.414545 234.59328 
L 398.487273 234.59328 
L 398.487273 232.56576 
L 398.487273 232.56576 
L 362.414545 232.56576 
L 326.341818 232.56576 
L 290.269091 232.56576 
L 254.196364 232.56576 
L 218.123636 232.56576 
L 182.050909 232.56576 
L 145.978182 232.56576 
L 109.905455 232.56576 
L 73.832727 270.07488 
z
" clip-path="url(#pc1f9ec1f89)" style="fill: #e377c2"/>
   </g>
   <g id="PolyCollection_38">
    <path d="M 73.832727 269.06112 
L 73.832727 270.07488 
L 109.905455 232.56576 
L 145.978182 232.56576 
L 182.050909 232.56576 
L 218.123636 232.56576 
L 254.196364 232.56576 
L 290.269091 232.56576 
L 326.341818 232.56576 
L 362.414545 232.56576 
L 398.487273 232.56576 
L 398.487273 230.53824 
L 398.487273 230.53824 
L 362.414545 230.53824 
L 326.341818 230.53824 
L 290.269091 230.53824 
L 254.196364 230.53824 
L 218.123636 230.53824 
L 182.050909 230.53824 
L 145.978182 230.53824 
L 109.905455 230.53824 
L 73.832727 269.06112 
z
" clip-path="url(#pc1f9ec1f89)" style="fill: #7f7f7f"/>
   </g>
   <g id="PolyCollection_39">
    <path d="M 73.832727 268.04736 
L 73.832727 269.06112 
L 109.905455 230.53824 
L 145.978182 230.53824 
L 182.050909 230.53824 
L 218.123636 230.53824 
L 254.196364 230.53824 
L 290.269091 230.53824 
L 326.341818 230.53824 
L 362.414545 230.53824 
L 398.487273 230.53824 
L 398.487273 228.51072 
L 398.487273 228.51072 
L 362.414545 228.51072 
L 326.341818 228.51072 
L 290.269091 228.51072 
L 254.196364 228.51072 
L 218.123636 228.51072 
L 182.050909 228.51072 
L 145.978182 228.51072 
L 109.905455 228.51072 
L 73.832727 268.04736 
z
" clip-path="url(#pc1f9ec1f89)" style="fill: #bcbd22"/>
   </g>
   <g id="PolyCollection_40">
    <path d="M 73.832727 267.0336 
L 73.832727 268.04736 
L 109.905455 228.51072 
L 145.978182 228.51072 
L 182.050909 228.51072 
L 218.123636 228.51072 
L 254.196364 228.51072 
L 290.269091 228.51072 
L 326.341818 228.51072 
L 362.414545 228.51072 
L 398.487273 228.51072 
L 398.487273 226.4832 
L 398.487273 226.4832 
L 362.414545 226.4832 
L 326.341818 226.4832 
L 290.269091 226.4832 
L 254.196364 226.4832 
L 218.123636 226.4832 
L 182.050909 226.4832 
L 145.978182 226.4832 
L 109.905455 226.4832 
L 73.832727 267.0336 
z
" clip-path="url(#pc1f9ec1f89)" style="fill: #17becf"/>
   </g>
   <g id="PolyCollection_41">
    <path d="M 73.832727 266.01984 
L 73.832727 267.0336 
L 109.905455 226.4832 
L 145.978182 226.4832 
L 182.050909 226.4832 
L 218.123636 226.4832 
L 254.196364 226.4832 
L 290.269091 226.4832 
L 326.341818 226.4832 
L 362.414545 226.4832 
L 398.487273 226.4832 
L 398.487273 224.45568 
L 398.487273 224.45568 
L 362.414545 224.45568 
L 326.341818 224.45568 
L 290.269091 224.45568 
L 254.196364 224.45568 
L 218.123636 224.45568 
L 182.050909 224.45568 
L 145.978182 224.45568 
L 109.905455 224.45568 
L 73.832727 266.01984 
z
" clip-path="url(#pc1f9ec1f89)" style="fill: #1f77b4"/>
   </g>
   <g id="PolyCollection_42">
    <path d="M 73.832727 265.00608 
L 73.832727 266.01984 
L 109.905455 224.45568 
L 145.978182 224.45568 
L 182.050909 224.45568 
L 218.123636 224.45568 
L 254.196364 224.45568 
L 290.269091 224.45568 
L 326.341818 224.45568 
L 362.414545 224.45568 
L 398.487273 224.45568 
L 398.487273 222.42816 
L 398.487273 222.42816 
L 362.414545 222.42816 
L 326.341818 222.42816 
L 290.269091 222.42816 
L 254.196364 222.42816 
L 218.123636 222.42816 
L 182.050909 222.42816 
L 145.978182 222.42816 
L 109.905455 222.42816 
L 73.832727 265.00608 
z
" clip-path="url(#pc1f9ec1f89)" style="fill: #ff7f0e"/>
   </g>
   <g id="PolyCollection_43">
    <path d="M 73.832727 263.99232 
L 73.832727 265.00608 
L 109.905455 222.42816 
L 145.978182 222.42816 
L 182.050909 222.42816 
L 218.123636 222.42816 
L 254.196364 222.42816 
L 290.269091 222.42816 
L 326.341818 222.42816 
L 362.414545 222.42816 
L 398.487273 222.42816 
L 398.487273 220.40064 
L 398.487273 220.40064 
L 362.414545 220.40064 
L 326.341818 220.40064 
L 290.269091 220.40064 
L 254.196364 220.40064 
L 218.123636 220.40064 
L 182.050909 220.40064 
L 145.978182 220.40064 
L 109.905455 220.40064 
L 73.832727 263.99232 
z
" clip-path="url(#pc1f9ec1f89)" style="fill: #2ca02c"/>
   </g>
   <g id="PolyCollection_44">
    <path d="M 73.832727 262.97856 
L 73.832727 263.99232 
L 109.905455 220.40064 
L 145.978182 220.40064 
L 182.050909 220.40064 
L 218.123636 220.40064 
L 254.196364 220.40064 
L 290.269091 220.40064 
L 326.341818 220.40064 
L 362.414545 220.40064 
L 398.487273 220.40064 
L 398.487273 218.37312 
L 398.487273 218.37312 
L 362.414545 218.37312 
L 326.341818 218.37312 
L 290.269091 218.37312 
L 254.196364 218.37312 
L 218.123636 218.37312 
L 182.050909 218.37312 
L 145.978182 218.37312 
L 109.905455 218.37312 
L 73.832727 262.97856 
z
" clip-path="url(#pc1f9ec1f89)" style="fill: #d62728"/>
   </g>
   <g id="PolyCollection_45">
    <path d="M 73.832727 261.9648 
L 73.832727 262.97856 
L 109.905455 218.37312 
L 145.978182 218.37312 
L 182.050909 218.37312 
L 218.123636 218.37312 
L 254.196364 218.37312 
L 290.269091 218.37312 
L 326.341818 218.37312 
L 362.414545 218.37312 
L 398.487273 218.37312 
L 398.487273 216.3456 
L 398.487273 216.3456 
L 362.414545 216.3456 
L 326.341818 216.3456 
L 290.269091 216.3456 
L 254.196364 216.3456 
L 218.123636 216.3456 
L 182.050909 216.3456 
L 145.978182 216.3456 
L 109.905455 216.3456 
L 73.832727 261.9648 
z
" clip-path="url(#pc1f9ec1f89)" style="fill: #9467bd"/>
   </g>
   <g id="PolyCollection_46">
    <path d="M 73.832727 260.95104 
L 73.832727 261.9648 
L 109.905455 216.3456 
L 145.978182 216.3456 
L 182.050909 216.3456 
L 218.123636 216.3456 
L 254.196364 216.3456 
L 290.269091 216.3456 
L 326.341818 216.3456 
L 362.414545 216.3456 
L 398.487273 216.3456 
L 398.487273 214.31808 
L 398.487273 214.31808 
L 362.414545 214.31808 
L 326.341818 214.31808 
L 290.269091 214.31808 
L 254.196364 214.31808 
L 218.123636 214.31808 
L 182.050909 214.31808 
L 145.978182 214.31808 
L 109.905455 214.31808 
L 73.832727 260.95104 
z
" clip-path="url(#pc1f9ec1f89)" style="fill: #8c564b"/>
   </g>
   <g id="PolyCollection_47">
    <path d="M 73.832727 259.93728 
L 73.832727 260.95104 
L 109.905455 214.31808 
L 145.978182 214.31808 
L 182.050909 214.31808 
L 218.123636 214.31808 
L 254.196364 214.31808 
L 290.269091 214.31808 
L 326.341818 214.31808 
L 362.414545 214.31808 
L 398.487273 214.31808 
L 398.487273 212.29056 
L 398.487273 212.29056 
L 362.414545 212.29056 
L 326.341818 212.29056 
L 290.269091 212.29056 
L 254.196364 212.29056 
L 218.123636 212.29056 
L 182.050909 212.29056 
L 145.978182 212.29056 
L 109.905455 212.29056 
L 73.832727 259.93728 
z
" clip-path="url(#pc1f9ec1f89)" style="fill: #e377c2"/>
   </g>
   <g id="PolyCollection_48">
    <path d="M 73.832727 258.92352 
L 73.832727 259.93728 
L 109.905455 212.29056 
L 145.978182 212.29056 
L 182.050909 212.29056 
L 218.123636 212.29056 
L 254.196364 212.29056 
L 290.269091 212.29056 
L 326.341818 212.29056 
L 362.414545 212.29056 
L 398.487273 212.29056 
L 398.487273 210.26304 
L 398.487273 210.26304 
L 362.414545 210.26304 
L 326.341818 210.26304 
L 290.269091 210.26304 
L 254.196364 210.26304 
L 218.123636 210.26304 
L 182.050909 210.26304 
L 145.978182 210.26304 
L 109.905455 210.26304 
L 73.832727 258.92352 
z
" clip-path="url(#pc1f9ec1f89)" style="fill: #7f7f7f"/>
   </g>
   <g id="PolyCollection_49">
    <path d="M 73.832727 257.90976 
L 73.832727 258.92352 
L 109.905455 210.26304 
L 145.978182 210.26304 
L 182.050909 210.26304 
L 218.123636 210.26304 
L 254.196364 210.26304 
L 290.269091 210.26304 
L 326.341818 210.26304 
L 362.414545 210.26304 
L 398.487273 210.26304 
L 398.487273 208.23552 
L 398.487273 208.23552 
L 362.414545 208.23552 
L 326.341818 208.23552 
L 290.269091 208.23552 
L 254.196364 208.23552 
L 218.123636 208.23552 
L 182.050909 208.23552 
L 145.978182 208.23552 
L 109.905455 208.23552 
L 73.832727 257.90976 
z
" clip-path="url(#pc1f9ec1f89)" style="fill: #bcbd22"/>
   </g>
   <g id="PolyCollection_50">
    <path d="M 73.832727 256.896 
L 73.832727 257.90976 
L 109.905455 208.23552 
L 145.978182 208.23552 
L 182.050909 208.23552 
L 218.123636 208.23552 
L 254.196364 208.23552 
L 290.269091 208.23552 
L 326.341818 208.23552 
L 362.414545 208.23552 
L 398.487273 208.23552 
L 398.487273 206.208 
L 398.487273 206.208 
L 362.414545 206.208 
L 326.341818 206.208 
L 290.269091 206.208 
L 254.196364 206.208 
L 218.123636 206.208 
L 182.050909 206.208 
L 145.978182 206.208 
L 109.905455 206.208 
L 73.832727 256.896 
z
" clip-path="url(#pc1f9ec1f89)" style="fill: #17becf"/>
   </g>
   <g id="PolyCollection_51">
    <path d="M 73.832727 255.88224 
L 73.832727 256.896 
L 109.905455 206.208 
L 145.978182 206.208 
L 182.050909 206.208 
L 218.123636 206.208 
L 254.196364 206.208 
L 290.269091 206.208 
L 326.341818 206.208 
L 362.414545 206.208 
L 398.487273 206.208 
L 398.487273 204.18048 
L 398.487273 204.18048 
L 362.414545 204.18048 
L 326.341818 204.18048 
L 290.269091 204.18048 
L 254.196364 204.18048 
L 218.123636 204.18048 
L 182.050909 204.18048 
L 145.978182 204.18048 
L 109.905455 204.18048 
L 73.832727 255.88224 
z
" clip-path="url(#pc1f9ec1f89)" style="fill: #1f77b4"/>
   </g>
   <g id="PolyCollection_52">
    <path d="M 73.832727 254.86848 
L 73.832727 255.88224 
L 109.905455 204.18048 
L 145.978182 204.18048 
L 182.050909 204.18048 
L 218.123636 204.18048 
L 254.196364 204.18048 
L 290.269091 204.18048 
L 326.341818 204.18048 
L 362.414545 204.18048 
L 398.487273 204.18048 
L 398.487273 202.15296 
L 398.487273 202.15296 
L 362.414545 202.15296 
L 326.341818 202.15296 
L 290.269091 202.15296 
L 254.196364 202.15296 
L 218.123636 202.15296 
L 182.050909 202.15296 
L 145.978182 202.15296 
L 109.905455 202.15296 
L 73.832727 254.86848 
z
" clip-path="url(#pc1f9ec1f89)" style="fill: #ff7f0e"/>
   </g>
   <g id="PolyCollection_53">
    <path d="M 73.832727 253.85472 
L 73.832727 254.86848 
L 109.905455 202.15296 
L 145.978182 202.15296 
L 182.050909 202.15296 
L 218.123636 202.15296 
L 254.196364 202.15296 
L 290.269091 202.15296 
L 326.341818 202.15296 
L 362.414545 202.15296 
L 398.487273 202.15296 
L 398.487273 200.12544 
L 398.487273 200.12544 
L 362.414545 200.12544 
L 326.341818 200.12544 
L 290.269091 200.12544 
L 254.196364 200.12544 
L 218.123636 200.12544 
L 182.050909 200.12544 
L 145.978182 200.12544 
L 109.905455 200.12544 
L 73.832727 253.85472 
z
" clip-path="url(#pc1f9ec1f89)" style="fill: #2ca02c"/>
   </g>
   <g id="PolyCollection_54">
    <path d="M 73.832727 252.84096 
L 73.832727 253.85472 
L 109.905455 200.12544 
L 145.978182 200.12544 
L 182.050909 200.12544 
L 218.123636 200.12544 
L 254.196364 200.12544 
L 290.269091 200.12544 
L 326.341818 200.12544 
L 362.414545 200.12544 
L 398.487273 200.12544 
L 398.487273 198.09792 
L 398.487273 198.09792 
L 362.414545 198.09792 
L 326.341818 198.09792 
L 290.269091 198.09792 
L 254.196364 198.09792 
L 218.123636 198.09792 
L 182.050909 198.09792 
L 145.978182 198.09792 
L 109.905455 198.09792 
L 73.832727 252.84096 
z
" clip-path="url(#pc1f9ec1f89)" style="fill: #d62728"/>
   </g>
   <g id="PolyCollection_55">
    <path d="M 73.832727 251.8272 
L 73.832727 252.84096 
L 109.905455 198.09792 
L 145.978182 198.09792 
L 182.050909 198.09792 
L 218.123636 198.09792 
L 254.196364 198.09792 
L 290.269091 198.09792 
L 326.341818 198.09792 
L 362.414545 198.09792 
L 398.487273 198.09792 
L 398.487273 196.0704 
L 398.487273 196.0704 
L 362.414545 196.0704 
L 326.341818 196.0704 
L 290.269091 196.0704 
L 254.196364 196.0704 
L 218.123636 196.0704 
L 182.050909 196.0704 
L 145.978182 196.0704 
L 109.905455 196.0704 
L 73.832727 251.8272 
z
" clip-path="url(#pc1f9ec1f89)" style="fill: #9467bd"/>
   </g>
   <g id="PolyCollection_56">
    <path d="M 73.832727 250.81344 
L 73.832727 251.8272 
L 109.905455 196.0704 
L 145.978182 196.0704 
L 182.050909 196.0704 
L 218.123636 196.0704 
L 254.196364 196.0704 
L 290.269091 196.0704 
L 326.341818 196.0704 
L 362.414545 196.0704 
L 398.487273 196.0704 
L 398.487273 194.04288 
L 398.487273 194.04288 
L 362.414545 194.04288 
L 326.341818 194.04288 
L 290.269091 194.04288 
L 254.196364 194.04288 
L 218.123636 194.04288 
L 182.050909 194.04288 
L 145.978182 194.04288 
L 109.905455 194.04288 
L 73.832727 250.81344 
z
" clip-path="url(#pc1f9ec1f89)" style="fill: #8c564b"/>
   </g>
   <g id="PolyCollection_57">
    <path d="M 73.832727 249.79968 
L 73.832727 250.81344 
L 109.905455 194.04288 
L 145.978182 194.04288 
L 182.050909 194.04288 
L 218.123636 194.04288 
L 254.196364 194.04288 
L 290.269091 194.04288 
L 326.341818 194.04288 
L 362.414545 194.04288 
L 398.487273 194.04288 
L 398.487273 192.01536 
L 398.487273 192.01536 
L 362.414545 192.01536 
L 326.341818 192.01536 
L 290.269091 192.01536 
L 254.196364 192.01536 
L 218.123636 192.01536 
L 182.050909 192.01536 
L 145.978182 192.01536 
L 109.905455 192.01536 
L 73.832727 249.79968 
z
" clip-path="url(#pc1f9ec1f89)" style="fill: #e377c2"/>
   </g>
   <g id="PolyCollection_58">
    <path d="M 73.832727 248.78592 
L 73.832727 249.79968 
L 109.905455 192.01536 
L 145.978182 192.01536 
L 182.050909 192.01536 
L 218.123636 192.01536 
L 254.196364 192.01536 
L 290.269091 192.01536 
L 326.341818 192.01536 
L 362.414545 192.01536 
L 398.487273 192.01536 
L 398.487273 189.98784 
L 398.487273 189.98784 
L 362.414545 189.98784 
L 326.341818 189.98784 
L 290.269091 189.98784 
L 254.196364 189.98784 
L 218.123636 189.98784 
L 182.050909 189.98784 
L 145.978182 189.98784 
L 109.905455 189.98784 
L 73.832727 248.78592 
z
" clip-path="url(#pc1f9ec1f89)" style="fill: #7f7f7f"/>
   </g>
   <g id="PolyCollection_59">
    <path d="M 73.832727 247.77216 
L 73.832727 248.78592 
L 109.905455 189.98784 
L 145.978182 189.98784 
L 182.050909 189.98784 
L 218.123636 189.98784 
L 254.196364 189.98784 
L 290.269091 189.98784 
L 326.341818 189.98784 
L 362.414545 189.98784 
L 398.487273 189.98784 
L 398.487273 187.96032 
L 398.487273 187.96032 
L 362.414545 187.96032 
L 326.341818 187.96032 
L 290.269091 187.96032 
L 254.196364 187.96032 
L 218.123636 187.96032 
L 182.050909 187.96032 
L 145.978182 187.96032 
L 109.905455 187.96032 
L 73.832727 247.77216 
z
" clip-path="url(#pc1f9ec1f89)" style="fill: #bcbd22"/>
   </g>
   <g id="PolyCollection_60">
    <path d="M 73.832727 246.7584 
L 73.832727 247.77216 
L 109.905455 187.96032 
L 145.978182 187.96032 
L 182.050909 187.96032 
L 218.123636 187.96032 
L 254.196364 187.96032 
L 290.269091 187.96032 
L 326.341818 187.96032 
L 362.414545 187.96032 
L 398.487273 187.96032 
L 398.487273 185.9328 
L 398.487273 185.9328 
L 362.414545 185.9328 
L 326.341818 185.9328 
L 290.269091 185.9328 
L 254.196364 185.9328 
L 218.123636 185.9328 
L 182.050909 185.9328 
L 145.978182 185.9328 
L 109.905455 185.9328 
L 73.832727 246.7584 
z
" clip-path="url(#pc1f9ec1f89)" style="fill: #17becf"/>
   </g>
   <g id="PolyCollection_61">
    <path d="M 73.832727 245.74464 
L 73.832727 246.7584 
L 109.905455 185.9328 
L 145.978182 185.9328 
L 182.050909 185.9328 
L 218.123636 185.9328 
L 254.196364 185.9328 
L 290.269091 185.9328 
L 326.341818 185.9328 
L 362.414545 185.9328 
L 398.487273 185.9328 
L 398.487273 183.90528 
L 398.487273 183.90528 
L 362.414545 183.90528 
L 326.341818 183.90528 
L 290.269091 183.90528 
L 254.196364 183.90528 
L 218.123636 183.90528 
L 182.050909 183.90528 
L 145.978182 183.90528 
L 109.905455 183.90528 
L 73.832727 245.74464 
z
" clip-path="url(#pc1f9ec1f89)" style="fill: #1f77b4"/>
   </g>
   <g id="PolyCollection_62">
    <path d="M 73.832727 244.73088 
L 73.832727 245.74464 
L 109.905455 183.90528 
L 145.978182 183.90528 
L 182.050909 183.90528 
L 218.123636 183.90528 
L 254.196364 183.90528 
L 290.269091 183.90528 
L 326.341818 183.90528 
L 362.414545 183.90528 
L 398.487273 183.90528 
L 398.487273 181.87776 
L 398.487273 181.87776 
L 362.414545 181.87776 
L 326.341818 181.87776 
L 290.269091 181.87776 
L 254.196364 181.87776 
L 218.123636 181.87776 
L 182.050909 181.87776 
L 145.978182 181.87776 
L 109.905455 181.87776 
L 73.832727 244.73088 
z
" clip-path="url(#pc1f9ec1f89)" style="fill: #ff7f0e"/>
   </g>
   <g id="PolyCollection_63">
    <path d="M 73.832727 243.71712 
L 73.832727 244.73088 
L 109.905455 181.87776 
L 145.978182 181.87776 
L 182.050909 181.87776 
L 218.123636 181.87776 
L 254.196364 181.87776 
L 290.269091 181.87776 
L 326.341818 181.87776 
L 362.414545 181.87776 
L 398.487273 181.87776 
L 398.487273 179.85024 
L 398.487273 179.85024 
L 362.414545 179.85024 
L 326.341818 179.85024 
L 290.269091 179.85024 
L 254.196364 179.85024 
L 218.123636 179.85024 
L 182.050909 179.85024 
L 145.978182 179.85024 
L 109.905455 179.85024 
L 73.832727 243.71712 
z
" clip-path="url(#pc1f9ec1f89)" style="fill: #2ca02c"/>
   </g>
   <g id="PolyCollection_64">
    <path d="M 73.832727 242.70336 
L 73.832727 243.71712 
L 109.905455 179.85024 
L 145.978182 179.85024 
L 182.050909 179.85024 
L 218.123636 179.85024 
L 254.196364 179.85024 
L 290.269091 179.85024 
L 326.341818 179.85024 
L 362.414545 179.85024 
L 398.487273 179.85024 
L 398.487273 177.82272 
L 398.487273 177.82272 
L 362.414545 177.82272 
L 326.341818 177.82272 
L 290.269091 177.82272 
L 254.196364 177.82272 
L 218.123636 177.82272 
L 182.050909 177.82272 
L 145.978182 177.82272 
L 109.905455 177.82272 
L 73.832727 242.70336 
z
" clip-path="url(#pc1f9ec1f89)" style="fill: #d62728"/>
   </g>
   <g id="PolyCollection_65">
    <path d="M 73.832727 241.6896 
L 73.832727 242.70336 
L 109.905455 177.82272 
L 145.978182 177.82272 
L 182.050909 177.82272 
L 218.123636 177.82272 
L 254.196364 177.82272 
L 290.269091 177.82272 
L 326.341818 177.82272 
L 362.414545 177.82272 
L 398.487273 177.82272 
L 398.487273 175.7952 
L 398.487273 175.7952 
L 362.414545 175.7952 
L 326.341818 175.7952 
L 290.269091 175.7952 
L 254.196364 175.7952 
L 218.123636 175.7952 
L 182.050909 175.7952 
L 145.978182 175.7952 
L 109.905455 175.7952 
L 73.832727 241.6896 
z
" clip-path="url(#pc1f9ec1f89)" style="fill: #9467bd"/>
   </g>
   <g id="PolyCollection_66">
    <path d="M 73.832727 240.67584 
L 73.832727 241.6896 
L 109.905455 175.7952 
L 145.978182 175.7952 
L 182.050909 175.7952 
L 218.123636 175.7952 
L 254.196364 175.7952 
L 290.269091 175.7952 
L 326.341818 175.7952 
L 362.414545 175.7952 
L 398.487273 175.7952 
L 398.487273 173.76768 
L 398.487273 173.76768 
L 362.414545 173.76768 
L 326.341818 173.76768 
L 290.269091 173.76768 
L 254.196364 173.76768 
L 218.123636 173.76768 
L 182.050909 173.76768 
L 145.978182 173.76768 
L 109.905455 173.76768 
L 73.832727 240.67584 
z
" clip-path="url(#pc1f9ec1f89)" style="fill: #8c564b"/>
   </g>
   <g id="PolyCollection_67">
    <path d="M 73.832727 239.66208 
L 73.832727 240.67584 
L 109.905455 173.76768 
L 145.978182 173.76768 
L 182.050909 173.76768 
L 218.123636 173.76768 
L 254.196364 173.76768 
L 290.269091 173.76768 
L 326.341818 173.76768 
L 362.414545 173.76768 
L 398.487273 173.76768 
L 398.487273 171.74016 
L 398.487273 171.74016 
L 362.414545 171.74016 
L 326.341818 171.74016 
L 290.269091 171.74016 
L 254.196364 171.74016 
L 218.123636 171.74016 
L 182.050909 171.74016 
L 145.978182 171.74016 
L 109.905455 171.74016 
L 73.832727 239.66208 
z
" clip-path="url(#pc1f9ec1f89)" style="fill: #e377c2"/>
   </g>
   <g id="PolyCollection_68">
    <path d="M 73.832727 238.64832 
L 73.832727 239.66208 
L 109.905455 171.74016 
L 145.978182 171.74016 
L 182.050909 171.74016 
L 218.123636 171.74016 
L 254.196364 171.74016 
L 290.269091 171.74016 
L 326.341818 171.74016 
L 362.414545 171.74016 
L 398.487273 171.74016 
L 398.487273 169.71264 
L 398.487273 169.71264 
L 362.414545 169.71264 
L 326.341818 169.71264 
L 290.269091 169.71264 
L 254.196364 169.71264 
L 218.123636 169.71264 
L 182.050909 169.71264 
L 145.978182 169.71264 
L 109.905455 169.71264 
L 73.832727 238.64832 
z
" clip-path="url(#pc1f9ec1f89)" style="fill: #7f7f7f"/>
   </g>
   <g id="PolyCollection_69">
    <path d="M 73.832727 237.63456 
L 73.832727 238.64832 
L 109.905455 169.71264 
L 145.978182 169.71264 
L 182.050909 169.71264 
L 218.123636 169.71264 
L 254.196364 169.71264 
L 290.269091 169.71264 
L 326.341818 169.71264 
L 362.414545 169.71264 
L 398.487273 169.71264 
L 398.487273 167.68512 
L 398.487273 167.68512 
L 362.414545 167.68512 
L 326.341818 167.68512 
L 290.269091 167.68512 
L 254.196364 167.68512 
L 218.123636 167.68512 
L 182.050909 167.68512 
L 145.978182 167.68512 
L 109.905455 167.68512 
L 73.832727 237.63456 
z
" clip-path="url(#pc1f9ec1f89)" style="fill: #bcbd22"/>
   </g>
   <g id="PolyCollection_70">
    <path d="M 73.832727 236.6208 
L 73.832727 237.63456 
L 109.905455 167.68512 
L 145.978182 167.68512 
L 182.050909 167.68512 
L 218.123636 167.68512 
L 254.196364 167.68512 
L 290.269091 167.68512 
L 326.341818 167.68512 
L 362.414545 167.68512 
L 398.487273 167.68512 
L 398.487273 165.6576 
L 398.487273 165.6576 
L 362.414545 165.6576 
L 326.341818 165.6576 
L 290.269091 165.6576 
L 254.196364 165.6576 
L 218.123636 165.6576 
L 182.050909 165.6576 
L 145.978182 165.6576 
L 109.905455 165.6576 
L 73.832727 236.6208 
z
" clip-path="url(#pc1f9ec1f89)" style="fill: #17becf"/>
   </g>
   <g id="PolyCollection_71">
    <path d="M 73.832727 235.60704 
L 73.832727 236.6208 
L 109.905455 165.6576 
L 145.978182 165.6576 
L 182.050909 165.6576 
L 218.123636 165.6576 
L 254.196364 165.6576 
L 290.269091 165.6576 
L 326.341818 165.6576 
L 362.414545 165.6576 
L 398.487273 165.6576 
L 398.487273 163.63008 
L 398.487273 163.63008 
L 362.414545 163.63008 
L 326.341818 163.63008 
L 290.269091 163.63008 
L 254.196364 163.63008 
L 218.123636 163.63008 
L 182.050909 163.63008 
L 145.978182 163.63008 
L 109.905455 163.63008 
L 73.832727 235.60704 
z
" clip-path="url(#pc1f9ec1f89)" style="fill: #1f77b4"/>
   </g>
   <g id="PolyCollection_72">
    <path d="M 73.832727 234.59328 
L 73.832727 235.60704 
L 109.905455 163.63008 
L 145.978182 163.63008 
L 182.050909 163.63008 
L 218.123636 163.63008 
L 254.196364 163.63008 
L 290.269091 163.63008 
L 326.341818 163.63008 
L 362.414545 163.63008 
L 398.487273 163.63008 
L 398.487273 161.60256 
L 398.487273 161.60256 
L 362.414545 161.60256 
L 326.341818 161.60256 
L 290.269091 161.60256 
L 254.196364 161.60256 
L 218.123636 161.60256 
L 182.050909 161.60256 
L 145.978182 161.60256 
L 109.905455 161.60256 
L 73.832727 234.59328 
z
" clip-path="url(#pc1f9ec1f89)" style="fill: #ff7f0e"/>
   </g>
   <g id="PolyCollection_73">
    <path d="M 73.832727 233.57952 
L 73.832727 234.59328 
L 109.905455 161.60256 
L 145.978182 161.60256 
L 182.050909 161.60256 
L 218.123636 161.60256 
L 254.196364 161.60256 
L 290.269091 161.60256 
L 326.341818 161.60256 
L 362.414545 161.60256 
L 398.487273 161.60256 
L 398.487273 159.57504 
L 398.487273 159.57504 
L 362.414545 159.57504 
L 326.341818 159.57504 
L 290.269091 159.57504 
L 254.196364 159.57504 
L 218.123636 159.57504 
L 182.050909 159.57504 
L 145.978182 159.57504 
L 109.905455 159.57504 
L 73.832727 233.57952 
z
" clip-path="url(#pc1f9ec1f89)" style="fill: #2ca02c"/>
   </g>
   <g id="PolyCollection_74">
    <path d="M 73.832727 232.56576 
L 73.832727 233.57952 
L 109.905455 159.57504 
L 145.978182 159.57504 
L 182.050909 159.57504 
L 218.123636 159.57504 
L 254.196364 159.57504 
L 290.269091 159.57504 
L 326.341818 159.57504 
L 362.414545 159.57504 
L 398.487273 159.57504 
L 398.487273 157.54752 
L 398.487273 157.54752 
L 362.414545 157.54752 
L 326.341818 157.54752 
L 290.269091 157.54752 
L 254.196364 157.54752 
L 218.123636 157.54752 
L 182.050909 157.54752 
L 145.978182 157.54752 
L 109.905455 157.54752 
L 73.832727 232.56576 
z
" clip-path="url(#pc1f9ec1f89)" style="fill: #d62728"/>
   </g>
   <g id="PolyCollection_75">
    <path d="M 73.832727 231.552 
L 73.832727 232.56576 
L 109.905455 157.54752 
L 145.978182 157.54752 
L 182.050909 157.54752 
L 218.123636 157.54752 
L 254.196364 157.54752 
L 290.269091 157.54752 
L 326.341818 157.54752 
L 362.414545 157.54752 
L 398.487273 157.54752 
L 398.487273 155.52 
L 398.487273 155.52 
L 362.414545 155.52 
L 326.341818 155.52 
L 290.269091 155.52 
L 254.196364 155.52 
L 218.123636 155.52 
L 182.050909 155.52 
L 145.978182 155.52 
L 109.905455 155.52 
L 73.832727 231.552 
z
" clip-path="url(#pc1f9ec1f89)" style="fill: #9467bd"/>
   </g>
   <g id="PolyCollection_76">
    <path d="M 73.832727 230.53824 
L 73.832727 231.552 
L 109.905455 155.52 
L 145.978182 155.52 
L 182.050909 155.52 
L 218.123636 155.52 
L 254.196364 155.52 
L 290.269091 155.52 
L 326.341818 155.52 
L 362.414545 155.52 
L 398.487273 155.52 
L 398.487273 153.49248 
L 398.487273 153.49248 
L 362.414545 153.49248 
L 326.341818 153.49248 
L 290.269091 153.49248 
L 254.196364 153.49248 
L 218.123636 153.49248 
L 182.050909 153.49248 
L 145.978182 153.49248 
L 109.905455 153.49248 
L 73.832727 230.53824 
z
" clip-path="url(#pc1f9ec1f89)" style="fill: #8c564b"/>
   </g>
   <g id="PolyCollection_77">
    <path d="M 73.832727 229.52448 
L 73.832727 230.53824 
L 109.905455 153.49248 
L 145.978182 153.49248 
L 182.050909 153.49248 
L 218.123636 153.49248 
L 254.196364 153.49248 
L 290.269091 153.49248 
L 326.341818 153.49248 
L 362.414545 153.49248 
L 398.487273 153.49248 
L 398.487273 151.46496 
L 398.487273 151.46496 
L 362.414545 151.46496 
L 326.341818 151.46496 
L 290.269091 151.46496 
L 254.196364 151.46496 
L 218.123636 151.46496 
L 182.050909 151.46496 
L 145.978182 151.46496 
L 109.905455 151.46496 
L 73.832727 229.52448 
z
" clip-path="url(#pc1f9ec1f89)" style="fill: #e377c2"/>
   </g>
   <g id="PolyCollection_78">
    <path d="M 73.832727 228.51072 
L 73.832727 229.52448 
L 109.905455 151.46496 
L 145.978182 151.46496 
L 182.050909 151.46496 
L 218.123636 151.46496 
L 254.196364 151.46496 
L 290.269091 151.46496 
L 326.341818 151.46496 
L 362.414545 151.46496 
L 398.487273 151.46496 
L 398.487273 149.43744 
L 398.487273 149.43744 
L 362.414545 149.43744 
L 326.341818 149.43744 
L 290.269091 149.43744 
L 254.196364 149.43744 
L 218.123636 149.43744 
L 182.050909 149.43744 
L 145.978182 149.43744 
L 109.905455 149.43744 
L 73.832727 228.51072 
z
" clip-path="url(#pc1f9ec1f89)" style="fill: #7f7f7f"/>
   </g>
   <g id="PolyCollection_79">
    <path d="M 73.832727 227.49696 
L 73.832727 228.51072 
L 109.905455 149.43744 
L 145.978182 149.43744 
L 182.050909 149.43744 
L 218.123636 149.43744 
L 254.196364 149.43744 
L 290.269091 149.43744 
L 326.341818 149.43744 
L 362.414545 149.43744 
L 398.487273 149.43744 
L 398.487273 147.40992 
L 398.487273 147.40992 
L 362.414545 147.40992 
L 326.341818 147.40992 
L 290.269091 147.40992 
L 254.196364 147.40992 
L 218.123636 147.40992 
L 182.050909 147.40992 
L 145.978182 147.40992 
L 109.905455 147.40992 
L 73.832727 227.49696 
z
" clip-path="url(#pc1f9ec1f89)" style="fill: #bcbd22"/>
   </g>
   <g id="PolyCollection_80">
    <path d="M 73.832727 226.4832 
L 73.832727 227.49696 
L 109.905455 147.40992 
L 145.978182 147.40992 
L 182.050909 147.40992 
L 218.123636 147.40992 
L 254.196364 147.40992 
L 290.269091 147.40992 
L 326.341818 147.40992 
L 362.414545 147.40992 
L 398.487273 147.40992 
L 398.487273 145.3824 
L 398.487273 145.3824 
L 362.414545 145.3824 
L 326.341818 145.3824 
L 290.269091 145.3824 
L 254.196364 145.3824 
L 218.123636 145.3824 
L 182.050909 145.3824 
L 145.978182 145.3824 
L 109.905455 145.3824 
L 73.832727 226.4832 
z
" clip-path="url(#pc1f9ec1f89)" style="fill: #17becf"/>
   </g>
   <g id="PolyCollection_81">
    <path d="M 73.832727 225.46944 
L 73.832727 226.4832 
L 109.905455 145.3824 
L 145.978182 145.3824 
L 182.050909 145.3824 
L 218.123636 145.3824 
L 254.196364 145.3824 
L 290.269091 145.3824 
L 326.341818 145.3824 
L 362.414545 145.3824 
L 398.487273 145.3824 
L 398.487273 143.35488 
L 398.487273 143.35488 
L 362.414545 143.35488 
L 326.341818 143.35488 
L 290.269091 143.35488 
L 254.196364 143.35488 
L 218.123636 143.35488 
L 182.050909 143.35488 
L 145.978182 143.35488 
L 109.905455 143.35488 
L 73.832727 225.46944 
z
" clip-path="url(#pc1f9ec1f89)" style="fill: #1f77b4"/>
   </g>
   <g id="PolyCollection_82">
    <path d="M 73.832727 224.45568 
L 73.832727 225.46944 
L 109.905455 143.35488 
L 145.978182 143.35488 
L 182.050909 143.35488 
L 218.123636 143.35488 
L 254.196364 143.35488 
L 290.269091 143.35488 
L 326.341818 143.35488 
L 362.414545 143.35488 
L 398.487273 143.35488 
L 398.487273 141.32736 
L 398.487273 141.32736 
L 362.414545 141.32736 
L 326.341818 141.32736 
L 290.269091 141.32736 
L 254.196364 141.32736 
L 218.123636 141.32736 
L 182.050909 141.32736 
L 145.978182 141.32736 
L 109.905455 141.32736 
L 73.832727 224.45568 
z
" clip-path="url(#pc1f9ec1f89)" style="fill: #ff7f0e"/>
   </g>
   <g id="PolyCollection_83">
    <path d="M 73.832727 223.44192 
L 73.832727 224.45568 
L 109.905455 141.32736 
L 145.978182 141.32736 
L 182.050909 141.32736 
L 218.123636 141.32736 
L 254.196364 141.32736 
L 290.269091 141.32736 
L 326.341818 141.32736 
L 362.414545 141.32736 
L 398.487273 141.32736 
L 398.487273 139.29984 
L 398.487273 139.29984 
L 362.414545 139.29984 
L 326.341818 139.29984 
L 290.269091 139.29984 
L 254.196364 139.29984 
L 218.123636 139.29984 
L 182.050909 139.29984 
L 145.978182 139.29984 
L 109.905455 139.29984 
L 73.832727 223.44192 
z
" clip-path="url(#pc1f9ec1f89)" style="fill: #2ca02c"/>
   </g>
   <g id="PolyCollection_84">
    <path d="M 73.832727 222.42816 
L 73.832727 223.44192 
L 109.905455 139.29984 
L 145.978182 139.29984 
L 182.050909 139.29984 
L 218.123636 139.29984 
L 254.196364 139.29984 
L 290.269091 139.29984 
L 326.341818 139.29984 
L 362.414545 139.29984 
L 398.487273 139.29984 
L 398.487273 137.27232 
L 398.487273 137.27232 
L 362.414545 137.27232 
L 326.341818 137.27232 
L 290.269091 137.27232 
L 254.196364 137.27232 
L 218.123636 137.27232 
L 182.050909 137.27232 
L 145.978182 137.27232 
L 109.905455 137.27232 
L 73.832727 222.42816 
z
" clip-path="url(#pc1f9ec1f89)" style="fill: #d62728"/>
   </g>
   <g id="PolyCollection_85">
    <path d="M 73.832727 221.4144 
L 73.832727 222.42816 
L 109.905455 137.27232 
L 145.978182 137.27232 
L 182.050909 137.27232 
L 218.123636 137.27232 
L 254.196364 137.27232 
L 290.269091 137.27232 
L 326.341818 137.27232 
L 362.414545 137.27232 
L 398.487273 137.27232 
L 398.487273 135.2448 
L 398.487273 135.2448 
L 362.414545 135.2448 
L 326.341818 135.2448 
L 290.269091 135.2448 
L 254.196364 135.2448 
L 218.123636 135.2448 
L 182.050909 135.2448 
L 145.978182 135.2448 
L 109.905455 135.2448 
L 73.832727 221.4144 
z
" clip-path="url(#pc1f9ec1f89)" style="fill: #9467bd"/>
   </g>
   <g id="PolyCollection_86">
    <path d="M 73.832727 220.40064 
L 73.832727 221.4144 
L 109.905455 135.2448 
L 145.978182 135.2448 
L 182.050909 135.2448 
L 218.123636 135.2448 
L 254.196364 135.2448 
L 290.269091 135.2448 
L 326.341818 135.2448 
L 362.414545 135.2448 
L 398.487273 135.2448 
L 398.487273 133.21728 
L 398.487273 133.21728 
L 362.414545 133.21728 
L 326.341818 133.21728 
L 290.269091 133.21728 
L 254.196364 133.21728 
L 218.123636 133.21728 
L 182.050909 133.21728 
L 145.978182 133.21728 
L 109.905455 133.21728 
L 73.832727 220.40064 
z
" clip-path="url(#pc1f9ec1f89)" style="fill: #8c564b"/>
   </g>
   <g id="PolyCollection_87">
    <path d="M 73.832727 219.38688 
L 73.832727 220.40064 
L 109.905455 133.21728 
L 145.978182 133.21728 
L 182.050909 133.21728 
L 218.123636 133.21728 
L 254.196364 133.21728 
L 290.269091 133.21728 
L 326.341818 133.21728 
L 362.414545 133.21728 
L 398.487273 133.21728 
L 398.487273 131.18976 
L 398.487273 131.18976 
L 362.414545 131.18976 
L 326.341818 131.18976 
L 290.269091 131.18976 
L 254.196364 131.18976 
L 218.123636 131.18976 
L 182.050909 131.18976 
L 145.978182 131.18976 
L 109.905455 131.18976 
L 73.832727 219.38688 
z
" clip-path="url(#pc1f9ec1f89)" style="fill: #e377c2"/>
   </g>
   <g id="PolyCollection_88">
    <path d="M 73.832727 218.37312 
L 73.832727 219.38688 
L 109.905455 131.18976 
L 145.978182 131.18976 
L 182.050909 131.18976 
L 218.123636 131.18976 
L 254.196364 131.18976 
L 290.269091 131.18976 
L 326.341818 131.18976 
L 362.414545 131.18976 
L 398.487273 131.18976 
L 398.487273 129.16224 
L 398.487273 129.16224 
L 362.414545 129.16224 
L 326.341818 129.16224 
L 290.269091 129.16224 
L 254.196364 129.16224 
L 218.123636 129.16224 
L 182.050909 129.16224 
L 145.978182 129.16224 
L 109.905455 129.16224 
L 73.832727 218.37312 
z
" clip-path="url(#pc1f9ec1f89)" style="fill: #7f7f7f"/>
   </g>
   <g id="PolyCollection_89">
    <path d="M 73.832727 217.35936 
L 73.832727 218.37312 
L 109.905455 129.16224 
L 145.978182 129.16224 
L 182.050909 129.16224 
L 218.123636 129.16224 
L 254.196364 129.16224 
L 290.269091 129.16224 
L 326.341818 129.16224 
L 362.414545 129.16224 
L 398.487273 129.16224 
L 398.487273 127.13472 
L 398.487273 127.13472 
L 362.414545 127.13472 
L 326.341818 127.13472 
L 290.269091 127.13472 
L 254.196364 127.13472 
L 218.123636 127.13472 
L 182.050909 127.13472 
L 145.978182 127.13472 
L 109.905455 127.13472 
L 73.832727 217.35936 
z
" clip-path="url(#pc1f9ec1f89)" style="fill: #bcbd22"/>
   </g>
   <g id="PolyCollection_90">
    <path d="M 73.832727 216.3456 
L 73.832727 217.35936 
L 109.905455 127.13472 
L 145.978182 127.13472 
L 182.050909 127.13472 
L 218.123636 127.13472 
L 254.196364 127.13472 
L 290.269091 127.13472 
L 326.341818 127.13472 
L 362.414545 127.13472 
L 398.487273 127.13472 
L 398.487273 125.1072 
L 398.487273 125.1072 
L 362.414545 125.1072 
L 326.341818 125.1072 
L 290.269091 125.1072 
L 254.196364 125.1072 
L 218.123636 125.1072 
L 182.050909 125.1072 
L 145.978182 125.1072 
L 109.905455 125.1072 
L 73.832727 216.3456 
z
" clip-path="url(#pc1f9ec1f89)" style="fill: #17becf"/>
   </g>
   <g id="PolyCollection_91">
    <path d="M 73.832727 215.33184 
L 73.832727 216.3456 
L 109.905455 125.1072 
L 145.978182 125.1072 
L 182.050909 125.1072 
L 218.123636 125.1072 
L 254.196364 125.1072 
L 290.269091 125.1072 
L 326.341818 125.1072 
L 362.414545 125.1072 
L 398.487273 125.1072 
L 398.487273 123.07968 
L 398.487273 123.07968 
L 362.414545 123.07968 
L 326.341818 123.07968 
L 290.269091 123.07968 
L 254.196364 123.07968 
L 218.123636 123.07968 
L 182.050909 123.07968 
L 145.978182 123.07968 
L 109.905455 123.07968 
L 73.832727 215.33184 
z
" clip-path="url(#pc1f9ec1f89)" style="fill: #1f77b4"/>
   </g>
   <g id="PolyCollection_92">
    <path d="M 73.832727 214.31808 
L 73.832727 215.33184 
L 109.905455 123.07968 
L 145.978182 123.07968 
L 182.050909 123.07968 
L 218.123636 123.07968 
L 254.196364 123.07968 
L 290.269091 123.07968 
L 326.341818 123.07968 
L 362.414545 123.07968 
L 398.487273 123.07968 
L 398.487273 121.05216 
L 398.487273 121.05216 
L 362.414545 121.05216 
L 326.341818 121.05216 
L 290.269091 121.05216 
L 254.196364 121.05216 
L 218.123636 121.05216 
L 182.050909 121.05216 
L 145.978182 121.05216 
L 109.905455 121.05216 
L 73.832727 214.31808 
z
" clip-path="url(#pc1f9ec1f89)" style="fill: #ff7f0e"/>
   </g>
   <g id="PolyCollection_93">
    <path d="M 73.832727 213.30432 
L 73.832727 214.31808 
L 109.905455 121.05216 
L 145.978182 121.05216 
L 182.050909 121.05216 
L 218.123636 121.05216 
L 254.196364 121.05216 
L 290.269091 121.05216 
L 326.341818 121.05216 
L 362.414545 121.05216 
L 398.487273 121.05216 
L 398.487273 119.02464 
L 398.487273 119.02464 
L 362.414545 119.02464 
L 326.341818 119.02464 
L 290.269091 119.02464 
L 254.196364 119.02464 
L 218.123636 119.02464 
L 182.050909 119.02464 
L 145.978182 119.02464 
L 109.905455 119.02464 
L 73.832727 213.30432 
z
" clip-path="url(#pc1f9ec1f89)" style="fill: #2ca02c"/>
   </g>
   <g id="PolyCollection_94">
    <path d="M 73.832727 212.29056 
L 73.832727 213.30432 
L 109.905455 119.02464 
L 145.978182 119.02464 
L 182.050909 119.02464 
L 218.123636 119.02464 
L 254.196364 119.02464 
L 290.269091 119.02464 
L 326.341818 119.02464 
L 362.414545 119.02464 
L 398.487273 119.02464 
L 398.487273 116.99712 
L 398.487273 116.99712 
L 362.414545 116.99712 
L 326.341818 116.99712 
L 290.269091 116.99712 
L 254.196364 116.99712 
L 218.123636 116.99712 
L 182.050909 116.99712 
L 145.978182 116.99712 
L 109.905455 116.99712 
L 73.832727 212.29056 
z
" clip-path="url(#pc1f9ec1f89)" style="fill: #d62728"/>
   </g>
   <g id="PolyCollection_95">
    <path d="M 73.832727 211.2768 
L 73.832727 212.29056 
L 109.905455 116.99712 
L 145.978182 116.99712 
L 182.050909 116.99712 
L 218.123636 116.99712 
L 254.196364 116.99712 
L 290.269091 116.99712 
L 326.341818 116.99712 
L 362.414545 116.99712 
L 398.487273 116.99712 
L 398.487273 114.9696 
L 398.487273 114.9696 
L 362.414545 114.9696 
L 326.341818 114.9696 
L 290.269091 114.9696 
L 254.196364 114.9696 
L 218.123636 114.9696 
L 182.050909 114.9696 
L 145.978182 114.9696 
L 109.905455 114.9696 
L 73.832727 211.2768 
z
" clip-path="url(#pc1f9ec1f89)" style="fill: #9467bd"/>
   </g>
   <g id="PolyCollection_96">
    <path d="M 73.832727 210.26304 
L 73.832727 211.2768 
L 109.905455 114.9696 
L 145.978182 114.9696 
L 182.050909 114.9696 
L 218.123636 114.9696 
L 254.196364 114.9696 
L 290.269091 114.9696 
L 326.341818 114.9696 
L 362.414545 114.9696 
L 398.487273 114.9696 
L 398.487273 112.94208 
L 398.487273 112.94208 
L 362.414545 112.94208 
L 326.341818 112.94208 
L 290.269091 112.94208 
L 254.196364 112.94208 
L 218.123636 112.94208 
L 182.050909 112.94208 
L 145.978182 112.94208 
L 109.905455 112.94208 
L 73.832727 210.26304 
z
" clip-path="url(#pc1f9ec1f89)" style="fill: #8c564b"/>
   </g>
   <g id="PolyCollection_97">
    <path d="M 73.832727 209.24928 
L 73.832727 210.26304 
L 109.905455 112.94208 
L 145.978182 112.94208 
L 182.050909 112.94208 
L 218.123636 112.94208 
L 254.196364 112.94208 
L 290.269091 112.94208 
L 326.341818 112.94208 
L 362.414545 112.94208 
L 398.487273 112.94208 
L 398.487273 110.91456 
L 398.487273 110.91456 
L 362.414545 110.91456 
L 326.341818 110.91456 
L 290.269091 110.91456 
L 254.196364 110.91456 
L 218.123636 110.91456 
L 182.050909 110.91456 
L 145.978182 110.91456 
L 109.905455 110.91456 
L 73.832727 209.24928 
z
" clip-path="url(#pc1f9ec1f89)" style="fill: #e377c2"/>
   </g>
   <g id="PolyCollection_98">
    <path d="M 73.832727 208.23552 
L 73.832727 209.24928 
L 109.905455 110.91456 
L 145.978182 110.91456 
L 182.050909 110.91456 
L 218.123636 110.91456 
L 254.196364 110.91456 
L 290.269091 110.91456 
L 326.341818 110.91456 
L 362.414545 110.91456 
L 398.487273 110.91456 
L 398.487273 108.88704 
L 398.487273 108.88704 
L 362.414545 108.88704 
L 326.341818 108.88704 
L 290.269091 108.88704 
L 254.196364 108.88704 
L 218.123636 108.88704 
L 182.050909 108.88704 
L 145.978182 108.88704 
L 109.905455 108.88704 
L 73.832727 208.23552 
z
" clip-path="url(#pc1f9ec1f89)" style="fill: #7f7f7f"/>
   </g>
   <g id="PolyCollection_99">
    <path d="M 73.832727 207.22176 
L 73.832727 208.23552 
L 109.905455 108.88704 
L 145.978182 108.88704 
L 182.050909 108.88704 
L 218.123636 108.88704 
L 254.196364 108.88704 
L 290.269091 108.88704 
L 326.341818 108.88704 
L 362.414545 108.88704 
L 398.487273 108.88704 
L 398.487273 106.85952 
L 398.487273 106.85952 
L 362.414545 106.85952 
L 326.341818 106.85952 
L 290.269091 106.85952 
L 254.196364 106.85952 
L 218.123636 106.85952 
L 182.050909 106.85952 
L 145.978182 106.85952 
L 109.905455 106.85952 
L 73.832727 207.22176 
z
" clip-path="url(#pc1f9ec1f89)" style="fill: #bcbd22"/>
   </g>
   <g id="PolyCollection_100">
    <path d="M 73.832727 206.208 
L 73.832727 207.22176 
L 109.905455 106.85952 
L 145.978182 106.85952 
L 182.050909 106.85952 
L 218.123636 106.85952 
L 254.196364 106.85952 
L 290.269091 106.85952 
L 326.341818 106.85952 
L 362.414545 106.85952 
L 398.487273 106.85952 
L 398.487273 104.832 
L 398.487273 104.832 
L 362.414545 104.832 
L 326.341818 104.832 
L 290.269091 104.832 
L 254.196364 104.832 
L 218.123636 104.832 
L 182.050909 104.832 
L 145.978182 104.832 
L 109.905455 104.832 
L 73.832727 206.208 
z
" clip-path="url(#pc1f9ec1f89)" style="fill: #17becf"/>
   </g>
   <g id="PolyCollection_101">
    <path d="M 73.832727 205.19424 
L 73.832727 206.208 
L 109.905455 104.832 
L 145.978182 104.832 
L 182.050909 104.832 
L 218.123636 104.832 
L 254.196364 104.832 
L 290.269091 104.832 
L 326.341818 104.832 
L 362.414545 104.832 
L 398.487273 104.832 
L 398.487273 102.80448 
L 398.487273 102.80448 
L 362.414545 102.80448 
L 326.341818 102.80448 
L 290.269091 102.80448 
L 254.196364 102.80448 
L 218.123636 102.80448 
L 182.050909 102.80448 
L 145.978182 102.80448 
L 109.905455 102.80448 
L 73.832727 205.19424 
z
" clip-path="url(#pc1f9ec1f89)" style="fill: #1f77b4"/>
   </g>
   <g id="PolyCollection_102">
    <path d="M 73.832727 204.18048 
L 73.832727 205.19424 
L 109.905455 102.80448 
L 145.978182 102.80448 
L 182.050909 102.80448 
L 218.123636 102.80448 
L 254.196364 102.80448 
L 290.269091 102.80448 
L 326.341818 102.80448 
L 362.414545 102.80448 
L 398.487273 102.80448 
L 398.487273 100.77696 
L 398.487273 100.77696 
L 362.414545 100.77696 
L 326.341818 100.77696 
L 290.269091 100.77696 
L 254.196364 100.77696 
L 218.123636 100.77696 
L 182.050909 100.77696 
L 145.978182 100.77696 
L 109.905455 100.77696 
L 73.832727 204.18048 
z
" clip-path="url(#pc1f9ec1f89)" style="fill: #ff7f0e"/>
   </g>
   <g id="PolyCollection_103">
    <path d="M 73.832727 203.16672 
L 73.832727 204.18048 
L 109.905455 100.77696 
L 145.978182 100.77696 
L 182.050909 100.77696 
L 218.123636 100.77696 
L 254.196364 100.77696 
L 290.269091 100.77696 
L 326.341818 100.77696 
L 362.414545 100.77696 
L 398.487273 100.77696 
L 398.487273 98.74944 
L 398.487273 98.74944 
L 362.414545 98.74944 
L 326.341818 98.74944 
L 290.269091 98.74944 
L 254.196364 98.74944 
L 218.123636 98.74944 
L 182.050909 98.74944 
L 145.978182 98.74944 
L 109.905455 98.74944 
L 73.832727 203.16672 
z
" clip-path="url(#pc1f9ec1f89)" style="fill: #2ca02c"/>
   </g>
   <g id="PolyCollection_104">
    <path d="M 73.832727 202.15296 
L 73.832727 203.16672 
L 109.905455 98.74944 
L 145.978182 98.74944 
L 182.050909 98.74944 
L 218.123636 98.74944 
L 254.196364 98.74944 
L 290.269091 98.74944 
L 326.341818 98.74944 
L 362.414545 98.74944 
L 398.487273 98.74944 
L 398.487273 96.72192 
L 398.487273 96.72192 
L 362.414545 96.72192 
L 326.341818 96.72192 
L 290.269091 96.72192 
L 254.196364 96.72192 
L 218.123636 96.72192 
L 182.050909 96.72192 
L 145.978182 96.72192 
L 109.905455 96.72192 
L 73.832727 202.15296 
z
" clip-path="url(#pc1f9ec1f89)" style="fill: #d62728"/>
   </g>
   <g id="PolyCollection_105">
    <path d="M 73.832727 201.1392 
L 73.832727 202.15296 
L 109.905455 96.72192 
L 145.978182 96.72192 
L 182.050909 96.72192 
L 218.123636 96.72192 
L 254.196364 96.72192 
L 290.269091 96.72192 
L 326.341818 96.72192 
L 362.414545 96.72192 
L 398.487273 96.72192 
L 398.487273 94.6944 
L 398.487273 94.6944 
L 362.414545 94.6944 
L 326.341818 94.6944 
L 290.269091 94.6944 
L 254.196364 94.6944 
L 218.123636 94.6944 
L 182.050909 94.6944 
L 145.978182 94.6944 
L 109.905455 94.6944 
L 73.832727 201.1392 
z
" clip-path="url(#pc1f9ec1f89)" style="fill: #9467bd"/>
   </g>
   <g id="PolyCollection_106">
    <path d="M 73.832727 200.12544 
L 73.832727 201.1392 
L 109.905455 94.6944 
L 145.978182 94.6944 
L 182.050909 94.6944 
L 218.123636 94.6944 
L 254.196364 94.6944 
L 290.269091 94.6944 
L 326.341818 94.6944 
L 362.414545 94.6944 
L 398.487273 94.6944 
L 398.487273 92.66688 
L 398.487273 92.66688 
L 362.414545 92.66688 
L 326.341818 92.66688 
L 290.269091 92.66688 
L 254.196364 92.66688 
L 218.123636 92.66688 
L 182.050909 92.66688 
L 145.978182 92.66688 
L 109.905455 92.66688 
L 73.832727 200.12544 
z
" clip-path="url(#pc1f9ec1f89)" style="fill: #8c564b"/>
   </g>
   <g id="PolyCollection_107">
    <path d="M 73.832727 199.11168 
L 73.832727 200.12544 
L 109.905455 92.66688 
L 145.978182 92.66688 
L 182.050909 92.66688 
L 218.123636 92.66688 
L 254.196364 92.66688 
L 290.269091 92.66688 
L 326.341818 92.66688 
L 362.414545 92.66688 
L 398.487273 92.66688 
L 398.487273 90.63936 
L 398.487273 90.63936 
L 362.414545 90.63936 
L 326.341818 90.63936 
L 290.269091 90.63936 
L 254.196364 90.63936 
L 218.123636 90.63936 
L 182.050909 90.63936 
L 145.978182 90.63936 
L 109.905455 90.63936 
L 73.832727 199.11168 
z
" clip-path="url(#pc1f9ec1f89)" style="fill: #e377c2"/>
   </g>
   <g id="PolyCollection_108">
    <path d="M 73.832727 198.09792 
L 73.832727 199.11168 
L 109.905455 90.63936 
L 145.978182 90.63936 
L 182.050909 90.63936 
L 218.123636 90.63936 
L 254.196364 90.63936 
L 290.269091 90.63936 
L 326.341818 90.63936 
L 362.414545 90.63936 
L 398.487273 90.63936 
L 398.487273 88.61184 
L 398.487273 88.61184 
L 362.414545 88.61184 
L 326.341818 88.61184 
L 290.269091 88.61184 
L 254.196364 88.61184 
L 218.123636 88.61184 
L 182.050909 88.61184 
L 145.978182 88.61184 
L 109.905455 88.61184 
L 73.832727 198.09792 
z
" clip-path="url(#pc1f9ec1f89)" style="fill: #7f7f7f"/>
   </g>
   <g id="PolyCollection_109">
    <path d="M 73.832727 197.08416 
L 73.832727 198.09792 
L 109.905455 88.61184 
L 145.978182 88.61184 
L 182.050909 88.61184 
L 218.123636 88.61184 
L 254.196364 88.61184 
L 290.269091 88.61184 
L 326.341818 88.61184 
L 362.414545 88.61184 
L 398.487273 88.61184 
L 398.487273 86.58432 
L 398.487273 86.58432 
L 362.414545 86.58432 
L 326.341818 86.58432 
L 290.269091 86.58432 
L 254.196364 86.58432 
L 218.123636 86.58432 
L 182.050909 86.58432 
L 145.978182 86.58432 
L 109.905455 86.58432 
L 73.832727 197.08416 
z
" clip-path="url(#pc1f9ec1f89)" style="fill: #bcbd22"/>
   </g>
   <g id="PolyCollection_110">
    <path d="M 73.832727 196.0704 
L 73.832727 197.08416 
L 109.905455 86.58432 
L 145.978182 86.58432 
L 182.050909 86.58432 
L 218.123636 86.58432 
L 254.196364 86.58432 
L 290.269091 86.58432 
L 326.341818 86.58432 
L 362.414545 86.58432 
L 398.487273 86.58432 
L 398.487273 84.5568 
L 398.487273 84.5568 
L 362.414545 84.5568 
L 326.341818 84.5568 
L 290.269091 84.5568 
L 254.196364 84.5568 
L 218.123636 84.5568 
L 182.050909 84.5568 
L 145.978182 84.5568 
L 109.905455 84.5568 
L 73.832727 196.0704 
z
" clip-path="url(#pc1f9ec1f89)" style="fill: #17becf"/>
   </g>
   <g id="PolyCollection_111">
    <path d="M 73.832727 195.05664 
L 73.832727 196.0704 
L 109.905455 84.5568 
L 145.978182 84.5568 
L 182.050909 84.5568 
L 218.123636 84.5568 
L 254.196364 84.5568 
L 290.269091 84.5568 
L 326.341818 84.5568 
L 362.414545 84.5568 
L 398.487273 84.5568 
L 398.487273 82.52928 
L 398.487273 82.52928 
L 362.414545 82.52928 
L 326.341818 82.52928 
L 290.269091 82.52928 
L 254.196364 82.52928 
L 218.123636 82.52928 
L 182.050909 82.52928 
L 145.978182 82.52928 
L 109.905455 82.52928 
L 73.832727 195.05664 
z
" clip-path="url(#pc1f9ec1f89)" style="fill: #1f77b4"/>
   </g>
   <g id="PolyCollection_112">
    <path d="M 73.832727 194.04288 
L 73.832727 195.05664 
L 109.905455 82.52928 
L 145.978182 82.52928 
L 182.050909 82.52928 
L 218.123636 82.52928 
L 254.196364 82.52928 
L 290.269091 82.52928 
L 326.341818 82.52928 
L 362.414545 82.52928 
L 398.487273 82.52928 
L 398.487273 80.50176 
L 398.487273 80.50176 
L 362.414545 80.50176 
L 326.341818 80.50176 
L 290.269091 80.50176 
L 254.196364 80.50176 
L 218.123636 80.50176 
L 182.050909 80.50176 
L 145.978182 80.50176 
L 109.905455 80.50176 
L 73.832727 194.04288 
z
" clip-path="url(#pc1f9ec1f89)" style="fill: #ff7f0e"/>
   </g>
   <g id="PolyCollection_113">
    <path d="M 73.832727 193.02912 
L 73.832727 194.04288 
L 109.905455 80.50176 
L 145.978182 80.50176 
L 182.050909 80.50176 
L 218.123636 80.50176 
L 254.196364 80.50176 
L 290.269091 80.50176 
L 326.341818 80.50176 
L 362.414545 80.50176 
L 398.487273 80.50176 
L 398.487273 78.47424 
L 398.487273 78.47424 
L 362.414545 78.47424 
L 326.341818 78.47424 
L 290.269091 78.47424 
L 254.196364 78.47424 
L 218.123636 78.47424 
L 182.050909 78.47424 
L 145.978182 78.47424 
L 109.905455 78.47424 
L 73.832727 193.02912 
z
" clip-path="url(#pc1f9ec1f89)" style="fill: #2ca02c"/>
   </g>
   <g id="PolyCollection_114">
    <path d="M 73.832727 192.01536 
L 73.832727 193.02912 
L 109.905455 78.47424 
L 145.978182 78.47424 
L 182.050909 78.47424 
L 218.123636 78.47424 
L 254.196364 78.47424 
L 290.269091 78.47424 
L 326.341818 78.47424 
L 362.414545 78.47424 
L 398.487273 78.47424 
L 398.487273 76.44672 
L 398.487273 76.44672 
L 362.414545 76.44672 
L 326.341818 76.44672 
L 290.269091 76.44672 
L 254.196364 76.44672 
L 218.123636 76.44672 
L 182.050909 76.44672 
L 145.978182 76.44672 
L 109.905455 76.44672 
L 73.832727 192.01536 
z
" clip-path="url(#pc1f9ec1f89)" style="fill: #d62728"/>
   </g>
   <g id="PolyCollection_115">
    <path d="M 73.832727 191.0016 
L 73.832727 192.01536 
L 109.905455 76.44672 
L 145.978182 76.44672 
L 182.050909 76.44672 
L 218.123636 76.44672 
L 254.196364 76.44672 
L 290.269091 76.44672 
L 326.341818 76.44672 
L 362.414545 76.44672 
L 398.487273 76.44672 
L 398.487273 74.4192 
L 398.487273 74.4192 
L 362.414545 74.4192 
L 326.341818 74.4192 
L 290.269091 74.4192 
L 254.196364 74.4192 
L 218.123636 74.4192 
L 182.050909 74.4192 
L 145.978182 74.4192 
L 109.905455 74.4192 
L 73.832727 191.0016 
z
" clip-path="url(#pc1f9ec1f89)" style="fill: #9467bd"/>
   </g>
   <g id="PolyCollection_116">
    <path d="M 73.832727 189.98784 
L 73.832727 191.0016 
L 109.905455 74.4192 
L 145.978182 74.4192 
L 182.050909 74.4192 
L 218.123636 74.4192 
L 254.196364 74.4192 
L 290.269091 74.4192 
L 326.341818 74.4192 
L 362.414545 74.4192 
L 398.487273 74.4192 
L 398.487273 72.39168 
L 398.487273 72.39168 
L 362.414545 72.39168 
L 326.341818 72.39168 
L 290.269091 72.39168 
L 254.196364 72.39168 
L 218.123636 72.39168 
L 182.050909 72.39168 
L 145.978182 72.39168 
L 109.905455 72.39168 
L 73.832727 189.98784 
z
" clip-path="url(#pc1f9ec1f89)" style="fill: #8c564b"/>
   </g>
   <g id="PolyCollection_117">
    <path d="M 73.832727 188.97408 
L 73.832727 189.98784 
L 109.905455 72.39168 
L 145.978182 72.39168 
L 182.050909 72.39168 
L 218.123636 72.39168 
L 254.196364 72.39168 
L 290.269091 72.39168 
L 326.341818 72.39168 
L 362.414545 72.39168 
L 398.487273 72.39168 
L 398.487273 70.36416 
L 398.487273 70.36416 
L 362.414545 70.36416 
L 326.341818 70.36416 
L 290.269091 70.36416 
L 254.196364 70.36416 
L 218.123636 70.36416 
L 182.050909 70.36416 
L 145.978182 70.36416 
L 109.905455 70.36416 
L 73.832727 188.97408 
z
" clip-path="url(#pc1f9ec1f89)" style="fill: #e377c2"/>
   </g>
   <g id="PolyCollection_118">
    <path d="M 73.832727 187.96032 
L 73.832727 188.97408 
L 109.905455 70.36416 
L 145.978182 70.36416 
L 182.050909 70.36416 
L 218.123636 70.36416 
L 254.196364 70.36416 
L 290.269091 70.36416 
L 326.341818 70.36416 
L 362.414545 70.36416 
L 398.487273 70.36416 
L 398.487273 68.33664 
L 398.487273 68.33664 
L 362.414545 68.33664 
L 326.341818 68.33664 
L 290.269091 68.33664 
L 254.196364 68.33664 
L 218.123636 68.33664 
L 182.050909 68.33664 
L 145.978182 68.33664 
L 109.905455 68.33664 
L 73.832727 187.96032 
z
" clip-path="url(#pc1f9ec1f89)" style="fill: #7f7f7f"/>
   </g>
   <g id="PolyCollection_119">
    <path d="M 73.832727 186.94656 
L 73.832727 187.96032 
L 109.905455 68.33664 
L 145.978182 68.33664 
L 182.050909 68.33664 
L 218.123636 68.33664 
L 254.196364 68.33664 
L 290.269091 68.33664 
L 326.341818 68.33664 
L 362.414545 68.33664 
L 398.487273 68.33664 
L 398.487273 66.30912 
L 398.487273 66.30912 
L 362.414545 66.30912 
L 326.341818 66.30912 
L 290.269091 66.30912 
L 254.196364 66.30912 
L 218.123636 66.30912 
L 182.050909 66.30912 
L 145.978182 66.30912 
L 109.905455 66.30912 
L 73.832727 186.94656 
z
" clip-path="url(#pc1f9ec1f89)" style="fill: #bcbd22"/>
   </g>
   <g id="PolyCollection_120">
    <path d="M 73.832727 185.9328 
L 73.832727 186.94656 
L 109.905455 66.30912 
L 145.978182 66.30912 
L 182.050909 66.30912 
L 218.123636 66.30912 
L 254.196364 66.30912 
L 290.269091 66.30912 
L 326.341818 66.30912 
L 362.414545 66.30912 
L 398.487273 66.30912 
L 398.487273 64.2816 
L 398.487273 64.2816 
L 362.414545 64.2816 
L 326.341818 64.2816 
L 290.269091 64.2816 
L 254.196364 64.2816 
L 218.123636 64.2816 
L 182.050909 64.2816 
L 145.978182 64.2816 
L 109.905455 64.2816 
L 73.832727 185.9328 
z
" clip-path="url(#pc1f9ec1f89)" style="fill: #17becf"/>
   </g>
   <g id="PolyCollection_121">
    <path d="M 73.832727 184.91904 
L 73.832727 185.9328 
L 109.905455 64.2816 
L 145.978182 64.2816 
L 182.050909 64.2816 
L 218.123636 64.2816 
L 254.196364 64.2816 
L 290.269091 64.2816 
L 326.341818 64.2816 
L 362.414545 64.2816 
L 398.487273 64.2816 
L 398.487273 62.25408 
L 398.487273 62.25408 
L 362.414545 62.25408 
L 326.341818 62.25408 
L 290.269091 62.25408 
L 254.196364 62.25408 
L 218.123636 62.25408 
L 182.050909 62.25408 
L 145.978182 62.25408 
L 109.905455 62.25408 
L 73.832727 184.91904 
z
" clip-path="url(#pc1f9ec1f89)" style="fill: #1f77b4"/>
   </g>
   <g id="PolyCollection_122">
    <path d="M 73.832727 183.90528 
L 73.832727 184.91904 
L 109.905455 62.25408 
L 145.978182 62.25408 
L 182.050909 62.25408 
L 218.123636 62.25408 
L 254.196364 62.25408 
L 290.269091 62.25408 
L 326.341818 62.25408 
L 362.414545 62.25408 
L 398.487273 62.25408 
L 398.487273 60.22656 
L 398.487273 60.22656 
L 362.414545 60.22656 
L 326.341818 60.22656 
L 290.269091 60.22656 
L 254.196364 60.22656 
L 218.123636 60.22656 
L 182.050909 60.22656 
L 145.978182 60.22656 
L 109.905455 60.22656 
L 73.832727 183.90528 
z
" clip-path="url(#pc1f9ec1f89)" style="fill: #ff7f0e"/>
   </g>
   <g id="PolyCollection_123">
    <path d="M 73.832727 182.89152 
L 73.832727 183.90528 
L 109.905455 60.22656 
L 145.978182 60.22656 
L 182.050909 60.22656 
L 218.123636 60.22656 
L 254.196364 60.22656 
L 290.269091 60.22656 
L 326.341818 60.22656 
L 362.414545 60.22656 
L 398.487273 60.22656 
L 398.487273 58.19904 
L 398.487273 58.19904 
L 362.414545 58.19904 
L 326.341818 58.19904 
L 290.269091 58.19904 
L 254.196364 58.19904 
L 218.123636 58.19904 
L 182.050909 58.19904 
L 145.978182 58.19904 
L 109.905455 58.19904 
L 73.832727 182.89152 
z
" clip-path="url(#pc1f9ec1f89)" style="fill: #2ca02c"/>
   </g>
   <g id="PolyCollection_124">
    <path d="M 73.832727 181.87776 
L 73.832727 182.89152 
L 109.905455 58.19904 
L 145.978182 58.19904 
L 182.050909 58.19904 
L 218.123636 58.19904 
L 254.196364 58.19904 
L 290.269091 58.19904 
L 326.341818 58.19904 
L 362.414545 58.19904 
L 398.487273 58.19904 
L 398.487273 56.17152 
L 398.487273 56.17152 
L 362.414545 56.17152 
L 326.341818 56.17152 
L 290.269091 56.17152 
L 254.196364 56.17152 
L 218.123636 56.17152 
L 182.050909 56.17152 
L 145.978182 56.17152 
L 109.905455 56.17152 
L 73.832727 181.87776 
z
" clip-path="url(#pc1f9ec1f89)" style="fill: #d62728"/>
   </g>
   <g id="PolyCollection_125">
    <path d="M 73.832727 180.864 
L 73.832727 181.87776 
L 109.905455 56.17152 
L 145.978182 56.17152 
L 182.050909 56.17152 
L 218.123636 56.17152 
L 254.196364 56.17152 
L 290.269091 56.17152 
L 326.341818 56.17152 
L 362.414545 56.17152 
L 398.487273 56.17152 
L 398.487273 54.144 
L 398.487273 54.144 
L 362.414545 54.144 
L 326.341818 54.144 
L 290.269091 54.144 
L 254.196364 54.144 
L 218.123636 54.144 
L 182.050909 54.144 
L 145.978182 54.144 
L 109.905455 54.144 
L 73.832727 180.864 
z
" clip-path="url(#pc1f9ec1f89)" style="fill: #9467bd"/>
   </g>
   <g id="matplotlib.axis_1">
    <g id="xtick_1">
     <g id="line2d_1">
      <defs>
       <path id="m3dc70cd6eb" d="M 0 0 
L 0 3.5 
" style="stroke: #000000; stroke-width: 0.8"/>
      </defs>
      <g>
       <use xlink:href="#m3dc70cd6eb" x="73.832727" y="307.584" style="stroke: #000000; stroke-width: 0.8"/>
      </g>
     </g>
     <g id="text_1">
      <!-- 0 -->
      <g transform="translate(70.651477 322.182437) scale(0.1 -0.1)">
       <defs>
        <path id="DejaVuSans-30" d="M 2034 4250 
Q 1547 4250 1301 3770 
Q 1056 3291 1056 2328 
Q 1056 1369 1301 889 
Q 1547 409 2034 409 
Q 2525 409 2770 889 
Q 3016 1369 3016 2328 
Q 3016 3291 2770 3770 
Q 2525 4250 2034 4250 
z
M 2034 4750 
Q 2819 4750 3233 4129 
Q 3647 3509 3647 2328 
Q 3647 1150 3233 529 
Q 2819 -91 2034 -91 
Q 1250 -91 836 529 
Q 422 1150 422 2328 
Q 422 3509 836 4129 
Q 1250 4750 2034 4750 
z
" transform="scale(0.015625)"/>
       </defs>
       <use xlink:href="#DejaVuSans-30"/>
      </g>
     </g>
    </g>
    <g id="xtick_2">
     <g id="line2d_2">
      <g>
       <use xlink:href="#m3dc70cd6eb" x="145.978182" y="307.584" style="stroke: #000000; stroke-width: 0.8"/>
      </g>
     </g>
     <g id="text_2">
      <!-- 2 -->
      <g transform="translate(142.796932 322.182437) scale(0.1 -0.1)">
       <defs>
        <path id="DejaVuSans-32" d="M 1228 531 
L 3431 531 
L 3431 0 
L 469 0 
L 469 531 
Q 828 903 1448 1529 
Q 2069 2156 2228 2338 
Q 2531 2678 2651 2914 
Q 2772 3150 2772 3378 
Q 2772 3750 2511 3984 
Q 2250 4219 1831 4219 
Q 1534 4219 1204 4116 
Q 875 4013 500 3803 
L 500 4441 
Q 881 4594 1212 4672 
Q 1544 4750 1819 4750 
Q 2544 4750 2975 4387 
Q 3406 4025 3406 3419 
Q 3406 3131 3298 2873 
Q 3191 2616 2906 2266 
Q 2828 2175 2409 1742 
Q 1991 1309 1228 531 
z
" transform="scale(0.015625)"/>
       </defs>
       <use xlink:href="#DejaVuSans-32"/>
      </g>
     </g>
    </g>
    <g id="xtick_3">
     <g id="line2d_3">
      <g>
       <use xlink:href="#m3dc70cd6eb" x="218.123636" y="307.584" style="stroke: #000000; stroke-width: 0.8"/>
      </g>
     </g>
     <g id="text_3">
      <!-- 4 -->
      <g transform="translate(214.942386 322.182437) scale(0.1 -0.1)">
       <defs>
        <path id="DejaVuSans-34" d="M 2419 4116 
L 825 1625 
L 2419 1625 
L 2419 4116 
z
M 2253 4666 
L 3047 4666 
L 3047 1625 
L 3713 1625 
L 3713 1100 
L 3047 1100 
L 3047 0 
L 2419 0 
L 2419 1100 
L 313 1100 
L 313 1709 
L 2253 4666 
z
" transform="scale(0.015625)"/>
       </defs>
       <use xlink:href="#DejaVuSans-34"/>
      </g>
     </g>
    </g>
    <g id="xtick_4">
     <g id="line2d_4">
      <g>
       <use xlink:href="#m3dc70cd6eb" x="290.269091" y="307.584" style="stroke: #000000; stroke-width: 0.8"/>
      </g>
     </g>
     <g id="text_4">
      <!-- 6 -->
      <g transform="translate(287.087841 322.182437) scale(0.1 -0.1)">
       <defs>
        <path id="DejaVuSans-36" d="M 2113 2584 
Q 1688 2584 1439 2293 
Q 1191 2003 1191 1497 
Q 1191 994 1439 701 
Q 1688 409 2113 409 
Q 2538 409 2786 701 
Q 3034 994 3034 1497 
Q 3034 2003 2786 2293 
Q 2538 2584 2113 2584 
z
M 3366 4563 
L 3366 3988 
Q 3128 4100 2886 4159 
Q 2644 4219 2406 4219 
Q 1781 4219 1451 3797 
Q 1122 3375 1075 2522 
Q 1259 2794 1537 2939 
Q 1816 3084 2150 3084 
Q 2853 3084 3261 2657 
Q 3669 2231 3669 1497 
Q 3669 778 3244 343 
Q 2819 -91 2113 -91 
Q 1303 -91 875 529 
Q 447 1150 447 2328 
Q 447 3434 972 4092 
Q 1497 4750 2381 4750 
Q 2619 4750 2861 4703 
Q 3103 4656 3366 4563 
z
" transform="scale(0.015625)"/>
       </defs>
       <use xlink:href="#DejaVuSans-36"/>
      </g>
     </g>
    </g>
    <g id="xtick_5">
     <g id="line2d_5">
      <g>
       <use xlink:href="#m3dc70cd6eb" x="362.414545" y="307.584" style="stroke: #000000; stroke-width: 0.8"/>
      </g>
     </g>
     <g id="text_5">
      <!-- 8 -->
      <g transform="translate(359.233295 322.182437) scale(0.1 -0.1)">
       <defs>
        <path id="DejaVuSans-38" d="M 2034 2216 
Q 1584 2216 1326 1975 
Q 1069 1734 1069 1313 
Q 1069 891 1326 650 
Q 1584 409 2034 409 
Q 2484 409 2743 651 
Q 3003 894 3003 1313 
Q 3003 1734 2745 1975 
Q 2488 2216 2034 2216 
z
M 1403 2484 
Q 997 2584 770 2862 
Q 544 3141 544 3541 
Q 544 4100 942 4425 
Q 1341 4750 2034 4750 
Q 2731 4750 3128 4425 
Q 3525 4100 3525 3541 
Q 3525 3141 3298 2862 
Q 3072 2584 2669 2484 
Q 3125 2378 3379 2068 
Q 3634 1759 3634 1313 
Q 3634 634 3220 271 
Q 2806 -91 2034 -91 
Q 1263 -91 848 271 
Q 434 634 434 1313 
Q 434 1759 690 2068 
Q 947 2378 1403 2484 
z
M 1172 3481 
Q 1172 3119 1398 2916 
Q 1625 2713 2034 2713 
Q 2441 2713 2670 2916 
Q 2900 3119 2900 3481 
Q 2900 3844 2670 4047 
Q 2441 4250 2034 4250 
Q 1625 4250 1398 4047 
Q 1172 3844 1172 3481 
z
" transform="scale(0.015625)"/>
       </defs>
       <use xlink:href="#DejaVuSans-38"/>
      </g>
     </g>
    </g>
    <g id="text_6">
     <!-- Generations -->
     <g transform="translate(205.662344 335.860562) scale(0.1 -0.1)">
      <defs>
       <path id="DejaVuSans-47" d="M 3809 666 
L 3809 1919 
L 2778 1919 
L 2778 2438 
L 4434 2438 
L 4434 434 
Q 4069 175 3628 42 
Q 3188 -91 2688 -91 
Q 1594 -91 976 548 
Q 359 1188 359 2328 
Q 359 3472 976 4111 
Q 1594 4750 2688 4750 
Q 3144 4750 3555 4637 
Q 3966 4525 4313 4306 
L 4313 3634 
Q 3963 3931 3569 4081 
Q 3175 4231 2741 4231 
Q 1884 4231 1454 3753 
Q 1025 3275 1025 2328 
Q 1025 1384 1454 906 
Q 1884 428 2741 428 
Q 3075 428 3337 486 
Q 3600 544 3809 666 
z
" transform="scale(0.015625)"/>
       <path id="DejaVuSans-65" d="M 3597 1894 
L 3597 1613 
L 953 1613 
Q 991 1019 1311 708 
Q 1631 397 2203 397 
Q 2534 397 2845 478 
Q 3156 559 3463 722 
L 3463 178 
Q 3153 47 2828 -22 
Q 2503 -91 2169 -91 
Q 1331 -91 842 396 
Q 353 884 353 1716 
Q 353 2575 817 3079 
Q 1281 3584 2069 3584 
Q 2775 3584 3186 3129 
Q 3597 2675 3597 1894 
z
M 3022 2063 
Q 3016 2534 2758 2815 
Q 2500 3097 2075 3097 
Q 1594 3097 1305 2825 
Q 1016 2553 972 2059 
L 3022 2063 
z
" transform="scale(0.015625)"/>
       <path id="DejaVuSans-6e" d="M 3513 2113 
L 3513 0 
L 2938 0 
L 2938 2094 
Q 2938 2591 2744 2837 
Q 2550 3084 2163 3084 
Q 1697 3084 1428 2787 
Q 1159 2491 1159 1978 
L 1159 0 
L 581 0 
L 581 3500 
L 1159 3500 
L 1159 2956 
Q 1366 3272 1645 3428 
Q 1925 3584 2291 3584 
Q 2894 3584 3203 3211 
Q 3513 2838 3513 2113 
z
" transform="scale(0.015625)"/>
       <path id="DejaVuSans-72" d="M 2631 2963 
Q 2534 3019 2420 3045 
Q 2306 3072 2169 3072 
Q 1681 3072 1420 2755 
Q 1159 2438 1159 1844 
L 1159 0 
L 581 0 
L 581 3500 
L 1159 3500 
L 1159 2956 
Q 1341 3275 1631 3429 
Q 1922 3584 2338 3584 
Q 2397 3584 2469 3576 
Q 2541 3569 2628 3553 
L 2631 2963 
z
" transform="scale(0.015625)"/>
       <path id="DejaVuSans-61" d="M 2194 1759 
Q 1497 1759 1228 1600 
Q 959 1441 959 1056 
Q 959 750 1161 570 
Q 1363 391 1709 391 
Q 2188 391 2477 730 
Q 2766 1069 2766 1631 
L 2766 1759 
L 2194 1759 
z
M 3341 1997 
L 3341 0 
L 2766 0 
L 2766 531 
Q 2569 213 2275 61 
Q 1981 -91 1556 -91 
Q 1019 -91 701 211 
Q 384 513 384 1019 
Q 384 1609 779 1909 
Q 1175 2209 1959 2209 
L 2766 2209 
L 2766 2266 
Q 2766 2663 2505 2880 
Q 2244 3097 1772 3097 
Q 1472 3097 1187 3025 
Q 903 2953 641 2809 
L 641 3341 
Q 956 3463 1253 3523 
Q 1550 3584 1831 3584 
Q 2591 3584 2966 3190 
Q 3341 2797 3341 1997 
z
" transform="scale(0.015625)"/>
       <path id="DejaVuSans-74" d="M 1172 4494 
L 1172 3500 
L 2356 3500 
L 2356 3053 
L 1172 3053 
L 1172 1153 
Q 1172 725 1289 603 
Q 1406 481 1766 481 
L 2356 481 
L 2356 0 
L 1766 0 
Q 1100 0 847 248 
Q 594 497 594 1153 
L 594 3053 
L 172 3053 
L 172 3500 
L 594 3500 
L 594 4494 
L 1172 4494 
z
" transform="scale(0.015625)"/>
       <path id="DejaVuSans-69" d="M 603 3500 
L 1178 3500 
L 1178 0 
L 603 0 
L 603 3500 
z
M 603 4863 
L 1178 4863 
L 1178 4134 
L 603 4134 
L 603 4863 
z
" transform="scale(0.015625)"/>
       <path id="DejaVuSans-6f" d="M 1959 3097 
Q 1497 3097 1228 2736 
Q 959 2375 959 1747 
Q 959 1119 1226 758 
Q 1494 397 1959 397 
Q 2419 397 2687 759 
Q 2956 1122 2956 1747 
Q 2956 2369 2687 2733 
Q 2419 3097 1959 3097 
z
M 1959 3584 
Q 2709 3584 3137 3096 
Q 3566 2609 3566 1747 
Q 3566 888 3137 398 
Q 2709 -91 1959 -91 
Q 1206 -91 779 398 
Q 353 888 353 1747 
Q 353 2609 779 3096 
Q 1206 3584 1959 3584 
z
" transform="scale(0.015625)"/>
       <path id="DejaVuSans-73" d="M 2834 3397 
L 2834 2853 
Q 2591 2978 2328 3040 
Q 2066 3103 1784 3103 
Q 1356 3103 1142 2972 
Q 928 2841 928 2578 
Q 928 2378 1081 2264 
Q 1234 2150 1697 2047 
L 1894 2003 
Q 2506 1872 2764 1633 
Q 3022 1394 3022 966 
Q 3022 478 2636 193 
Q 2250 -91 1575 -91 
Q 1294 -91 989 -36 
Q 684 19 347 128 
L 347 722 
Q 666 556 975 473 
Q 1284 391 1588 391 
Q 1994 391 2212 530 
Q 2431 669 2431 922 
Q 2431 1156 2273 1281 
Q 2116 1406 1581 1522 
L 1381 1569 
Q 847 1681 609 1914 
Q 372 2147 372 2553 
Q 372 3047 722 3315 
Q 1072 3584 1716 3584 
Q 2034 3584 2315 3537 
Q 2597 3491 2834 3397 
z
" transform="scale(0.015625)"/>
      </defs>
      <use xlink:href="#DejaVuSans-47"/>
      <use xlink:href="#DejaVuSans-65" x="77.490234"/>
      <use xlink:href="#DejaVuSans-6e" x="139.013672"/>
      <use xlink:href="#DejaVuSans-65" x="202.392578"/>
      <use xlink:href="#DejaVuSans-72" x="263.916016"/>
      <use xlink:href="#DejaVuSans-61" x="305.029297"/>
      <use xlink:href="#DejaVuSans-74" x="366.308594"/>
      <use xlink:href="#DejaVuSans-69" x="405.517578"/>
      <use xlink:href="#DejaVuSans-6f" x="433.300781"/>
      <use xlink:href="#DejaVuSans-6e" x="494.482422"/>
      <use xlink:href="#DejaVuSans-73" x="557.861328"/>
     </g>
    </g>
   </g>
   <g id="matplotlib.axis_2">
    <g id="ytick_1">
     <g id="line2d_6">
      <defs>
       <path id="m8fc4e90755" d="M 0 0 
L -3.5 0 
" style="stroke: #000000; stroke-width: 0.8"/>
      </defs>
      <g>
       <use xlink:href="#m8fc4e90755" x="57.6" y="307.584" style="stroke: #000000; stroke-width: 0.8"/>
      </g>
     </g>
     <g id="text_7">
      <!-- 0 -->
      <g transform="translate(44.2375 311.383219) scale(0.1 -0.1)">
       <use xlink:href="#DejaVuSans-30"/>
      </g>
     </g>
    </g>
    <g id="ytick_2">
     <g id="line2d_7">
      <g>
       <use xlink:href="#m8fc4e90755" x="57.6" y="256.896" style="stroke: #000000; stroke-width: 0.8"/>
      </g>
     </g>
     <g id="text_8">
      <!-- 50 -->
      <g transform="translate(37.875 260.695219) scale(0.1 -0.1)">
       <defs>
        <path id="DejaVuSans-35" d="M 691 4666 
L 3169 4666 
L 3169 4134 
L 1269 4134 
L 1269 2991 
Q 1406 3038 1543 3061 
Q 1681 3084 1819 3084 
Q 2600 3084 3056 2656 
Q 3513 2228 3513 1497 
Q 3513 744 3044 326 
Q 2575 -91 1722 -91 
Q 1428 -91 1123 -41 
Q 819 9 494 109 
L 494 744 
Q 775 591 1075 516 
Q 1375 441 1709 441 
Q 2250 441 2565 725 
Q 2881 1009 2881 1497 
Q 2881 1984 2565 2268 
Q 2250 2553 1709 2553 
Q 1456 2553 1204 2497 
Q 953 2441 691 2322 
L 691 4666 
z
" transform="scale(0.015625)"/>
       </defs>
       <use xlink:href="#DejaVuSans-35"/>
       <use xlink:href="#DejaVuSans-30" x="63.623047"/>
      </g>
     </g>
    </g>
    <g id="ytick_3">
     <g id="line2d_8">
      <g>
       <use xlink:href="#m8fc4e90755" x="57.6" y="206.208" style="stroke: #000000; stroke-width: 0.8"/>
      </g>
     </g>
     <g id="text_9">
      <!-- 100 -->
      <g transform="translate(31.5125 210.007219) scale(0.1 -0.1)">
       <defs>
        <path id="DejaVuSans-31" d="M 794 531 
L 1825 531 
L 1825 4091 
L 703 3866 
L 703 4441 
L 1819 4666 
L 2450 4666 
L 2450 531 
L 3481 531 
L 3481 0 
L 794 0 
L 794 531 
z
" transform="scale(0.015625)"/>
       </defs>
       <use xlink:href="#DejaVuSans-31"/>
       <use xlink:href="#DejaVuSans-30" x="63.623047"/>
       <use xlink:href="#DejaVuSans-30" x="127.246094"/>
      </g>
     </g>
    </g>
    <g id="ytick_4">
     <g id="line2d_9">
      <g>
       <use xlink:href="#m8fc4e90755" x="57.6" y="155.52" style="stroke: #000000; stroke-width: 0.8"/>
      </g>
     </g>
     <g id="text_10">
      <!-- 150 -->
      <g transform="translate(31.5125 159.319219) scale(0.1 -0.1)">
       <use xlink:href="#DejaVuSans-31"/>
       <use xlink:href="#DejaVuSans-35" x="63.623047"/>
       <use xlink:href="#DejaVuSans-30" x="127.246094"/>
      </g>
     </g>
    </g>
    <g id="ytick_5">
     <g id="line2d_10">
      <g>
       <use xlink:href="#m8fc4e90755" x="57.6" y="104.832" style="stroke: #000000; stroke-width: 0.8"/>
      </g>
     </g>
     <g id="text_11">
      <!-- 200 -->
      <g transform="translate(31.5125 108.631219) scale(0.1 -0.1)">
       <use xlink:href="#DejaVuSans-32"/>
       <use xlink:href="#DejaVuSans-30" x="63.623047"/>
       <use xlink:href="#DejaVuSans-30" x="127.246094"/>
      </g>
     </g>
    </g>
    <g id="ytick_6">
     <g id="line2d_11">
      <g>
       <use xlink:href="#m8fc4e90755" x="57.6" y="54.144" style="stroke: #000000; stroke-width: 0.8"/>
      </g>
     </g>
     <g id="text_12">
      <!-- 250 -->
      <g transform="translate(31.5125 57.943219) scale(0.1 -0.1)">
       <use xlink:href="#DejaVuSans-32"/>
       <use xlink:href="#DejaVuSans-35" x="63.623047"/>
       <use xlink:href="#DejaVuSans-30" x="127.246094"/>
      </g>
     </g>
    </g>
    <g id="text_13">
     <!-- Size per Species -->
     <g transform="translate(25.432812 215.520969) rotate(-90) scale(0.1 -0.1)">
      <defs>
       <path id="DejaVuSans-53" d="M 3425 4513 
L 3425 3897 
Q 3066 4069 2747 4153 
Q 2428 4238 2131 4238 
Q 1616 4238 1336 4038 
Q 1056 3838 1056 3469 
Q 1056 3159 1242 3001 
Q 1428 2844 1947 2747 
L 2328 2669 
Q 3034 2534 3370 2195 
Q 3706 1856 3706 1288 
Q 3706 609 3251 259 
Q 2797 -91 1919 -91 
Q 1588 -91 1214 -16 
Q 841 59 441 206 
L 441 856 
Q 825 641 1194 531 
Q 1563 422 1919 422 
Q 2459 422 2753 634 
Q 3047 847 3047 1241 
Q 3047 1584 2836 1778 
Q 2625 1972 2144 2069 
L 1759 2144 
Q 1053 2284 737 2584 
Q 422 2884 422 3419 
Q 422 4038 858 4394 
Q 1294 4750 2059 4750 
Q 2388 4750 2728 4690 
Q 3069 4631 3425 4513 
z
" transform="scale(0.015625)"/>
       <path id="DejaVuSans-7a" d="M 353 3500 
L 3084 3500 
L 3084 2975 
L 922 459 
L 3084 459 
L 3084 0 
L 275 0 
L 275 525 
L 2438 3041 
L 353 3041 
L 353 3500 
z
" transform="scale(0.015625)"/>
       <path id="DejaVuSans-20" transform="scale(0.015625)"/>
       <path id="DejaVuSans-70" d="M 1159 525 
L 1159 -1331 
L 581 -1331 
L 581 3500 
L 1159 3500 
L 1159 2969 
Q 1341 3281 1617 3432 
Q 1894 3584 2278 3584 
Q 2916 3584 3314 3078 
Q 3713 2572 3713 1747 
Q 3713 922 3314 415 
Q 2916 -91 2278 -91 
Q 1894 -91 1617 61 
Q 1341 213 1159 525 
z
M 3116 1747 
Q 3116 2381 2855 2742 
Q 2594 3103 2138 3103 
Q 1681 3103 1420 2742 
Q 1159 2381 1159 1747 
Q 1159 1113 1420 752 
Q 1681 391 2138 391 
Q 2594 391 2855 752 
Q 3116 1113 3116 1747 
z
" transform="scale(0.015625)"/>
       <path id="DejaVuSans-63" d="M 3122 3366 
L 3122 2828 
Q 2878 2963 2633 3030 
Q 2388 3097 2138 3097 
Q 1578 3097 1268 2742 
Q 959 2388 959 1747 
Q 959 1106 1268 751 
Q 1578 397 2138 397 
Q 2388 397 2633 464 
Q 2878 531 3122 666 
L 3122 134 
Q 2881 22 2623 -34 
Q 2366 -91 2075 -91 
Q 1284 -91 818 406 
Q 353 903 353 1747 
Q 353 2603 823 3093 
Q 1294 3584 2113 3584 
Q 2378 3584 2631 3529 
Q 2884 3475 3122 3366 
z
" transform="scale(0.015625)"/>
      </defs>
      <use xlink:href="#DejaVuSans-53"/>
      <use xlink:href="#DejaVuSans-69" x="63.476562"/>
      <use xlink:href="#DejaVuSans-7a" x="91.259766"/>
      <use xlink:href="#DejaVuSans-65" x="143.75"/>
      <use xlink:href="#DejaVuSans-20" x="205.273438"/>
      <use xlink:href="#DejaVuSans-70" x="237.060547"/>
      <use xlink:href="#DejaVuSans-65" x="300.537109"/>
      <use xlink:href="#DejaVuSans-72" x="362.060547"/>
      <use xlink:href="#DejaVuSans-20" x="403.173828"/>
      <use xlink:href="#DejaVuSans-53" x="434.960938"/>
      <use xlink:href="#DejaVuSans-70" x="498.4375"/>
      <use xlink:href="#DejaVuSans-65" x="561.914062"/>
      <use xlink:href="#DejaVuSans-63" x="623.4375"/>
      <use xlink:href="#DejaVuSans-69" x="678.417969"/>
      <use xlink:href="#DejaVuSans-65" x="706.201172"/>
      <use xlink:href="#DejaVuSans-73" x="767.724609"/>
     </g>
    </g>
   </g>
   <g id="patch_3">
    <path d="M 57.6 307.584 
L 57.6 41.472 
" style="fill: none; stroke: #000000; stroke-width: 0.8; stroke-linejoin: miter; stroke-linecap: square"/>
   </g>
   <g id="patch_4">
    <path d="M 414.72 307.584 
L 414.72 41.472 
" style="fill: none; stroke: #000000; stroke-width: 0.8; stroke-linejoin: miter; stroke-linecap: square"/>
   </g>
   <g id="patch_5">
    <path d="M 57.6 307.584 
L 414.72 307.584 
" style="fill: none; stroke: #000000; stroke-width: 0.8; stroke-linejoin: miter; stroke-linecap: square"/>
   </g>
   <g id="patch_6">
    <path d="M 57.6 41.472 
L 414.72 41.472 
" style="fill: none; stroke: #000000; stroke-width: 0.8; stroke-linejoin: miter; stroke-linecap: square"/>
   </g>
   <g id="text_14">
    <!-- Speciation -->
    <g transform="translate(204.714375 35.472) scale(0.12 -0.12)">
     <use xlink:href="#DejaVuSans-53"/>
     <use xlink:href="#DejaVuSans-70" x="63.476562"/>
     <use xlink:href="#DejaVuSans-65" x="126.953125"/>
     <use xlink:href="#DejaVuSans-63" x="188.476562"/>
     <use xlink:href="#DejaVuSans-69" x="243.457031"/>
     <use xlink:href="#DejaVuSans-61" x="271.240234"/>
     <use xlink:href="#DejaVuSans-74" x="332.519531"/>
     <use xlink:href="#DejaVuSans-69" x="371.728516"/>
     <use xlink:href="#DejaVuSans-6f" x="399.511719"/>
     <use xlink:href="#DejaVuSans-6e" x="460.693359"/>
    </g>
   </g>
  </g>
 </g>
 <defs>
  <clipPath id="pc1f9ec1f89">
   <rect x="57.6" y="41.472" width="357.12" height="266.112"/>
  </clipPath>
 </defs>
</svg>
