<?xml version="1.0" encoding="utf-8" standalone="no"?>
<!DOCTYPE svg PUBLIC "-//W3C//DTD SVG 1.1//EN"
  "http://www.w3.org/Graphics/SVG/1.1/DTD/svg11.dtd">
<svg xmlns:xlink="http://www.w3.org/1999/xlink" width="460.8pt" height="345.6pt" viewBox="0 0 460.8 345.6" xmlns="http://www.w3.org/2000/svg" version="1.1">
 <metadata>
  <rdf:RDF xmlns:dc="http://purl.org/dc/elements/1.1/" xmlns:cc="http://creativecommons.org/ns#" xmlns:rdf="http://www.w3.org/1999/02/22-rdf-syntax-ns#">
   <cc:Work>
    <dc:type rdf:resource="http://purl.org/dc/dcmitype/StillImage"/>
    <dc:date>2023-05-19T15:01:35.319772</dc:date>
    <dc:format>image/svg+xml</dc:format>
    <dc:creator>
     <cc:Agent>
      <dc:title>Matplotlib v3.6.0, https://matplotlib.org/</dc:title>
     </cc:Agent>
    </dc:creator>
   </cc:Work>
  </rdf:RDF>
 </metadata>
 <defs>
  <style type="text/css">*{stroke-linejoin: round; stroke-linecap: butt}</style>
 </defs>
 <g id="figure_1">
  <g id="patch_1">
   <path d="M 0 345.6 
L 460.8 345.6 
L 460.8 0 
L 0 0 
z
" style="fill: #ffffff"/>
  </g>
  <g id="axes_1">
   <g id="patch_2">
    <path d="M 57.6 307.584 
L 414.72 307.584 
L 414.72 41.472 
L 57.6 41.472 
z
" style="fill: #ffffff"/>
   </g>
   <g id="matplotlib.axis_1">
    <g id="xtick_1">
     <g id="line2d_1">
      <path d="M 73.832727 307.584 
L 73.832727 41.472 
" clip-path="url(#pd0edd029c1)" style="fill: none; stroke: #b0b0b0; stroke-width: 0.8; stroke-linecap: square"/>
     </g>
     <g id="line2d_2">
      <defs>
       <path id="m7ef248eb07" d="M 0 0 
L 0 3.5 
" style="stroke: #000000; stroke-width: 0.8"/>
      </defs>
      <g>
       <use xlink:href="#m7ef248eb07" x="73.832727" y="307.584" style="stroke: #000000; stroke-width: 0.8"/>
      </g>
     </g>
     <g id="text_1">
      <!-- 0 -->
      <g transform="translate(70.651477 322.182437) scale(0.1 -0.1)">
       <defs>
        <path id="DejaVuSans-30" d="M 2034 4250 
Q 1547 4250 1301 3770 
Q 1056 3291 1056 2328 
Q 1056 1369 1301 889 
Q 1547 409 2034 409 
Q 2525 409 2770 889 
Q 3016 1369 3016 2328 
Q 3016 3291 2770 3770 
Q 2525 4250 2034 4250 
z
M 2034 4750 
Q 2819 4750 3233 4129 
Q 3647 3509 3647 2328 
Q 3647 1150 3233 529 
Q 2819 -91 2034 -91 
Q 1250 -91 836 529 
Q 422 1150 422 2328 
Q 422 3509 836 4129 
Q 1250 4750 2034 4750 
z
" transform="scale(0.015625)"/>
       </defs>
       <use xlink:href="#DejaVuSans-30"/>
      </g>
     </g>
    </g>
    <g id="xtick_2">
     <g id="line2d_3">
      <path d="M 128.122785 307.584 
L 128.122785 41.472 
" clip-path="url(#pd0edd029c1)" style="fill: none; stroke: #b0b0b0; stroke-width: 0.8; stroke-linecap: square"/>
     </g>
     <g id="line2d_4">
      <g>
       <use xlink:href="#m7ef248eb07" x="128.122785" y="307.584" style="stroke: #000000; stroke-width: 0.8"/>
      </g>
     </g>
     <g id="text_2">
      <!-- 50 -->
      <g transform="translate(121.760285 322.182437) scale(0.1 -0.1)">
       <defs>
        <path id="DejaVuSans-35" d="M 691 4666 
L 3169 4666 
L 3169 4134 
L 1269 4134 
L 1269 2991 
Q 1406 3038 1543 3061 
Q 1681 3084 1819 3084 
Q 2600 3084 3056 2656 
Q 3513 2228 3513 1497 
Q 3513 744 3044 326 
Q 2575 -91 1722 -91 
Q 1428 -91 1123 -41 
Q 819 9 494 109 
L 494 744 
Q 775 591 1075 516 
Q 1375 441 1709 441 
Q 2250 441 2565 725 
Q 2881 1009 2881 1497 
Q 2881 1984 2565 2268 
Q 2250 2553 1709 2553 
Q 1456 2553 1204 2497 
Q 953 2441 691 2322 
L 691 4666 
z
" transform="scale(0.015625)"/>
       </defs>
       <use xlink:href="#DejaVuSans-35"/>
       <use xlink:href="#DejaVuSans-30" x="63.623047"/>
      </g>
     </g>
    </g>
    <g id="xtick_3">
     <g id="line2d_5">
      <path d="M 182.412843 307.584 
L 182.412843 41.472 
" clip-path="url(#pd0edd029c1)" style="fill: none; stroke: #b0b0b0; stroke-width: 0.8; stroke-linecap: square"/>
     </g>
     <g id="line2d_6">
      <g>
       <use xlink:href="#m7ef248eb07" x="182.412843" y="307.584" style="stroke: #000000; stroke-width: 0.8"/>
      </g>
     </g>
     <g id="text_3">
      <!-- 100 -->
      <g transform="translate(172.869093 322.182437) scale(0.1 -0.1)">
       <defs>
        <path id="DejaVuSans-31" d="M 794 531 
L 1825 531 
L 1825 4091 
L 703 3866 
L 703 4441 
L 1819 4666 
L 2450 4666 
L 2450 531 
L 3481 531 
L 3481 0 
L 794 0 
L 794 531 
z
" transform="scale(0.015625)"/>
       </defs>
       <use xlink:href="#DejaVuSans-31"/>
       <use xlink:href="#DejaVuSans-30" x="63.623047"/>
       <use xlink:href="#DejaVuSans-30" x="127.246094"/>
      </g>
     </g>
    </g>
    <g id="xtick_4">
     <g id="line2d_7">
      <path d="M 236.702901 307.584 
L 236.702901 41.472 
" clip-path="url(#pd0edd029c1)" style="fill: none; stroke: #b0b0b0; stroke-width: 0.8; stroke-linecap: square"/>
     </g>
     <g id="line2d_8">
      <g>
       <use xlink:href="#m7ef248eb07" x="236.702901" y="307.584" style="stroke: #000000; stroke-width: 0.8"/>
      </g>
     </g>
     <g id="text_4">
      <!-- 150 -->
      <g transform="translate(227.159151 322.182437) scale(0.1 -0.1)">
       <use xlink:href="#DejaVuSans-31"/>
       <use xlink:href="#DejaVuSans-35" x="63.623047"/>
       <use xlink:href="#DejaVuSans-30" x="127.246094"/>
      </g>
     </g>
    </g>
    <g id="xtick_5">
     <g id="line2d_9">
      <path d="M 290.992958 307.584 
L 290.992958 41.472 
" clip-path="url(#pd0edd029c1)" style="fill: none; stroke: #b0b0b0; stroke-width: 0.8; stroke-linecap: square"/>
     </g>
     <g id="line2d_10">
      <g>
       <use xlink:href="#m7ef248eb07" x="290.992958" y="307.584" style="stroke: #000000; stroke-width: 0.8"/>
      </g>
     </g>
     <g id="text_5">
      <!-- 200 -->
      <g transform="translate(281.449208 322.182437) scale(0.1 -0.1)">
       <defs>
        <path id="DejaVuSans-32" d="M 1228 531 
L 3431 531 
L 3431 0 
L 469 0 
L 469 531 
Q 828 903 1448 1529 
Q 2069 2156 2228 2338 
Q 2531 2678 2651 2914 
Q 2772 3150 2772 3378 
Q 2772 3750 2511 3984 
Q 2250 4219 1831 4219 
Q 1534 4219 1204 4116 
Q 875 4013 500 3803 
L 500 4441 
Q 881 4594 1212 4672 
Q 1544 4750 1819 4750 
Q 2544 4750 2975 4387 
Q 3406 4025 3406 3419 
Q 3406 3131 3298 2873 
Q 3191 2616 2906 2266 
Q 2828 2175 2409 1742 
Q 1991 1309 1228 531 
z
" transform="scale(0.015625)"/>
       </defs>
       <use xlink:href="#DejaVuSans-32"/>
       <use xlink:href="#DejaVuSans-30" x="63.623047"/>
       <use xlink:href="#DejaVuSans-30" x="127.246094"/>
      </g>
     </g>
    </g>
    <g id="xtick_6">
     <g id="line2d_11">
      <path d="M 345.283016 307.584 
L 345.283016 41.472 
" clip-path="url(#pd0edd029c1)" style="fill: none; stroke: #b0b0b0; stroke-width: 0.8; stroke-linecap: square"/>
     </g>
     <g id="line2d_12">
      <g>
       <use xlink:href="#m7ef248eb07" x="345.283016" y="307.584" style="stroke: #000000; stroke-width: 0.8"/>
      </g>
     </g>
     <g id="text_6">
      <!-- 250 -->
      <g transform="translate(335.739266 322.182437) scale(0.1 -0.1)">
       <use xlink:href="#DejaVuSans-32"/>
       <use xlink:href="#DejaVuSans-35" x="63.623047"/>
       <use xlink:href="#DejaVuSans-30" x="127.246094"/>
      </g>
     </g>
    </g>
    <g id="xtick_7">
     <g id="line2d_13">
      <path d="M 399.573074 307.584 
L 399.573074 41.472 
" clip-path="url(#pd0edd029c1)" style="fill: none; stroke: #b0b0b0; stroke-width: 0.8; stroke-linecap: square"/>
     </g>
     <g id="line2d_14">
      <g>
       <use xlink:href="#m7ef248eb07" x="399.573074" y="307.584" style="stroke: #000000; stroke-width: 0.8"/>
      </g>
     </g>
     <g id="text_7">
      <!-- 300 -->
      <g transform="translate(390.029324 322.182437) scale(0.1 -0.1)">
       <defs>
        <path id="DejaVuSans-33" d="M 2597 2516 
Q 3050 2419 3304 2112 
Q 3559 1806 3559 1356 
Q 3559 666 3084 287 
Q 2609 -91 1734 -91 
Q 1441 -91 1130 -33 
Q 819 25 488 141 
L 488 750 
Q 750 597 1062 519 
Q 1375 441 1716 441 
Q 2309 441 2620 675 
Q 2931 909 2931 1356 
Q 2931 1769 2642 2001 
Q 2353 2234 1838 2234 
L 1294 2234 
L 1294 2753 
L 1863 2753 
Q 2328 2753 2575 2939 
Q 2822 3125 2822 3475 
Q 2822 3834 2567 4026 
Q 2313 4219 1838 4219 
Q 1578 4219 1281 4162 
Q 984 4106 628 3988 
L 628 4550 
Q 988 4650 1302 4700 
Q 1616 4750 1894 4750 
Q 2613 4750 3031 4423 
Q 3450 4097 3450 3541 
Q 3450 3153 3228 2886 
Q 3006 2619 2597 2516 
z
" transform="scale(0.015625)"/>
       </defs>
       <use xlink:href="#DejaVuSans-33"/>
       <use xlink:href="#DejaVuSans-30" x="63.623047"/>
       <use xlink:href="#DejaVuSans-30" x="127.246094"/>
      </g>
     </g>
    </g>
    <g id="text_8">
     <!-- Generations -->
     <g transform="translate(205.662344 335.860562) scale(0.1 -0.1)">
      <defs>
       <path id="DejaVuSans-47" d="M 3809 666 
L 3809 1919 
L 2778 1919 
L 2778 2438 
L 4434 2438 
L 4434 434 
Q 4069 175 3628 42 
Q 3188 -91 2688 -91 
Q 1594 -91 976 548 
Q 359 1188 359 2328 
Q 359 3472 976 4111 
Q 1594 4750 2688 4750 
Q 3144 4750 3555 4637 
Q 3966 4525 4313 4306 
L 4313 3634 
Q 3963 3931 3569 4081 
Q 3175 4231 2741 4231 
Q 1884 4231 1454 3753 
Q 1025 3275 1025 2328 
Q 1025 1384 1454 906 
Q 1884 428 2741 428 
Q 3075 428 3337 486 
Q 3600 544 3809 666 
z
" transform="scale(0.015625)"/>
       <path id="DejaVuSans-65" d="M 3597 1894 
L 3597 1613 
L 953 1613 
Q 991 1019 1311 708 
Q 1631 397 2203 397 
Q 2534 397 2845 478 
Q 3156 559 3463 722 
L 3463 178 
Q 3153 47 2828 -22 
Q 2503 -91 2169 -91 
Q 1331 -91 842 396 
Q 353 884 353 1716 
Q 353 2575 817 3079 
Q 1281 3584 2069 3584 
Q 2775 3584 3186 3129 
Q 3597 2675 3597 1894 
z
M 3022 2063 
Q 3016 2534 2758 2815 
Q 2500 3097 2075 3097 
Q 1594 3097 1305 2825 
Q 1016 2553 972 2059 
L 3022 2063 
z
" transform="scale(0.015625)"/>
       <path id="DejaVuSans-6e" d="M 3513 2113 
L 3513 0 
L 2938 0 
L 2938 2094 
Q 2938 2591 2744 2837 
Q 2550 3084 2163 3084 
Q 1697 3084 1428 2787 
Q 1159 2491 1159 1978 
L 1159 0 
L 581 0 
L 581 3500 
L 1159 3500 
L 1159 2956 
Q 1366 3272 1645 3428 
Q 1925 3584 2291 3584 
Q 2894 3584 3203 3211 
Q 3513 2838 3513 2113 
z
" transform="scale(0.015625)"/>
       <path id="DejaVuSans-72" d="M 2631 2963 
Q 2534 3019 2420 3045 
Q 2306 3072 2169 3072 
Q 1681 3072 1420 2755 
Q 1159 2438 1159 1844 
L 1159 0 
L 581 0 
L 581 3500 
L 1159 3500 
L 1159 2956 
Q 1341 3275 1631 3429 
Q 1922 3584 2338 3584 
Q 2397 3584 2469 3576 
Q 2541 3569 2628 3553 
L 2631 2963 
z
" transform="scale(0.015625)"/>
       <path id="DejaVuSans-61" d="M 2194 1759 
Q 1497 1759 1228 1600 
Q 959 1441 959 1056 
Q 959 750 1161 570 
Q 1363 391 1709 391 
Q 2188 391 2477 730 
Q 2766 1069 2766 1631 
L 2766 1759 
L 2194 1759 
z
M 3341 1997 
L 3341 0 
L 2766 0 
L 2766 531 
Q 2569 213 2275 61 
Q 1981 -91 1556 -91 
Q 1019 -91 701 211 
Q 384 513 384 1019 
Q 384 1609 779 1909 
Q 1175 2209 1959 2209 
L 2766 2209 
L 2766 2266 
Q 2766 2663 2505 2880 
Q 2244 3097 1772 3097 
Q 1472 3097 1187 3025 
Q 903 2953 641 2809 
L 641 3341 
Q 956 3463 1253 3523 
Q 1550 3584 1831 3584 
Q 2591 3584 2966 3190 
Q 3341 2797 3341 1997 
z
" transform="scale(0.015625)"/>
       <path id="DejaVuSans-74" d="M 1172 4494 
L 1172 3500 
L 2356 3500 
L 2356 3053 
L 1172 3053 
L 1172 1153 
Q 1172 725 1289 603 
Q 1406 481 1766 481 
L 2356 481 
L 2356 0 
L 1766 0 
Q 1100 0 847 248 
Q 594 497 594 1153 
L 594 3053 
L 172 3053 
L 172 3500 
L 594 3500 
L 594 4494 
L 1172 4494 
z
" transform="scale(0.015625)"/>
       <path id="DejaVuSans-69" d="M 603 3500 
L 1178 3500 
L 1178 0 
L 603 0 
L 603 3500 
z
M 603 4863 
L 1178 4863 
L 1178 4134 
L 603 4134 
L 603 4863 
z
" transform="scale(0.015625)"/>
       <path id="DejaVuSans-6f" d="M 1959 3097 
Q 1497 3097 1228 2736 
Q 959 2375 959 1747 
Q 959 1119 1226 758 
Q 1494 397 1959 397 
Q 2419 397 2687 759 
Q 2956 1122 2956 1747 
Q 2956 2369 2687 2733 
Q 2419 3097 1959 3097 
z
M 1959 3584 
Q 2709 3584 3137 3096 
Q 3566 2609 3566 1747 
Q 3566 888 3137 398 
Q 2709 -91 1959 -91 
Q 1206 -91 779 398 
Q 353 888 353 1747 
Q 353 2609 779 3096 
Q 1206 3584 1959 3584 
z
" transform="scale(0.015625)"/>
       <path id="DejaVuSans-73" d="M 2834 3397 
L 2834 2853 
Q 2591 2978 2328 3040 
Q 2066 3103 1784 3103 
Q 1356 3103 1142 2972 
Q 928 2841 928 2578 
Q 928 2378 1081 2264 
Q 1234 2150 1697 2047 
L 1894 2003 
Q 2506 1872 2764 1633 
Q 3022 1394 3022 966 
Q 3022 478 2636 193 
Q 2250 -91 1575 -91 
Q 1294 -91 989 -36 
Q 684 19 347 128 
L 347 722 
Q 666 556 975 473 
Q 1284 391 1588 391 
Q 1994 391 2212 530 
Q 2431 669 2431 922 
Q 2431 1156 2273 1281 
Q 2116 1406 1581 1522 
L 1381 1569 
Q 847 1681 609 1914 
Q 372 2147 372 2553 
Q 372 3047 722 3315 
Q 1072 3584 1716 3584 
Q 2034 3584 2315 3537 
Q 2597 3491 2834 3397 
z
" transform="scale(0.015625)"/>
      </defs>
      <use xlink:href="#DejaVuSans-47"/>
      <use xlink:href="#DejaVuSans-65" x="77.490234"/>
      <use xlink:href="#DejaVuSans-6e" x="139.013672"/>
      <use xlink:href="#DejaVuSans-65" x="202.392578"/>
      <use xlink:href="#DejaVuSans-72" x="263.916016"/>
      <use xlink:href="#DejaVuSans-61" x="305.029297"/>
      <use xlink:href="#DejaVuSans-74" x="366.308594"/>
      <use xlink:href="#DejaVuSans-69" x="405.517578"/>
      <use xlink:href="#DejaVuSans-6f" x="433.300781"/>
      <use xlink:href="#DejaVuSans-6e" x="494.482422"/>
      <use xlink:href="#DejaVuSans-73" x="557.861328"/>
     </g>
    </g>
   </g>
   <g id="matplotlib.axis_2">
    <g id="ytick_1">
     <g id="line2d_15">
      <path d="M 57.6 287.025345 
L 414.72 287.025345 
" clip-path="url(#pd0edd029c1)" style="fill: none; stroke: #b0b0b0; stroke-width: 0.8; stroke-linecap: square"/>
     </g>
     <g id="line2d_16">
      <defs>
       <path id="m0daf70b643" d="M 0 0 
L -3.5 0 
" style="stroke: #000000; stroke-width: 0.8"/>
      </defs>
      <g>
       <use xlink:href="#m0daf70b643" x="57.6" y="287.025345" style="stroke: #000000; stroke-width: 0.8"/>
      </g>
     </g>
     <g id="text_9">
      <!-- 300 -->
      <g transform="translate(31.5125 290.824564) scale(0.1 -0.1)">
       <use xlink:href="#DejaVuSans-33"/>
       <use xlink:href="#DejaVuSans-30" x="63.623047"/>
       <use xlink:href="#DejaVuSans-30" x="127.246094"/>
      </g>
     </g>
    </g>
    <g id="ytick_2">
     <g id="line2d_17">
      <path d="M 57.6 241.200393 
L 414.72 241.200393 
" clip-path="url(#pd0edd029c1)" style="fill: none; stroke: #b0b0b0; stroke-width: 0.8; stroke-linecap: square"/>
     </g>
     <g id="line2d_18">
      <g>
       <use xlink:href="#m0daf70b643" x="57.6" y="241.200393" style="stroke: #000000; stroke-width: 0.8"/>
      </g>
     </g>
     <g id="text_10">
      <!-- 350 -->
      <g transform="translate(31.5125 244.999612) scale(0.1 -0.1)">
       <use xlink:href="#DejaVuSans-33"/>
       <use xlink:href="#DejaVuSans-35" x="63.623047"/>
       <use xlink:href="#DejaVuSans-30" x="127.246094"/>
      </g>
     </g>
    </g>
    <g id="ytick_3">
     <g id="line2d_19">
      <path d="M 57.6 195.375441 
L 414.72 195.375441 
" clip-path="url(#pd0edd029c1)" style="fill: none; stroke: #b0b0b0; stroke-width: 0.8; stroke-linecap: square"/>
     </g>
     <g id="line2d_20">
      <g>
       <use xlink:href="#m0daf70b643" x="57.6" y="195.375441" style="stroke: #000000; stroke-width: 0.8"/>
      </g>
     </g>
     <g id="text_11">
      <!-- 400 -->
      <g transform="translate(31.5125 199.17466) scale(0.1 -0.1)">
       <defs>
        <path id="DejaVuSans-34" d="M 2419 4116 
L 825 1625 
L 2419 1625 
L 2419 4116 
z
M 2253 4666 
L 3047 4666 
L 3047 1625 
L 3713 1625 
L 3713 1100 
L 3047 1100 
L 3047 0 
L 2419 0 
L 2419 1100 
L 313 1100 
L 313 1709 
L 2253 4666 
z
" transform="scale(0.015625)"/>
       </defs>
       <use xlink:href="#DejaVuSans-34"/>
       <use xlink:href="#DejaVuSans-30" x="63.623047"/>
       <use xlink:href="#DejaVuSans-30" x="127.246094"/>
      </g>
     </g>
    </g>
    <g id="ytick_4">
     <g id="line2d_21">
      <path d="M 57.6 149.550489 
L 414.72 149.550489 
" clip-path="url(#pd0edd029c1)" style="fill: none; stroke: #b0b0b0; stroke-width: 0.8; stroke-linecap: square"/>
     </g>
     <g id="line2d_22">
      <g>
       <use xlink:href="#m0daf70b643" x="57.6" y="149.550489" style="stroke: #000000; stroke-width: 0.8"/>
      </g>
     </g>
     <g id="text_12">
      <!-- 450 -->
      <g transform="translate(31.5125 153.349708) scale(0.1 -0.1)">
       <use xlink:href="#DejaVuSans-34"/>
       <use xlink:href="#DejaVuSans-35" x="63.623047"/>
       <use xlink:href="#DejaVuSans-30" x="127.246094"/>
      </g>
     </g>
    </g>
    <g id="ytick_5">
     <g id="line2d_23">
      <path d="M 57.6 103.725537 
L 414.72 103.725537 
" clip-path="url(#pd0edd029c1)" style="fill: none; stroke: #b0b0b0; stroke-width: 0.8; stroke-linecap: square"/>
     </g>
     <g id="line2d_24">
      <g>
       <use xlink:href="#m0daf70b643" x="57.6" y="103.725537" style="stroke: #000000; stroke-width: 0.8"/>
      </g>
     </g>
     <g id="text_13">
      <!-- 500 -->
      <g transform="translate(31.5125 107.524756) scale(0.1 -0.1)">
       <use xlink:href="#DejaVuSans-35"/>
       <use xlink:href="#DejaVuSans-30" x="63.623047"/>
       <use xlink:href="#DejaVuSans-30" x="127.246094"/>
      </g>
     </g>
    </g>
    <g id="ytick_6">
     <g id="line2d_25">
      <path d="M 57.6 57.900585 
L 414.72 57.900585 
" clip-path="url(#pd0edd029c1)" style="fill: none; stroke: #b0b0b0; stroke-width: 0.8; stroke-linecap: square"/>
     </g>
     <g id="line2d_26">
      <g>
       <use xlink:href="#m0daf70b643" x="57.6" y="57.900585" style="stroke: #000000; stroke-width: 0.8"/>
      </g>
     </g>
     <g id="text_14">
      <!-- 550 -->
      <g transform="translate(31.5125 61.699803) scale(0.1 -0.1)">
       <use xlink:href="#DejaVuSans-35"/>
       <use xlink:href="#DejaVuSans-35" x="63.623047"/>
       <use xlink:href="#DejaVuSans-30" x="127.246094"/>
      </g>
     </g>
    </g>
    <g id="text_15">
     <!-- Fitness -->
     <g transform="translate(25.432812 191.845187) rotate(-90) scale(0.1 -0.1)">
      <defs>
       <path id="DejaVuSans-46" d="M 628 4666 
L 3309 4666 
L 3309 4134 
L 1259 4134 
L 1259 2759 
L 3109 2759 
L 3109 2228 
L 1259 2228 
L 1259 0 
L 628 0 
L 628 4666 
z
" transform="scale(0.015625)"/>
      </defs>
      <use xlink:href="#DejaVuSans-46"/>
      <use xlink:href="#DejaVuSans-69" x="50.269531"/>
      <use xlink:href="#DejaVuSans-74" x="78.052734"/>
      <use xlink:href="#DejaVuSans-6e" x="117.261719"/>
      <use xlink:href="#DejaVuSans-65" x="180.640625"/>
      <use xlink:href="#DejaVuSans-73" x="242.164062"/>
      <use xlink:href="#DejaVuSans-73" x="294.263672"/>
     </g>
    </g>
   </g>
   <g id="line2d_27">
    <path d="M 73.832727 193.505783 
L 74.918528 200.79195 
L 95.54875 200.79195 
L 96.634552 195.219441 
L 97.720353 153.583085 
L 98.806154 148.72564 
L 99.891955 139.300663 
L 100.977756 138.36546 
L 102.063557 148.446949 
L 103.149358 144.481688 
L 104.23516 136.169603 
L 105.320961 139.936234 
L 106.406762 125.865278 
L 107.492563 133.970005 
L 108.578364 139.798939 
L 109.664165 151.365157 
L 110.749967 143.318295 
L 111.835768 133.236806 
L 112.921569 145.077974 
L 114.00737 136.925247 
L 115.093171 127.479696 
L 116.178972 149.26296 
L 117.264773 143.548319 
L 118.350575 151.814781 
L 119.436376 126.655983 
L 120.522177 154.420513 
L 121.607978 140.880408 
L 122.693779 148.30405 
L 123.77958 147.306002 
L 124.865382 137.402384 
L 125.951183 142.548436 
L 127.036984 138.247001 
L 128.122785 132.045357 
L 129.208586 128.022114 
L 130.294387 151.878397 
L 131.380189 137.467665 
L 132.46599 127.939442 
L 133.551791 130.523969 
L 134.637592 132.173667 
L 135.723393 128.232721 
L 136.809194 140.733768 
L 137.894995 123.265296 
L 138.980797 138.60749 
L 140.066598 127.811132 
L 141.152399 128.709301 
L 142.2382 148.74397 
L 143.324001 136.077953 
L 144.409802 130.175699 
L 145.495604 147.552521 
L 146.581405 134.189965 
L 147.667206 133.053506 
L 148.753007 128.269381 
L 149.838808 134.354935 
L 150.924609 116.391554 
L 152.01041 142.621756 
L 153.096212 123.925176 
L 154.182013 146.416062 
L 155.267814 125.684854 
L 156.353615 143.831535 
L 157.439416 127.077932 
L 158.525217 139.688959 
L 159.611019 120.1492 
L 160.69682 140.165539 
L 161.782621 138.88244 
L 162.868422 141.375318 
L 163.954223 115.896644 
L 165.040024 135.912983 
L 166.125825 145.352923 
L 167.211627 141.705257 
L 168.297428 134.483245 
L 169.383229 137.379382 
L 170.46903 133.970005 
L 171.554831 115.823324 
L 172.640632 133.053506 
L 173.726434 144.491414 
L 174.812235 153.766385 
L 175.898036 140.037229 
L 176.983837 129.22254 
L 178.069638 141.961877 
L 179.155439 136.792822 
L 180.24124 135.491394 
L 181.327042 136.737832 
L 182.412843 122.532097 
L 183.498644 130.707269 
L 184.584445 135.088134 
L 185.670246 105.705175 
L 186.756047 141.027048 
L 187.841849 125.079965 
L 188.92765 129.77244 
L 190.013451 130.670609 
L 191.099252 133.310126 
L 192.185053 136.902802 
L 193.270854 123.925176 
L 194.356656 123.888516 
L 195.442457 150.173708 
L 196.528258 137.067772 
L 197.614059 126.234753 
L 198.69986 137.379382 
L 199.785661 124.969985 
L 200.871462 118.664471 
L 201.957264 137.342722 
L 203.043065 130.762259 
L 204.128866 136.481213 
L 205.214667 121.010709 
L 206.300468 145.151294 
L 207.386269 129.14922 
L 208.472071 127.591172 
L 209.557872 133.108496 
L 210.643673 145.334593 
L 211.729474 122.037188 
L 212.815275 117.381373 
L 213.901076 154.646224 
L 214.986877 133.255136 
L 216.072679 129.66246 
L 217.15848 135.729683 
L 218.244281 146.526042 
L 219.330082 133.988335 
L 220.415883 123.778536 
L 221.501684 137.947611 
L 222.587486 120.29584 
L 223.673287 133.163486 
L 224.759088 131.073868 
L 225.844889 150.247028 
L 226.93069 126.234753 
L 228.016491 148.45069 
L 229.102292 132.045357 
L 230.188094 126.234753 
L 231.273895 140.568798 
L 232.359696 135.216444 
L 233.445497 142.860046 
L 234.531298 130.010729 
L 235.617099 137.049442 
L 236.702901 134.868174 
L 237.788702 128.562661 
L 238.874503 147.350891 
L 239.960304 125.593204 
L 241.046105 117.088093 
L 242.131906 136.462883 
L 243.217708 139.707289 
L 244.303509 110.45264 
L 245.38931 138.094251 
L 246.475111 119.067731 
L 247.560912 133.530086 
L 248.646713 132.558597 
L 249.732514 145.077974 
L 250.818316 129.16755 
L 251.904117 140.972058 
L 252.989918 139.12073 
L 254.075719 130.853909 
L 255.16152 141.833567 
L 256.247321 136.077953 
L 257.333123 136.426223 
L 258.418924 145.297933 
L 259.504725 132.796886 
L 260.590526 128.361031 
L 261.676327 138.9191 
L 262.762128 135.619704 
L 263.847929 139.24904 
L 264.933731 142.310147 
L 266.019532 134.006665 
L 267.105333 142.346806 
L 268.191134 124.438415 
L 269.276935 134.263285 
L 270.362736 127.041272 
L 271.448538 136.646182 
L 272.534339 138.82745 
L 273.62014 144.638054 
L 274.705941 148.50568 
L 275.791742 147.057612 
L 276.877543 150.595298 
L 277.963344 135.766343 
L 279.049146 136.719502 
L 280.134947 152.226666 
L 281.220748 143.171656 
L 282.306549 155.452743 
L 283.39235 133.878355 
L 284.478151 124.860005 
L 285.563953 155.141133 
L 286.649754 143.629905 
L 287.735555 121.688918 
L 288.821356 132.191997 
L 289.907157 132.521937 
L 290.992958 138.9191 
L 292.07876 140.550468 
L 293.164561 136.536203 
L 294.250362 142.016867 
L 295.336163 129.20421 
L 296.421964 144.381434 
L 297.507765 137.984271 
L 298.593566 155.232783 
L 299.679368 145.536223 
L 300.765169 131.605438 
L 301.85097 142.218497 
L 302.936771 146.452722 
L 304.022572 149.550489 
L 305.108373 137.965941 
L 306.194175 130.853909 
L 307.279976 146.012803 
L 308.365777 128.031091 
L 309.451578 139.39568 
L 310.537379 159.943588 
L 311.62318 135.619704 
L 312.708981 146.727672 
L 313.794783 129.4425 
L 314.880584 133.805035 
L 315.966385 137.306062 
L 318.137987 148.50568 
L 319.223788 165.002663 
L 320.30959 130.835579 
L 321.395391 135.967973 
L 322.481192 137.086102 
L 323.566993 134.299945 
L 324.652794 163.701234 
L 325.738595 139.780609 
L 326.824396 131.367148 
L 327.910198 143.281636 
L 328.995999 119.58097 
L 330.0818 125.263264 
L 331.167601 131.972037 
L 332.253402 148.92727 
L 333.339203 131.807068 
L 334.425005 121.762238 
L 335.510806 139.835599 
L 336.596607 135.289764 
L 337.682408 136.939462 
L 338.768209 128.122741 
L 339.85401 127.737812 
L 340.939811 135.949643 
L 342.025613 139.762279 
L 343.111414 122.733727 
L 344.197215 128.654311 
L 345.283016 122.568757 
L 346.368817 123.851856 
L 347.454618 137.837631 
L 348.54042 127.976102 
L 349.626221 164.416103 
L 351.797823 124.383425 
L 352.883624 122.422117 
L 353.969425 141.943547 
L 355.055227 147.809141 
L 356.141028 148.28572 
L 357.226829 144.344774 
L 358.31263 128.562661 
L 359.398431 148.15741 
L 360.484232 149.825439 
L 361.570033 135.033144 
L 362.655835 127.994431 
L 363.741636 129.68079 
L 364.827437 151.951716 
L 365.913238 135.363084 
L 366.999039 135.638034 
L 368.08484 161.758256 
L 369.170642 131.752078 
L 370.256443 129.919079 
L 371.342244 169.768458 
L 373.513846 124.676705 
L 374.599647 121.267329 
L 375.685448 123.503586 
L 376.77125 142.823386 
L 377.857051 145.187954 
L 378.942852 146.049463 
L 380.028653 134.189965 
L 381.114454 159.173729 
L 382.200255 149.935419 
L 383.286057 145.297933 
L 384.371858 121.084029 
L 385.457659 149.550489 
L 386.54346 113.990326 
L 387.629261 148.12075 
L 388.715062 121.230669 
L 390.886665 137.471032 
L 391.972466 149.605479 
L 393.058267 153.619745 
L 394.144068 127.371212 
L 395.229869 153.308135 
L 396.31567 114.668535 
L 397.401472 121.175679 
L 398.487273 143.684895 
L 398.487273 143.684895 
" clip-path="url(#pd0edd029c1)" style="fill: none; stroke: #0000ff; stroke-width: 1.5; stroke-linecap: square"/>
   </g>
   <g id="line2d_28">
    <path d="M 73.832727 288.80264 
L 74.918528 295.488 
L 95.54875 295.488 
L 96.634552 288.259932 
L 97.720353 230.417852 
L 98.806154 231.338205 
L 99.891955 210.681922 
L 100.977756 207.965957 
L 102.063557 223.932609 
L 103.149358 219.345991 
L 104.23516 196.010464 
L 105.320961 211.966975 
L 106.406762 182.40502 
L 107.492563 202.136589 
L 109.664165 230.103785 
L 110.749967 217.437177 
L 111.835768 202.075585 
L 112.921569 221.432331 
L 114.00737 203.299963 
L 115.093171 191.161767 
L 116.178972 226.199335 
L 117.264773 221.763814 
L 118.350575 230.68516 
L 119.436376 184.637089 
L 120.522177 236.055733 
L 121.607978 216.86016 
L 122.693779 234.259106 
L 124.865382 208.141891 
L 125.951183 217.120322 
L 127.036984 205.747263 
L 128.122785 198.231882 
L 129.208586 187.930743 
L 130.294387 234.534256 
L 131.380189 205.835799 
L 132.46599 198.94679 
L 133.551791 201.855287 
L 134.637592 202.990276 
L 135.723393 199.827386 
L 136.809194 223.392205 
L 137.894995 189.151938 
L 138.980797 209.055311 
L 140.066598 192.770174 
L 141.152399 197.290333 
L 142.2382 230.239782 
L 143.324001 212.633278 
L 144.409802 198.475483 
L 145.495604 235.709952 
L 146.581405 200.329342 
L 147.667206 205.992551 
L 148.753007 200.408811 
L 149.838808 211.427238 
L 150.924609 169.374296 
L 152.01041 223.648598 
L 153.096212 188.388609 
L 154.182013 234.875473 
L 155.267814 191.114403 
L 156.353615 221.376575 
L 157.439416 195.01079 
L 158.525217 214.890498 
L 159.611019 175.733137 
L 160.69682 219.599005 
L 161.782621 216.827062 
L 162.868422 222.534884 
L 163.954223 158.601188 
L 165.040024 211.062471 
L 166.125825 231.599932 
L 167.211627 225.984141 
L 168.297428 211.633775 
L 169.383229 213.656562 
L 170.46903 208.450201 
L 171.554831 170.513365 
L 172.640632 210.40798 
L 173.726434 228.165366 
L 174.812235 238.828556 
L 175.898036 219.783578 
L 176.983837 193.671308 
L 178.069638 225.574329 
L 179.155439 210.368425 
L 180.24124 205.025013 
L 181.327042 210.339608 
L 182.412843 188.994201 
L 184.584445 209.268027 
L 185.670246 140.017195 
L 186.756047 222.855221 
L 187.841849 186.361411 
L 188.92765 198.458058 
L 190.013451 195.592906 
L 191.099252 202.802523 
L 192.185053 212.966039 
L 193.270854 177.298781 
L 194.356656 181.323691 
L 195.442457 239.405599 
L 197.614059 189.067072 
L 198.69986 213.022938 
L 199.785661 193.827965 
L 200.871462 171.276067 
L 201.957264 218.383512 
L 203.043065 203.884008 
L 204.128866 212.69731 
L 205.214667 181.313841 
L 206.300468 219.302127 
L 207.386269 196.003113 
L 208.472071 189.617769 
L 209.557872 205.246324 
L 210.643673 223.656609 
L 211.729474 175.335051 
L 212.815275 178.853594 
L 213.901076 242.197197 
L 214.986877 204.154092 
L 216.072679 194.804398 
L 217.15848 213.888051 
L 218.244281 227.160303 
L 220.415883 190.008042 
L 221.501684 207.718321 
L 222.587486 181.040257 
L 223.673287 206.124095 
L 224.759088 193.945532 
L 225.844889 233.857375 
L 226.93069 190.309288 
L 228.016491 235.867981 
L 229.102292 206.726758 
L 230.188094 193.201215 
L 231.273895 216.937535 
L 232.359696 212.343367 
L 233.445497 226.347877 
L 234.531298 200.542447 
L 235.617099 215.812233 
L 236.702901 210.865453 
L 237.788702 190.642128 
L 238.874503 229.505612 
L 239.960304 187.6745 
L 241.046105 171.407064 
L 242.131906 210.999906 
L 243.217708 212.504275 
L 244.303509 146.456758 
L 245.38931 218.780372 
L 246.475111 177.534856 
L 247.560912 212.350333 
L 248.646713 205.253833 
L 249.732514 229.929876 
L 250.818316 196.628245 
L 251.904117 218.536203 
L 252.989918 221.650619 
L 254.075719 197.484334 
L 255.16152 217.232889 
L 256.247321 208.860731 
L 257.333123 206.894556 
L 258.418924 226.834369 
L 259.504725 201.544833 
L 260.590526 193.942834 
L 261.676327 215.580287 
L 262.762128 213.24582 
L 263.847929 218.555722 
L 264.933731 231.052293 
L 266.019532 208.632418 
L 267.105333 222.369929 
L 268.191134 189.703959 
L 269.276935 210.026983 
L 270.362736 196.121268 
L 271.448538 212.309013 
L 272.534339 215.28572 
L 273.62014 230.368642 
L 274.705941 235.033288 
L 275.791742 232.638217 
L 276.877543 235.409846 
L 277.963344 204.724102 
L 279.049146 212.6897 
L 280.134947 238.332098 
L 281.220748 229.164463 
L 282.306549 245.759884 
L 283.39235 210.178924 
L 284.478151 187.044153 
L 285.563953 247.410559 
L 286.649754 230.424099 
L 287.735555 189.570507 
L 288.821356 206.539992 
L 289.907157 199.128429 
L 290.992958 212.627506 
L 292.07876 219.475179 
L 293.164561 212.18619 
L 294.250362 222.098598 
L 295.336163 197.823002 
L 296.421964 231.371777 
L 297.507765 211.558743 
L 298.593566 247.500161 
L 299.679368 230.726057 
L 300.765169 203.952247 
L 301.85097 223.166896 
L 302.936771 232.841183 
L 304.022572 236.282876 
L 305.108373 215.751555 
L 306.194175 207.988942 
L 307.279976 232.31023 
L 308.365777 199.344904 
L 309.451578 219.6012 
L 310.537379 251.468692 
L 311.62318 207.705485 
L 312.708981 230.669346 
L 313.794783 201.968657 
L 314.880584 211.193531 
L 315.966385 213.521708 
L 317.052186 224.802287 
L 318.137987 233.927523 
L 319.223788 255.372259 
L 320.30959 206.085919 
L 321.395391 212.275243 
L 322.481192 219.561036 
L 323.566993 206.383573 
L 324.652794 253.771813 
L 325.738595 221.286309 
L 326.824396 204.384313 
L 327.910198 225.061777 
L 328.995999 180.159061 
L 330.0818 186.848249 
L 331.167601 202.402276 
L 332.253402 233.79398 
L 333.339203 203.248802 
L 334.425005 182.287113 
L 335.510806 220.400609 
L 336.596607 206.085067 
L 337.682408 212.815301 
L 338.768209 194.139152 
L 339.85401 200.677087 
L 340.939811 214.479945 
L 342.025613 217.167217 
L 343.111414 185.363763 
L 344.197215 200.014694 
L 345.283016 184.432961 
L 346.368817 184.763946 
L 347.454618 218.282504 
L 348.54042 201.249546 
L 349.626221 259.927668 
L 351.797823 190.091795 
L 352.883624 188.846488 
L 353.969425 226.629298 
L 355.055227 230.234002 
L 356.141028 237.082113 
L 357.226829 230.755897 
L 358.31263 197.000597 
L 359.398431 236.631662 
L 360.484232 234.264053 
L 361.570033 209.444595 
L 362.655835 199.79258 
L 363.741636 199.444957 
L 364.827437 236.729986 
L 365.913238 213.002452 
L 366.999039 217.057755 
L 368.08484 254.115978 
L 369.170642 205.730093 
L 370.256443 201.243927 
L 371.342244 269.000279 
L 372.428045 233.986102 
L 373.513846 188.738614 
L 374.599647 180.13169 
L 375.685448 182.419604 
L 376.77125 223.640854 
L 378.942852 233.314551 
L 380.028653 213.488598 
L 381.114454 251.335489 
L 382.200255 242.202812 
L 383.286057 225.43261 
L 384.371858 182.81047 
L 385.457659 237.998107 
L 386.54346 163.589439 
L 387.629261 232.75112 
L 388.715062 181.085354 
L 389.800863 205.072595 
L 391.972466 233.251151 
L 393.058267 241.36775 
L 394.144068 194.371994 
L 395.229869 234.687522 
L 396.31567 169.913106 
L 397.401472 183.178708 
L 398.487273 224.393655 
L 398.487273 224.393655 
" clip-path="url(#pd0edd029c1)" style="fill: none; stroke-dasharray: 9.6,2.4,1.5,2.4; stroke-dashoffset: 0; stroke: #008000; stroke-width: 1.5"/>
   </g>
   <g id="line2d_29">
    <path d="M 73.832727 98.208927 
L 74.918528 106.095901 
L 95.54875 106.095901 
L 96.634552 102.178951 
L 97.720353 76.748318 
L 98.806154 66.113075 
L 99.891955 67.919404 
L 100.977756 68.764963 
L 102.063557 72.961289 
L 103.149358 69.617386 
L 104.23516 76.328742 
L 105.320961 67.905493 
L 106.406762 69.325537 
L 107.492563 65.803421 
L 108.578364 63.111075 
L 109.664165 72.626529 
L 110.749967 69.199414 
L 111.835768 64.398027 
L 112.921569 68.723616 
L 114.00737 70.550531 
L 115.093171 63.797624 
L 116.178972 72.326584 
L 117.264773 65.332824 
L 118.350575 72.944402 
L 119.436376 68.674878 
L 120.522177 72.785293 
L 121.607978 64.900656 
L 122.693779 62.348995 
L 123.77958 72.866983 
L 124.865382 66.662877 
L 125.951183 67.97655 
L 127.036984 70.746738 
L 128.122785 65.858832 
L 129.208586 68.113484 
L 130.294387 69.222537 
L 131.380189 69.099531 
L 132.46599 56.932093 
L 134.637592 61.357058 
L 135.723393 56.638057 
L 136.809194 58.075332 
L 137.894995 57.378655 
L 138.980797 68.15967 
L 140.066598 62.85209 
L 141.152399 60.128268 
L 142.2382 67.248158 
L 143.324001 59.522628 
L 144.409802 61.875915 
L 145.495604 59.39509 
L 146.581405 68.050588 
L 147.667206 60.114461 
L 148.753007 56.129951 
L 149.838808 57.282631 
L 150.924609 63.408811 
L 152.01041 61.594914 
L 153.096212 59.461742 
L 154.182013 57.956651 
L 155.267814 60.255305 
L 156.353615 66.286495 
L 157.439416 59.145075 
L 158.525217 64.487421 
L 159.611019 64.565262 
L 160.69682 60.732072 
L 161.782621 60.937818 
L 162.868422 60.215751 
L 163.954223 73.1921 
L 165.040024 60.763495 
L 167.211627 57.426373 
L 168.297428 57.332715 
L 169.383229 61.102202 
L 170.46903 59.48981 
L 171.554831 61.133284 
L 172.640632 55.699032 
L 173.726434 60.817463 
L 174.812235 68.704213 
L 175.898036 60.29088 
L 176.983837 64.773772 
L 178.069638 58.349425 
L 179.155439 63.21722 
L 180.24124 65.957774 
L 181.327042 63.136057 
L 182.412843 56.069993 
L 183.498644 62.2615 
L 184.584445 60.908242 
L 185.670246 71.393154 
L 186.756047 59.198874 
L 187.841849 63.798518 
L 188.92765 61.086822 
L 190.013451 65.748311 
L 191.099252 63.817728 
L 192.185053 60.839566 
L 193.270854 70.55157 
L 194.356656 66.453341 
L 195.442457 60.941818 
L 196.528258 59.155458 
L 197.614059 63.402434 
L 198.69986 61.735826 
L 199.785661 56.112004 
L 200.871462 66.052876 
L 201.957264 56.301931 
L 203.043065 57.64051 
L 204.128866 60.265115 
L 205.214667 60.707576 
L 206.300468 71.00046 
L 207.386269 62.295327 
L 208.472071 65.564575 
L 209.557872 60.970668 
L 210.643673 67.012578 
L 211.729474 68.739324 
L 212.815275 55.909151 
L 213.901076 67.09525 
L 214.986877 62.35618 
L 216.072679 64.520521 
L 217.15848 57.571316 
L 218.244281 65.891781 
L 219.330082 60.360772 
L 220.415883 57.54903 
L 221.501684 68.176902 
L 222.587486 59.551422 
L 223.673287 60.202877 
L 224.759088 68.202205 
L 225.844889 66.636682 
L 226.93069 62.160219 
L 228.016491 61.033399 
L 229.102292 57.363956 
L 230.188094 59.268291 
L 231.273895 64.200062 
L 232.359696 58.089521 
L 233.445497 59.372215 
L 234.531298 59.479011 
L 235.617099 58.286651 
L 236.702901 58.870895 
L 237.788702 66.483194 
L 238.874503 65.196171 
L 239.960304 63.511908 
L 242.131906 61.92586 
L 243.217708 66.910304 
L 244.303509 74.448521 
L 245.38931 57.40813 
L 246.475111 60.600606 
L 247.560912 54.709838 
L 248.646713 59.86336 
L 249.732514 60.226071 
L 250.818316 61.706855 
L 251.904117 63.407913 
L 252.989918 56.59084 
L 254.075719 64.223483 
L 255.16152 66.434245 
L 256.247321 63.295175 
L 257.333123 65.95789 
L 258.418924 63.761497 
L 259.504725 64.04894 
L 260.590526 62.779229 
L 261.676327 62.257913 
L 262.762128 57.993587 
L 263.847929 59.942357 
L 264.933731 53.568 
L 266.019532 59.380912 
L 267.105333 62.323684 
L 268.191134 59.172872 
L 269.276935 58.499587 
L 270.362736 57.961277 
L 271.448538 60.983352 
L 272.534339 62.36918 
L 273.62014 58.907466 
L 274.705941 61.978072 
L 275.791742 61.477006 
L 276.877543 65.780749 
L 277.963344 66.808585 
L 279.049146 60.749305 
L 280.134947 66.121234 
L 281.220748 57.178848 
L 282.306549 65.145602 
L 283.39235 57.577787 
L 284.478151 62.675856 
L 285.563953 62.871707 
L 286.649754 56.835712 
L 287.735555 53.807329 
L 288.821356 57.844002 
L 289.907157 65.915445 
L 290.992958 65.210694 
L 292.07876 61.625758 
L 293.164561 60.886215 
L 294.250362 61.935136 
L 295.336163 60.585418 
L 296.421964 57.391092 
L 297.507765 64.409799 
L 298.593566 62.965405 
L 299.679368 60.346389 
L 300.765169 59.258629 
L 301.85097 61.270097 
L 302.936771 60.064261 
L 304.022572 62.818102 
L 305.108373 60.180327 
L 306.194175 53.718875 
L 307.279976 59.715375 
L 308.365777 56.717279 
L 309.451578 59.190159 
L 310.537379 68.418484 
L 311.62318 63.533922 
L 312.708981 62.785997 
L 313.794783 56.916343 
L 314.880584 56.41654 
L 315.966385 61.090416 
L 317.052186 60.917804 
L 318.137987 63.083837 
L 319.223788 74.633067 
L 320.30959 55.585238 
L 321.395391 59.660703 
L 322.481192 54.611168 
L 323.566993 62.216317 
L 324.652794 73.630655 
L 325.738595 58.274909 
L 326.824396 58.349983 
L 327.910198 61.501494 
L 328.995999 59.002879 
L 330.0818 63.678279 
L 331.167601 61.541799 
L 332.253402 64.060559 
L 333.339203 60.365333 
L 334.425005 61.237363 
L 335.510806 59.270589 
L 336.596607 64.494461 
L 337.682408 61.063623 
L 338.768209 62.106331 
L 339.85401 54.798536 
L 340.939811 57.419342 
L 342.025613 62.357342 
L 343.111414 60.103691 
L 344.197215 57.293927 
L 345.283016 60.704553 
L 346.368817 62.939766 
L 347.454618 57.392758 
L 348.54042 54.702657 
L 349.626221 68.904539 
L 350.712022 65.496298 
L 351.797823 58.675056 
L 352.883624 55.997747 
L 353.969425 57.257796 
L 355.055227 65.38428 
L 356.141028 59.489328 
L 357.226829 57.933652 
L 358.31263 60.124725 
L 359.398431 59.683159 
L 360.484232 65.386825 
L 362.655835 56.196283 
L 363.741636 59.916623 
L 364.827437 67.173447 
L 365.913238 57.723715 
L 366.999039 54.218312 
L 368.08484 69.400535 
L 369.170642 57.774062 
L 370.256443 58.594232 
L 371.342244 70.536637 
L 372.428045 58.882682 
L 374.599647 62.402967 
L 375.685448 64.587569 
L 376.77125 62.005918 
L 377.857051 61.921292 
L 378.942852 58.784374 
L 380.028653 54.891332 
L 381.114454 67.011969 
L 382.200255 57.668025 
L 383.286057 65.163257 
L 384.371858 59.357588 
L 385.457659 61.102871 
L 386.54346 64.391213 
L 387.629261 63.490381 
L 388.715062 61.375983 
L 389.800863 54.142344 
L 390.886665 55.516605 
L 391.972466 65.959807 
L 393.058267 65.871739 
L 394.144068 60.370431 
L 395.229869 71.928748 
L 396.31567 59.423965 
L 397.401472 59.17265 
L 398.487273 62.976135 
L 398.487273 62.976135 
" clip-path="url(#pd0edd029c1)" style="fill: none; stroke-dasharray: 9.6,2.4,1.5,2.4; stroke-dashoffset: 0; stroke: #008000; stroke-width: 1.5"/>
   </g>
   <g id="line2d_30">
    <path d="M 73.832727 92.727548 
L 96.634552 92.727548 
L 97.720353 82.646059 
L 105.320961 82.646059 
L 106.406762 78.063564 
L 122.693779 78.063564 
L 123.77958 77.147065 
L 130.294387 77.147065 
L 131.380189 73.481068 
L 142.2382 73.481068 
L 143.324001 72.564569 
L 152.01041 72.564569 
L 153.096212 71.64807 
L 180.24124 71.64807 
L 181.327042 67.065575 
L 256.247321 67.065575 
L 257.333123 64.316078 
L 275.791742 64.316078 
L 276.877543 62.48308 
L 398.487273 62.48308 
L 398.487273 62.48308 
" clip-path="url(#pd0edd029c1)" style="fill: none; stroke: #ff0000; stroke-width: 1.5; stroke-linecap: square"/>
   </g>
   <g id="patch_3">
    <path d="M 57.6 307.584 
L 57.6 41.472 
" style="fill: none; stroke: #000000; stroke-width: 0.8; stroke-linejoin: miter; stroke-linecap: square"/>
   </g>
   <g id="patch_4">
    <path d="M 414.72 307.584 
L 414.72 41.472 
" style="fill: none; stroke: #000000; stroke-width: 0.8; stroke-linejoin: miter; stroke-linecap: square"/>
   </g>
   <g id="patch_5">
    <path d="M 57.6 307.584 
L 414.72 307.584 
" style="fill: none; stroke: #000000; stroke-width: 0.8; stroke-linejoin: miter; stroke-linecap: square"/>
   </g>
   <g id="patch_6">
    <path d="M 57.6 41.472 
L 414.72 41.472 
" style="fill: none; stroke: #000000; stroke-width: 0.8; stroke-linejoin: miter; stroke-linecap: square"/>
   </g>
   <g id="text_16">
    <!-- Population's average and best fitness -->
    <g transform="translate(123.529687 35.472) scale(0.12 -0.12)">
     <defs>
      <path id="DejaVuSans-50" d="M 1259 4147 
L 1259 2394 
L 2053 2394 
Q 2494 2394 2734 2622 
Q 2975 2850 2975 3272 
Q 2975 3691 2734 3919 
Q 2494 4147 2053 4147 
L 1259 4147 
z
M 628 4666 
L 2053 4666 
Q 2838 4666 3239 4311 
Q 3641 3956 3641 3272 
Q 3641 2581 3239 2228 
Q 2838 1875 2053 1875 
L 1259 1875 
L 1259 0 
L 628 0 
L 628 4666 
z
" transform="scale(0.015625)"/>
      <path id="DejaVuSans-70" d="M 1159 525 
L 1159 -1331 
L 581 -1331 
L 581 3500 
L 1159 3500 
L 1159 2969 
Q 1341 3281 1617 3432 
Q 1894 3584 2278 3584 
Q 2916 3584 3314 3078 
Q 3713 2572 3713 1747 
Q 3713 922 3314 415 
Q 2916 -91 2278 -91 
Q 1894 -91 1617 61 
Q 1341 213 1159 525 
z
M 3116 1747 
Q 3116 2381 2855 2742 
Q 2594 3103 2138 3103 
Q 1681 3103 1420 2742 
Q 1159 2381 1159 1747 
Q 1159 1113 1420 752 
Q 1681 391 2138 391 
Q 2594 391 2855 752 
Q 3116 1113 3116 1747 
z
" transform="scale(0.015625)"/>
      <path id="DejaVuSans-75" d="M 544 1381 
L 544 3500 
L 1119 3500 
L 1119 1403 
Q 1119 906 1312 657 
Q 1506 409 1894 409 
Q 2359 409 2629 706 
Q 2900 1003 2900 1516 
L 2900 3500 
L 3475 3500 
L 3475 0 
L 2900 0 
L 2900 538 
Q 2691 219 2414 64 
Q 2138 -91 1772 -91 
Q 1169 -91 856 284 
Q 544 659 544 1381 
z
M 1991 3584 
L 1991 3584 
z
" transform="scale(0.015625)"/>
      <path id="DejaVuSans-6c" d="M 603 4863 
L 1178 4863 
L 1178 0 
L 603 0 
L 603 4863 
z
" transform="scale(0.015625)"/>
      <path id="DejaVuSans-27" d="M 1147 4666 
L 1147 2931 
L 616 2931 
L 616 4666 
L 1147 4666 
z
" transform="scale(0.015625)"/>
      <path id="DejaVuSans-20" transform="scale(0.015625)"/>
      <path id="DejaVuSans-76" d="M 191 3500 
L 800 3500 
L 1894 563 
L 2988 3500 
L 3597 3500 
L 2284 0 
L 1503 0 
L 191 3500 
z
" transform="scale(0.015625)"/>
      <path id="DejaVuSans-67" d="M 2906 1791 
Q 2906 2416 2648 2759 
Q 2391 3103 1925 3103 
Q 1463 3103 1205 2759 
Q 947 2416 947 1791 
Q 947 1169 1205 825 
Q 1463 481 1925 481 
Q 2391 481 2648 825 
Q 2906 1169 2906 1791 
z
M 3481 434 
Q 3481 -459 3084 -895 
Q 2688 -1331 1869 -1331 
Q 1566 -1331 1297 -1286 
Q 1028 -1241 775 -1147 
L 775 -588 
Q 1028 -725 1275 -790 
Q 1522 -856 1778 -856 
Q 2344 -856 2625 -561 
Q 2906 -266 2906 331 
L 2906 616 
Q 2728 306 2450 153 
Q 2172 0 1784 0 
Q 1141 0 747 490 
Q 353 981 353 1791 
Q 353 2603 747 3093 
Q 1141 3584 1784 3584 
Q 2172 3584 2450 3431 
Q 2728 3278 2906 2969 
L 2906 3500 
L 3481 3500 
L 3481 434 
z
" transform="scale(0.015625)"/>
      <path id="DejaVuSans-64" d="M 2906 2969 
L 2906 4863 
L 3481 4863 
L 3481 0 
L 2906 0 
L 2906 525 
Q 2725 213 2448 61 
Q 2172 -91 1784 -91 
Q 1150 -91 751 415 
Q 353 922 353 1747 
Q 353 2572 751 3078 
Q 1150 3584 1784 3584 
Q 2172 3584 2448 3432 
Q 2725 3281 2906 2969 
z
M 947 1747 
Q 947 1113 1208 752 
Q 1469 391 1925 391 
Q 2381 391 2643 752 
Q 2906 1113 2906 1747 
Q 2906 2381 2643 2742 
Q 2381 3103 1925 3103 
Q 1469 3103 1208 2742 
Q 947 2381 947 1747 
z
" transform="scale(0.015625)"/>
      <path id="DejaVuSans-62" d="M 3116 1747 
Q 3116 2381 2855 2742 
Q 2594 3103 2138 3103 
Q 1681 3103 1420 2742 
Q 1159 2381 1159 1747 
Q 1159 1113 1420 752 
Q 1681 391 2138 391 
Q 2594 391 2855 752 
Q 3116 1113 3116 1747 
z
M 1159 2969 
Q 1341 3281 1617 3432 
Q 1894 3584 2278 3584 
Q 2916 3584 3314 3078 
Q 3713 2572 3713 1747 
Q 3713 922 3314 415 
Q 2916 -91 2278 -91 
Q 1894 -91 1617 61 
Q 1341 213 1159 525 
L 1159 0 
L 581 0 
L 581 4863 
L 1159 4863 
L 1159 2969 
z
" transform="scale(0.015625)"/>
      <path id="DejaVuSans-66" d="M 2375 4863 
L 2375 4384 
L 1825 4384 
Q 1516 4384 1395 4259 
Q 1275 4134 1275 3809 
L 1275 3500 
L 2222 3500 
L 2222 3053 
L 1275 3053 
L 1275 0 
L 697 0 
L 697 3053 
L 147 3053 
L 147 3500 
L 697 3500 
L 697 3744 
Q 697 4328 969 4595 
Q 1241 4863 1831 4863 
L 2375 4863 
z
" transform="scale(0.015625)"/>
     </defs>
     <use xlink:href="#DejaVuSans-50"/>
     <use xlink:href="#DejaVuSans-6f" x="56.677734"/>
     <use xlink:href="#DejaVuSans-70" x="117.859375"/>
     <use xlink:href="#DejaVuSans-75" x="181.335938"/>
     <use xlink:href="#DejaVuSans-6c" x="244.714844"/>
     <use xlink:href="#DejaVuSans-61" x="272.498047"/>
     <use xlink:href="#DejaVuSans-74" x="333.777344"/>
     <use xlink:href="#DejaVuSans-69" x="372.986328"/>
     <use xlink:href="#DejaVuSans-6f" x="400.769531"/>
     <use xlink:href="#DejaVuSans-6e" x="461.951172"/>
     <use xlink:href="#DejaVuSans-27" x="525.330078"/>
     <use xlink:href="#DejaVuSans-73" x="552.820312"/>
     <use xlink:href="#DejaVuSans-20" x="604.919922"/>
     <use xlink:href="#DejaVuSans-61" x="636.707031"/>
     <use xlink:href="#DejaVuSans-76" x="697.986328"/>
     <use xlink:href="#DejaVuSans-65" x="757.166016"/>
     <use xlink:href="#DejaVuSans-72" x="818.689453"/>
     <use xlink:href="#DejaVuSans-61" x="859.802734"/>
     <use xlink:href="#DejaVuSans-67" x="921.082031"/>
     <use xlink:href="#DejaVuSans-65" x="984.558594"/>
     <use xlink:href="#DejaVuSans-20" x="1046.082031"/>
     <use xlink:href="#DejaVuSans-61" x="1077.869141"/>
     <use xlink:href="#DejaVuSans-6e" x="1139.148438"/>
     <use xlink:href="#DejaVuSans-64" x="1202.527344"/>
     <use xlink:href="#DejaVuSans-20" x="1266.003906"/>
     <use xlink:href="#DejaVuSans-62" x="1297.791016"/>
     <use xlink:href="#DejaVuSans-65" x="1361.267578"/>
     <use xlink:href="#DejaVuSans-73" x="1422.791016"/>
     <use xlink:href="#DejaVuSans-74" x="1474.890625"/>
     <use xlink:href="#DejaVuSans-20" x="1514.099609"/>
     <use xlink:href="#DejaVuSans-66" x="1545.886719"/>
     <use xlink:href="#DejaVuSans-69" x="1581.091797"/>
     <use xlink:href="#DejaVuSans-74" x="1608.875"/>
     <use xlink:href="#DejaVuSans-6e" x="1648.083984"/>
     <use xlink:href="#DejaVuSans-65" x="1711.462891"/>
     <use xlink:href="#DejaVuSans-73" x="1772.986328"/>
     <use xlink:href="#DejaVuSans-73" x="1825.085938"/>
    </g>
   </g>
   <g id="legend_1">
    <g id="patch_7">
     <path d="M 199.689687 302.584 
L 272.630313 302.584 
Q 274.630313 302.584 274.630313 300.584 
L 274.630313 242.8715 
Q 274.630313 240.8715 272.630313 240.8715 
L 199.689687 240.8715 
Q 197.689687 240.8715 197.689687 242.8715 
L 197.689687 300.584 
Q 197.689687 302.584 199.689687 302.584 
z
" style="fill: #ffffff; opacity: 0.8; stroke: #cccccc; stroke-linejoin: miter"/>
    </g>
    <g id="line2d_31">
     <path d="M 201.689687 248.969937 
L 211.689687 248.969937 
L 221.689687 248.969937 
" style="fill: none; stroke: #0000ff; stroke-width: 1.5; stroke-linecap: square"/>
    </g>
    <g id="text_17">
     <!-- average -->
     <g transform="translate(229.689687 252.469937) scale(0.1 -0.1)">
      <use xlink:href="#DejaVuSans-61"/>
      <use xlink:href="#DejaVuSans-76" x="61.279297"/>
      <use xlink:href="#DejaVuSans-65" x="120.458984"/>
      <use xlink:href="#DejaVuSans-72" x="181.982422"/>
      <use xlink:href="#DejaVuSans-61" x="223.095703"/>
      <use xlink:href="#DejaVuSans-67" x="284.375"/>
      <use xlink:href="#DejaVuSans-65" x="347.851562"/>
     </g>
    </g>
    <g id="line2d_32">
     <path d="M 201.689687 263.648062 
L 211.689687 263.648062 
L 221.689687 263.648062 
" style="fill: none; stroke-dasharray: 9.6,2.4,1.5,2.4; stroke-dashoffset: 0; stroke: #008000; stroke-width: 1.5"/>
    </g>
    <g id="text_18">
     <!-- -1 sd -->
     <g transform="translate(229.689687 267.148062) scale(0.1 -0.1)">
      <defs>
       <path id="DejaVuSans-2d" d="M 313 2009 
L 1997 2009 
L 1997 1497 
L 313 1497 
L 313 2009 
z
" transform="scale(0.015625)"/>
      </defs>
      <use xlink:href="#DejaVuSans-2d"/>
      <use xlink:href="#DejaVuSans-31" x="36.083984"/>
      <use xlink:href="#DejaVuSans-20" x="99.707031"/>
      <use xlink:href="#DejaVuSans-73" x="131.494141"/>
      <use xlink:href="#DejaVuSans-64" x="183.59375"/>
     </g>
    </g>
    <g id="line2d_33">
     <path d="M 201.689687 278.326187 
L 211.689687 278.326187 
L 221.689687 278.326187 
" style="fill: none; stroke-dasharray: 9.6,2.4,1.5,2.4; stroke-dashoffset: 0; stroke: #008000; stroke-width: 1.5"/>
    </g>
    <g id="text_19">
     <!-- +1 sd -->
     <g transform="translate(229.689687 281.826187) scale(0.1 -0.1)">
      <defs>
       <path id="DejaVuSans-2b" d="M 2944 4013 
L 2944 2272 
L 4684 2272 
L 4684 1741 
L 2944 1741 
L 2944 0 
L 2419 0 
L 2419 1741 
L 678 1741 
L 678 2272 
L 2419 2272 
L 2419 4013 
L 2944 4013 
z
" transform="scale(0.015625)"/>
      </defs>
      <use xlink:href="#DejaVuSans-2b"/>
      <use xlink:href="#DejaVuSans-31" x="83.789062"/>
      <use xlink:href="#DejaVuSans-20" x="147.412109"/>
      <use xlink:href="#DejaVuSans-73" x="179.199219"/>
      <use xlink:href="#DejaVuSans-64" x="231.298828"/>
     </g>
    </g>
    <g id="line2d_34">
     <path d="M 201.689687 293.004312 
L 211.689687 293.004312 
L 221.689687 293.004312 
" style="fill: none; stroke: #ff0000; stroke-width: 1.5; stroke-linecap: square"/>
    </g>
    <g id="text_20">
     <!-- best -->
     <g transform="translate(229.689687 296.504312) scale(0.1 -0.1)">
      <use xlink:href="#DejaVuSans-62"/>
      <use xlink:href="#DejaVuSans-65" x="63.476562"/>
      <use xlink:href="#DejaVuSans-73" x="125"/>
      <use xlink:href="#DejaVuSans-74" x="177.099609"/>
     </g>
    </g>
   </g>
  </g>
 </g>
 <defs>
  <clipPath id="pd0edd029c1">
   <rect x="57.6" y="41.472" width="357.12" height="266.112"/>
  </clipPath>
 </defs>
</svg>
