<?xml version="1.0" encoding="UTF-8" standalone="no"?>
<!DOCTYPE svg PUBLIC "-//W3C//DTD SVG 1.1//EN"
 "http://www.w3.org/Graphics/SVG/1.1/DTD/svg11.dtd">
<!-- Generated by graphviz version 8.0.3 (20230416.2022)
 -->
<!-- Pages: 1 -->
<svg width="174pt" height="308pt"
 viewBox="0.00 0.00 173.65 307.95" xmlns="http://www.w3.org/2000/svg" xmlns:xlink="http://www.w3.org/1999/xlink">
<g id="graph0" class="graph" transform="scale(1 1) rotate(0) translate(4 303.95)">
<polygon fill="white" stroke="none" points="-4,4 -4,-303.95 169.65,-303.95 169.65,4 -4,4"/>
<!-- A -->
<g id="node1" class="node">
<title>A</title>
<polygon fill="lightgray" stroke="black" points="49.92,-299.95 26.92,-299.95 26.92,-281.95 49.92,-281.95 49.92,-299.95"/>
<text text-anchor="middle" x="38.42" y="-288.75" font-family="Times New Roman,serif" font-size="9.00">A</text>
</g>
<!-- A XOR B -->
<g id="node3" class="node">
<title>A XOR B</title>
<ellipse fill="lightblue" stroke="black" cx="75.42" cy="-37.48" rx="37.45" ry="37.45"/>
<text text-anchor="middle" x="75.42" y="-35.28" font-family="Times New Roman,serif" font-size="9.00">A XOR B</text>
</g>
<!-- A&#45;&gt;A XOR B -->
<g id="edge4" class="edge">
<title>A&#45;&gt;A XOR B</title>
<path fill="none" stroke="red" stroke-width="0.41" d="M29.14,-281.58C20.85,-273.42 9.28,-260.2 4.42,-245.95 -2.69,-225.13 0.95,-218.17 4.42,-196.45 10.72,-156.97 15.9,-147.36 32.42,-110.95 37.43,-99.92 43.69,-88.44 49.88,-77.96"/>
<polygon fill="red" stroke="red" stroke-width="0.41" points="52.86,-79.79 55.03,-69.42 46.87,-76.18 52.86,-79.79"/>
</g>
<!-- 1198 -->
<g id="node5" class="node">
<title>1198</title>
<ellipse fill="white" stroke="black" cx="38.42" cy="-221.2" rx="25" ry="25"/>
<text text-anchor="middle" x="38.42" y="-219" font-family="Times New Roman,serif" font-size="9.00">1198</text>
</g>
<!-- A&#45;&gt;1198 -->
<g id="edge6" class="edge">
<title>A&#45;&gt;1198</title>
<path fill="none" stroke="green" stroke-width="0.19" d="M38.42,-281.64C38.42,-275.19 38.42,-265.78 38.42,-256.34"/>
<polygon fill="green" stroke="green" stroke-width="0.19" points="41.92,-256.62 38.42,-246.62 34.92,-256.62 41.92,-256.62"/>
</g>
<!-- 7 -->
<g id="node6" class="node">
<title>7</title>
<ellipse fill="white" stroke="black" cx="133.42" cy="-135.7" rx="14.7" ry="14.7"/>
<text text-anchor="middle" x="133.42" y="-133.5" font-family="Times New Roman,serif" font-size="9.00">7</text>
</g>
<!-- A&#45;&gt;7 -->
<g id="edge1" class="edge">
<title>A&#45;&gt;7</title>
<path fill="none" stroke="green" stroke-width="1.06" d="M45.59,-281.46C52.76,-272.8 63.91,-258.84 72.42,-245.95 91.64,-216.84 110.75,-181.27 122.32,-158.79"/>
<polygon fill="green" stroke="green" stroke-width="1.06" points="125.8,-160.68 127.23,-150.18 119.56,-157.5 125.8,-160.68"/>
</g>
<!-- B -->
<g id="node2" class="node">
<title>B</title>
<polygon fill="lightgray" stroke="black" points="164.92,-230.2 141.92,-230.2 141.92,-212.2 164.92,-212.2 164.92,-230.2"/>
<text text-anchor="middle" x="153.42" y="-219" font-family="Times New Roman,serif" font-size="9.00">B</text>
</g>
<!-- B&#45;&gt;A XOR B -->
<g id="edge5" class="edge">
<title>B&#45;&gt;A XOR B</title>
<path fill="none" stroke="red" stroke-width="0.4" d="M156.15,-211.77C161.8,-192.77 173.02,-145.56 157.42,-110.95 148.63,-91.45 131.71,-75.09 115.52,-62.87"/>
<polygon fill="red" stroke="red" stroke-width="0.4" points="117.82,-60.22 107.66,-57.21 113.73,-65.9 117.82,-60.22"/>
</g>
<!-- B&#45;&gt;7 -->
<g id="edge3" class="edge">
<title>B&#45;&gt;7</title>
<path fill="none" stroke="green" stroke-width="0.4" d="M151.43,-211.89C148.55,-199.89 143.13,-177.25 138.99,-159.94"/>
<polygon fill="green" stroke="green" stroke-width="0.4" points="142.45,-159.39 136.72,-150.48 135.65,-161.02 142.45,-159.39"/>
</g>
<!-- 1259 -->
<g id="node4" class="node">
<title>1259</title>
<ellipse fill="white" stroke="black" cx="75.42" cy="-135.7" rx="25" ry="25"/>
<text text-anchor="middle" x="75.42" y="-133.5" font-family="Times New Roman,serif" font-size="9.00">1259</text>
</g>
<!-- 1259&#45;&gt;A XOR B -->
<g id="edge9" class="edge">
<title>1259&#45;&gt;A XOR B</title>
<path fill="none" stroke="green" stroke-width="0.11" d="M75.42,-110.42C75.42,-102.65 75.42,-93.78 75.42,-84.98"/>
<polygon fill="green" stroke="green" stroke-width="0.11" points="78.92,-85.13 75.42,-75.13 71.92,-85.13 78.92,-85.13"/>
</g>
<!-- 1198&#45;&gt;A XOR B -->
<g id="edge7" class="edge">
<title>1198&#45;&gt;A XOR B</title>
<path fill="none" stroke="red" stroke-width="0.48" stroke-dasharray="1,5" d="M36.28,-195.96C34.96,-173.58 34.63,-139.57 41.42,-110.95 43.95,-100.29 48.15,-89.32 52.75,-79.24"/>
<polygon fill="red" stroke="red" stroke-width="0.48" points="55.88,-80.8 57.05,-70.27 49.57,-77.78 55.88,-80.8"/>
</g>
<!-- 1198&#45;&gt;1259 -->
<g id="edge8" class="edge">
<title>1198&#45;&gt;1259</title>
<path fill="none" stroke="green" stroke-width="0.35" d="M48.34,-197.82C52.36,-188.75 57.08,-178.1 61.44,-168.25"/>
<polygon fill="green" stroke="green" stroke-width="0.35" points="64.63,-169.7 65.48,-159.14 58.23,-166.86 64.63,-169.7"/>
</g>
<!-- 7&#45;&gt;A XOR B -->
<g id="edge2" class="edge">
<title>7&#45;&gt;A XOR B</title>
<path fill="none" stroke="green" stroke-width="0.92" d="M126.07,-122.52C119.45,-111.52 109.32,-94.72 99.86,-79.02"/>
<polygon fill="green" stroke="green" stroke-width="0.92" points="102.55,-77.71 94.39,-70.96 96.56,-81.33 102.55,-77.71"/>
</g>
</g>
</svg>
