<?xml version="1.0" encoding="UTF-8" standalone="no"?>
<!DOCTYPE svg PUBLIC "-//W3C//DTD SVG 1.1//EN"
 "http://www.w3.org/Graphics/SVG/1.1/DTD/svg11.dtd">
<!-- Generated by graphviz version 8.0.3 (20230416.2022)
 -->
<!-- Pages: 1 -->
<svg width="83pt" height="215pt"
 viewBox="0.00 0.00 82.95 215.38" xmlns="http://www.w3.org/2000/svg" xmlns:xlink="http://www.w3.org/1999/xlink">
<g id="graph0" class="graph" transform="scale(1 1) rotate(0) translate(4 211.38)">
<polygon fill="white" stroke="none" points="-4,4 -4,-211.38 78.95,-211.38 78.95,4 -4,4"/>
<!-- A -->
<g id="node1" class="node">
<title>A</title>
<polygon fill="lightgray" stroke="black" points="25.98,-207.38 2.98,-207.38 2.98,-189.38 25.98,-189.38 25.98,-207.38"/>
<text text-anchor="middle" x="14.48" y="-196.18" font-family="Times New Roman,serif" font-size="9.00">A</text>
</g>
<!-- A XOR B -->
<g id="node3" class="node">
<title>A XOR B</title>
<ellipse fill="lightblue" stroke="black" cx="37.48" cy="-37.48" rx="37.45" ry="37.45"/>
<text text-anchor="middle" x="37.48" y="-35.28" font-family="Times New Roman,serif" font-size="9.00">A XOR B</text>
</g>
<!-- A&#45;&gt;A XOR B -->
<g id="edge5" class="edge">
<title>A&#45;&gt;A XOR B</title>
<path fill="none" stroke="red" stroke-width="0.59" d="M12.27,-188.95C8.53,-173.38 1.87,-139.15 7.48,-110.95 9.51,-100.73 13.01,-90.14 16.91,-80.32"/>
<polygon fill="red" stroke="red" stroke-width="0.59" points="20.11,-81.75 20.75,-71.17 13.65,-79.04 20.11,-81.75"/>
</g>
<!-- 812 -->
<g id="node4" class="node">
<title>812</title>
<ellipse fill="white" stroke="black" cx="37.48" cy="-132.17" rx="21.43" ry="21.43"/>
<text text-anchor="middle" x="37.48" y="-129.97" font-family="Times New Roman,serif" font-size="9.00">812</text>
</g>
<!-- A&#45;&gt;812 -->
<g id="edge1" class="edge">
<title>A&#45;&gt;812</title>
<path fill="none" stroke="green" stroke-width="1.12" d="M17.48,-188.98C19.88,-182.29 23.39,-172.5 26.8,-162.98"/>
<polygon fill="green" stroke="green" stroke-width="1.12" points="30.33,-164.5 30.41,-153.91 23.74,-162.14 30.33,-164.5"/>
</g>
<!-- B -->
<g id="node2" class="node">
<title>B</title>
<polygon fill="lightgray" stroke="black" points="70.98,-207.38 47.98,-207.38 47.98,-189.38 70.98,-189.38 70.98,-207.38"/>
<text text-anchor="middle" x="59.48" y="-196.18" font-family="Times New Roman,serif" font-size="9.00">B</text>
</g>
<!-- B&#45;&gt;A XOR B -->
<g id="edge4" class="edge">
<title>B&#45;&gt;A XOR B</title>
<path fill="none" stroke="green" stroke-width="0.31" d="M61.85,-188.95C65.87,-173.4 73.09,-139.18 67.48,-110.95 65.44,-100.73 61.95,-90.14 58.04,-80.32"/>
<polygon fill="green" stroke="green" stroke-width="0.31" points="61.3,-79.04 54.2,-71.17 54.84,-81.75 61.3,-79.04"/>
</g>
<!-- B&#45;&gt;812 -->
<g id="edge3" class="edge">
<title>B&#45;&gt;812</title>
<path fill="none" stroke="red" stroke-width="1.58" d="M56.6,-188.98C54.41,-182.58 51.24,-173.33 48.11,-164.19"/>
<polygon fill="red" stroke="red" stroke-width="1.58" points="50.79,-163.23 44.24,-154.91 44.17,-165.5 50.79,-163.23"/>
</g>
<!-- 812&#45;&gt;A XOR B -->
<g id="edge2" class="edge">
<title>812&#45;&gt;A XOR B</title>
<path fill="none" stroke="green" stroke-width="0.77" d="M37.48,-110.6C37.48,-103.32 37.48,-94.8 37.48,-86.22"/>
<polygon fill="green" stroke="green" stroke-width="0.77" points="40.98,-86.41 37.48,-76.41 33.98,-86.41 40.98,-86.41"/>
</g>
</g>
</svg>
