<?xml version="1.0" encoding="utf-8" standalone="no"?>
<!DOCTYPE svg PUBLIC "-//W3C//DTD SVG 1.1//EN"
  "http://www.w3.org/Graphics/SVG/1.1/DTD/svg11.dtd">
<svg xmlns:xlink="http://www.w3.org/1999/xlink" width="460.8pt" height="345.6pt" viewBox="0 0 460.8 345.6" xmlns="http://www.w3.org/2000/svg" version="1.1">
 <metadata>
  <rdf:RDF xmlns:dc="http://purl.org/dc/elements/1.1/" xmlns:cc="http://creativecommons.org/ns#" xmlns:rdf="http://www.w3.org/1999/02/22-rdf-syntax-ns#">
   <cc:Work>
    <dc:type rdf:resource="http://purl.org/dc/dcmitype/StillImage"/>
    <dc:date>2023-04-21T15:28:55.144831</dc:date>
    <dc:format>image/svg+xml</dc:format>
    <dc:creator>
     <cc:Agent>
      <dc:title>Matplotlib v3.6.0, https://matplotlib.org/</dc:title>
     </cc:Agent>
    </dc:creator>
   </cc:Work>
  </rdf:RDF>
 </metadata>
 <defs>
  <style type="text/css">*{stroke-linejoin: round; stroke-linecap: butt}</style>
 </defs>
 <g id="figure_1">
  <g id="patch_1">
   <path d="M 0 345.6 
L 460.8 345.6 
L 460.8 0 
L 0 0 
z
" style="fill: #ffffff"/>
  </g>
  <g id="axes_1">
   <g id="patch_2">
    <path d="M 57.6 307.584 
L 414.72 307.584 
L 414.72 41.472 
L 57.6 41.472 
z
" style="fill: #ffffff"/>
   </g>
   <g id="PolyCollection_1">
    <path d="M 73.832727 57.478737 
L 73.832727 307.584 
L 77.40036 307.584 
L 80.967992 307.584 
L 84.535624 307.584 
L 88.103257 307.584 
L 91.670889 307.584 
L 95.238521 307.584 
L 98.806154 307.584 
L 102.373786 307.584 
L 105.941419 307.584 
L 109.509051 307.584 
L 113.076683 307.584 
L 116.644316 307.584 
L 120.211948 307.584 
L 123.77958 307.584 
L 127.347213 307.584 
L 130.914845 307.584 
L 134.482478 307.584 
L 138.05011 307.584 
L 141.617742 307.584 
L 145.185375 307.584 
L 148.753007 307.584 
L 152.320639 307.584 
L 155.888272 307.584 
L 159.455904 307.584 
L 163.023536 307.584 
L 166.591169 307.584 
L 170.158801 307.584 
L 173.726434 307.584 
L 177.294066 307.584 
L 180.861698 307.584 
L 184.429331 307.584 
L 187.996963 307.584 
L 191.564595 307.584 
L 195.132228 307.584 
L 198.69986 307.584 
L 202.267493 307.584 
L 205.835125 307.584 
L 209.402757 307.584 
L 212.97039 307.584 
L 216.538022 307.584 
L 220.105654 307.584 
L 223.673287 307.584 
L 227.240919 307.584 
L 230.808551 307.584 
L 234.376184 307.584 
L 237.943816 307.584 
L 241.511449 307.584 
L 245.079081 307.584 
L 248.646713 307.584 
L 252.214346 307.584 
L 255.781978 307.584 
L 259.34961 307.584 
L 262.917243 307.584 
L 266.484875 307.584 
L 270.052507 307.584 
L 273.62014 307.584 
L 277.187772 307.584 
L 280.755405 307.584 
L 284.323037 307.584 
L 287.890669 307.584 
L 291.458302 307.584 
L 295.025934 307.584 
L 298.593566 307.584 
L 302.161199 307.584 
L 305.728831 307.584 
L 309.296464 307.584 
L 312.864096 307.584 
L 316.431728 307.584 
L 319.999361 307.584 
L 323.566993 307.584 
L 327.134625 307.584 
L 330.702258 307.584 
L 334.26989 307.584 
L 337.837522 307.584 
L 341.405155 307.584 
L 344.972787 307.584 
L 348.54042 307.584 
L 352.108052 307.584 
L 355.675684 307.584 
L 359.243317 307.584 
L 362.810949 307.584 
L 366.378581 307.584 
L 369.946214 307.584 
L 373.513846 307.584 
L 377.081479 307.584 
L 380.649111 307.584 
L 384.216743 307.584 
L 387.784376 307.584 
L 391.352008 307.584 
L 394.91964 307.584 
L 398.487273 307.584 
L 398.487273 307.584 
L 398.487273 307.584 
L 394.91964 307.584 
L 391.352008 307.584 
L 387.784376 307.584 
L 384.216743 307.584 
L 380.649111 307.584 
L 377.081479 307.584 
L 373.513846 307.584 
L 369.946214 307.584 
L 366.378581 307.584 
L 362.810949 307.584 
L 359.243317 307.584 
L 355.675684 307.584 
L 352.108052 307.584 
L 348.54042 307.584 
L 344.972787 307.584 
L 341.405155 307.584 
L 337.837522 307.584 
L 334.26989 307.584 
L 330.702258 307.584 
L 327.134625 307.584 
L 323.566993 307.584 
L 319.999361 307.584 
L 316.431728 307.584 
L 312.864096 307.584 
L 309.296464 307.584 
L 305.728831 307.584 
L 302.161199 307.584 
L 298.593566 307.584 
L 295.025934 307.584 
L 291.458302 307.584 
L 287.890669 307.584 
L 284.323037 307.584 
L 280.755405 307.584 
L 277.187772 307.584 
L 273.62014 292.577684 
L 270.052507 294.245053 
L 266.484875 290.910316 
L 262.917243 295.912421 
L 259.34961 285.908211 
L 255.781978 287.575579 
L 252.214346 292.577684 
L 248.646713 287.575579 
L 245.079081 287.575579 
L 241.511449 289.242947 
L 237.943816 289.242947 
L 234.376184 280.906105 
L 230.808551 290.910316 
L 227.240919 289.242947 
L 223.673287 284.240842 
L 220.105654 289.242947 
L 216.538022 284.240842 
L 212.97039 277.571368 
L 209.402757 287.575579 
L 205.835125 279.238737 
L 202.267493 269.234526 
L 198.69986 257.562947 
L 195.132228 272.569263 
L 191.564595 275.904 
L 187.996963 275.904 
L 184.429331 297.579789 
L 180.861698 279.238737 
L 177.294066 254.228211 
L 173.726434 249.226105 
L 170.158801 277.571368 
L 166.591169 260.897684 
L 163.023536 259.230316 
L 159.455904 245.891368 
L 155.888272 264.232421 
L 152.320639 229.217684 
L 148.753007 209.209263 
L 145.185375 224.215579 
L 141.617742 225.882947 
L 138.05011 227.550316 
L 134.482478 220.880842 
L 130.914845 207.541895 
L 127.347213 220.880842 
L 123.77958 215.878737 
L 120.211948 155.853474 
L 116.644316 139.179789 
L 113.076683 140.847158 
L 109.509051 152.518737 
L 105.941419 167.525053 
L 102.373786 75.819789 
L 98.806154 57.478737 
L 95.238521 57.478737 
L 91.670889 57.478737 
L 88.103257 57.478737 
L 84.535624 57.478737 
L 80.967992 57.478737 
L 77.40036 57.478737 
L 73.832727 57.478737 
z
" clip-path="url(#pdfd6884a17)" style="fill: #1f77b4"/>
   </g>
   <g id="PolyCollection_2">
    <path d="M 73.832727 57.478737 
L 73.832727 57.478737 
L 77.40036 57.478737 
L 80.967992 57.478737 
L 84.535624 57.478737 
L 88.103257 57.478737 
L 91.670889 57.478737 
L 95.238521 57.478737 
L 98.806154 57.478737 
L 102.373786 75.819789 
L 105.941419 167.525053 
L 109.509051 152.518737 
L 113.076683 140.847158 
L 116.644316 139.179789 
L 120.211948 155.853474 
L 123.77958 215.878737 
L 127.347213 220.880842 
L 130.914845 207.541895 
L 134.482478 220.880842 
L 138.05011 227.550316 
L 141.617742 225.882947 
L 145.185375 224.215579 
L 148.753007 209.209263 
L 152.320639 229.217684 
L 155.888272 264.232421 
L 159.455904 245.891368 
L 163.023536 259.230316 
L 166.591169 260.897684 
L 170.158801 277.571368 
L 173.726434 249.226105 
L 177.294066 254.228211 
L 180.861698 279.238737 
L 184.429331 297.579789 
L 187.996963 275.904 
L 191.564595 275.904 
L 195.132228 272.569263 
L 198.69986 257.562947 
L 202.267493 269.234526 
L 205.835125 279.238737 
L 209.402757 287.575579 
L 212.97039 277.571368 
L 216.538022 284.240842 
L 220.105654 289.242947 
L 223.673287 284.240842 
L 227.240919 289.242947 
L 230.808551 290.910316 
L 234.376184 280.906105 
L 237.943816 289.242947 
L 241.511449 289.242947 
L 245.079081 287.575579 
L 248.646713 287.575579 
L 252.214346 292.577684 
L 255.781978 287.575579 
L 259.34961 285.908211 
L 262.917243 295.912421 
L 266.484875 290.910316 
L 270.052507 294.245053 
L 273.62014 292.577684 
L 277.187772 307.584 
L 280.755405 307.584 
L 284.323037 307.584 
L 287.890669 307.584 
L 291.458302 307.584 
L 295.025934 307.584 
L 298.593566 307.584 
L 302.161199 307.584 
L 305.728831 307.584 
L 309.296464 307.584 
L 312.864096 307.584 
L 316.431728 307.584 
L 319.999361 307.584 
L 323.566993 307.584 
L 327.134625 307.584 
L 330.702258 307.584 
L 334.26989 307.584 
L 337.837522 307.584 
L 341.405155 307.584 
L 344.972787 307.584 
L 348.54042 307.584 
L 352.108052 307.584 
L 355.675684 307.584 
L 359.243317 307.584 
L 362.810949 307.584 
L 366.378581 307.584 
L 369.946214 307.584 
L 373.513846 307.584 
L 377.081479 307.584 
L 380.649111 307.584 
L 384.216743 307.584 
L 387.784376 307.584 
L 391.352008 307.584 
L 394.91964 307.584 
L 398.487273 307.584 
L 398.487273 307.584 
L 398.487273 307.584 
L 394.91964 307.584 
L 391.352008 307.584 
L 387.784376 307.584 
L 384.216743 307.584 
L 380.649111 307.584 
L 377.081479 307.584 
L 373.513846 307.584 
L 369.946214 254.228211 
L 366.378581 252.560842 
L 362.810949 255.895579 
L 359.243317 260.897684 
L 355.675684 272.569263 
L 352.108052 269.234526 
L 348.54042 274.236632 
L 344.972787 272.569263 
L 341.405155 275.904 
L 337.837522 277.571368 
L 334.26989 269.234526 
L 330.702258 287.575579 
L 327.134625 292.577684 
L 323.566993 285.908211 
L 319.999361 290.910316 
L 316.431728 292.577684 
L 312.864096 300.914526 
L 309.296464 285.908211 
L 305.728831 275.904 
L 302.161199 287.575579 
L 298.593566 269.234526 
L 295.025934 269.234526 
L 291.458302 277.571368 
L 287.890669 280.906105 
L 284.323037 282.573474 
L 280.755405 290.910316 
L 277.187772 284.240842 
L 273.62014 265.899789 
L 270.052507 259.230316 
L 266.484875 267.567158 
L 262.917243 269.234526 
L 259.34961 259.230316 
L 255.781978 257.562947 
L 252.214346 260.897684 
L 248.646713 254.228211 
L 245.079081 262.565053 
L 241.511449 264.232421 
L 237.943816 270.901895 
L 234.376184 255.895579 
L 230.808551 257.562947 
L 227.240919 269.234526 
L 223.673287 272.569263 
L 220.105654 260.897684 
L 216.538022 265.899789 
L 212.97039 252.560842 
L 209.402757 267.567158 
L 205.835125 247.558737 
L 202.267493 247.558737 
L 198.69986 229.217684 
L 195.132228 247.558737 
L 191.564595 237.554526 
L 187.996963 247.558737 
L 184.429331 274.236632 
L 180.861698 245.891368 
L 177.294066 232.552421 
L 173.726434 232.552421 
L 170.158801 265.899789 
L 166.591169 244.224 
L 163.023536 230.885053 
L 159.455904 209.209263 
L 155.888272 222.548211 
L 152.320639 185.866105 
L 148.753007 167.525053 
L 145.185375 172.527158 
L 141.617742 165.857684 
L 138.05011 169.192421 
L 134.482478 162.522947 
L 130.914845 137.512421 
L 127.347213 155.853474 
L 123.77958 144.181895 
L 120.211948 77.487158 
L 116.644316 57.478737 
L 113.076683 57.478737 
L 109.509051 57.478737 
L 105.941419 57.478737 
L 102.373786 57.478737 
L 98.806154 57.478737 
L 95.238521 57.478737 
L 91.670889 57.478737 
L 88.103257 57.478737 
L 84.535624 57.478737 
L 80.967992 57.478737 
L 77.40036 57.478737 
L 73.832727 57.478737 
z
" clip-path="url(#pdfd6884a17)" style="fill: #ff7f0e"/>
   </g>
   <g id="PolyCollection_3">
    <path d="M 73.832727 57.478737 
L 73.832727 57.478737 
L 77.40036 57.478737 
L 80.967992 57.478737 
L 84.535624 57.478737 
L 88.103257 57.478737 
L 91.670889 57.478737 
L 95.238521 57.478737 
L 98.806154 57.478737 
L 102.373786 57.478737 
L 105.941419 57.478737 
L 109.509051 57.478737 
L 113.076683 57.478737 
L 116.644316 57.478737 
L 120.211948 77.487158 
L 123.77958 144.181895 
L 127.347213 155.853474 
L 130.914845 137.512421 
L 134.482478 162.522947 
L 138.05011 169.192421 
L 141.617742 165.857684 
L 145.185375 172.527158 
L 148.753007 167.525053 
L 152.320639 185.866105 
L 155.888272 222.548211 
L 159.455904 209.209263 
L 163.023536 230.885053 
L 166.591169 244.224 
L 170.158801 265.899789 
L 173.726434 232.552421 
L 177.294066 232.552421 
L 180.861698 245.891368 
L 184.429331 274.236632 
L 187.996963 247.558737 
L 191.564595 237.554526 
L 195.132228 247.558737 
L 198.69986 229.217684 
L 202.267493 247.558737 
L 205.835125 247.558737 
L 209.402757 267.567158 
L 212.97039 252.560842 
L 216.538022 265.899789 
L 220.105654 260.897684 
L 223.673287 272.569263 
L 227.240919 269.234526 
L 230.808551 257.562947 
L 234.376184 255.895579 
L 237.943816 270.901895 
L 241.511449 264.232421 
L 245.079081 262.565053 
L 248.646713 254.228211 
L 252.214346 260.897684 
L 255.781978 257.562947 
L 259.34961 259.230316 
L 262.917243 269.234526 
L 266.484875 267.567158 
L 270.052507 259.230316 
L 273.62014 265.899789 
L 277.187772 284.240842 
L 280.755405 290.910316 
L 284.323037 282.573474 
L 287.890669 280.906105 
L 291.458302 277.571368 
L 295.025934 269.234526 
L 298.593566 269.234526 
L 302.161199 287.575579 
L 305.728831 275.904 
L 309.296464 285.908211 
L 312.864096 300.914526 
L 316.431728 292.577684 
L 319.999361 290.910316 
L 323.566993 285.908211 
L 327.134625 292.577684 
L 330.702258 287.575579 
L 334.26989 269.234526 
L 337.837522 277.571368 
L 341.405155 275.904 
L 344.972787 272.569263 
L 348.54042 274.236632 
L 352.108052 269.234526 
L 355.675684 272.569263 
L 359.243317 260.897684 
L 362.810949 255.895579 
L 366.378581 252.560842 
L 369.946214 254.228211 
L 373.513846 307.584 
L 377.081479 307.584 
L 380.649111 307.584 
L 384.216743 307.584 
L 387.784376 307.584 
L 391.352008 307.584 
L 394.91964 307.584 
L 398.487273 307.584 
L 398.487273 307.584 
L 398.487273 307.584 
L 394.91964 307.584 
L 391.352008 307.584 
L 387.784376 307.584 
L 384.216743 307.584 
L 380.649111 307.584 
L 377.081479 307.584 
L 373.513846 307.584 
L 369.946214 254.228211 
L 366.378581 252.560842 
L 362.810949 255.895579 
L 359.243317 225.882947 
L 355.675684 225.882947 
L 352.108052 217.546105 
L 348.54042 227.550316 
L 344.972787 230.885053 
L 341.405155 215.878737 
L 337.837522 214.211368 
L 334.26989 210.876632 
L 330.702258 225.882947 
L 327.134625 229.217684 
L 323.566993 225.882947 
L 319.999361 240.889263 
L 316.431728 237.554526 
L 312.864096 250.893474 
L 309.296464 237.554526 
L 305.728831 229.217684 
L 302.161199 229.217684 
L 298.593566 234.219789 
L 295.025934 214.211368 
L 291.458302 220.880842 
L 287.890669 234.219789 
L 284.323037 215.878737 
L 280.755405 237.554526 
L 277.187772 227.550316 
L 273.62014 227.550316 
L 270.052507 244.224 
L 266.484875 237.554526 
L 262.917243 250.893474 
L 259.34961 227.550316 
L 255.781978 225.882947 
L 252.214346 235.887158 
L 248.646713 230.885053 
L 245.079081 247.558737 
L 241.511449 239.221895 
L 237.943816 242.556632 
L 234.376184 227.550316 
L 230.808551 222.548211 
L 227.240919 240.889263 
L 223.673287 245.891368 
L 220.105654 225.882947 
L 216.538022 232.552421 
L 212.97039 222.548211 
L 209.402757 240.889263 
L 205.835125 235.887158 
L 202.267493 200.872421 
L 198.69986 182.531368 
L 195.132228 212.544 
L 191.564595 209.209263 
L 187.996963 204.207158 
L 184.429331 230.885053 
L 180.861698 227.550316 
L 177.294066 217.546105 
L 173.726434 215.878737 
L 170.158801 207.541895 
L 166.591169 205.874526 
L 163.023536 179.196632 
L 159.455904 165.857684 
L 155.888272 142.514526 
L 152.320639 144.181895 
L 148.753007 125.840842 
L 145.185375 117.504 
L 141.617742 102.497684 
L 138.05011 92.493474 
L 134.482478 62.480842 
L 130.914845 57.478737 
L 127.347213 59.146105 
L 123.77958 57.478737 
L 120.211948 57.478737 
L 116.644316 57.478737 
L 113.076683 57.478737 
L 109.509051 57.478737 
L 105.941419 57.478737 
L 102.373786 57.478737 
L 98.806154 57.478737 
L 95.238521 57.478737 
L 91.670889 57.478737 
L 88.103257 57.478737 
L 84.535624 57.478737 
L 80.967992 57.478737 
L 77.40036 57.478737 
L 73.832727 57.478737 
z
" clip-path="url(#pdfd6884a17)" style="fill: #2ca02c"/>
   </g>
   <g id="PolyCollection_4">
    <path d="M 73.832727 57.478737 
L 73.832727 57.478737 
L 77.40036 57.478737 
L 80.967992 57.478737 
L 84.535624 57.478737 
L 88.103257 57.478737 
L 91.670889 57.478737 
L 95.238521 57.478737 
L 98.806154 57.478737 
L 102.373786 57.478737 
L 105.941419 57.478737 
L 109.509051 57.478737 
L 113.076683 57.478737 
L 116.644316 57.478737 
L 120.211948 57.478737 
L 123.77958 57.478737 
L 127.347213 59.146105 
L 130.914845 57.478737 
L 134.482478 62.480842 
L 138.05011 92.493474 
L 141.617742 102.497684 
L 145.185375 117.504 
L 148.753007 125.840842 
L 152.320639 144.181895 
L 155.888272 142.514526 
L 159.455904 165.857684 
L 163.023536 179.196632 
L 166.591169 205.874526 
L 170.158801 207.541895 
L 173.726434 215.878737 
L 177.294066 217.546105 
L 180.861698 227.550316 
L 184.429331 230.885053 
L 187.996963 204.207158 
L 191.564595 209.209263 
L 195.132228 212.544 
L 198.69986 182.531368 
L 202.267493 200.872421 
L 205.835125 235.887158 
L 209.402757 240.889263 
L 212.97039 222.548211 
L 216.538022 232.552421 
L 220.105654 225.882947 
L 223.673287 245.891368 
L 227.240919 240.889263 
L 230.808551 222.548211 
L 234.376184 227.550316 
L 237.943816 242.556632 
L 241.511449 239.221895 
L 245.079081 247.558737 
L 248.646713 230.885053 
L 252.214346 235.887158 
L 255.781978 225.882947 
L 259.34961 227.550316 
L 262.917243 250.893474 
L 266.484875 237.554526 
L 270.052507 244.224 
L 273.62014 227.550316 
L 277.187772 227.550316 
L 280.755405 237.554526 
L 284.323037 215.878737 
L 287.890669 234.219789 
L 291.458302 220.880842 
L 295.025934 214.211368 
L 298.593566 234.219789 
L 302.161199 229.217684 
L 305.728831 229.217684 
L 309.296464 237.554526 
L 312.864096 250.893474 
L 316.431728 237.554526 
L 319.999361 240.889263 
L 323.566993 225.882947 
L 327.134625 229.217684 
L 330.702258 225.882947 
L 334.26989 210.876632 
L 337.837522 214.211368 
L 341.405155 215.878737 
L 344.972787 230.885053 
L 348.54042 227.550316 
L 352.108052 217.546105 
L 355.675684 225.882947 
L 359.243317 225.882947 
L 362.810949 255.895579 
L 366.378581 252.560842 
L 369.946214 254.228211 
L 373.513846 307.584 
L 377.081479 307.584 
L 380.649111 307.584 
L 384.216743 307.584 
L 387.784376 307.584 
L 391.352008 307.584 
L 394.91964 307.584 
L 398.487273 307.584 
L 398.487273 307.584 
L 398.487273 307.584 
L 394.91964 307.584 
L 391.352008 307.584 
L 387.784376 307.584 
L 384.216743 307.584 
L 380.649111 307.584 
L 377.081479 307.584 
L 373.513846 307.584 
L 369.946214 254.228211 
L 366.378581 252.560842 
L 362.810949 255.895579 
L 359.243317 225.882947 
L 355.675684 225.882947 
L 352.108052 217.546105 
L 348.54042 227.550316 
L 344.972787 230.885053 
L 341.405155 215.878737 
L 337.837522 214.211368 
L 334.26989 210.876632 
L 330.702258 189.200842 
L 327.134625 192.535579 
L 323.566993 184.198737 
L 319.999361 209.209263 
L 316.431728 202.539789 
L 312.864096 200.872421 
L 309.296464 209.209263 
L 305.728831 205.874526 
L 302.161199 205.874526 
L 298.593566 199.205053 
L 295.025934 194.202947 
L 291.458302 190.868211 
L 287.890669 185.866105 
L 284.323037 192.535579 
L 280.755405 220.880842 
L 277.187772 199.205053 
L 273.62014 200.872421 
L 270.052507 230.885053 
L 266.484875 214.211368 
L 262.917243 232.552421 
L 259.34961 202.539789 
L 255.781978 204.207158 
L 252.214346 217.546105 
L 248.646713 210.876632 
L 245.079081 225.882947 
L 241.511449 234.219789 
L 237.943816 224.215579 
L 234.376184 215.878737 
L 230.808551 214.211368 
L 227.240919 222.548211 
L 223.673287 225.882947 
L 220.105654 209.209263 
L 216.538022 200.872421 
L 212.97039 207.541895 
L 209.402757 214.211368 
L 205.835125 209.209263 
L 202.267493 167.525053 
L 198.69986 150.851368 
L 195.132228 180.864 
L 191.564595 185.866105 
L 187.996963 167.525053 
L 184.429331 187.533474 
L 180.861698 194.202947 
L 177.294066 177.529263 
L 173.726434 180.864 
L 170.158801 180.864 
L 166.591169 152.518737 
L 163.023536 129.175579 
L 159.455904 119.171368 
L 155.888272 110.834526 
L 152.320639 104.165053 
L 148.753007 94.160842 
L 145.185375 67.482947 
L 141.617742 57.478737 
L 138.05011 55.811368 
L 134.482478 57.478737 
L 130.914845 57.478737 
L 127.347213 59.146105 
L 123.77958 57.478737 
L 120.211948 57.478737 
L 116.644316 57.478737 
L 113.076683 57.478737 
L 109.509051 57.478737 
L 105.941419 57.478737 
L 102.373786 57.478737 
L 98.806154 57.478737 
L 95.238521 57.478737 
L 91.670889 57.478737 
L 88.103257 57.478737 
L 84.535624 57.478737 
L 80.967992 57.478737 
L 77.40036 57.478737 
L 73.832727 57.478737 
z
" clip-path="url(#pdfd6884a17)" style="fill: #d62728"/>
   </g>
   <g id="PolyCollection_5">
    <path d="M 73.832727 57.478737 
L 73.832727 57.478737 
L 77.40036 57.478737 
L 80.967992 57.478737 
L 84.535624 57.478737 
L 88.103257 57.478737 
L 91.670889 57.478737 
L 95.238521 57.478737 
L 98.806154 57.478737 
L 102.373786 57.478737 
L 105.941419 57.478737 
L 109.509051 57.478737 
L 113.076683 57.478737 
L 116.644316 57.478737 
L 120.211948 57.478737 
L 123.77958 57.478737 
L 127.347213 59.146105 
L 130.914845 57.478737 
L 134.482478 57.478737 
L 138.05011 55.811368 
L 141.617742 57.478737 
L 145.185375 67.482947 
L 148.753007 94.160842 
L 152.320639 104.165053 
L 155.888272 110.834526 
L 159.455904 119.171368 
L 163.023536 129.175579 
L 166.591169 152.518737 
L 170.158801 180.864 
L 173.726434 180.864 
L 177.294066 177.529263 
L 180.861698 194.202947 
L 184.429331 187.533474 
L 187.996963 167.525053 
L 191.564595 185.866105 
L 195.132228 180.864 
L 198.69986 150.851368 
L 202.267493 167.525053 
L 205.835125 209.209263 
L 209.402757 214.211368 
L 212.97039 207.541895 
L 216.538022 200.872421 
L 220.105654 209.209263 
L 223.673287 225.882947 
L 227.240919 222.548211 
L 230.808551 214.211368 
L 234.376184 215.878737 
L 237.943816 224.215579 
L 241.511449 234.219789 
L 245.079081 225.882947 
L 248.646713 210.876632 
L 252.214346 217.546105 
L 255.781978 204.207158 
L 259.34961 202.539789 
L 262.917243 232.552421 
L 266.484875 214.211368 
L 270.052507 230.885053 
L 273.62014 200.872421 
L 277.187772 199.205053 
L 280.755405 220.880842 
L 284.323037 192.535579 
L 287.890669 185.866105 
L 291.458302 190.868211 
L 295.025934 194.202947 
L 298.593566 199.205053 
L 302.161199 205.874526 
L 305.728831 205.874526 
L 309.296464 209.209263 
L 312.864096 200.872421 
L 316.431728 202.539789 
L 319.999361 209.209263 
L 323.566993 184.198737 
L 327.134625 192.535579 
L 330.702258 189.200842 
L 334.26989 210.876632 
L 337.837522 214.211368 
L 341.405155 215.878737 
L 344.972787 230.885053 
L 348.54042 227.550316 
L 352.108052 217.546105 
L 355.675684 225.882947 
L 359.243317 225.882947 
L 362.810949 255.895579 
L 366.378581 252.560842 
L 369.946214 254.228211 
L 373.513846 307.584 
L 377.081479 307.584 
L 380.649111 307.584 
L 384.216743 307.584 
L 387.784376 307.584 
L 391.352008 307.584 
L 394.91964 307.584 
L 398.487273 307.584 
L 398.487273 307.584 
L 398.487273 307.584 
L 394.91964 307.584 
L 391.352008 307.584 
L 387.784376 307.584 
L 384.216743 307.584 
L 380.649111 307.584 
L 377.081479 307.584 
L 373.513846 307.584 
L 369.946214 254.228211 
L 366.378581 252.560842 
L 362.810949 255.895579 
L 359.243317 225.882947 
L 355.675684 225.882947 
L 352.108052 217.546105 
L 348.54042 227.550316 
L 344.972787 230.885053 
L 341.405155 215.878737 
L 337.837522 214.211368 
L 334.26989 210.876632 
L 330.702258 189.200842 
L 327.134625 192.535579 
L 323.566993 184.198737 
L 319.999361 169.192421 
L 316.431728 179.196632 
L 312.864096 175.861895 
L 309.296464 184.198737 
L 305.728831 175.861895 
L 302.161199 182.531368 
L 298.593566 170.859789 
L 295.025934 172.527158 
L 291.458302 165.857684 
L 287.890669 170.859789 
L 284.323037 170.859789 
L 280.755405 204.207158 
L 277.187772 185.866105 
L 273.62014 179.196632 
L 270.052507 174.194526 
L 266.484875 165.857684 
L 262.917243 165.857684 
L 259.34961 170.859789 
L 255.781978 175.861895 
L 252.214346 174.194526 
L 248.646713 169.192421 
L 245.079081 182.531368 
L 241.511449 185.866105 
L 237.943816 182.531368 
L 234.376184 179.196632 
L 230.808551 187.533474 
L 227.240919 200.872421 
L 223.673287 210.876632 
L 220.105654 182.531368 
L 216.538022 185.866105 
L 212.97039 184.198737 
L 209.402757 202.539789 
L 205.835125 164.190316 
L 202.267493 144.181895 
L 198.69986 145.849263 
L 195.132228 132.510316 
L 191.564595 139.179789 
L 187.996963 142.514526 
L 184.429331 134.177684 
L 180.861698 129.175579 
L 177.294066 119.171368 
L 173.726434 159.188211 
L 170.158801 99.162947 
L 166.591169 94.160842 
L 163.023536 84.156632 
L 159.455904 64.148211 
L 155.888272 57.478737 
L 152.320639 59.146105 
L 148.753007 59.146105 
L 145.185375 57.478737 
L 141.617742 57.478737 
L 138.05011 55.811368 
L 134.482478 57.478737 
L 130.914845 57.478737 
L 127.347213 59.146105 
L 123.77958 57.478737 
L 120.211948 57.478737 
L 116.644316 57.478737 
L 113.076683 57.478737 
L 109.509051 57.478737 
L 105.941419 57.478737 
L 102.373786 57.478737 
L 98.806154 57.478737 
L 95.238521 57.478737 
L 91.670889 57.478737 
L 88.103257 57.478737 
L 84.535624 57.478737 
L 80.967992 57.478737 
L 77.40036 57.478737 
L 73.832727 57.478737 
z
" clip-path="url(#pdfd6884a17)" style="fill: #9467bd"/>
   </g>
   <g id="PolyCollection_6">
    <path d="M 73.832727 57.478737 
L 73.832727 57.478737 
L 77.40036 57.478737 
L 80.967992 57.478737 
L 84.535624 57.478737 
L 88.103257 57.478737 
L 91.670889 57.478737 
L 95.238521 57.478737 
L 98.806154 57.478737 
L 102.373786 57.478737 
L 105.941419 57.478737 
L 109.509051 57.478737 
L 113.076683 57.478737 
L 116.644316 57.478737 
L 120.211948 57.478737 
L 123.77958 57.478737 
L 127.347213 59.146105 
L 130.914845 57.478737 
L 134.482478 57.478737 
L 138.05011 55.811368 
L 141.617742 57.478737 
L 145.185375 57.478737 
L 148.753007 59.146105 
L 152.320639 59.146105 
L 155.888272 57.478737 
L 159.455904 64.148211 
L 163.023536 84.156632 
L 166.591169 94.160842 
L 170.158801 99.162947 
L 173.726434 159.188211 
L 177.294066 119.171368 
L 180.861698 129.175579 
L 184.429331 134.177684 
L 187.996963 142.514526 
L 191.564595 139.179789 
L 195.132228 132.510316 
L 198.69986 145.849263 
L 202.267493 144.181895 
L 205.835125 164.190316 
L 209.402757 202.539789 
L 212.97039 184.198737 
L 216.538022 185.866105 
L 220.105654 182.531368 
L 223.673287 210.876632 
L 227.240919 200.872421 
L 230.808551 187.533474 
L 234.376184 179.196632 
L 237.943816 182.531368 
L 241.511449 185.866105 
L 245.079081 182.531368 
L 248.646713 169.192421 
L 252.214346 174.194526 
L 255.781978 175.861895 
L 259.34961 170.859789 
L 262.917243 165.857684 
L 266.484875 165.857684 
L 270.052507 174.194526 
L 273.62014 179.196632 
L 277.187772 185.866105 
L 280.755405 204.207158 
L 284.323037 170.859789 
L 287.890669 170.859789 
L 291.458302 165.857684 
L 295.025934 172.527158 
L 298.593566 170.859789 
L 302.161199 182.531368 
L 305.728831 175.861895 
L 309.296464 184.198737 
L 312.864096 175.861895 
L 316.431728 179.196632 
L 319.999361 169.192421 
L 323.566993 184.198737 
L 327.134625 192.535579 
L 330.702258 189.200842 
L 334.26989 210.876632 
L 337.837522 214.211368 
L 341.405155 215.878737 
L 344.972787 230.885053 
L 348.54042 227.550316 
L 352.108052 217.546105 
L 355.675684 225.882947 
L 359.243317 225.882947 
L 362.810949 255.895579 
L 366.378581 252.560842 
L 369.946214 254.228211 
L 373.513846 307.584 
L 377.081479 307.584 
L 380.649111 307.584 
L 384.216743 307.584 
L 387.784376 307.584 
L 391.352008 307.584 
L 394.91964 307.584 
L 398.487273 307.584 
L 398.487273 205.874526 
L 398.487273 205.874526 
L 394.91964 215.878737 
L 391.352008 202.539789 
L 387.784376 210.876632 
L 384.216743 225.882947 
L 380.649111 230.885053 
L 377.081479 222.548211 
L 373.513846 219.213474 
L 369.946214 170.859789 
L 366.378581 184.198737 
L 362.810949 185.866105 
L 359.243317 162.522947 
L 355.675684 174.194526 
L 352.108052 165.857684 
L 348.54042 170.859789 
L 344.972787 175.861895 
L 341.405155 165.857684 
L 337.837522 165.857684 
L 334.26989 152.518737 
L 330.702258 132.510316 
L 327.134625 137.512421 
L 323.566993 129.175579 
L 319.999361 115.836632 
L 316.431728 140.847158 
L 312.864096 130.842947 
L 309.296464 137.512421 
L 305.728831 130.842947 
L 302.161199 132.510316 
L 298.593566 132.510316 
L 295.025934 130.842947 
L 291.458302 125.840842 
L 287.890669 129.175579 
L 284.323037 122.506105 
L 280.755405 155.853474 
L 277.187772 142.514526 
L 273.62014 140.847158 
L 270.052507 140.847158 
L 266.484875 130.842947 
L 262.917243 134.177684 
L 259.34961 137.512421 
L 255.781978 139.179789 
L 252.214346 139.179789 
L 248.646713 142.514526 
L 245.079081 150.851368 
L 241.511449 159.188211 
L 237.943816 149.184 
L 234.376184 150.851368 
L 230.808551 155.853474 
L 227.240919 172.527158 
L 223.673287 180.864 
L 220.105654 150.851368 
L 216.538022 154.186105 
L 212.97039 155.853474 
L 209.402757 172.527158 
L 205.835125 132.510316 
L 202.267493 114.169263 
L 198.69986 109.167158 
L 195.132228 89.158737 
L 191.564595 87.491368 
L 187.996963 84.156632 
L 184.429331 79.154526 
L 180.861698 69.150316 
L 177.294066 75.819789 
L 173.726434 102.497684 
L 170.158801 64.148211 
L 166.591169 59.146105 
L 163.023536 57.478737 
L 159.455904 55.811368 
L 155.888272 57.478737 
L 152.320639 59.146105 
L 148.753007 59.146105 
L 145.185375 57.478737 
L 141.617742 57.478737 
L 138.05011 55.811368 
L 134.482478 57.478737 
L 130.914845 57.478737 
L 127.347213 59.146105 
L 123.77958 57.478737 
L 120.211948 57.478737 
L 116.644316 57.478737 
L 113.076683 57.478737 
L 109.509051 57.478737 
L 105.941419 57.478737 
L 102.373786 57.478737 
L 98.806154 57.478737 
L 95.238521 57.478737 
L 91.670889 57.478737 
L 88.103257 57.478737 
L 84.535624 57.478737 
L 80.967992 57.478737 
L 77.40036 57.478737 
L 73.832727 57.478737 
z
" clip-path="url(#pdfd6884a17)" style="fill: #8c564b"/>
   </g>
   <g id="PolyCollection_7">
    <path d="M 73.832727 57.478737 
L 73.832727 57.478737 
L 77.40036 57.478737 
L 80.967992 57.478737 
L 84.535624 57.478737 
L 88.103257 57.478737 
L 91.670889 57.478737 
L 95.238521 57.478737 
L 98.806154 57.478737 
L 102.373786 57.478737 
L 105.941419 57.478737 
L 109.509051 57.478737 
L 113.076683 57.478737 
L 116.644316 57.478737 
L 120.211948 57.478737 
L 123.77958 57.478737 
L 127.347213 59.146105 
L 130.914845 57.478737 
L 134.482478 57.478737 
L 138.05011 55.811368 
L 141.617742 57.478737 
L 145.185375 57.478737 
L 148.753007 59.146105 
L 152.320639 59.146105 
L 155.888272 57.478737 
L 159.455904 55.811368 
L 163.023536 57.478737 
L 166.591169 59.146105 
L 170.158801 64.148211 
L 173.726434 102.497684 
L 177.294066 75.819789 
L 180.861698 69.150316 
L 184.429331 79.154526 
L 187.996963 84.156632 
L 191.564595 87.491368 
L 195.132228 89.158737 
L 198.69986 109.167158 
L 202.267493 114.169263 
L 205.835125 132.510316 
L 209.402757 172.527158 
L 212.97039 155.853474 
L 216.538022 154.186105 
L 220.105654 150.851368 
L 223.673287 180.864 
L 227.240919 172.527158 
L 230.808551 155.853474 
L 234.376184 150.851368 
L 237.943816 149.184 
L 241.511449 159.188211 
L 245.079081 150.851368 
L 248.646713 142.514526 
L 252.214346 139.179789 
L 255.781978 139.179789 
L 259.34961 137.512421 
L 262.917243 134.177684 
L 266.484875 130.842947 
L 270.052507 140.847158 
L 273.62014 140.847158 
L 277.187772 142.514526 
L 280.755405 155.853474 
L 284.323037 122.506105 
L 287.890669 129.175579 
L 291.458302 125.840842 
L 295.025934 130.842947 
L 298.593566 132.510316 
L 302.161199 132.510316 
L 305.728831 130.842947 
L 309.296464 137.512421 
L 312.864096 130.842947 
L 316.431728 140.847158 
L 319.999361 115.836632 
L 323.566993 129.175579 
L 327.134625 137.512421 
L 330.702258 132.510316 
L 334.26989 152.518737 
L 337.837522 165.857684 
L 341.405155 165.857684 
L 344.972787 175.861895 
L 348.54042 170.859789 
L 352.108052 165.857684 
L 355.675684 174.194526 
L 359.243317 162.522947 
L 362.810949 185.866105 
L 366.378581 184.198737 
L 369.946214 170.859789 
L 373.513846 219.213474 
L 377.081479 222.548211 
L 380.649111 230.885053 
L 384.216743 225.882947 
L 387.784376 210.876632 
L 391.352008 202.539789 
L 394.91964 215.878737 
L 398.487273 205.874526 
L 398.487273 205.874526 
L 398.487273 205.874526 
L 394.91964 215.878737 
L 391.352008 202.539789 
L 387.784376 210.876632 
L 384.216743 225.882947 
L 380.649111 230.885053 
L 377.081479 222.548211 
L 373.513846 219.213474 
L 369.946214 170.859789 
L 366.378581 184.198737 
L 362.810949 185.866105 
L 359.243317 162.522947 
L 355.675684 174.194526 
L 352.108052 165.857684 
L 348.54042 170.859789 
L 344.972787 175.861895 
L 341.405155 165.857684 
L 337.837522 165.857684 
L 334.26989 152.518737 
L 330.702258 132.510316 
L 327.134625 137.512421 
L 323.566993 129.175579 
L 319.999361 115.836632 
L 316.431728 140.847158 
L 312.864096 130.842947 
L 309.296464 137.512421 
L 305.728831 130.842947 
L 302.161199 132.510316 
L 298.593566 132.510316 
L 295.025934 130.842947 
L 291.458302 125.840842 
L 287.890669 129.175579 
L 284.323037 122.506105 
L 280.755405 155.853474 
L 277.187772 142.514526 
L 273.62014 140.847158 
L 270.052507 140.847158 
L 266.484875 130.842947 
L 262.917243 134.177684 
L 259.34961 137.512421 
L 255.781978 139.179789 
L 252.214346 139.179789 
L 248.646713 142.514526 
L 245.079081 137.512421 
L 241.511449 139.179789 
L 237.943816 125.840842 
L 234.376184 129.175579 
L 230.808551 120.838737 
L 227.240919 132.510316 
L 223.673287 149.184 
L 220.105654 124.173474 
L 216.538022 129.175579 
L 212.97039 127.508211 
L 209.402757 140.847158 
L 205.835125 102.497684 
L 202.267493 82.489263 
L 198.69986 72.485053 
L 195.132228 60.813474 
L 191.564595 55.811368 
L 187.996963 57.478737 
L 184.429331 59.146105 
L 180.861698 57.478737 
L 177.294066 57.478737 
L 173.726434 57.478737 
L 170.158801 60.813474 
L 166.591169 59.146105 
L 163.023536 57.478737 
L 159.455904 55.811368 
L 155.888272 57.478737 
L 152.320639 59.146105 
L 148.753007 59.146105 
L 145.185375 57.478737 
L 141.617742 57.478737 
L 138.05011 55.811368 
L 134.482478 57.478737 
L 130.914845 57.478737 
L 127.347213 59.146105 
L 123.77958 57.478737 
L 120.211948 57.478737 
L 116.644316 57.478737 
L 113.076683 57.478737 
L 109.509051 57.478737 
L 105.941419 57.478737 
L 102.373786 57.478737 
L 98.806154 57.478737 
L 95.238521 57.478737 
L 91.670889 57.478737 
L 88.103257 57.478737 
L 84.535624 57.478737 
L 80.967992 57.478737 
L 77.40036 57.478737 
L 73.832727 57.478737 
z
" clip-path="url(#pdfd6884a17)" style="fill: #e377c2"/>
   </g>
   <g id="PolyCollection_8">
    <path d="M 73.832727 57.478737 
L 73.832727 57.478737 
L 77.40036 57.478737 
L 80.967992 57.478737 
L 84.535624 57.478737 
L 88.103257 57.478737 
L 91.670889 57.478737 
L 95.238521 57.478737 
L 98.806154 57.478737 
L 102.373786 57.478737 
L 105.941419 57.478737 
L 109.509051 57.478737 
L 113.076683 57.478737 
L 116.644316 57.478737 
L 120.211948 57.478737 
L 123.77958 57.478737 
L 127.347213 59.146105 
L 130.914845 57.478737 
L 134.482478 57.478737 
L 138.05011 55.811368 
L 141.617742 57.478737 
L 145.185375 57.478737 
L 148.753007 59.146105 
L 152.320639 59.146105 
L 155.888272 57.478737 
L 159.455904 55.811368 
L 163.023536 57.478737 
L 166.591169 59.146105 
L 170.158801 60.813474 
L 173.726434 57.478737 
L 177.294066 57.478737 
L 180.861698 57.478737 
L 184.429331 59.146105 
L 187.996963 57.478737 
L 191.564595 55.811368 
L 195.132228 60.813474 
L 198.69986 72.485053 
L 202.267493 82.489263 
L 205.835125 102.497684 
L 209.402757 140.847158 
L 212.97039 127.508211 
L 216.538022 129.175579 
L 220.105654 124.173474 
L 223.673287 149.184 
L 227.240919 132.510316 
L 230.808551 120.838737 
L 234.376184 129.175579 
L 237.943816 125.840842 
L 241.511449 139.179789 
L 245.079081 137.512421 
L 248.646713 142.514526 
L 252.214346 139.179789 
L 255.781978 139.179789 
L 259.34961 137.512421 
L 262.917243 134.177684 
L 266.484875 130.842947 
L 270.052507 140.847158 
L 273.62014 140.847158 
L 277.187772 142.514526 
L 280.755405 155.853474 
L 284.323037 122.506105 
L 287.890669 129.175579 
L 291.458302 125.840842 
L 295.025934 130.842947 
L 298.593566 132.510316 
L 302.161199 132.510316 
L 305.728831 130.842947 
L 309.296464 137.512421 
L 312.864096 130.842947 
L 316.431728 140.847158 
L 319.999361 115.836632 
L 323.566993 129.175579 
L 327.134625 137.512421 
L 330.702258 132.510316 
L 334.26989 152.518737 
L 337.837522 165.857684 
L 341.405155 165.857684 
L 344.972787 175.861895 
L 348.54042 170.859789 
L 352.108052 165.857684 
L 355.675684 174.194526 
L 359.243317 162.522947 
L 362.810949 185.866105 
L 366.378581 184.198737 
L 369.946214 170.859789 
L 373.513846 219.213474 
L 377.081479 222.548211 
L 380.649111 230.885053 
L 384.216743 225.882947 
L 387.784376 210.876632 
L 391.352008 202.539789 
L 394.91964 215.878737 
L 398.487273 205.874526 
L 398.487273 57.478737 
L 398.487273 57.478737 
L 394.91964 57.478737 
L 391.352008 57.478737 
L 387.784376 57.478737 
L 384.216743 57.478737 
L 380.649111 57.478737 
L 377.081479 57.478737 
L 373.513846 57.478737 
L 369.946214 57.478737 
L 366.378581 57.478737 
L 362.810949 57.478737 
L 359.243317 57.478737 
L 355.675684 57.478737 
L 352.108052 57.478737 
L 348.54042 59.146105 
L 344.972787 57.478737 
L 341.405155 57.478737 
L 337.837522 57.478737 
L 334.26989 59.146105 
L 330.702258 55.811368 
L 327.134625 55.811368 
L 323.566993 55.811368 
L 319.999361 55.811368 
L 316.431728 57.478737 
L 312.864096 57.478737 
L 309.296464 57.478737 
L 305.728831 57.478737 
L 302.161199 55.811368 
L 298.593566 55.811368 
L 295.025934 59.146105 
L 291.458302 59.146105 
L 287.890669 55.811368 
L 284.323037 55.811368 
L 280.755405 57.478737 
L 277.187772 55.811368 
L 273.62014 59.146105 
L 270.052507 59.146105 
L 266.484875 59.146105 
L 262.917243 59.146105 
L 259.34961 59.146105 
L 255.781978 59.146105 
L 252.214346 57.478737 
L 248.646713 57.478737 
L 245.079081 57.478737 
L 241.511449 55.811368 
L 237.943816 59.146105 
L 234.376184 57.478737 
L 230.808551 54.144 
L 227.240919 54.144 
L 223.673287 55.811368 
L 220.105654 55.811368 
L 216.538022 55.811368 
L 212.97039 57.478737 
L 209.402757 57.478737 
L 205.835125 57.478737 
L 202.267493 54.144 
L 198.69986 55.811368 
L 195.132228 55.811368 
L 191.564595 55.811368 
L 187.996963 57.478737 
L 184.429331 59.146105 
L 180.861698 57.478737 
L 177.294066 57.478737 
L 173.726434 57.478737 
L 170.158801 60.813474 
L 166.591169 59.146105 
L 163.023536 57.478737 
L 159.455904 55.811368 
L 155.888272 57.478737 
L 152.320639 59.146105 
L 148.753007 59.146105 
L 145.185375 57.478737 
L 141.617742 57.478737 
L 138.05011 55.811368 
L 134.482478 57.478737 
L 130.914845 57.478737 
L 127.347213 59.146105 
L 123.77958 57.478737 
L 120.211948 57.478737 
L 116.644316 57.478737 
L 113.076683 57.478737 
L 109.509051 57.478737 
L 105.941419 57.478737 
L 102.373786 57.478737 
L 98.806154 57.478737 
L 95.238521 57.478737 
L 91.670889 57.478737 
L 88.103257 57.478737 
L 84.535624 57.478737 
L 80.967992 57.478737 
L 77.40036 57.478737 
L 73.832727 57.478737 
z
" clip-path="url(#pdfd6884a17)" style="fill: #7f7f7f"/>
   </g>
   <g id="matplotlib.axis_1">
    <g id="xtick_1">
     <g id="line2d_1">
      <defs>
       <path id="m6ecfba66e0" d="M 0 0 
L 0 3.5 
" style="stroke: #000000; stroke-width: 0.8"/>
      </defs>
      <g>
       <use xlink:href="#m6ecfba66e0" x="73.832727" y="307.584" style="stroke: #000000; stroke-width: 0.8"/>
      </g>
     </g>
     <g id="text_1">
      <!-- 0 -->
      <g transform="translate(70.651477 322.182437) scale(0.1 -0.1)">
       <defs>
        <path id="DejaVuSans-30" d="M 2034 4250 
Q 1547 4250 1301 3770 
Q 1056 3291 1056 2328 
Q 1056 1369 1301 889 
Q 1547 409 2034 409 
Q 2525 409 2770 889 
Q 3016 1369 3016 2328 
Q 3016 3291 2770 3770 
Q 2525 4250 2034 4250 
z
M 2034 4750 
Q 2819 4750 3233 4129 
Q 3647 3509 3647 2328 
Q 3647 1150 3233 529 
Q 2819 -91 2034 -91 
Q 1250 -91 836 529 
Q 422 1150 422 2328 
Q 422 3509 836 4129 
Q 1250 4750 2034 4750 
z
" transform="scale(0.015625)"/>
       </defs>
       <use xlink:href="#DejaVuSans-30"/>
      </g>
     </g>
    </g>
    <g id="xtick_2">
     <g id="line2d_2">
      <g>
       <use xlink:href="#m6ecfba66e0" x="145.185375" y="307.584" style="stroke: #000000; stroke-width: 0.8"/>
      </g>
     </g>
     <g id="text_2">
      <!-- 20 -->
      <g transform="translate(138.822875 322.182437) scale(0.1 -0.1)">
       <defs>
        <path id="DejaVuSans-32" d="M 1228 531 
L 3431 531 
L 3431 0 
L 469 0 
L 469 531 
Q 828 903 1448 1529 
Q 2069 2156 2228 2338 
Q 2531 2678 2651 2914 
Q 2772 3150 2772 3378 
Q 2772 3750 2511 3984 
Q 2250 4219 1831 4219 
Q 1534 4219 1204 4116 
Q 875 4013 500 3803 
L 500 4441 
Q 881 4594 1212 4672 
Q 1544 4750 1819 4750 
Q 2544 4750 2975 4387 
Q 3406 4025 3406 3419 
Q 3406 3131 3298 2873 
Q 3191 2616 2906 2266 
Q 2828 2175 2409 1742 
Q 1991 1309 1228 531 
z
" transform="scale(0.015625)"/>
       </defs>
       <use xlink:href="#DejaVuSans-32"/>
       <use xlink:href="#DejaVuSans-30" x="63.623047"/>
      </g>
     </g>
    </g>
    <g id="xtick_3">
     <g id="line2d_3">
      <g>
       <use xlink:href="#m6ecfba66e0" x="216.538022" y="307.584" style="stroke: #000000; stroke-width: 0.8"/>
      </g>
     </g>
     <g id="text_3">
      <!-- 40 -->
      <g transform="translate(210.175522 322.182437) scale(0.1 -0.1)">
       <defs>
        <path id="DejaVuSans-34" d="M 2419 4116 
L 825 1625 
L 2419 1625 
L 2419 4116 
z
M 2253 4666 
L 3047 4666 
L 3047 1625 
L 3713 1625 
L 3713 1100 
L 3047 1100 
L 3047 0 
L 2419 0 
L 2419 1100 
L 313 1100 
L 313 1709 
L 2253 4666 
z
" transform="scale(0.015625)"/>
       </defs>
       <use xlink:href="#DejaVuSans-34"/>
       <use xlink:href="#DejaVuSans-30" x="63.623047"/>
      </g>
     </g>
    </g>
    <g id="xtick_4">
     <g id="line2d_4">
      <g>
       <use xlink:href="#m6ecfba66e0" x="287.890669" y="307.584" style="stroke: #000000; stroke-width: 0.8"/>
      </g>
     </g>
     <g id="text_4">
      <!-- 60 -->
      <g transform="translate(281.528169 322.182437) scale(0.1 -0.1)">
       <defs>
        <path id="DejaVuSans-36" d="M 2113 2584 
Q 1688 2584 1439 2293 
Q 1191 2003 1191 1497 
Q 1191 994 1439 701 
Q 1688 409 2113 409 
Q 2538 409 2786 701 
Q 3034 994 3034 1497 
Q 3034 2003 2786 2293 
Q 2538 2584 2113 2584 
z
M 3366 4563 
L 3366 3988 
Q 3128 4100 2886 4159 
Q 2644 4219 2406 4219 
Q 1781 4219 1451 3797 
Q 1122 3375 1075 2522 
Q 1259 2794 1537 2939 
Q 1816 3084 2150 3084 
Q 2853 3084 3261 2657 
Q 3669 2231 3669 1497 
Q 3669 778 3244 343 
Q 2819 -91 2113 -91 
Q 1303 -91 875 529 
Q 447 1150 447 2328 
Q 447 3434 972 4092 
Q 1497 4750 2381 4750 
Q 2619 4750 2861 4703 
Q 3103 4656 3366 4563 
z
" transform="scale(0.015625)"/>
       </defs>
       <use xlink:href="#DejaVuSans-36"/>
       <use xlink:href="#DejaVuSans-30" x="63.623047"/>
      </g>
     </g>
    </g>
    <g id="xtick_5">
     <g id="line2d_5">
      <g>
       <use xlink:href="#m6ecfba66e0" x="359.243317" y="307.584" style="stroke: #000000; stroke-width: 0.8"/>
      </g>
     </g>
     <g id="text_5">
      <!-- 80 -->
      <g transform="translate(352.880817 322.182437) scale(0.1 -0.1)">
       <defs>
        <path id="DejaVuSans-38" d="M 2034 2216 
Q 1584 2216 1326 1975 
Q 1069 1734 1069 1313 
Q 1069 891 1326 650 
Q 1584 409 2034 409 
Q 2484 409 2743 651 
Q 3003 894 3003 1313 
Q 3003 1734 2745 1975 
Q 2488 2216 2034 2216 
z
M 1403 2484 
Q 997 2584 770 2862 
Q 544 3141 544 3541 
Q 544 4100 942 4425 
Q 1341 4750 2034 4750 
Q 2731 4750 3128 4425 
Q 3525 4100 3525 3541 
Q 3525 3141 3298 2862 
Q 3072 2584 2669 2484 
Q 3125 2378 3379 2068 
Q 3634 1759 3634 1313 
Q 3634 634 3220 271 
Q 2806 -91 2034 -91 
Q 1263 -91 848 271 
Q 434 634 434 1313 
Q 434 1759 690 2068 
Q 947 2378 1403 2484 
z
M 1172 3481 
Q 1172 3119 1398 2916 
Q 1625 2713 2034 2713 
Q 2441 2713 2670 2916 
Q 2900 3119 2900 3481 
Q 2900 3844 2670 4047 
Q 2441 4250 2034 4250 
Q 1625 4250 1398 4047 
Q 1172 3844 1172 3481 
z
" transform="scale(0.015625)"/>
       </defs>
       <use xlink:href="#DejaVuSans-38"/>
       <use xlink:href="#DejaVuSans-30" x="63.623047"/>
      </g>
     </g>
    </g>
    <g id="text_6">
     <!-- Generations -->
     <g transform="translate(205.662344 335.860562) scale(0.1 -0.1)">
      <defs>
       <path id="DejaVuSans-47" d="M 3809 666 
L 3809 1919 
L 2778 1919 
L 2778 2438 
L 4434 2438 
L 4434 434 
Q 4069 175 3628 42 
Q 3188 -91 2688 -91 
Q 1594 -91 976 548 
Q 359 1188 359 2328 
Q 359 3472 976 4111 
Q 1594 4750 2688 4750 
Q 3144 4750 3555 4637 
Q 3966 4525 4313 4306 
L 4313 3634 
Q 3963 3931 3569 4081 
Q 3175 4231 2741 4231 
Q 1884 4231 1454 3753 
Q 1025 3275 1025 2328 
Q 1025 1384 1454 906 
Q 1884 428 2741 428 
Q 3075 428 3337 486 
Q 3600 544 3809 666 
z
" transform="scale(0.015625)"/>
       <path id="DejaVuSans-65" d="M 3597 1894 
L 3597 1613 
L 953 1613 
Q 991 1019 1311 708 
Q 1631 397 2203 397 
Q 2534 397 2845 478 
Q 3156 559 3463 722 
L 3463 178 
Q 3153 47 2828 -22 
Q 2503 -91 2169 -91 
Q 1331 -91 842 396 
Q 353 884 353 1716 
Q 353 2575 817 3079 
Q 1281 3584 2069 3584 
Q 2775 3584 3186 3129 
Q 3597 2675 3597 1894 
z
M 3022 2063 
Q 3016 2534 2758 2815 
Q 2500 3097 2075 3097 
Q 1594 3097 1305 2825 
Q 1016 2553 972 2059 
L 3022 2063 
z
" transform="scale(0.015625)"/>
       <path id="DejaVuSans-6e" d="M 3513 2113 
L 3513 0 
L 2938 0 
L 2938 2094 
Q 2938 2591 2744 2837 
Q 2550 3084 2163 3084 
Q 1697 3084 1428 2787 
Q 1159 2491 1159 1978 
L 1159 0 
L 581 0 
L 581 3500 
L 1159 3500 
L 1159 2956 
Q 1366 3272 1645 3428 
Q 1925 3584 2291 3584 
Q 2894 3584 3203 3211 
Q 3513 2838 3513 2113 
z
" transform="scale(0.015625)"/>
       <path id="DejaVuSans-72" d="M 2631 2963 
Q 2534 3019 2420 3045 
Q 2306 3072 2169 3072 
Q 1681 3072 1420 2755 
Q 1159 2438 1159 1844 
L 1159 0 
L 581 0 
L 581 3500 
L 1159 3500 
L 1159 2956 
Q 1341 3275 1631 3429 
Q 1922 3584 2338 3584 
Q 2397 3584 2469 3576 
Q 2541 3569 2628 3553 
L 2631 2963 
z
" transform="scale(0.015625)"/>
       <path id="DejaVuSans-61" d="M 2194 1759 
Q 1497 1759 1228 1600 
Q 959 1441 959 1056 
Q 959 750 1161 570 
Q 1363 391 1709 391 
Q 2188 391 2477 730 
Q 2766 1069 2766 1631 
L 2766 1759 
L 2194 1759 
z
M 3341 1997 
L 3341 0 
L 2766 0 
L 2766 531 
Q 2569 213 2275 61 
Q 1981 -91 1556 -91 
Q 1019 -91 701 211 
Q 384 513 384 1019 
Q 384 1609 779 1909 
Q 1175 2209 1959 2209 
L 2766 2209 
L 2766 2266 
Q 2766 2663 2505 2880 
Q 2244 3097 1772 3097 
Q 1472 3097 1187 3025 
Q 903 2953 641 2809 
L 641 3341 
Q 956 3463 1253 3523 
Q 1550 3584 1831 3584 
Q 2591 3584 2966 3190 
Q 3341 2797 3341 1997 
z
" transform="scale(0.015625)"/>
       <path id="DejaVuSans-74" d="M 1172 4494 
L 1172 3500 
L 2356 3500 
L 2356 3053 
L 1172 3053 
L 1172 1153 
Q 1172 725 1289 603 
Q 1406 481 1766 481 
L 2356 481 
L 2356 0 
L 1766 0 
Q 1100 0 847 248 
Q 594 497 594 1153 
L 594 3053 
L 172 3053 
L 172 3500 
L 594 3500 
L 594 4494 
L 1172 4494 
z
" transform="scale(0.015625)"/>
       <path id="DejaVuSans-69" d="M 603 3500 
L 1178 3500 
L 1178 0 
L 603 0 
L 603 3500 
z
M 603 4863 
L 1178 4863 
L 1178 4134 
L 603 4134 
L 603 4863 
z
" transform="scale(0.015625)"/>
       <path id="DejaVuSans-6f" d="M 1959 3097 
Q 1497 3097 1228 2736 
Q 959 2375 959 1747 
Q 959 1119 1226 758 
Q 1494 397 1959 397 
Q 2419 397 2687 759 
Q 2956 1122 2956 1747 
Q 2956 2369 2687 2733 
Q 2419 3097 1959 3097 
z
M 1959 3584 
Q 2709 3584 3137 3096 
Q 3566 2609 3566 1747 
Q 3566 888 3137 398 
Q 2709 -91 1959 -91 
Q 1206 -91 779 398 
Q 353 888 353 1747 
Q 353 2609 779 3096 
Q 1206 3584 1959 3584 
z
" transform="scale(0.015625)"/>
       <path id="DejaVuSans-73" d="M 2834 3397 
L 2834 2853 
Q 2591 2978 2328 3040 
Q 2066 3103 1784 3103 
Q 1356 3103 1142 2972 
Q 928 2841 928 2578 
Q 928 2378 1081 2264 
Q 1234 2150 1697 2047 
L 1894 2003 
Q 2506 1872 2764 1633 
Q 3022 1394 3022 966 
Q 3022 478 2636 193 
Q 2250 -91 1575 -91 
Q 1294 -91 989 -36 
Q 684 19 347 128 
L 347 722 
Q 666 556 975 473 
Q 1284 391 1588 391 
Q 1994 391 2212 530 
Q 2431 669 2431 922 
Q 2431 1156 2273 1281 
Q 2116 1406 1581 1522 
L 1381 1569 
Q 847 1681 609 1914 
Q 372 2147 372 2553 
Q 372 3047 722 3315 
Q 1072 3584 1716 3584 
Q 2034 3584 2315 3537 
Q 2597 3491 2834 3397 
z
" transform="scale(0.015625)"/>
      </defs>
      <use xlink:href="#DejaVuSans-47"/>
      <use xlink:href="#DejaVuSans-65" x="77.490234"/>
      <use xlink:href="#DejaVuSans-6e" x="139.013672"/>
      <use xlink:href="#DejaVuSans-65" x="202.392578"/>
      <use xlink:href="#DejaVuSans-72" x="263.916016"/>
      <use xlink:href="#DejaVuSans-61" x="305.029297"/>
      <use xlink:href="#DejaVuSans-74" x="366.308594"/>
      <use xlink:href="#DejaVuSans-69" x="405.517578"/>
      <use xlink:href="#DejaVuSans-6f" x="433.300781"/>
      <use xlink:href="#DejaVuSans-6e" x="494.482422"/>
      <use xlink:href="#DejaVuSans-73" x="557.861328"/>
     </g>
    </g>
   </g>
   <g id="matplotlib.axis_2">
    <g id="ytick_1">
     <g id="line2d_6">
      <defs>
       <path id="m7e898a3e8e" d="M 0 0 
L -3.5 0 
" style="stroke: #000000; stroke-width: 0.8"/>
      </defs>
      <g>
       <use xlink:href="#m7e898a3e8e" x="57.6" y="307.584" style="stroke: #000000; stroke-width: 0.8"/>
      </g>
     </g>
     <g id="text_7">
      <!-- 0 -->
      <g transform="translate(44.2375 311.383219) scale(0.1 -0.1)">
       <use xlink:href="#DejaVuSans-30"/>
      </g>
     </g>
    </g>
    <g id="ytick_2">
     <g id="line2d_7">
      <g>
       <use xlink:href="#m7e898a3e8e" x="57.6" y="274.236632" style="stroke: #000000; stroke-width: 0.8"/>
      </g>
     </g>
     <g id="text_8">
      <!-- 20 -->
      <g transform="translate(37.875 278.03585) scale(0.1 -0.1)">
       <use xlink:href="#DejaVuSans-32"/>
       <use xlink:href="#DejaVuSans-30" x="63.623047"/>
      </g>
     </g>
    </g>
    <g id="ytick_3">
     <g id="line2d_8">
      <g>
       <use xlink:href="#m7e898a3e8e" x="57.6" y="240.889263" style="stroke: #000000; stroke-width: 0.8"/>
      </g>
     </g>
     <g id="text_9">
      <!-- 40 -->
      <g transform="translate(37.875 244.688482) scale(0.1 -0.1)">
       <use xlink:href="#DejaVuSans-34"/>
       <use xlink:href="#DejaVuSans-30" x="63.623047"/>
      </g>
     </g>
    </g>
    <g id="ytick_4">
     <g id="line2d_9">
      <g>
       <use xlink:href="#m7e898a3e8e" x="57.6" y="207.541895" style="stroke: #000000; stroke-width: 0.8"/>
      </g>
     </g>
     <g id="text_10">
      <!-- 60 -->
      <g transform="translate(37.875 211.341113) scale(0.1 -0.1)">
       <use xlink:href="#DejaVuSans-36"/>
       <use xlink:href="#DejaVuSans-30" x="63.623047"/>
      </g>
     </g>
    </g>
    <g id="ytick_5">
     <g id="line2d_10">
      <g>
       <use xlink:href="#m7e898a3e8e" x="57.6" y="174.194526" style="stroke: #000000; stroke-width: 0.8"/>
      </g>
     </g>
     <g id="text_11">
      <!-- 80 -->
      <g transform="translate(37.875 177.993745) scale(0.1 -0.1)">
       <use xlink:href="#DejaVuSans-38"/>
       <use xlink:href="#DejaVuSans-30" x="63.623047"/>
      </g>
     </g>
    </g>
    <g id="ytick_6">
     <g id="line2d_11">
      <g>
       <use xlink:href="#m7e898a3e8e" x="57.6" y="140.847158" style="stroke: #000000; stroke-width: 0.8"/>
      </g>
     </g>
     <g id="text_12">
      <!-- 100 -->
      <g transform="translate(31.5125 144.646377) scale(0.1 -0.1)">
       <defs>
        <path id="DejaVuSans-31" d="M 794 531 
L 1825 531 
L 1825 4091 
L 703 3866 
L 703 4441 
L 1819 4666 
L 2450 4666 
L 2450 531 
L 3481 531 
L 3481 0 
L 794 0 
L 794 531 
z
" transform="scale(0.015625)"/>
       </defs>
       <use xlink:href="#DejaVuSans-31"/>
       <use xlink:href="#DejaVuSans-30" x="63.623047"/>
       <use xlink:href="#DejaVuSans-30" x="127.246094"/>
      </g>
     </g>
    </g>
    <g id="ytick_7">
     <g id="line2d_12">
      <g>
       <use xlink:href="#m7e898a3e8e" x="57.6" y="107.499789" style="stroke: #000000; stroke-width: 0.8"/>
      </g>
     </g>
     <g id="text_13">
      <!-- 120 -->
      <g transform="translate(31.5125 111.299008) scale(0.1 -0.1)">
       <use xlink:href="#DejaVuSans-31"/>
       <use xlink:href="#DejaVuSans-32" x="63.623047"/>
       <use xlink:href="#DejaVuSans-30" x="127.246094"/>
      </g>
     </g>
    </g>
    <g id="ytick_8">
     <g id="line2d_13">
      <g>
       <use xlink:href="#m7e898a3e8e" x="57.6" y="74.152421" style="stroke: #000000; stroke-width: 0.8"/>
      </g>
     </g>
     <g id="text_14">
      <!-- 140 -->
      <g transform="translate(31.5125 77.95164) scale(0.1 -0.1)">
       <use xlink:href="#DejaVuSans-31"/>
       <use xlink:href="#DejaVuSans-34" x="63.623047"/>
       <use xlink:href="#DejaVuSans-30" x="127.246094"/>
      </g>
     </g>
    </g>
    <g id="text_15">
     <!-- Size per Species -->
     <g transform="translate(25.432812 215.520969) rotate(-90) scale(0.1 -0.1)">
      <defs>
       <path id="DejaVuSans-53" d="M 3425 4513 
L 3425 3897 
Q 3066 4069 2747 4153 
Q 2428 4238 2131 4238 
Q 1616 4238 1336 4038 
Q 1056 3838 1056 3469 
Q 1056 3159 1242 3001 
Q 1428 2844 1947 2747 
L 2328 2669 
Q 3034 2534 3370 2195 
Q 3706 1856 3706 1288 
Q 3706 609 3251 259 
Q 2797 -91 1919 -91 
Q 1588 -91 1214 -16 
Q 841 59 441 206 
L 441 856 
Q 825 641 1194 531 
Q 1563 422 1919 422 
Q 2459 422 2753 634 
Q 3047 847 3047 1241 
Q 3047 1584 2836 1778 
Q 2625 1972 2144 2069 
L 1759 2144 
Q 1053 2284 737 2584 
Q 422 2884 422 3419 
Q 422 4038 858 4394 
Q 1294 4750 2059 4750 
Q 2388 4750 2728 4690 
Q 3069 4631 3425 4513 
z
" transform="scale(0.015625)"/>
       <path id="DejaVuSans-7a" d="M 353 3500 
L 3084 3500 
L 3084 2975 
L 922 459 
L 3084 459 
L 3084 0 
L 275 0 
L 275 525 
L 2438 3041 
L 353 3041 
L 353 3500 
z
" transform="scale(0.015625)"/>
       <path id="DejaVuSans-20" transform="scale(0.015625)"/>
       <path id="DejaVuSans-70" d="M 1159 525 
L 1159 -1331 
L 581 -1331 
L 581 3500 
L 1159 3500 
L 1159 2969 
Q 1341 3281 1617 3432 
Q 1894 3584 2278 3584 
Q 2916 3584 3314 3078 
Q 3713 2572 3713 1747 
Q 3713 922 3314 415 
Q 2916 -91 2278 -91 
Q 1894 -91 1617 61 
Q 1341 213 1159 525 
z
M 3116 1747 
Q 3116 2381 2855 2742 
Q 2594 3103 2138 3103 
Q 1681 3103 1420 2742 
Q 1159 2381 1159 1747 
Q 1159 1113 1420 752 
Q 1681 391 2138 391 
Q 2594 391 2855 752 
Q 3116 1113 3116 1747 
z
" transform="scale(0.015625)"/>
       <path id="DejaVuSans-63" d="M 3122 3366 
L 3122 2828 
Q 2878 2963 2633 3030 
Q 2388 3097 2138 3097 
Q 1578 3097 1268 2742 
Q 959 2388 959 1747 
Q 959 1106 1268 751 
Q 1578 397 2138 397 
Q 2388 397 2633 464 
Q 2878 531 3122 666 
L 3122 134 
Q 2881 22 2623 -34 
Q 2366 -91 2075 -91 
Q 1284 -91 818 406 
Q 353 903 353 1747 
Q 353 2603 823 3093 
Q 1294 3584 2113 3584 
Q 2378 3584 2631 3529 
Q 2884 3475 3122 3366 
z
" transform="scale(0.015625)"/>
      </defs>
      <use xlink:href="#DejaVuSans-53"/>
      <use xlink:href="#DejaVuSans-69" x="63.476562"/>
      <use xlink:href="#DejaVuSans-7a" x="91.259766"/>
      <use xlink:href="#DejaVuSans-65" x="143.75"/>
      <use xlink:href="#DejaVuSans-20" x="205.273438"/>
      <use xlink:href="#DejaVuSans-70" x="237.060547"/>
      <use xlink:href="#DejaVuSans-65" x="300.537109"/>
      <use xlink:href="#DejaVuSans-72" x="362.060547"/>
      <use xlink:href="#DejaVuSans-20" x="403.173828"/>
      <use xlink:href="#DejaVuSans-53" x="434.960938"/>
      <use xlink:href="#DejaVuSans-70" x="498.4375"/>
      <use xlink:href="#DejaVuSans-65" x="561.914062"/>
      <use xlink:href="#DejaVuSans-63" x="623.4375"/>
      <use xlink:href="#DejaVuSans-69" x="678.417969"/>
      <use xlink:href="#DejaVuSans-65" x="706.201172"/>
      <use xlink:href="#DejaVuSans-73" x="767.724609"/>
     </g>
    </g>
   </g>
   <g id="patch_3">
    <path d="M 57.6 307.584 
L 57.6 41.472 
" style="fill: none; stroke: #000000; stroke-width: 0.8; stroke-linejoin: miter; stroke-linecap: square"/>
   </g>
   <g id="patch_4">
    <path d="M 414.72 307.584 
L 414.72 41.472 
" style="fill: none; stroke: #000000; stroke-width: 0.8; stroke-linejoin: miter; stroke-linecap: square"/>
   </g>
   <g id="patch_5">
    <path d="M 57.6 307.584 
L 414.72 307.584 
" style="fill: none; stroke: #000000; stroke-width: 0.8; stroke-linejoin: miter; stroke-linecap: square"/>
   </g>
   <g id="patch_6">
    <path d="M 57.6 41.472 
L 414.72 41.472 
" style="fill: none; stroke: #000000; stroke-width: 0.8; stroke-linejoin: miter; stroke-linecap: square"/>
   </g>
   <g id="text_16">
    <!-- Speciation -->
    <g transform="translate(204.714375 35.472) scale(0.12 -0.12)">
     <use xlink:href="#DejaVuSans-53"/>
     <use xlink:href="#DejaVuSans-70" x="63.476562"/>
     <use xlink:href="#DejaVuSans-65" x="126.953125"/>
     <use xlink:href="#DejaVuSans-63" x="188.476562"/>
     <use xlink:href="#DejaVuSans-69" x="243.457031"/>
     <use xlink:href="#DejaVuSans-61" x="271.240234"/>
     <use xlink:href="#DejaVuSans-74" x="332.519531"/>
     <use xlink:href="#DejaVuSans-69" x="371.728516"/>
     <use xlink:href="#DejaVuSans-6f" x="399.511719"/>
     <use xlink:href="#DejaVuSans-6e" x="460.693359"/>
    </g>
   </g>
  </g>
 </g>
 <defs>
  <clipPath id="pdfd6884a17">
   <rect x="57.6" y="41.472" width="357.12" height="266.112"/>
  </clipPath>
 </defs>
</svg>
