<?xml version="1.0" encoding="utf-8" standalone="no"?>
<!DOCTYPE svg PUBLIC "-//W3C//DTD SVG 1.1//EN"
  "http://www.w3.org/Graphics/SVG/1.1/DTD/svg11.dtd">
<svg xmlns:xlink="http://www.w3.org/1999/xlink" width="460.8pt" height="345.6pt" viewBox="0 0 460.8 345.6" xmlns="http://www.w3.org/2000/svg" version="1.1">
 <metadata>
  <rdf:RDF xmlns:dc="http://purl.org/dc/elements/1.1/" xmlns:cc="http://creativecommons.org/ns#" xmlns:rdf="http://www.w3.org/1999/02/22-rdf-syntax-ns#">
   <cc:Work>
    <dc:type rdf:resource="http://purl.org/dc/dcmitype/StillImage"/>
    <dc:date>2023-04-21T10:35:49.748164</dc:date>
    <dc:format>image/svg+xml</dc:format>
    <dc:creator>
     <cc:Agent>
      <dc:title>Matplotlib v3.6.0, https://matplotlib.org/</dc:title>
     </cc:Agent>
    </dc:creator>
   </cc:Work>
  </rdf:RDF>
 </metadata>
 <defs>
  <style type="text/css">*{stroke-linejoin: round; stroke-linecap: butt}</style>
 </defs>
 <g id="figure_1">
  <g id="patch_1">
   <path d="M 0 345.6 
L 460.8 345.6 
L 460.8 0 
L 0 0 
z
" style="fill: #ffffff"/>
  </g>
  <g id="axes_1">
   <g id="patch_2">
    <path d="M 57.6 307.584 
L 414.72 307.584 
L 414.72 41.472 
L 57.6 41.472 
z
" style="fill: #ffffff"/>
   </g>
   <g id="PolyCollection_1">
    <path d="M 73.832727 57.500821 
L 73.832727 307.584 
L 78.985974 307.584 
L 84.139221 307.584 
L 89.292468 307.584 
L 94.445714 307.584 
L 99.598961 307.584 
L 104.752208 307.584 
L 109.905455 307.584 
L 115.058701 307.584 
L 120.211948 307.584 
L 125.365195 307.584 
L 130.518442 307.584 
L 135.671688 307.584 
L 140.824935 307.584 
L 145.978182 307.584 
L 151.131429 307.584 
L 156.284675 307.584 
L 161.437922 307.584 
L 166.591169 307.584 
L 171.744416 307.584 
L 176.897662 307.584 
L 182.050909 307.584 
L 187.204156 307.584 
L 192.357403 307.584 
L 197.510649 307.584 
L 202.663896 307.584 
L 207.817143 307.584 
L 212.97039 307.584 
L 218.123636 307.584 
L 223.276883 307.584 
L 228.43013 307.584 
L 233.583377 307.584 
L 238.736623 307.584 
L 243.88987 307.584 
L 249.043117 307.584 
L 254.196364 307.584 
L 259.34961 307.584 
L 264.502857 307.584 
L 269.656104 307.584 
L 274.809351 307.584 
L 279.962597 307.584 
L 285.115844 307.584 
L 290.269091 307.584 
L 295.422338 307.584 
L 300.575584 307.584 
L 305.728831 307.584 
L 310.882078 307.584 
L 316.035325 307.584 
L 321.188571 307.584 
L 326.341818 307.584 
L 331.495065 307.584 
L 336.648312 307.584 
L 341.801558 307.584 
L 346.954805 307.584 
L 352.108052 307.584 
L 357.261299 307.584 
L 362.414545 307.584 
L 367.567792 307.584 
L 372.721039 307.584 
L 377.874286 307.584 
L 383.027532 307.584 
L 388.180779 307.584 
L 393.334026 307.584 
L 398.487273 307.584 
L 398.487273 240.447576 
L 398.487273 240.447576 
L 393.334026 240.447576 
L 388.180779 242.125987 
L 383.027532 235.412344 
L 377.874286 240.447576 
L 372.721039 240.447576 
L 367.567792 238.769166 
L 362.414545 230.377113 
L 357.261299 191.773669 
L 352.108052 213.593007 
L 346.954805 188.416848 
L 341.801558 196.808901 
L 336.648312 198.487311 
L 331.495065 203.522543 
L 326.341818 208.557775 
L 321.188571 218.628238 
L 316.035325 221.98506 
L 310.882078 221.98506 
L 305.728831 208.557775 
L 300.575584 206.879364 
L 295.422338 215.271417 
L 290.269091 208.557775 
L 285.115844 208.557775 
L 279.962597 218.628238 
L 274.809351 220.306649 
L 269.656104 218.628238 
L 264.502857 218.628238 
L 259.34961 216.949828 
L 254.196364 216.949828 
L 249.043117 216.949828 
L 243.88987 213.593007 
L 238.736623 221.98506 
L 233.583377 216.949828 
L 228.43013 218.628238 
L 223.276883 211.914596 
L 218.123636 220.306649 
L 212.97039 211.914596 
L 207.817143 218.628238 
L 202.663896 223.66347 
L 197.510649 223.66347 
L 192.357403 221.98506 
L 187.204156 220.306649 
L 182.050909 233.733934 
L 176.897662 223.66347 
L 171.744416 206.879364 
L 166.591169 201.844132 
L 161.437922 180.024795 
L 156.284675 168.275921 
L 151.131429 190.095258 
L 145.978182 198.487311 
L 140.824935 216.949828 
L 135.671688 195.13049 
L 130.518442 190.095258 
L 125.365195 213.593007 
L 120.211948 198.487311 
L 115.058701 188.416848 
L 109.905455 188.416848 
L 104.752208 171.632742 
L 99.598961 159.883868 
L 94.445714 154.848636 
L 89.292468 151.491815 
L 84.139221 121.280424 
L 78.985974 109.53155 
L 73.832727 57.500821 
z
" clip-path="url(#pbdf36253b6)" style="fill: #1f77b4"/>
   </g>
   <g id="PolyCollection_2">
    <path d="M 73.832727 55.822411 
L 73.832727 57.500821 
L 78.985974 109.53155 
L 84.139221 121.280424 
L 89.292468 151.491815 
L 94.445714 154.848636 
L 99.598961 159.883868 
L 104.752208 171.632742 
L 109.905455 188.416848 
L 115.058701 188.416848 
L 120.211948 198.487311 
L 125.365195 213.593007 
L 130.518442 190.095258 
L 135.671688 195.13049 
L 140.824935 216.949828 
L 145.978182 198.487311 
L 151.131429 190.095258 
L 156.284675 168.275921 
L 161.437922 180.024795 
L 166.591169 201.844132 
L 171.744416 206.879364 
L 176.897662 223.66347 
L 182.050909 233.733934 
L 187.204156 220.306649 
L 192.357403 221.98506 
L 197.510649 223.66347 
L 202.663896 223.66347 
L 207.817143 218.628238 
L 212.97039 211.914596 
L 218.123636 220.306649 
L 223.276883 211.914596 
L 228.43013 218.628238 
L 233.583377 216.949828 
L 238.736623 221.98506 
L 243.88987 213.593007 
L 249.043117 216.949828 
L 254.196364 216.949828 
L 259.34961 216.949828 
L 264.502857 218.628238 
L 269.656104 218.628238 
L 274.809351 220.306649 
L 279.962597 218.628238 
L 285.115844 208.557775 
L 290.269091 208.557775 
L 295.422338 215.271417 
L 300.575584 206.879364 
L 305.728831 208.557775 
L 310.882078 221.98506 
L 316.035325 221.98506 
L 321.188571 218.628238 
L 326.341818 208.557775 
L 331.495065 203.522543 
L 336.648312 198.487311 
L 341.801558 196.808901 
L 346.954805 188.416848 
L 352.108052 213.593007 
L 357.261299 191.773669 
L 362.414545 230.377113 
L 367.567792 238.769166 
L 372.721039 240.447576 
L 377.874286 240.447576 
L 383.027532 235.412344 
L 388.180779 242.125987 
L 393.334026 240.447576 
L 398.487273 240.447576 
L 398.487273 186.738437 
L 398.487273 186.738437 
L 393.334026 178.346384 
L 388.180779 185.060026 
L 383.027532 185.060026 
L 377.874286 195.13049 
L 372.721039 210.236185 
L 367.567792 191.773669 
L 362.414545 191.773669 
L 357.261299 141.421351 
L 352.108052 156.527046 
L 346.954805 129.672477 
L 341.801558 138.06453 
L 336.648312 127.994066 
L 331.495065 131.350887 
L 326.341818 136.386119 
L 321.188571 146.456583 
L 316.035325 148.134993 
L 310.882078 148.134993 
L 305.728831 134.707709 
L 300.575584 141.421351 
L 295.422338 153.170225 
L 290.269091 148.134993 
L 285.115844 144.778172 
L 279.962597 146.456583 
L 274.809351 146.456583 
L 269.656104 146.456583 
L 264.502857 153.170225 
L 259.34961 143.099762 
L 254.196364 146.456583 
L 249.043117 148.134993 
L 243.88987 144.778172 
L 238.736623 148.134993 
L 233.583377 144.778172 
L 228.43013 146.456583 
L 223.276883 144.778172 
L 218.123636 149.813404 
L 212.97039 139.74294 
L 207.817143 143.099762 
L 202.663896 146.456583 
L 197.510649 144.778172 
L 192.357403 146.456583 
L 187.204156 149.813404 
L 182.050909 156.527046 
L 176.897662 148.134993 
L 171.744416 131.350887 
L 166.591169 121.280424 
L 161.437922 112.888371 
L 156.284675 92.747444 
L 151.131429 106.174728 
L 145.978182 122.958834 
L 140.824935 143.099762 
L 135.671688 124.637245 
L 130.518442 112.888371 
L 125.365195 139.74294 
L 120.211948 133.029298 
L 115.058701 121.280424 
L 109.905455 124.637245 
L 104.752208 114.566781 
L 99.598961 112.888371 
L 94.445714 116.245192 
L 89.292468 109.53155 
L 84.139221 59.179232 
L 78.985974 55.822411 
L 73.832727 55.822411 
z
" clip-path="url(#pbdf36253b6)" style="fill: #ff7f0e"/>
   </g>
   <g id="PolyCollection_3">
    <path d="M 73.832727 55.822411 
L 73.832727 55.822411 
L 78.985974 55.822411 
L 84.139221 59.179232 
L 89.292468 109.53155 
L 94.445714 116.245192 
L 99.598961 112.888371 
L 104.752208 114.566781 
L 109.905455 124.637245 
L 115.058701 121.280424 
L 120.211948 133.029298 
L 125.365195 139.74294 
L 130.518442 112.888371 
L 135.671688 124.637245 
L 140.824935 143.099762 
L 145.978182 122.958834 
L 151.131429 106.174728 
L 156.284675 92.747444 
L 161.437922 112.888371 
L 166.591169 121.280424 
L 171.744416 131.350887 
L 176.897662 148.134993 
L 182.050909 156.527046 
L 187.204156 149.813404 
L 192.357403 146.456583 
L 197.510649 144.778172 
L 202.663896 146.456583 
L 207.817143 143.099762 
L 212.97039 139.74294 
L 218.123636 149.813404 
L 223.276883 144.778172 
L 228.43013 146.456583 
L 233.583377 144.778172 
L 238.736623 148.134993 
L 243.88987 144.778172 
L 249.043117 148.134993 
L 254.196364 146.456583 
L 259.34961 143.099762 
L 264.502857 153.170225 
L 269.656104 146.456583 
L 274.809351 146.456583 
L 279.962597 146.456583 
L 285.115844 144.778172 
L 290.269091 148.134993 
L 295.422338 153.170225 
L 300.575584 141.421351 
L 305.728831 134.707709 
L 310.882078 148.134993 
L 316.035325 148.134993 
L 321.188571 146.456583 
L 326.341818 136.386119 
L 331.495065 131.350887 
L 336.648312 127.994066 
L 341.801558 138.06453 
L 346.954805 129.672477 
L 352.108052 156.527046 
L 357.261299 141.421351 
L 362.414545 191.773669 
L 367.567792 191.773669 
L 372.721039 210.236185 
L 377.874286 195.13049 
L 383.027532 185.060026 
L 388.180779 185.060026 
L 393.334026 178.346384 
L 398.487273 186.738437 
L 398.487273 106.174728 
L 398.487273 106.174728 
L 393.334026 99.461086 
L 388.180779 102.817907 
L 383.027532 104.496318 
L 377.874286 112.888371 
L 372.721039 126.315656 
L 367.567792 111.20996 
L 362.414545 111.20996 
L 357.261299 97.782675 
L 352.108052 77.641748 
L 346.954805 62.536053 
L 341.801558 55.822411 
L 336.648312 55.822411 
L 331.495065 54.144 
L 326.341818 55.822411 
L 321.188571 54.144 
L 316.035325 54.144 
L 310.882078 54.144 
L 305.728831 54.144 
L 300.575584 55.822411 
L 295.422338 54.144 
L 290.269091 55.822411 
L 285.115844 55.822411 
L 279.962597 57.500821 
L 274.809351 55.822411 
L 269.656104 55.822411 
L 264.502857 54.144 
L 259.34961 57.500821 
L 254.196364 57.500821 
L 249.043117 57.500821 
L 243.88987 57.500821 
L 238.736623 57.500821 
L 233.583377 55.822411 
L 228.43013 55.822411 
L 223.276883 55.822411 
L 218.123636 55.822411 
L 212.97039 54.144 
L 207.817143 55.822411 
L 202.663896 55.822411 
L 197.510649 54.144 
L 192.357403 54.144 
L 187.204156 55.822411 
L 182.050909 55.822411 
L 176.897662 55.822411 
L 171.744416 54.144 
L 166.591169 55.822411 
L 161.437922 55.822411 
L 156.284675 55.822411 
L 151.131429 57.500821 
L 145.978182 57.500821 
L 140.824935 55.822411 
L 135.671688 55.822411 
L 130.518442 54.144 
L 125.365195 54.144 
L 120.211948 55.822411 
L 115.058701 55.822411 
L 109.905455 55.822411 
L 104.752208 55.822411 
L 99.598961 55.822411 
L 94.445714 55.822411 
L 89.292468 55.822411 
L 84.139221 55.822411 
L 78.985974 55.822411 
L 73.832727 55.822411 
z
" clip-path="url(#pbdf36253b6)" style="fill: #2ca02c"/>
   </g>
   <g id="PolyCollection_4">
    <path d="M 73.832727 55.822411 
L 73.832727 55.822411 
L 78.985974 55.822411 
L 84.139221 55.822411 
L 89.292468 55.822411 
L 94.445714 55.822411 
L 99.598961 55.822411 
L 104.752208 55.822411 
L 109.905455 55.822411 
L 115.058701 55.822411 
L 120.211948 55.822411 
L 125.365195 54.144 
L 130.518442 54.144 
L 135.671688 55.822411 
L 140.824935 55.822411 
L 145.978182 57.500821 
L 151.131429 57.500821 
L 156.284675 55.822411 
L 161.437922 55.822411 
L 166.591169 55.822411 
L 171.744416 54.144 
L 176.897662 55.822411 
L 182.050909 55.822411 
L 187.204156 55.822411 
L 192.357403 54.144 
L 197.510649 54.144 
L 202.663896 55.822411 
L 207.817143 55.822411 
L 212.97039 54.144 
L 218.123636 55.822411 
L 223.276883 55.822411 
L 228.43013 55.822411 
L 233.583377 55.822411 
L 238.736623 57.500821 
L 243.88987 57.500821 
L 249.043117 57.500821 
L 254.196364 57.500821 
L 259.34961 57.500821 
L 264.502857 54.144 
L 269.656104 55.822411 
L 274.809351 55.822411 
L 279.962597 57.500821 
L 285.115844 55.822411 
L 290.269091 55.822411 
L 295.422338 54.144 
L 300.575584 55.822411 
L 305.728831 54.144 
L 310.882078 54.144 
L 316.035325 54.144 
L 321.188571 54.144 
L 326.341818 55.822411 
L 331.495065 54.144 
L 336.648312 55.822411 
L 341.801558 55.822411 
L 346.954805 62.536053 
L 352.108052 77.641748 
L 357.261299 97.782675 
L 362.414545 111.20996 
L 367.567792 111.20996 
L 372.721039 126.315656 
L 377.874286 112.888371 
L 383.027532 104.496318 
L 388.180779 102.817907 
L 393.334026 99.461086 
L 398.487273 106.174728 
L 398.487273 55.822411 
L 398.487273 55.822411 
L 393.334026 57.500821 
L 388.180779 57.500821 
L 383.027532 57.500821 
L 377.874286 57.500821 
L 372.721039 55.822411 
L 367.567792 55.822411 
L 362.414545 57.500821 
L 357.261299 55.822411 
L 352.108052 54.144 
L 346.954805 55.822411 
L 341.801558 55.822411 
L 336.648312 55.822411 
L 331.495065 54.144 
L 326.341818 55.822411 
L 321.188571 54.144 
L 316.035325 54.144 
L 310.882078 54.144 
L 305.728831 54.144 
L 300.575584 55.822411 
L 295.422338 54.144 
L 290.269091 55.822411 
L 285.115844 55.822411 
L 279.962597 57.500821 
L 274.809351 55.822411 
L 269.656104 55.822411 
L 264.502857 54.144 
L 259.34961 57.500821 
L 254.196364 57.500821 
L 249.043117 57.500821 
L 243.88987 57.500821 
L 238.736623 57.500821 
L 233.583377 55.822411 
L 228.43013 55.822411 
L 223.276883 55.822411 
L 218.123636 55.822411 
L 212.97039 54.144 
L 207.817143 55.822411 
L 202.663896 55.822411 
L 197.510649 54.144 
L 192.357403 54.144 
L 187.204156 55.822411 
L 182.050909 55.822411 
L 176.897662 55.822411 
L 171.744416 54.144 
L 166.591169 55.822411 
L 161.437922 55.822411 
L 156.284675 55.822411 
L 151.131429 57.500821 
L 145.978182 57.500821 
L 140.824935 55.822411 
L 135.671688 55.822411 
L 130.518442 54.144 
L 125.365195 54.144 
L 120.211948 55.822411 
L 115.058701 55.822411 
L 109.905455 55.822411 
L 104.752208 55.822411 
L 99.598961 55.822411 
L 94.445714 55.822411 
L 89.292468 55.822411 
L 84.139221 55.822411 
L 78.985974 55.822411 
L 73.832727 55.822411 
z
" clip-path="url(#pbdf36253b6)" style="fill: #d62728"/>
   </g>
   <g id="matplotlib.axis_1">
    <g id="xtick_1">
     <g id="line2d_1">
      <defs>
       <path id="mc5678782a3" d="M 0 0 
L 0 3.5 
" style="stroke: #000000; stroke-width: 0.8"/>
      </defs>
      <g>
       <use xlink:href="#mc5678782a3" x="73.832727" y="307.584" style="stroke: #000000; stroke-width: 0.8"/>
      </g>
     </g>
     <g id="text_1">
      <!-- 0 -->
      <g transform="translate(70.651477 322.182437) scale(0.1 -0.1)">
       <defs>
        <path id="DejaVuSans-30" d="M 2034 4250 
Q 1547 4250 1301 3770 
Q 1056 3291 1056 2328 
Q 1056 1369 1301 889 
Q 1547 409 2034 409 
Q 2525 409 2770 889 
Q 3016 1369 3016 2328 
Q 3016 3291 2770 3770 
Q 2525 4250 2034 4250 
z
M 2034 4750 
Q 2819 4750 3233 4129 
Q 3647 3509 3647 2328 
Q 3647 1150 3233 529 
Q 2819 -91 2034 -91 
Q 1250 -91 836 529 
Q 422 1150 422 2328 
Q 422 3509 836 4129 
Q 1250 4750 2034 4750 
z
" transform="scale(0.015625)"/>
       </defs>
       <use xlink:href="#DejaVuSans-30"/>
      </g>
     </g>
    </g>
    <g id="xtick_2">
     <g id="line2d_2">
      <g>
       <use xlink:href="#mc5678782a3" x="125.365195" y="307.584" style="stroke: #000000; stroke-width: 0.8"/>
      </g>
     </g>
     <g id="text_2">
      <!-- 10 -->
      <g transform="translate(119.002695 322.182437) scale(0.1 -0.1)">
       <defs>
        <path id="DejaVuSans-31" d="M 794 531 
L 1825 531 
L 1825 4091 
L 703 3866 
L 703 4441 
L 1819 4666 
L 2450 4666 
L 2450 531 
L 3481 531 
L 3481 0 
L 794 0 
L 794 531 
z
" transform="scale(0.015625)"/>
       </defs>
       <use xlink:href="#DejaVuSans-31"/>
       <use xlink:href="#DejaVuSans-30" x="63.623047"/>
      </g>
     </g>
    </g>
    <g id="xtick_3">
     <g id="line2d_3">
      <g>
       <use xlink:href="#mc5678782a3" x="176.897662" y="307.584" style="stroke: #000000; stroke-width: 0.8"/>
      </g>
     </g>
     <g id="text_3">
      <!-- 20 -->
      <g transform="translate(170.535162 322.182437) scale(0.1 -0.1)">
       <defs>
        <path id="DejaVuSans-32" d="M 1228 531 
L 3431 531 
L 3431 0 
L 469 0 
L 469 531 
Q 828 903 1448 1529 
Q 2069 2156 2228 2338 
Q 2531 2678 2651 2914 
Q 2772 3150 2772 3378 
Q 2772 3750 2511 3984 
Q 2250 4219 1831 4219 
Q 1534 4219 1204 4116 
Q 875 4013 500 3803 
L 500 4441 
Q 881 4594 1212 4672 
Q 1544 4750 1819 4750 
Q 2544 4750 2975 4387 
Q 3406 4025 3406 3419 
Q 3406 3131 3298 2873 
Q 3191 2616 2906 2266 
Q 2828 2175 2409 1742 
Q 1991 1309 1228 531 
z
" transform="scale(0.015625)"/>
       </defs>
       <use xlink:href="#DejaVuSans-32"/>
       <use xlink:href="#DejaVuSans-30" x="63.623047"/>
      </g>
     </g>
    </g>
    <g id="xtick_4">
     <g id="line2d_4">
      <g>
       <use xlink:href="#mc5678782a3" x="228.43013" y="307.584" style="stroke: #000000; stroke-width: 0.8"/>
      </g>
     </g>
     <g id="text_4">
      <!-- 30 -->
      <g transform="translate(222.06763 322.182437) scale(0.1 -0.1)">
       <defs>
        <path id="DejaVuSans-33" d="M 2597 2516 
Q 3050 2419 3304 2112 
Q 3559 1806 3559 1356 
Q 3559 666 3084 287 
Q 2609 -91 1734 -91 
Q 1441 -91 1130 -33 
Q 819 25 488 141 
L 488 750 
Q 750 597 1062 519 
Q 1375 441 1716 441 
Q 2309 441 2620 675 
Q 2931 909 2931 1356 
Q 2931 1769 2642 2001 
Q 2353 2234 1838 2234 
L 1294 2234 
L 1294 2753 
L 1863 2753 
Q 2328 2753 2575 2939 
Q 2822 3125 2822 3475 
Q 2822 3834 2567 4026 
Q 2313 4219 1838 4219 
Q 1578 4219 1281 4162 
Q 984 4106 628 3988 
L 628 4550 
Q 988 4650 1302 4700 
Q 1616 4750 1894 4750 
Q 2613 4750 3031 4423 
Q 3450 4097 3450 3541 
Q 3450 3153 3228 2886 
Q 3006 2619 2597 2516 
z
" transform="scale(0.015625)"/>
       </defs>
       <use xlink:href="#DejaVuSans-33"/>
       <use xlink:href="#DejaVuSans-30" x="63.623047"/>
      </g>
     </g>
    </g>
    <g id="xtick_5">
     <g id="line2d_5">
      <g>
       <use xlink:href="#mc5678782a3" x="279.962597" y="307.584" style="stroke: #000000; stroke-width: 0.8"/>
      </g>
     </g>
     <g id="text_5">
      <!-- 40 -->
      <g transform="translate(273.600097 322.182437) scale(0.1 -0.1)">
       <defs>
        <path id="DejaVuSans-34" d="M 2419 4116 
L 825 1625 
L 2419 1625 
L 2419 4116 
z
M 2253 4666 
L 3047 4666 
L 3047 1625 
L 3713 1625 
L 3713 1100 
L 3047 1100 
L 3047 0 
L 2419 0 
L 2419 1100 
L 313 1100 
L 313 1709 
L 2253 4666 
z
" transform="scale(0.015625)"/>
       </defs>
       <use xlink:href="#DejaVuSans-34"/>
       <use xlink:href="#DejaVuSans-30" x="63.623047"/>
      </g>
     </g>
    </g>
    <g id="xtick_6">
     <g id="line2d_6">
      <g>
       <use xlink:href="#mc5678782a3" x="331.495065" y="307.584" style="stroke: #000000; stroke-width: 0.8"/>
      </g>
     </g>
     <g id="text_6">
      <!-- 50 -->
      <g transform="translate(325.132565 322.182437) scale(0.1 -0.1)">
       <defs>
        <path id="DejaVuSans-35" d="M 691 4666 
L 3169 4666 
L 3169 4134 
L 1269 4134 
L 1269 2991 
Q 1406 3038 1543 3061 
Q 1681 3084 1819 3084 
Q 2600 3084 3056 2656 
Q 3513 2228 3513 1497 
Q 3513 744 3044 326 
Q 2575 -91 1722 -91 
Q 1428 -91 1123 -41 
Q 819 9 494 109 
L 494 744 
Q 775 591 1075 516 
Q 1375 441 1709 441 
Q 2250 441 2565 725 
Q 2881 1009 2881 1497 
Q 2881 1984 2565 2268 
Q 2250 2553 1709 2553 
Q 1456 2553 1204 2497 
Q 953 2441 691 2322 
L 691 4666 
z
" transform="scale(0.015625)"/>
       </defs>
       <use xlink:href="#DejaVuSans-35"/>
       <use xlink:href="#DejaVuSans-30" x="63.623047"/>
      </g>
     </g>
    </g>
    <g id="xtick_7">
     <g id="line2d_7">
      <g>
       <use xlink:href="#mc5678782a3" x="383.027532" y="307.584" style="stroke: #000000; stroke-width: 0.8"/>
      </g>
     </g>
     <g id="text_7">
      <!-- 60 -->
      <g transform="translate(376.665032 322.182437) scale(0.1 -0.1)">
       <defs>
        <path id="DejaVuSans-36" d="M 2113 2584 
Q 1688 2584 1439 2293 
Q 1191 2003 1191 1497 
Q 1191 994 1439 701 
Q 1688 409 2113 409 
Q 2538 409 2786 701 
Q 3034 994 3034 1497 
Q 3034 2003 2786 2293 
Q 2538 2584 2113 2584 
z
M 3366 4563 
L 3366 3988 
Q 3128 4100 2886 4159 
Q 2644 4219 2406 4219 
Q 1781 4219 1451 3797 
Q 1122 3375 1075 2522 
Q 1259 2794 1537 2939 
Q 1816 3084 2150 3084 
Q 2853 3084 3261 2657 
Q 3669 2231 3669 1497 
Q 3669 778 3244 343 
Q 2819 -91 2113 -91 
Q 1303 -91 875 529 
Q 447 1150 447 2328 
Q 447 3434 972 4092 
Q 1497 4750 2381 4750 
Q 2619 4750 2861 4703 
Q 3103 4656 3366 4563 
z
" transform="scale(0.015625)"/>
       </defs>
       <use xlink:href="#DejaVuSans-36"/>
       <use xlink:href="#DejaVuSans-30" x="63.623047"/>
      </g>
     </g>
    </g>
    <g id="text_8">
     <!-- Generations -->
     <g transform="translate(205.662344 335.860562) scale(0.1 -0.1)">
      <defs>
       <path id="DejaVuSans-47" d="M 3809 666 
L 3809 1919 
L 2778 1919 
L 2778 2438 
L 4434 2438 
L 4434 434 
Q 4069 175 3628 42 
Q 3188 -91 2688 -91 
Q 1594 -91 976 548 
Q 359 1188 359 2328 
Q 359 3472 976 4111 
Q 1594 4750 2688 4750 
Q 3144 4750 3555 4637 
Q 3966 4525 4313 4306 
L 4313 3634 
Q 3963 3931 3569 4081 
Q 3175 4231 2741 4231 
Q 1884 4231 1454 3753 
Q 1025 3275 1025 2328 
Q 1025 1384 1454 906 
Q 1884 428 2741 428 
Q 3075 428 3337 486 
Q 3600 544 3809 666 
z
" transform="scale(0.015625)"/>
       <path id="DejaVuSans-65" d="M 3597 1894 
L 3597 1613 
L 953 1613 
Q 991 1019 1311 708 
Q 1631 397 2203 397 
Q 2534 397 2845 478 
Q 3156 559 3463 722 
L 3463 178 
Q 3153 47 2828 -22 
Q 2503 -91 2169 -91 
Q 1331 -91 842 396 
Q 353 884 353 1716 
Q 353 2575 817 3079 
Q 1281 3584 2069 3584 
Q 2775 3584 3186 3129 
Q 3597 2675 3597 1894 
z
M 3022 2063 
Q 3016 2534 2758 2815 
Q 2500 3097 2075 3097 
Q 1594 3097 1305 2825 
Q 1016 2553 972 2059 
L 3022 2063 
z
" transform="scale(0.015625)"/>
       <path id="DejaVuSans-6e" d="M 3513 2113 
L 3513 0 
L 2938 0 
L 2938 2094 
Q 2938 2591 2744 2837 
Q 2550 3084 2163 3084 
Q 1697 3084 1428 2787 
Q 1159 2491 1159 1978 
L 1159 0 
L 581 0 
L 581 3500 
L 1159 3500 
L 1159 2956 
Q 1366 3272 1645 3428 
Q 1925 3584 2291 3584 
Q 2894 3584 3203 3211 
Q 3513 2838 3513 2113 
z
" transform="scale(0.015625)"/>
       <path id="DejaVuSans-72" d="M 2631 2963 
Q 2534 3019 2420 3045 
Q 2306 3072 2169 3072 
Q 1681 3072 1420 2755 
Q 1159 2438 1159 1844 
L 1159 0 
L 581 0 
L 581 3500 
L 1159 3500 
L 1159 2956 
Q 1341 3275 1631 3429 
Q 1922 3584 2338 3584 
Q 2397 3584 2469 3576 
Q 2541 3569 2628 3553 
L 2631 2963 
z
" transform="scale(0.015625)"/>
       <path id="DejaVuSans-61" d="M 2194 1759 
Q 1497 1759 1228 1600 
Q 959 1441 959 1056 
Q 959 750 1161 570 
Q 1363 391 1709 391 
Q 2188 391 2477 730 
Q 2766 1069 2766 1631 
L 2766 1759 
L 2194 1759 
z
M 3341 1997 
L 3341 0 
L 2766 0 
L 2766 531 
Q 2569 213 2275 61 
Q 1981 -91 1556 -91 
Q 1019 -91 701 211 
Q 384 513 384 1019 
Q 384 1609 779 1909 
Q 1175 2209 1959 2209 
L 2766 2209 
L 2766 2266 
Q 2766 2663 2505 2880 
Q 2244 3097 1772 3097 
Q 1472 3097 1187 3025 
Q 903 2953 641 2809 
L 641 3341 
Q 956 3463 1253 3523 
Q 1550 3584 1831 3584 
Q 2591 3584 2966 3190 
Q 3341 2797 3341 1997 
z
" transform="scale(0.015625)"/>
       <path id="DejaVuSans-74" d="M 1172 4494 
L 1172 3500 
L 2356 3500 
L 2356 3053 
L 1172 3053 
L 1172 1153 
Q 1172 725 1289 603 
Q 1406 481 1766 481 
L 2356 481 
L 2356 0 
L 1766 0 
Q 1100 0 847 248 
Q 594 497 594 1153 
L 594 3053 
L 172 3053 
L 172 3500 
L 594 3500 
L 594 4494 
L 1172 4494 
z
" transform="scale(0.015625)"/>
       <path id="DejaVuSans-69" d="M 603 3500 
L 1178 3500 
L 1178 0 
L 603 0 
L 603 3500 
z
M 603 4863 
L 1178 4863 
L 1178 4134 
L 603 4134 
L 603 4863 
z
" transform="scale(0.015625)"/>
       <path id="DejaVuSans-6f" d="M 1959 3097 
Q 1497 3097 1228 2736 
Q 959 2375 959 1747 
Q 959 1119 1226 758 
Q 1494 397 1959 397 
Q 2419 397 2687 759 
Q 2956 1122 2956 1747 
Q 2956 2369 2687 2733 
Q 2419 3097 1959 3097 
z
M 1959 3584 
Q 2709 3584 3137 3096 
Q 3566 2609 3566 1747 
Q 3566 888 3137 398 
Q 2709 -91 1959 -91 
Q 1206 -91 779 398 
Q 353 888 353 1747 
Q 353 2609 779 3096 
Q 1206 3584 1959 3584 
z
" transform="scale(0.015625)"/>
       <path id="DejaVuSans-73" d="M 2834 3397 
L 2834 2853 
Q 2591 2978 2328 3040 
Q 2066 3103 1784 3103 
Q 1356 3103 1142 2972 
Q 928 2841 928 2578 
Q 928 2378 1081 2264 
Q 1234 2150 1697 2047 
L 1894 2003 
Q 2506 1872 2764 1633 
Q 3022 1394 3022 966 
Q 3022 478 2636 193 
Q 2250 -91 1575 -91 
Q 1294 -91 989 -36 
Q 684 19 347 128 
L 347 722 
Q 666 556 975 473 
Q 1284 391 1588 391 
Q 1994 391 2212 530 
Q 2431 669 2431 922 
Q 2431 1156 2273 1281 
Q 2116 1406 1581 1522 
L 1381 1569 
Q 847 1681 609 1914 
Q 372 2147 372 2553 
Q 372 3047 722 3315 
Q 1072 3584 1716 3584 
Q 2034 3584 2315 3537 
Q 2597 3491 2834 3397 
z
" transform="scale(0.015625)"/>
      </defs>
      <use xlink:href="#DejaVuSans-47"/>
      <use xlink:href="#DejaVuSans-65" x="77.490234"/>
      <use xlink:href="#DejaVuSans-6e" x="139.013672"/>
      <use xlink:href="#DejaVuSans-65" x="202.392578"/>
      <use xlink:href="#DejaVuSans-72" x="263.916016"/>
      <use xlink:href="#DejaVuSans-61" x="305.029297"/>
      <use xlink:href="#DejaVuSans-74" x="366.308594"/>
      <use xlink:href="#DejaVuSans-69" x="405.517578"/>
      <use xlink:href="#DejaVuSans-6f" x="433.300781"/>
      <use xlink:href="#DejaVuSans-6e" x="494.482422"/>
      <use xlink:href="#DejaVuSans-73" x="557.861328"/>
     </g>
    </g>
   </g>
   <g id="matplotlib.axis_2">
    <g id="ytick_1">
     <g id="line2d_8">
      <defs>
       <path id="mea0fffd8de" d="M 0 0 
L -3.5 0 
" style="stroke: #000000; stroke-width: 0.8"/>
      </defs>
      <g>
       <use xlink:href="#mea0fffd8de" x="57.6" y="307.584" style="stroke: #000000; stroke-width: 0.8"/>
      </g>
     </g>
     <g id="text_9">
      <!-- 0 -->
      <g transform="translate(44.2375 311.383219) scale(0.1 -0.1)">
       <use xlink:href="#DejaVuSans-30"/>
      </g>
     </g>
    </g>
    <g id="ytick_2">
     <g id="line2d_9">
      <g>
       <use xlink:href="#mea0fffd8de" x="57.6" y="274.015788" style="stroke: #000000; stroke-width: 0.8"/>
      </g>
     </g>
     <g id="text_10">
      <!-- 20 -->
      <g transform="translate(37.875 277.815007) scale(0.1 -0.1)">
       <use xlink:href="#DejaVuSans-32"/>
       <use xlink:href="#DejaVuSans-30" x="63.623047"/>
      </g>
     </g>
    </g>
    <g id="ytick_3">
     <g id="line2d_10">
      <g>
       <use xlink:href="#mea0fffd8de" x="57.6" y="240.447576" style="stroke: #000000; stroke-width: 0.8"/>
      </g>
     </g>
     <g id="text_11">
      <!-- 40 -->
      <g transform="translate(37.875 244.246795) scale(0.1 -0.1)">
       <use xlink:href="#DejaVuSans-34"/>
       <use xlink:href="#DejaVuSans-30" x="63.623047"/>
      </g>
     </g>
    </g>
    <g id="ytick_4">
     <g id="line2d_11">
      <g>
       <use xlink:href="#mea0fffd8de" x="57.6" y="206.879364" style="stroke: #000000; stroke-width: 0.8"/>
      </g>
     </g>
     <g id="text_12">
      <!-- 60 -->
      <g transform="translate(37.875 210.678583) scale(0.1 -0.1)">
       <use xlink:href="#DejaVuSans-36"/>
       <use xlink:href="#DejaVuSans-30" x="63.623047"/>
      </g>
     </g>
    </g>
    <g id="ytick_5">
     <g id="line2d_12">
      <g>
       <use xlink:href="#mea0fffd8de" x="57.6" y="173.311152" style="stroke: #000000; stroke-width: 0.8"/>
      </g>
     </g>
     <g id="text_13">
      <!-- 80 -->
      <g transform="translate(37.875 177.110371) scale(0.1 -0.1)">
       <defs>
        <path id="DejaVuSans-38" d="M 2034 2216 
Q 1584 2216 1326 1975 
Q 1069 1734 1069 1313 
Q 1069 891 1326 650 
Q 1584 409 2034 409 
Q 2484 409 2743 651 
Q 3003 894 3003 1313 
Q 3003 1734 2745 1975 
Q 2488 2216 2034 2216 
z
M 1403 2484 
Q 997 2584 770 2862 
Q 544 3141 544 3541 
Q 544 4100 942 4425 
Q 1341 4750 2034 4750 
Q 2731 4750 3128 4425 
Q 3525 4100 3525 3541 
Q 3525 3141 3298 2862 
Q 3072 2584 2669 2484 
Q 3125 2378 3379 2068 
Q 3634 1759 3634 1313 
Q 3634 634 3220 271 
Q 2806 -91 2034 -91 
Q 1263 -91 848 271 
Q 434 634 434 1313 
Q 434 1759 690 2068 
Q 947 2378 1403 2484 
z
M 1172 3481 
Q 1172 3119 1398 2916 
Q 1625 2713 2034 2713 
Q 2441 2713 2670 2916 
Q 2900 3119 2900 3481 
Q 2900 3844 2670 4047 
Q 2441 4250 2034 4250 
Q 1625 4250 1398 4047 
Q 1172 3844 1172 3481 
z
" transform="scale(0.015625)"/>
       </defs>
       <use xlink:href="#DejaVuSans-38"/>
       <use xlink:href="#DejaVuSans-30" x="63.623047"/>
      </g>
     </g>
    </g>
    <g id="ytick_6">
     <g id="line2d_13">
      <g>
       <use xlink:href="#mea0fffd8de" x="57.6" y="139.74294" style="stroke: #000000; stroke-width: 0.8"/>
      </g>
     </g>
     <g id="text_14">
      <!-- 100 -->
      <g transform="translate(31.5125 143.542159) scale(0.1 -0.1)">
       <use xlink:href="#DejaVuSans-31"/>
       <use xlink:href="#DejaVuSans-30" x="63.623047"/>
       <use xlink:href="#DejaVuSans-30" x="127.246094"/>
      </g>
     </g>
    </g>
    <g id="ytick_7">
     <g id="line2d_14">
      <g>
       <use xlink:href="#mea0fffd8de" x="57.6" y="106.174728" style="stroke: #000000; stroke-width: 0.8"/>
      </g>
     </g>
     <g id="text_15">
      <!-- 120 -->
      <g transform="translate(31.5125 109.973947) scale(0.1 -0.1)">
       <use xlink:href="#DejaVuSans-31"/>
       <use xlink:href="#DejaVuSans-32" x="63.623047"/>
       <use xlink:href="#DejaVuSans-30" x="127.246094"/>
      </g>
     </g>
    </g>
    <g id="ytick_8">
     <g id="line2d_15">
      <g>
       <use xlink:href="#mea0fffd8de" x="57.6" y="72.606517" style="stroke: #000000; stroke-width: 0.8"/>
      </g>
     </g>
     <g id="text_16">
      <!-- 140 -->
      <g transform="translate(31.5125 76.405735) scale(0.1 -0.1)">
       <use xlink:href="#DejaVuSans-31"/>
       <use xlink:href="#DejaVuSans-34" x="63.623047"/>
       <use xlink:href="#DejaVuSans-30" x="127.246094"/>
      </g>
     </g>
    </g>
    <g id="text_17">
     <!-- Size per Species -->
     <g transform="translate(25.432812 215.520969) rotate(-90) scale(0.1 -0.1)">
      <defs>
       <path id="DejaVuSans-53" d="M 3425 4513 
L 3425 3897 
Q 3066 4069 2747 4153 
Q 2428 4238 2131 4238 
Q 1616 4238 1336 4038 
Q 1056 3838 1056 3469 
Q 1056 3159 1242 3001 
Q 1428 2844 1947 2747 
L 2328 2669 
Q 3034 2534 3370 2195 
Q 3706 1856 3706 1288 
Q 3706 609 3251 259 
Q 2797 -91 1919 -91 
Q 1588 -91 1214 -16 
Q 841 59 441 206 
L 441 856 
Q 825 641 1194 531 
Q 1563 422 1919 422 
Q 2459 422 2753 634 
Q 3047 847 3047 1241 
Q 3047 1584 2836 1778 
Q 2625 1972 2144 2069 
L 1759 2144 
Q 1053 2284 737 2584 
Q 422 2884 422 3419 
Q 422 4038 858 4394 
Q 1294 4750 2059 4750 
Q 2388 4750 2728 4690 
Q 3069 4631 3425 4513 
z
" transform="scale(0.015625)"/>
       <path id="DejaVuSans-7a" d="M 353 3500 
L 3084 3500 
L 3084 2975 
L 922 459 
L 3084 459 
L 3084 0 
L 275 0 
L 275 525 
L 2438 3041 
L 353 3041 
L 353 3500 
z
" transform="scale(0.015625)"/>
       <path id="DejaVuSans-20" transform="scale(0.015625)"/>
       <path id="DejaVuSans-70" d="M 1159 525 
L 1159 -1331 
L 581 -1331 
L 581 3500 
L 1159 3500 
L 1159 2969 
Q 1341 3281 1617 3432 
Q 1894 3584 2278 3584 
Q 2916 3584 3314 3078 
Q 3713 2572 3713 1747 
Q 3713 922 3314 415 
Q 2916 -91 2278 -91 
Q 1894 -91 1617 61 
Q 1341 213 1159 525 
z
M 3116 1747 
Q 3116 2381 2855 2742 
Q 2594 3103 2138 3103 
Q 1681 3103 1420 2742 
Q 1159 2381 1159 1747 
Q 1159 1113 1420 752 
Q 1681 391 2138 391 
Q 2594 391 2855 752 
Q 3116 1113 3116 1747 
z
" transform="scale(0.015625)"/>
       <path id="DejaVuSans-63" d="M 3122 3366 
L 3122 2828 
Q 2878 2963 2633 3030 
Q 2388 3097 2138 3097 
Q 1578 3097 1268 2742 
Q 959 2388 959 1747 
Q 959 1106 1268 751 
Q 1578 397 2138 397 
Q 2388 397 2633 464 
Q 2878 531 3122 666 
L 3122 134 
Q 2881 22 2623 -34 
Q 2366 -91 2075 -91 
Q 1284 -91 818 406 
Q 353 903 353 1747 
Q 353 2603 823 3093 
Q 1294 3584 2113 3584 
Q 2378 3584 2631 3529 
Q 2884 3475 3122 3366 
z
" transform="scale(0.015625)"/>
      </defs>
      <use xlink:href="#DejaVuSans-53"/>
      <use xlink:href="#DejaVuSans-69" x="63.476562"/>
      <use xlink:href="#DejaVuSans-7a" x="91.259766"/>
      <use xlink:href="#DejaVuSans-65" x="143.75"/>
      <use xlink:href="#DejaVuSans-20" x="205.273438"/>
      <use xlink:href="#DejaVuSans-70" x="237.060547"/>
      <use xlink:href="#DejaVuSans-65" x="300.537109"/>
      <use xlink:href="#DejaVuSans-72" x="362.060547"/>
      <use xlink:href="#DejaVuSans-20" x="403.173828"/>
      <use xlink:href="#DejaVuSans-53" x="434.960938"/>
      <use xlink:href="#DejaVuSans-70" x="498.4375"/>
      <use xlink:href="#DejaVuSans-65" x="561.914062"/>
      <use xlink:href="#DejaVuSans-63" x="623.4375"/>
      <use xlink:href="#DejaVuSans-69" x="678.417969"/>
      <use xlink:href="#DejaVuSans-65" x="706.201172"/>
      <use xlink:href="#DejaVuSans-73" x="767.724609"/>
     </g>
    </g>
   </g>
   <g id="patch_3">
    <path d="M 57.6 307.584 
L 57.6 41.472 
" style="fill: none; stroke: #000000; stroke-width: 0.8; stroke-linejoin: miter; stroke-linecap: square"/>
   </g>
   <g id="patch_4">
    <path d="M 414.72 307.584 
L 414.72 41.472 
" style="fill: none; stroke: #000000; stroke-width: 0.8; stroke-linejoin: miter; stroke-linecap: square"/>
   </g>
   <g id="patch_5">
    <path d="M 57.6 307.584 
L 414.72 307.584 
" style="fill: none; stroke: #000000; stroke-width: 0.8; stroke-linejoin: miter; stroke-linecap: square"/>
   </g>
   <g id="patch_6">
    <path d="M 57.6 41.472 
L 414.72 41.472 
" style="fill: none; stroke: #000000; stroke-width: 0.8; stroke-linejoin: miter; stroke-linecap: square"/>
   </g>
   <g id="text_18">
    <!-- Speciation -->
    <g transform="translate(204.714375 35.472) scale(0.12 -0.12)">
     <use xlink:href="#DejaVuSans-53"/>
     <use xlink:href="#DejaVuSans-70" x="63.476562"/>
     <use xlink:href="#DejaVuSans-65" x="126.953125"/>
     <use xlink:href="#DejaVuSans-63" x="188.476562"/>
     <use xlink:href="#DejaVuSans-69" x="243.457031"/>
     <use xlink:href="#DejaVuSans-61" x="271.240234"/>
     <use xlink:href="#DejaVuSans-74" x="332.519531"/>
     <use xlink:href="#DejaVuSans-69" x="371.728516"/>
     <use xlink:href="#DejaVuSans-6f" x="399.511719"/>
     <use xlink:href="#DejaVuSans-6e" x="460.693359"/>
    </g>
   </g>
  </g>
 </g>
 <defs>
  <clipPath id="pbdf36253b6">
   <rect x="57.6" y="41.472" width="357.12" height="266.112"/>
  </clipPath>
 </defs>
</svg>
