<?xml version="1.0" encoding="utf-8" standalone="no"?>
<!DOCTYPE svg PUBLIC "-//W3C//DTD SVG 1.1//EN"
  "http://www.w3.org/Graphics/SVG/1.1/DTD/svg11.dtd">
<svg xmlns:xlink="http://www.w3.org/1999/xlink" width="14400pt" height="14400pt" viewBox="0 0 14400 14400" xmlns="http://www.w3.org/2000/svg" version="1.1">
 <metadata>
  <rdf:RDF xmlns:dc="http://purl.org/dc/elements/1.1/" xmlns:cc="http://creativecommons.org/ns#" xmlns:rdf="http://www.w3.org/1999/02/22-rdf-syntax-ns#">
   <cc:Work>
    <dc:type rdf:resource="http://purl.org/dc/dcmitype/StillImage"/>
    <dc:date>2023-04-21T15:09:28.395311</dc:date>
    <dc:format>image/svg+xml</dc:format>
    <dc:creator>
     <cc:Agent>
      <dc:title>Matplotlib v3.6.0, https://matplotlib.org/</dc:title>
     </cc:Agent>
    </dc:creator>
   </cc:Work>
  </rdf:RDF>
 </metadata>
 <defs>
  <style type="text/css">*{stroke-linejoin: round; stroke-linecap: butt}</style>
 </defs>
 <g id="figure_1">
  <g id="patch_1">
   <path d="M 0 14400 
L 14400 14400 
L 14400 0 
L 0 0 
z
" style="fill: #ffffff"/>
  </g>
  <g id="axes_1">
   <g id="patch_2">
    <path d="M 1800 12816 
L 12960 12816 
L 12960 1728 
L 1800 1728 
z
" style="fill: #ffffff"/>
   </g>
   <g id="matplotlib.axis_1">
    <g id="xtick_1">
     <g id="line2d_1">
      <path d="M 2307.272727 12816 
L 2307.272727 1728 
" clip-path="url(#p670c02e692)" style="fill: none; stroke: #b0b0b0; stroke-width: 0.8; stroke-linecap: square"/>
     </g>
     <g id="line2d_2">
      <defs>
       <path id="mdd5a0fcad8" d="M 0 0 
L 0 3.5 
" style="stroke: #000000; stroke-width: 0.8"/>
      </defs>
      <g>
       <use xlink:href="#mdd5a0fcad8" x="2307.272727" y="12816" style="stroke: #000000; stroke-width: 0.8"/>
      </g>
     </g>
     <g id="text_1">
      <!-- 0 -->
      <g transform="translate(2304.091477 12830.598438) scale(0.1 -0.1)">
       <defs>
        <path id="DejaVuSans-30" d="M 2034 4250 
Q 1547 4250 1301 3770 
Q 1056 3291 1056 2328 
Q 1056 1369 1301 889 
Q 1547 409 2034 409 
Q 2525 409 2770 889 
Q 3016 1369 3016 2328 
Q 3016 3291 2770 3770 
Q 2525 4250 2034 4250 
z
M 2034 4750 
Q 2819 4750 3233 4129 
Q 3647 3509 3647 2328 
Q 3647 1150 3233 529 
Q 2819 -91 2034 -91 
Q 1250 -91 836 529 
Q 422 1150 422 2328 
Q 422 3509 836 4129 
Q 1250 4750 2034 4750 
z
" transform="scale(0.015625)"/>
       </defs>
       <use xlink:href="#DejaVuSans-30"/>
      </g>
     </g>
    </g>
    <g id="xtick_2">
     <g id="line2d_3">
      <path d="M 4522.437475 12816 
L 4522.437475 1728 
" clip-path="url(#p670c02e692)" style="fill: none; stroke: #b0b0b0; stroke-width: 0.8; stroke-linecap: square"/>
     </g>
     <g id="line2d_4">
      <g>
       <use xlink:href="#mdd5a0fcad8" x="4522.437475" y="12816" style="stroke: #000000; stroke-width: 0.8"/>
      </g>
     </g>
     <g id="text_2">
      <!-- 100 -->
      <g transform="translate(4512.893725 12830.598438) scale(0.1 -0.1)">
       <defs>
        <path id="DejaVuSans-31" d="M 794 531 
L 1825 531 
L 1825 4091 
L 703 3866 
L 703 4441 
L 1819 4666 
L 2450 4666 
L 2450 531 
L 3481 531 
L 3481 0 
L 794 0 
L 794 531 
z
" transform="scale(0.015625)"/>
       </defs>
       <use xlink:href="#DejaVuSans-31"/>
       <use xlink:href="#DejaVuSans-30" x="63.623047"/>
       <use xlink:href="#DejaVuSans-30" x="127.246094"/>
      </g>
     </g>
    </g>
    <g id="xtick_3">
     <g id="line2d_5">
      <path d="M 6737.602223 12816 
L 6737.602223 1728 
" clip-path="url(#p670c02e692)" style="fill: none; stroke: #b0b0b0; stroke-width: 0.8; stroke-linecap: square"/>
     </g>
     <g id="line2d_6">
      <g>
       <use xlink:href="#mdd5a0fcad8" x="6737.602223" y="12816" style="stroke: #000000; stroke-width: 0.8"/>
      </g>
     </g>
     <g id="text_3">
      <!-- 200 -->
      <g transform="translate(6728.058473 12830.598438) scale(0.1 -0.1)">
       <defs>
        <path id="DejaVuSans-32" d="M 1228 531 
L 3431 531 
L 3431 0 
L 469 0 
L 469 531 
Q 828 903 1448 1529 
Q 2069 2156 2228 2338 
Q 2531 2678 2651 2914 
Q 2772 3150 2772 3378 
Q 2772 3750 2511 3984 
Q 2250 4219 1831 4219 
Q 1534 4219 1204 4116 
Q 875 4013 500 3803 
L 500 4441 
Q 881 4594 1212 4672 
Q 1544 4750 1819 4750 
Q 2544 4750 2975 4387 
Q 3406 4025 3406 3419 
Q 3406 3131 3298 2873 
Q 3191 2616 2906 2266 
Q 2828 2175 2409 1742 
Q 1991 1309 1228 531 
z
" transform="scale(0.015625)"/>
       </defs>
       <use xlink:href="#DejaVuSans-32"/>
       <use xlink:href="#DejaVuSans-30" x="63.623047"/>
       <use xlink:href="#DejaVuSans-30" x="127.246094"/>
      </g>
     </g>
    </g>
    <g id="xtick_4">
     <g id="line2d_7">
      <path d="M 8952.766971 12816 
L 8952.766971 1728 
" clip-path="url(#p670c02e692)" style="fill: none; stroke: #b0b0b0; stroke-width: 0.8; stroke-linecap: square"/>
     </g>
     <g id="line2d_8">
      <g>
       <use xlink:href="#mdd5a0fcad8" x="8952.766971" y="12816" style="stroke: #000000; stroke-width: 0.8"/>
      </g>
     </g>
     <g id="text_4">
      <!-- 300 -->
      <g transform="translate(8943.223221 12830.598438) scale(0.1 -0.1)">
       <defs>
        <path id="DejaVuSans-33" d="M 2597 2516 
Q 3050 2419 3304 2112 
Q 3559 1806 3559 1356 
Q 3559 666 3084 287 
Q 2609 -91 1734 -91 
Q 1441 -91 1130 -33 
Q 819 25 488 141 
L 488 750 
Q 750 597 1062 519 
Q 1375 441 1716 441 
Q 2309 441 2620 675 
Q 2931 909 2931 1356 
Q 2931 1769 2642 2001 
Q 2353 2234 1838 2234 
L 1294 2234 
L 1294 2753 
L 1863 2753 
Q 2328 2753 2575 2939 
Q 2822 3125 2822 3475 
Q 2822 3834 2567 4026 
Q 2313 4219 1838 4219 
Q 1578 4219 1281 4162 
Q 984 4106 628 3988 
L 628 4550 
Q 988 4650 1302 4700 
Q 1616 4750 1894 4750 
Q 2613 4750 3031 4423 
Q 3450 4097 3450 3541 
Q 3450 3153 3228 2886 
Q 3006 2619 2597 2516 
z
" transform="scale(0.015625)"/>
       </defs>
       <use xlink:href="#DejaVuSans-33"/>
       <use xlink:href="#DejaVuSans-30" x="63.623047"/>
       <use xlink:href="#DejaVuSans-30" x="127.246094"/>
      </g>
     </g>
    </g>
    <g id="xtick_5">
     <g id="line2d_9">
      <path d="M 11167.931719 12816 
L 11167.931719 1728 
" clip-path="url(#p670c02e692)" style="fill: none; stroke: #b0b0b0; stroke-width: 0.8; stroke-linecap: square"/>
     </g>
     <g id="line2d_10">
      <g>
       <use xlink:href="#mdd5a0fcad8" x="11167.931719" y="12816" style="stroke: #000000; stroke-width: 0.8"/>
      </g>
     </g>
     <g id="text_5">
      <!-- 400 -->
      <g transform="translate(11158.387969 12830.598438) scale(0.1 -0.1)">
       <defs>
        <path id="DejaVuSans-34" d="M 2419 4116 
L 825 1625 
L 2419 1625 
L 2419 4116 
z
M 2253 4666 
L 3047 4666 
L 3047 1625 
L 3713 1625 
L 3713 1100 
L 3047 1100 
L 3047 0 
L 2419 0 
L 2419 1100 
L 313 1100 
L 313 1709 
L 2253 4666 
z
" transform="scale(0.015625)"/>
       </defs>
       <use xlink:href="#DejaVuSans-34"/>
       <use xlink:href="#DejaVuSans-30" x="63.623047"/>
       <use xlink:href="#DejaVuSans-30" x="127.246094"/>
      </g>
     </g>
    </g>
    <g id="text_6">
     <!-- Generations -->
     <g transform="translate(7349.502344 12844.276562) scale(0.1 -0.1)">
      <defs>
       <path id="DejaVuSans-47" d="M 3809 666 
L 3809 1919 
L 2778 1919 
L 2778 2438 
L 4434 2438 
L 4434 434 
Q 4069 175 3628 42 
Q 3188 -91 2688 -91 
Q 1594 -91 976 548 
Q 359 1188 359 2328 
Q 359 3472 976 4111 
Q 1594 4750 2688 4750 
Q 3144 4750 3555 4637 
Q 3966 4525 4313 4306 
L 4313 3634 
Q 3963 3931 3569 4081 
Q 3175 4231 2741 4231 
Q 1884 4231 1454 3753 
Q 1025 3275 1025 2328 
Q 1025 1384 1454 906 
Q 1884 428 2741 428 
Q 3075 428 3337 486 
Q 3600 544 3809 666 
z
" transform="scale(0.015625)"/>
       <path id="DejaVuSans-65" d="M 3597 1894 
L 3597 1613 
L 953 1613 
Q 991 1019 1311 708 
Q 1631 397 2203 397 
Q 2534 397 2845 478 
Q 3156 559 3463 722 
L 3463 178 
Q 3153 47 2828 -22 
Q 2503 -91 2169 -91 
Q 1331 -91 842 396 
Q 353 884 353 1716 
Q 353 2575 817 3079 
Q 1281 3584 2069 3584 
Q 2775 3584 3186 3129 
Q 3597 2675 3597 1894 
z
M 3022 2063 
Q 3016 2534 2758 2815 
Q 2500 3097 2075 3097 
Q 1594 3097 1305 2825 
Q 1016 2553 972 2059 
L 3022 2063 
z
" transform="scale(0.015625)"/>
       <path id="DejaVuSans-6e" d="M 3513 2113 
L 3513 0 
L 2938 0 
L 2938 2094 
Q 2938 2591 2744 2837 
Q 2550 3084 2163 3084 
Q 1697 3084 1428 2787 
Q 1159 2491 1159 1978 
L 1159 0 
L 581 0 
L 581 3500 
L 1159 3500 
L 1159 2956 
Q 1366 3272 1645 3428 
Q 1925 3584 2291 3584 
Q 2894 3584 3203 3211 
Q 3513 2838 3513 2113 
z
" transform="scale(0.015625)"/>
       <path id="DejaVuSans-72" d="M 2631 2963 
Q 2534 3019 2420 3045 
Q 2306 3072 2169 3072 
Q 1681 3072 1420 2755 
Q 1159 2438 1159 1844 
L 1159 0 
L 581 0 
L 581 3500 
L 1159 3500 
L 1159 2956 
Q 1341 3275 1631 3429 
Q 1922 3584 2338 3584 
Q 2397 3584 2469 3576 
Q 2541 3569 2628 3553 
L 2631 2963 
z
" transform="scale(0.015625)"/>
       <path id="DejaVuSans-61" d="M 2194 1759 
Q 1497 1759 1228 1600 
Q 959 1441 959 1056 
Q 959 750 1161 570 
Q 1363 391 1709 391 
Q 2188 391 2477 730 
Q 2766 1069 2766 1631 
L 2766 1759 
L 2194 1759 
z
M 3341 1997 
L 3341 0 
L 2766 0 
L 2766 531 
Q 2569 213 2275 61 
Q 1981 -91 1556 -91 
Q 1019 -91 701 211 
Q 384 513 384 1019 
Q 384 1609 779 1909 
Q 1175 2209 1959 2209 
L 2766 2209 
L 2766 2266 
Q 2766 2663 2505 2880 
Q 2244 3097 1772 3097 
Q 1472 3097 1187 3025 
Q 903 2953 641 2809 
L 641 3341 
Q 956 3463 1253 3523 
Q 1550 3584 1831 3584 
Q 2591 3584 2966 3190 
Q 3341 2797 3341 1997 
z
" transform="scale(0.015625)"/>
       <path id="DejaVuSans-74" d="M 1172 4494 
L 1172 3500 
L 2356 3500 
L 2356 3053 
L 1172 3053 
L 1172 1153 
Q 1172 725 1289 603 
Q 1406 481 1766 481 
L 2356 481 
L 2356 0 
L 1766 0 
Q 1100 0 847 248 
Q 594 497 594 1153 
L 594 3053 
L 172 3053 
L 172 3500 
L 594 3500 
L 594 4494 
L 1172 4494 
z
" transform="scale(0.015625)"/>
       <path id="DejaVuSans-69" d="M 603 3500 
L 1178 3500 
L 1178 0 
L 603 0 
L 603 3500 
z
M 603 4863 
L 1178 4863 
L 1178 4134 
L 603 4134 
L 603 4863 
z
" transform="scale(0.015625)"/>
       <path id="DejaVuSans-6f" d="M 1959 3097 
Q 1497 3097 1228 2736 
Q 959 2375 959 1747 
Q 959 1119 1226 758 
Q 1494 397 1959 397 
Q 2419 397 2687 759 
Q 2956 1122 2956 1747 
Q 2956 2369 2687 2733 
Q 2419 3097 1959 3097 
z
M 1959 3584 
Q 2709 3584 3137 3096 
Q 3566 2609 3566 1747 
Q 3566 888 3137 398 
Q 2709 -91 1959 -91 
Q 1206 -91 779 398 
Q 353 888 353 1747 
Q 353 2609 779 3096 
Q 1206 3584 1959 3584 
z
" transform="scale(0.015625)"/>
       <path id="DejaVuSans-73" d="M 2834 3397 
L 2834 2853 
Q 2591 2978 2328 3040 
Q 2066 3103 1784 3103 
Q 1356 3103 1142 2972 
Q 928 2841 928 2578 
Q 928 2378 1081 2264 
Q 1234 2150 1697 2047 
L 1894 2003 
Q 2506 1872 2764 1633 
Q 3022 1394 3022 966 
Q 3022 478 2636 193 
Q 2250 -91 1575 -91 
Q 1294 -91 989 -36 
Q 684 19 347 128 
L 347 722 
Q 666 556 975 473 
Q 1284 391 1588 391 
Q 1994 391 2212 530 
Q 2431 669 2431 922 
Q 2431 1156 2273 1281 
Q 2116 1406 1581 1522 
L 1381 1569 
Q 847 1681 609 1914 
Q 372 2147 372 2553 
Q 372 3047 722 3315 
Q 1072 3584 1716 3584 
Q 2034 3584 2315 3537 
Q 2597 3491 2834 3397 
z
" transform="scale(0.015625)"/>
      </defs>
      <use xlink:href="#DejaVuSans-47"/>
      <use xlink:href="#DejaVuSans-65" x="77.490234"/>
      <use xlink:href="#DejaVuSans-6e" x="139.013672"/>
      <use xlink:href="#DejaVuSans-65" x="202.392578"/>
      <use xlink:href="#DejaVuSans-72" x="263.916016"/>
      <use xlink:href="#DejaVuSans-61" x="305.029297"/>
      <use xlink:href="#DejaVuSans-74" x="366.308594"/>
      <use xlink:href="#DejaVuSans-69" x="405.517578"/>
      <use xlink:href="#DejaVuSans-6f" x="433.300781"/>
      <use xlink:href="#DejaVuSans-6e" x="494.482422"/>
      <use xlink:href="#DejaVuSans-73" x="557.861328"/>
     </g>
    </g>
   </g>
   <g id="matplotlib.axis_2">
    <g id="ytick_1">
     <g id="line2d_11">
      <path d="M 1800 12462.860244 
L 12960 12462.860244 
" clip-path="url(#p670c02e692)" style="fill: none; stroke: #b0b0b0; stroke-width: 0.8; stroke-linecap: square"/>
     </g>
     <g id="line2d_12">
      <defs>
       <path id="m90f91cfa12" d="M 0 0 
L -3.5 0 
" style="stroke: #000000; stroke-width: 0.8"/>
      </defs>
      <g>
       <use xlink:href="#m90f91cfa12" x="1800" y="12462.860244" style="stroke: #000000; stroke-width: 0.8"/>
      </g>
     </g>
     <g id="text_7">
      <!-- 60 -->
      <g transform="translate(1780.275 12466.659463) scale(0.1 -0.1)">
       <defs>
        <path id="DejaVuSans-36" d="M 2113 2584 
Q 1688 2584 1439 2293 
Q 1191 2003 1191 1497 
Q 1191 994 1439 701 
Q 1688 409 2113 409 
Q 2538 409 2786 701 
Q 3034 994 3034 1497 
Q 3034 2003 2786 2293 
Q 2538 2584 2113 2584 
z
M 3366 4563 
L 3366 3988 
Q 3128 4100 2886 4159 
Q 2644 4219 2406 4219 
Q 1781 4219 1451 3797 
Q 1122 3375 1075 2522 
Q 1259 2794 1537 2939 
Q 1816 3084 2150 3084 
Q 2853 3084 3261 2657 
Q 3669 2231 3669 1497 
Q 3669 778 3244 343 
Q 2819 -91 2113 -91 
Q 1303 -91 875 529 
Q 447 1150 447 2328 
Q 447 3434 972 4092 
Q 1497 4750 2381 4750 
Q 2619 4750 2861 4703 
Q 3103 4656 3366 4563 
z
" transform="scale(0.015625)"/>
       </defs>
       <use xlink:href="#DejaVuSans-36"/>
       <use xlink:href="#DejaVuSans-30" x="63.623047"/>
      </g>
     </g>
    </g>
    <g id="ytick_2">
     <g id="line2d_13">
      <path d="M 1800 10829.892142 
L 12960 10829.892142 
" clip-path="url(#p670c02e692)" style="fill: none; stroke: #b0b0b0; stroke-width: 0.8; stroke-linecap: square"/>
     </g>
     <g id="line2d_14">
      <g>
       <use xlink:href="#m90f91cfa12" x="1800" y="10829.892142" style="stroke: #000000; stroke-width: 0.8"/>
      </g>
     </g>
     <g id="text_8">
      <!-- 80 -->
      <g transform="translate(1780.275 10833.691361) scale(0.1 -0.1)">
       <defs>
        <path id="DejaVuSans-38" d="M 2034 2216 
Q 1584 2216 1326 1975 
Q 1069 1734 1069 1313 
Q 1069 891 1326 650 
Q 1584 409 2034 409 
Q 2484 409 2743 651 
Q 3003 894 3003 1313 
Q 3003 1734 2745 1975 
Q 2488 2216 2034 2216 
z
M 1403 2484 
Q 997 2584 770 2862 
Q 544 3141 544 3541 
Q 544 4100 942 4425 
Q 1341 4750 2034 4750 
Q 2731 4750 3128 4425 
Q 3525 4100 3525 3541 
Q 3525 3141 3298 2862 
Q 3072 2584 2669 2484 
Q 3125 2378 3379 2068 
Q 3634 1759 3634 1313 
Q 3634 634 3220 271 
Q 2806 -91 2034 -91 
Q 1263 -91 848 271 
Q 434 634 434 1313 
Q 434 1759 690 2068 
Q 947 2378 1403 2484 
z
M 1172 3481 
Q 1172 3119 1398 2916 
Q 1625 2713 2034 2713 
Q 2441 2713 2670 2916 
Q 2900 3119 2900 3481 
Q 2900 3844 2670 4047 
Q 2441 4250 2034 4250 
Q 1625 4250 1398 4047 
Q 1172 3844 1172 3481 
z
" transform="scale(0.015625)"/>
       </defs>
       <use xlink:href="#DejaVuSans-38"/>
       <use xlink:href="#DejaVuSans-30" x="63.623047"/>
      </g>
     </g>
    </g>
    <g id="ytick_3">
     <g id="line2d_15">
      <path d="M 1800 9196.924041 
L 12960 9196.924041 
" clip-path="url(#p670c02e692)" style="fill: none; stroke: #b0b0b0; stroke-width: 0.8; stroke-linecap: square"/>
     </g>
     <g id="line2d_16">
      <g>
       <use xlink:href="#m90f91cfa12" x="1800" y="9196.924041" style="stroke: #000000; stroke-width: 0.8"/>
      </g>
     </g>
     <g id="text_9">
      <!-- 100 -->
      <g transform="translate(1773.9125 9200.723259) scale(0.1 -0.1)">
       <use xlink:href="#DejaVuSans-31"/>
       <use xlink:href="#DejaVuSans-30" x="63.623047"/>
       <use xlink:href="#DejaVuSans-30" x="127.246094"/>
      </g>
     </g>
    </g>
    <g id="ytick_4">
     <g id="line2d_17">
      <path d="M 1800 7563.955939 
L 12960 7563.955939 
" clip-path="url(#p670c02e692)" style="fill: none; stroke: #b0b0b0; stroke-width: 0.8; stroke-linecap: square"/>
     </g>
     <g id="line2d_18">
      <g>
       <use xlink:href="#m90f91cfa12" x="1800" y="7563.955939" style="stroke: #000000; stroke-width: 0.8"/>
      </g>
     </g>
     <g id="text_10">
      <!-- 120 -->
      <g transform="translate(1773.9125 7567.755158) scale(0.1 -0.1)">
       <use xlink:href="#DejaVuSans-31"/>
       <use xlink:href="#DejaVuSans-32" x="63.623047"/>
       <use xlink:href="#DejaVuSans-30" x="127.246094"/>
      </g>
     </g>
    </g>
    <g id="ytick_5">
     <g id="line2d_19">
      <path d="M 1800 5930.987837 
L 12960 5930.987837 
" clip-path="url(#p670c02e692)" style="fill: none; stroke: #b0b0b0; stroke-width: 0.8; stroke-linecap: square"/>
     </g>
     <g id="line2d_20">
      <g>
       <use xlink:href="#m90f91cfa12" x="1800" y="5930.987837" style="stroke: #000000; stroke-width: 0.8"/>
      </g>
     </g>
     <g id="text_11">
      <!-- 140 -->
      <g transform="translate(1773.9125 5934.787056) scale(0.1 -0.1)">
       <use xlink:href="#DejaVuSans-31"/>
       <use xlink:href="#DejaVuSans-34" x="63.623047"/>
       <use xlink:href="#DejaVuSans-30" x="127.246094"/>
      </g>
     </g>
    </g>
    <g id="ytick_6">
     <g id="line2d_21">
      <path d="M 1800 4298.019736 
L 12960 4298.019736 
" clip-path="url(#p670c02e692)" style="fill: none; stroke: #b0b0b0; stroke-width: 0.8; stroke-linecap: square"/>
     </g>
     <g id="line2d_22">
      <g>
       <use xlink:href="#m90f91cfa12" x="1800" y="4298.019736" style="stroke: #000000; stroke-width: 0.8"/>
      </g>
     </g>
     <g id="text_12">
      <!-- 160 -->
      <g transform="translate(1773.9125 4301.818954) scale(0.1 -0.1)">
       <use xlink:href="#DejaVuSans-31"/>
       <use xlink:href="#DejaVuSans-36" x="63.623047"/>
       <use xlink:href="#DejaVuSans-30" x="127.246094"/>
      </g>
     </g>
    </g>
    <g id="ytick_7">
     <g id="line2d_23">
      <path d="M 1800 2665.051634 
L 12960 2665.051634 
" clip-path="url(#p670c02e692)" style="fill: none; stroke: #b0b0b0; stroke-width: 0.8; stroke-linecap: square"/>
     </g>
     <g id="line2d_24">
      <g>
       <use xlink:href="#m90f91cfa12" x="1800" y="2665.051634" style="stroke: #000000; stroke-width: 0.8"/>
      </g>
     </g>
     <g id="text_13">
      <!-- 180 -->
      <g transform="translate(1773.9125 2668.850853) scale(0.1 -0.1)">
       <use xlink:href="#DejaVuSans-31"/>
       <use xlink:href="#DejaVuSans-38" x="63.623047"/>
       <use xlink:href="#DejaVuSans-30" x="127.246094"/>
      </g>
     </g>
    </g>
    <g id="text_14">
     <!-- Fitness -->
     <g transform="translate(1767.832812 7289.317187) rotate(-90) scale(0.1 -0.1)">
      <defs>
       <path id="DejaVuSans-46" d="M 628 4666 
L 3309 4666 
L 3309 4134 
L 1259 4134 
L 1259 2759 
L 3109 2759 
L 3109 2228 
L 1259 2228 
L 1259 0 
L 628 0 
L 628 4666 
z
" transform="scale(0.015625)"/>
      </defs>
      <use xlink:href="#DejaVuSans-46"/>
      <use xlink:href="#DejaVuSans-69" x="50.269531"/>
      <use xlink:href="#DejaVuSans-74" x="78.052734"/>
      <use xlink:href="#DejaVuSans-6e" x="117.261719"/>
      <use xlink:href="#DejaVuSans-65" x="180.640625"/>
      <use xlink:href="#DejaVuSans-73" x="242.164062"/>
      <use xlink:href="#DejaVuSans-73" x="294.263672"/>
     </g>
    </g>
   </g>
   <g id="line2d_25">
    <path d="M 2307.272727 9418.696234 
L 2329.424375 9414.762746 
L 2750.305677 9414.762746 
L 2772.457324 9729.19499 
L 2794.608972 8119.419993 
L 2816.760619 8169.99444 
L 2838.912267 8450.213976 
L 2861.063914 8417.817336 
L 2883.215562 7793.716234 
L 2905.367209 7556.900753 
L 2927.518857 7465.023026 
L 2949.670504 7481.393176 
L 2971.822152 6550.369867 
L 2993.973799 7860.617115 
L 3016.125447 6671.793776 
L 3038.277094 8163.23071 
L 3060.428742 7319.110274 
L 3082.580389 7181.085989 
L 3104.732037 6152.095071 
L 3126.883684 6532.170051 
L 3149.035331 5870.477927 
L 3171.186979 6962.88418 
L 3193.338626 6043.243314 
L 3215.490274 6522.156526 
L 3237.641921 6048.81553 
L 3259.793569 5761.115181 
L 3281.945216 6019.84395 
L 3304.096864 6119.416328 
L 3326.248511 6228.00585 
L 3348.400159 6593.856141 
L 3370.551806 5836.153273 
L 3392.703454 6455.046424 
L 3414.855101 6453.687929 
L 3437.006749 5876.487495 
L 3459.158396 6143.843026 
L 3481.310044 6733.681371 
L 3503.461691 6111.518436 
L 3525.613339 5770.062145 
L 3547.764986 5743.946975 
L 3569.916634 5661.698839 
L 3592.068281 5749.814994 
L 3614.219929 6116.416703 
L 3636.371576 6858.234531 
L 3658.523224 5903.629844 
L 3680.674871 5238.837941 
L 3702.826518 6591.466594 
L 3724.978166 6118.344734 
L 3747.129813 6196.147328 
L 3769.281461 5709.557542 
L 3791.433108 6050.915799 
L 3813.584756 6317.89806 
L 3835.736403 6179.063001 
L 3857.888051 5908.743349 
L 3880.039698 5977.542638 
L 3902.191346 6231.857436 
L 3924.342993 6037.986043 
L 3946.494641 6622.278467 
L 3968.646288 5796.613529 
L 3990.797936 5203.975398 
L 4012.949583 6041.721247 
L 4035.101231 6126.214931 
L 4057.252878 5376.592342 
L 4079.404526 6033.650324 
L 4101.556173 5668.517619 
L 4123.707821 5894.58542 
L 4145.859468 6371.390521 
L 4168.011116 6070.835157 
L 4190.162763 6365.628403 
L 4212.31441 5854.884844 
L 4234.466058 5976.356912 
L 4256.617705 5577.842916 
L 4278.769353 5834.577637 
L 4300.921 6010.125561 
L 4323.072648 5867.461798 
L 4345.224295 5808.99558 
L 4367.375943 5125.245928 
L 4389.52759 5602.797901 
L 4411.679238 6178.584938 
L 4433.830885 5632.874929 
L 4455.982533 5930.43876 
L 4478.13418 5716.190559 
L 4500.285828 6157.641515 
L 4522.437475 6417.604798 
L 4544.589123 5599.75322 
L 4566.74077 6528.915969 
L 4588.892418 6390.237003 
L 4611.044065 6181.953359 
L 4633.195713 6211.056102 
L 4655.34736 6018.183378 
L 4677.499008 5866.555702 
L 4699.650655 6434.468364 
L 4721.802303 5769.712911 
L 4743.95395 6745.22098 
L 4766.105597 5272.149065 
L 4788.257245 5565.670882 
L 4810.408892 5217.870008 
L 4832.56054 5838.464611 
L 4854.712187 5224.402721 
L 4876.863835 5916.147246 
L 4899.015482 5767.402135 
L 4921.16713 5186.674095 
L 4943.318777 6172.938456 
L 4965.470425 5117.663041 
L 4987.622072 5686.52619 
L 5009.77372 5281.137089 
L 5031.925367 5114.876807 
L 5054.077015 6121.445422 
L 5076.228662 5989.823452 
L 5098.38031 5456.892295 
L 5120.531957 5442.971977 
L 5142.683605 6266.718429 
L 5164.835252 5880.783362 
L 5186.9869 5608.264256 
L 5209.138547 5503.398832 
L 5231.290195 5413.801254 
L 5253.441842 5840.568591 
L 5275.593489 5526.396744 
L 5297.745137 5354.911708 
L 5319.896784 6125.810565 
L 5342.048432 5358.449859 
L 5364.200079 5545.752342 
L 5386.351727 5645.767945 
L 5408.503374 6178.100832 
L 5430.655022 6401.50158 
L 5452.806669 6008.037634 
L 5474.958317 5297.225329 
L 5497.109964 5163.517501 
L 5519.261612 5659.842201 
L 5541.413259 5727.961962 
L 5563.564907 5356.378062 
L 5585.716554 5520.432214 
L 5607.868202 6109.54235 
L 5630.019849 5113.075134 
L 5652.171497 5164.13453 
L 5674.323144 5115.719916 
L 5696.474792 5299.404112 
L 5718.626439 5239.813178 
L 5740.778087 5825.386458 
L 5762.929734 5310.462555 
L 5785.081382 5704.108824 
L 5807.233029 5385.519556 
L 5829.384676 5666.173461 
L 5851.536324 6759.716008 
L 5873.687971 6044.63905 
L 5895.839619 5513.919238 
L 5917.991266 5354.777479 
L 5940.142914 5684.109349 
L 5962.294561 5932.476923 
L 5984.446209 5222.514579 
L 6006.597856 5401.542785 
L 6028.749504 5803.475769 
L 6050.901151 6218.415939 
L 6073.052799 5915.752167 
L 6095.204446 5057.234452 
L 6117.356094 5651.558272 
L 6139.507741 5401.144019 
L 6161.659389 5741.06944 
L 6183.811036 5708.630973 
L 6205.962684 5159.164129 
L 6228.114331 5578.452596 
L 6250.265979 5252.908551 
L 6272.417626 5002.528839 
L 6294.569274 5051.762879 
L 6316.720921 5972.206563 
L 6338.872568 5337.150641 
L 6361.024216 5969.080123 
L 6383.175863 5630.050847 
L 6405.327511 5349.005758 
L 6427.479158 5327.981598 
L 6449.630806 5651.289673 
L 6471.782453 6057.981933 
L 6493.934101 5225.286771 
L 6516.085748 5801.111952 
L 6538.237396 5522.688386 
L 6560.389043 5555.538442 
L 6582.540691 5339.303835 
L 6604.692338 5995.553818 
L 6626.843986 5385.138245 
L 6648.995633 5256.805253 
L 6671.147281 5216.673952 
L 6693.298928 5735.556796 
L 6715.450576 5454.605451 
L 6737.602223 6339.614197 
L 6759.753871 6104.009221 
L 6781.905518 6010.875677 
L 6804.057166 5243.340197 
L 6826.208813 5716.565508 
L 6848.360461 6095.844154 
L 6870.512108 5878.29137 
L 6892.663755 5592.738579 
L 6914.815403 5651.182674 
L 6936.96705 5589.403681 
L 6959.118698 5347.323298 
L 6981.270345 5707.772008 
L 7003.421993 5571.604562 
L 7025.57364 5545.243598 
L 7047.725288 5128.795556 
L 7069.876935 5425.352967 
L 7092.028583 5828.06569 
L 7114.18023 5305.580447 
L 7136.331878 5518.986275 
L 7158.483525 5734.312538 
L 7180.635173 5464.114657 
L 7202.78682 4899.743877 
L 7224.938468 4616.57001 
L 7247.090115 6461.326583 
L 7269.241763 5330.290784 
L 7291.39341 5623.242127 
L 7313.545058 4878.775134 
L 7335.696705 5856.835738 
L 7357.848353 5873.486758 
L 7380 5386.737513 
L 7402.151647 5434.155321 
L 7424.303295 5192.351722 
L 7446.454942 5373.622984 
L 7468.60659 5494.898282 
L 7490.758237 4872.971426 
L 7512.909885 5220.325052 
L 7535.061532 5771.778945 
L 7557.21318 5145.220804 
L 7579.364827 5686.305301 
L 7601.516475 6132.791073 
L 7623.668122 6614.915535 
L 7645.81977 5492.811802 
L 7667.971417 5942.234285 
L 7690.123065 5068.096728 
L 7712.274712 5588.306782 
L 7734.42636 5014.264486 
L 7756.578007 5698.230601 
L 7778.729655 5921.970293 
L 7800.881302 6003.420766 
L 7823.03295 5722.297724 
L 7845.184597 5947.233107 
L 7867.336245 5199.405657 
L 7889.487892 6007.221203 
L 7911.639539 5776.508999 
L 7933.791187 4973.109848 
L 7955.942834 6205.703982 
L 7978.094482 5238.528039 
L 8000.246129 4090.416985 
L 8022.397777 4975.264651 
L 8044.549424 5817.068291 
L 8066.701072 5714.680879 
L 8088.852719 6213.374789 
L 8111.004367 5955.346148 
L 8133.156014 5681.195299 
L 8155.307662 4851.318196 
L 8177.459309 5631.80035 
L 8199.610957 5839.185798 
L 8221.762604 5078.584334 
L 8243.914252 5781.804666 
L 8266.065899 5672.863706 
L 8288.217547 6233.599797 
L 8310.369194 5758.879338 
L 8332.520842 5795.691878 
L 8354.672489 5710.078983 
L 8376.824137 5758.929028 
L 8398.975784 5049.420631 
L 8421.127432 5612.601875 
L 8443.279079 5939.071446 
L 8465.430726 5305.443253 
L 8487.582374 5462.948171 
L 8509.734021 5987.882961 
L 8531.885669 5647.682742 
L 8554.037316 5205.160425 
L 8576.188964 5532.736059 
L 8598.340611 5352.225872 
L 8620.492259 5301.475363 
L 8642.643906 6019.174733 
L 8664.795554 6102.626869 
L 8686.947201 4889.581732 
L 8709.098849 5992.497703 
L 8731.250496 5197.916086 
L 8753.402144 5806.664887 
L 8775.553791 5908.90748 
L 8797.705439 5641.970483 
L 8819.857086 6372.329022 
L 8842.008734 5470.773449 
L 8864.160381 5773.529208 
L 8886.312029 5087.396345 
L 8908.463676 5228.109732 
L 8930.615324 5239.034586 
L 8952.766971 5911.045201 
L 8974.918618 5790.823824 
L 8997.070266 5581.858421 
L 9019.221913 5481.435869 
L 9041.373561 5814.914867 
L 9063.525208 5517.866324 
L 9085.676856 6055.339164 
L 9107.828503 5432.685551 
L 9129.980151 5639.168166 
L 9152.131798 5562.415145 
L 9174.283446 5269.660705 
L 9196.435093 5551.197651 
L 9218.586741 5591.839261 
L 9240.738388 5950.47973 
L 9262.890036 5757.32699 
L 9285.041683 5547.401018 
L 9307.193331 5303.621669 
L 9329.344978 5241.6558 
L 9351.496626 5597.885 
L 9373.648273 5357.072841 
L 9395.799921 5636.840282 
L 9417.951568 5389.155718 
L 9440.103216 5635.005305 
L 9462.254863 5504.674257 
L 9484.406511 5244.155464 
L 9506.558158 5775.102973 
L 9528.709805 5529.647162 
L 9550.861453 5772.931536 
L 9573.0131 5399.264095 
L 9595.164748 5458.932581 
L 9617.316395 5861.828706 
L 9639.468043 5389.394425 
L 9661.61969 6339.48046 
L 9683.771338 5390.914487 
L 9705.922985 6148.589908 
L 9728.074633 5833.568549 
L 9750.22628 5400.462831 
L 9772.377928 5481.302365 
L 9794.529575 5629.928591 
L 9816.681223 5800.543409 
L 9838.83287 5702.170368 
L 9860.984518 5073.274616 
L 9883.136165 6084.882591 
L 9905.287813 5792.105756 
L 9927.43946 5784.913752 
L 9949.591108 5406.207307 
L 9971.742755 5755.315969 
L 9993.894403 5209.579391 
L 10016.04605 5548.0219 
L 10038.197697 5783.079446 
L 10060.349345 5125.258292 
L 10082.500992 5039.562114 
L 10104.65264 5532.999283 
L 10126.804287 5572.644535 
L 10148.955935 5514.527247 
L 10171.107582 4755.528293 
L 10193.25923 5839.266589 
L 10215.410877 6167.637363 
L 10237.562525 5307.957937 
L 10259.714172 6216.186555 
L 10281.86582 5166.039058 
L 10304.017467 5695.969977 
L 10326.169115 4796.471968 
L 10348.320762 6210.418771 
L 10370.47241 5618.632339 
L 10392.624057 5229.50565 
L 10414.775705 6040.43322 
L 10436.927352 5850.434457 
L 10459.079 6584.309778 
L 10481.230647 5000.620054 
L 10503.382295 5798.296223 
L 10525.533942 5087.570193 
L 10547.68559 6258.370345 
L 10569.837237 6130.405142 
L 10591.988884 5927.492269 
L 10614.140532 5172.736651 
L 10636.292179 4739.683644 
L 10658.443827 5377.240955 
L 10680.595474 5962.87603 
L 10702.747122 5187.91076 
L 10724.898769 5896.072293 
L 10747.050417 5877.859182 
L 10769.202064 5487.452254 
L 10791.353712 5902.895527 
L 10813.505359 5814.595152 
L 10835.657007 5466.214698 
L 10857.808654 4801.244536 
L 10879.960302 5333.662516 
L 10902.111949 5971.974418 
L 10924.263597 5993.423244 
L 10946.415244 4848.039629 
L 10968.566892 6095.719375 
L 10990.718539 5878.552043 
L 11012.870187 5428.633244 
L 11035.021834 5321.427862 
L 11057.173482 5714.502457 
L 11079.325129 5230.334812 
L 11101.476776 5544.504684 
L 11123.628424 6780.630274 
L 11145.780071 6156.241218 
L 11167.931719 5382.24306 
L 11190.083366 5182.895513 
L 11212.235014 5833.487673 
L 11234.386661 4834.411523 
L 11256.538309 5794.663898 
L 11278.689956 5230.321571 
L 11300.841604 6029.00308 
L 11322.993251 5619.58989 
L 11345.144899 5327.316941 
L 11367.296546 5201.448366 
L 11389.448194 5584.154787 
L 11411.599841 5487.269296 
L 11433.751489 5723.184427 
L 11455.903136 4970.712534 
L 11478.054784 5953.939881 
L 11500.206431 5250.551242 
L 11522.358079 6365.185977 
L 11544.509726 6160.297333 
L 11566.661374 5681.962473 
L 11588.813021 6013.881501 
L 11610.964669 5985.617068 
L 11633.116316 5885.858797 
L 11655.267963 5480.315484 
L 11677.419611 5131.309813 
L 11699.571258 5322.822526 
L 11721.722906 5995.434334 
L 11743.874553 5582.655544 
L 11766.026201 5224.882534 
L 11788.177848 5704.189357 
L 11810.329496 5402.009095 
L 11832.481143 5731.078642 
L 11854.632791 5329.327151 
L 11876.784438 5552.754273 
L 11898.936086 5897.125403 
L 11921.087733 4928.905074 
L 11943.239381 5597.862905 
L 11965.391028 5838.997498 
L 11987.542676 5221.638594 
L 12009.694323 6046.729911 
L 12031.845971 5443.810626 
L 12053.997618 6166.834393 
L 12076.149266 6017.683229 
L 12098.300913 5275.675404 
L 12120.452561 5436.871717 
L 12142.604208 5947.064337 
L 12164.755855 5554.670702 
L 12186.907503 5487.743254 
L 12209.05915 5209.569469 
L 12231.210798 5204.509682 
L 12253.362445 5192.666791 
L 12275.514093 5773.840342 
L 12297.66574 5490.197298 
L 12319.817388 5998.659215 
L 12341.969035 5413.60958 
L 12364.120683 5754.588944 
L 12386.27233 6072.7848 
L 12408.423978 5328.513219 
L 12430.575625 4892.651571 
L 12452.727273 4704.569917 
L 12452.727273 4704.569917 
" clip-path="url(#p670c02e692)" style="fill: none; stroke: #0000ff; stroke-width: 1.5; stroke-linecap: square"/>
   </g>
   <g id="line2d_26">
    <path d="M 2307.272727 11922.842024 
L 2329.424375 11900.042875 
L 2750.305677 11900.042875 
L 2772.457324 12312 
L 2794.608972 10714.736431 
L 2816.760619 10808.38374 
L 2838.912267 11677.105986 
L 2861.063914 11512.368146 
L 2883.215562 10571.37543 
L 2905.367209 10550.222873 
L 2927.518857 10484.554892 
L 2949.670504 10725.617901 
L 2971.822152 9166.083172 
L 2993.973799 11219.594457 
L 3016.125447 9798.1798 
L 3038.277094 11293.943522 
L 3060.428742 10603.734118 
L 3082.580389 10389.667198 
L 3104.732037 8901.887842 
L 3126.883684 9424.858426 
L 3149.035331 8255.125821 
L 3171.186979 10054.89874 
L 3193.338626 8740.947103 
L 3215.490274 9706.378883 
L 3237.641921 9176.873174 
L 3259.793569 8678.731846 
L 3281.945216 8917.18286 
L 3304.096864 9559.119913 
L 3326.248511 9476.757511 
L 3348.400159 9850.228756 
L 3370.551806 9083.679994 
L 3392.703454 9783.288268 
L 3414.855101 9722.52294 
L 3437.006749 8599.604606 
L 3459.158396 8892.031853 
L 3481.310044 10002.950162 
L 3503.461691 9323.516532 
L 3525.613339 8657.340892 
L 3547.764986 8366.04233 
L 3569.916634 8399.799846 
L 3592.068281 8482.100253 
L 3614.219929 9204.991419 
L 3636.371576 10135.64926 
L 3658.523224 8600.908724 
L 3680.674871 7438.663662 
L 3702.826518 9442.638215 
L 3724.978166 9279.780609 
L 3747.129813 9121.28539 
L 3769.281461 8197.52757 
L 3791.433108 9147.982929 
L 3813.584756 9458.621908 
L 3835.736403 9258.415569 
L 3857.888051 8632.123494 
L 3880.039698 8888.765454 
L 3902.191346 9359.238101 
L 3924.342993 8899.398965 
L 3946.494641 9803.361606 
L 3968.646288 8766.415213 
L 3990.797936 7836.085741 
L 4012.949583 8787.992084 
L 4035.101231 9030.532678 
L 4057.252878 7746.661526 
L 4079.404526 9076.516514 
L 4101.556173 8189.038932 
L 4123.707821 8595.340824 
L 4145.859468 9366.41724 
L 4168.011116 9248.050817 
L 4190.162763 9583.86881 
L 4212.31441 8697.411422 
L 4234.466058 9027.550403 
L 4256.617705 8075.046681 
L 4278.769353 8575.278761 
L 4300.921 8929.550731 
L 4323.072648 8847.884518 
L 4345.224295 8856.307204 
L 4367.375943 7406.058552 
L 4389.52759 8217.638806 
L 4411.679238 9171.297326 
L 4433.830885 8434.663633 
L 4455.982533 8714.113113 
L 4478.13418 8525.858252 
L 4500.285828 8906.754363 
L 4522.437475 9562.570578 
L 4544.589123 8272.568546 
L 4566.74077 9382.761256 
L 4588.892418 9456.237829 
L 4611.044065 8996.612646 
L 4633.195713 9309.605286 
L 4655.34736 8766.400679 
L 4677.499008 8796.708055 
L 4699.650655 9776.681079 
L 4721.802303 8934.47463 
L 4743.95395 9892.290412 
L 4766.105597 7820.561543 
L 4788.257245 8448.357646 
L 4810.408892 7517.504342 
L 4832.56054 8933.472092 
L 4854.712187 7513.045486 
L 4876.863835 8812.924121 
L 4899.015482 8534.862889 
L 4921.16713 8127.195882 
L 4943.318777 9225.069682 
L 4965.470425 7600.810578 
L 4987.622072 8567.267323 
L 5009.77372 8056.3371 
L 5031.925367 7548.406398 
L 5054.077015 9292.106493 
L 5076.228662 9041.619749 
L 5098.38031 8317.425542 
L 5120.531957 8217.585015 
L 5142.683605 9455.809544 
L 5164.835252 8814.092843 
L 5186.9869 8042.524854 
L 5209.138547 8168.129593 
L 5231.290195 8365.396507 
L 5253.441842 8883.913466 
L 5275.593489 8339.588439 
L 5297.745137 7546.103606 
L 5319.896784 9362.881647 
L 5342.048432 7798.819471 
L 5364.200079 8088.253701 
L 5386.351727 8569.616851 
L 5408.503374 8843.216489 
L 5430.655022 9335.937495 
L 5452.806669 9274.66887 
L 5474.958317 7976.308811 
L 5497.109964 7152.670178 
L 5519.261612 8483.506869 
L 5541.413259 8644.076479 
L 5563.564907 8000.221294 
L 5585.716554 8167.511928 
L 5607.868202 9269.226901 
L 5630.019849 7551.050637 
L 5652.171497 7474.070934 
L 5674.323144 7482.974276 
L 5696.474792 8014.075863 
L 5718.626439 7189.087024 
L 5740.778087 8958.890423 
L 5762.929734 7637.364478 
L 5785.081382 8564.082794 
L 5807.233029 8539.039111 
L 5829.384676 8674.738717 
L 5851.536324 10252.328306 
L 5873.687971 9275.120274 
L 5895.839619 7996.24193 
L 5917.991266 8030.765306 
L 5940.142914 8779.106663 
L 5962.294561 9066.900106 
L 5984.446209 7754.644277 
L 6006.597856 8176.182215 
L 6028.749504 8738.249314 
L 6050.901151 9730.433851 
L 6073.052799 8981.760294 
L 6095.204446 7554.305167 
L 6117.356094 8535.152816 
L 6139.507741 7898.267442 
L 6161.659389 8712.203838 
L 6183.811036 8427.98145 
L 6205.962684 7689.41789 
L 6228.114331 8427.689787 
L 6250.265979 7524.692606 
L 6272.417626 7047.286233 
L 6294.569274 7510.187811 
L 6316.720921 9110.735729 
L 6338.872568 8187.270324 
L 6361.024216 8809.271001 
L 6383.175863 8477.61393 
L 6405.327511 7824.782038 
L 6427.479158 7980.126856 
L 6449.630806 8578.841905 
L 6471.782453 9078.103165 
L 6493.934101 7453.575311 
L 6516.085748 8808.587548 
L 6538.237396 7793.804689 
L 6560.389043 8304.137876 
L 6582.540691 7826.452553 
L 6604.692338 9073.834615 
L 6626.843986 7821.123951 
L 6648.995633 7723.960237 
L 6671.147281 7566.052184 
L 6693.298928 8499.675781 
L 6715.450576 7892.946175 
L 6737.602223 9252.675177 
L 6759.753871 8877.048071 
L 6781.905518 9039.529563 
L 6804.057166 7769.370445 
L 6826.208813 8755.767491 
L 6848.360461 9151.349659 
L 6870.512108 8690.037078 
L 6892.663755 8218.60705 
L 6914.815403 8521.142817 
L 6936.96705 8240.061221 
L 6959.118698 7733.815943 
L 6981.270345 8554.415168 
L 7003.421993 8388.97272 
L 7025.57364 8190.502621 
L 7047.725288 7639.161281 
L 7069.876935 8095.799828 
L 7092.028583 8683.958229 
L 7114.18023 7845.22651 
L 7136.331878 8359.805527 
L 7158.483525 8546.254432 
L 7180.635173 8300.887784 
L 7202.78682 7068.087695 
L 7224.938468 6656.419837 
L 7247.090115 9590.263541 
L 7269.241763 8114.918279 
L 7291.39341 8150.002234 
L 7313.545058 7086.12184 
L 7335.696705 8763.383277 
L 7357.848353 8779.714005 
L 7380 8262.698884 
L 7402.151647 8156.201848 
L 7424.303295 7783.162714 
L 7446.454942 7823.703055 
L 7468.60659 8162.473145 
L 7490.758237 7056.607713 
L 7512.909885 7484.267252 
L 7535.061532 8570.507803 
L 7557.21318 7504.715761 
L 7579.364827 8660.261565 
L 7601.516475 9197.612343 
L 7623.668122 9868.36054 
L 7645.81977 8250.934816 
L 7667.971417 8678.757776 
L 7690.123065 7552.865139 
L 7712.274712 8081.761293 
L 7734.42636 7652.084181 
L 7756.578007 8056.036658 
L 7778.729655 8613.173362 
L 7800.881302 8883.561541 
L 7823.03295 8665.892134 
L 7845.184597 8942.962856 
L 7867.336245 7486.198471 
L 7889.487892 9067.934173 
L 7911.639539 8883.485369 
L 7933.791187 7419.66823 
L 7955.942834 9434.454682 
L 7978.094482 7661.640601 
L 8000.246129 5311.96307 
L 8022.397777 7241.281466 
L 8044.549424 8845.685813 
L 8066.701072 8507.21019 
L 8088.852719 9246.559834 
L 8111.004367 8934.866131 
L 8133.156014 8403.655065 
L 8155.307662 7004.002284 
L 8177.459309 8221.331416 
L 8199.610957 9060.908919 
L 8221.762604 7122.975213 
L 8243.914252 8253.016522 
L 8266.065899 8373.57797 
L 8288.217547 9359.260655 
L 8310.369194 8694.809158 
L 8332.520842 8622.105797 
L 8354.672489 8442.030403 
L 8376.824137 8345.244044 
L 8398.975784 7449.22897 
L 8421.127432 8432.15312 
L 8443.279079 8855.83484 
L 8465.430726 7952.552503 
L 8487.582374 8398.234291 
L 8509.734021 8827.974969 
L 8531.885669 7975.730412 
L 8554.037316 7795.724692 
L 8576.188964 7735.710654 
L 8598.340611 7712.673213 
L 8620.492259 7957.834393 
L 8642.643906 9077.419133 
L 8664.795554 9177.970755 
L 8686.947201 7068.207301 
L 8709.098849 9134.94116 
L 8731.250496 7711.268563 
L 8753.402144 8507.13271 
L 8775.553791 8827.246561 
L 8797.705439 8307.662036 
L 8819.857086 9485.145084 
L 8842.008734 7997.317538 
L 8864.160381 8538.065971 
L 8886.312029 7354.854258 
L 8908.463676 7660.703894 
L 8930.615324 7737.042887 
L 8952.766971 8964.953303 
L 8974.918618 8544.513276 
L 8997.070266 8307.570247 
L 9019.221913 8105.907363 
L 9041.373561 8370.080911 
L 9063.525208 8212.91578 
L 9085.676856 8669.344553 
L 9107.828503 8160.563601 
L 9129.980151 8216.789617 
L 9152.131798 8174.012861 
L 9174.283446 8087.53558 
L 9196.435093 8254.600753 
L 9218.586741 8560.513186 
L 9240.738388 8874.59181 
L 9262.890036 8590.795233 
L 9285.041683 8053.828231 
L 9307.193331 7778.315011 
L 9329.344978 7489.24129 
L 9351.496626 8239.547803 
L 9373.648273 8095.459495 
L 9395.799921 8311.26137 
L 9417.951568 7544.796529 
L 9440.103216 8509.68505 
L 9462.254863 8160.05509 
L 9484.406511 7940.416173 
L 9506.558158 8565.963724 
L 9528.709805 7830.310687 
L 9550.861453 8502.860354 
L 9573.0131 8075.536113 
L 9595.164748 8267.127375 
L 9617.316395 8894.036887 
L 9639.468043 8185.041348 
L 9661.61969 9437.292692 
L 9683.771338 7625.304359 
L 9705.922985 9074.488856 
L 9728.074633 8632.642929 
L 9750.22628 8069.242496 
L 9772.377928 8218.075253 
L 9794.529575 8322.664989 
L 9816.681223 8956.847256 
L 9838.83287 8315.690278 
L 9860.984518 7154.250584 
L 9883.136165 9430.058666 
L 9905.287813 8574.745842 
L 9927.43946 8891.150855 
L 9949.591108 7974.471276 
L 9971.742755 8596.609443 
L 9993.894403 7504.396021 
L 10016.04605 8126.829919 
L 10038.197697 8367.932494 
L 10060.349345 7529.629348 
L 10082.500992 7221.159256 
L 10104.65264 8201.275321 
L 10126.804287 8114.559923 
L 10148.955935 7907.249045 
L 10171.107582 6621.482038 
L 10193.25923 8512.280501 
L 10215.410877 9301.568714 
L 10237.562525 7931.192941 
L 10259.714172 9198.625752 
L 10281.86582 7254.473443 
L 10304.017467 8357.49783 
L 10326.169115 6949.802625 
L 10348.320762 9329.882022 
L 10370.47241 8246.185512 
L 10392.624057 7684.390159 
L 10414.775705 9163.475812 
L 10436.927352 8797.926468 
L 10459.079 9713.773143 
L 10481.230647 7104.071253 
L 10503.382295 8657.623015 
L 10525.533942 7296.945671 
L 10547.68559 9198.402915 
L 10569.837237 9040.017249 
L 10591.988884 8625.542846 
L 10614.140532 7931.070772 
L 10636.292179 6994.517727 
L 10658.443827 7965.176161 
L 10680.595474 8716.216164 
L 10702.747122 7484.770731 
L 10724.898769 8843.162578 
L 10747.050417 8663.13835 
L 10769.202064 8315.847943 
L 10791.353712 8686.952635 
L 10813.505359 8334.744163 
L 10835.657007 8040.519576 
L 10857.808654 6841.391543 
L 10879.960302 8002.614081 
L 10902.111949 9320.57141 
L 10924.263597 8950.643495 
L 10946.415244 7178.981526 
L 10968.566892 9153.542692 
L 10990.718539 8515.524318 
L 11012.870187 8115.106259 
L 11035.021834 7783.008495 
L 11057.173482 8695.582016 
L 11079.325129 7777.655207 
L 11101.476776 8409.40605 
L 11123.628424 9693.580296 
L 11145.780071 8749.253973 
L 11167.931719 8064.071373 
L 11190.083366 7675.131482 
L 11212.235014 9028.802091 
L 11234.386661 6664.096585 
L 11256.538309 8489.207845 
L 11278.689956 7606.642256 
L 11300.841604 8907.194186 
L 11322.993251 8605.910645 
L 11345.144899 7813.649953 
L 11367.296546 7656.087999 
L 11389.448194 8278.341432 
L 11411.599841 8485.253495 
L 11433.751489 8711.465751 
L 11455.903136 7350.507647 
L 11478.054784 8773.511645 
L 11500.206431 7943.477938 
L 11522.358079 9995.319331 
L 11544.509726 9429.89781 
L 11566.661374 8624.314001 
L 11588.813021 9339.324709 
L 11610.964669 8795.193149 
L 11633.116316 8991.735299 
L 11655.267963 8433.685707 
L 11677.419611 7682.278963 
L 11699.571258 7921.210898 
L 11721.722906 8795.370331 
L 11743.874553 8574.615718 
L 11766.026201 8093.225278 
L 11788.177848 8406.856206 
L 11810.329496 8001.240499 
L 11832.481143 8685.154978 
L 11854.632791 7497.138613 
L 11876.784438 8139.621517 
L 11898.936086 9114.339118 
L 11921.087733 7302.180137 
L 11943.239381 8397.073416 
L 11965.391028 8548.664154 
L 11987.542676 7668.715419 
L 12009.694323 9082.631124 
L 12031.845971 7997.192467 
L 12053.997618 9395.043051 
L 12076.149266 9314.482474 
L 12098.300913 7986.219394 
L 12120.452561 8161.580199 
L 12142.604208 8926.267926 
L 12164.755855 8351.503116 
L 12186.907503 7851.33716 
L 12209.05915 7518.575859 
L 12231.210798 7866.84041 
L 12253.362445 7657.980208 
L 12275.514093 8873.110838 
L 12297.66574 8072.779804 
L 12319.817388 9107.873845 
L 12341.969035 8210.849913 
L 12364.120683 8492.548418 
L 12386.27233 9140.516722 
L 12408.423978 7718.896518 
L 12430.575625 7093.960287 
L 12452.727273 6890.964429 
L 12452.727273 6890.964429 
" clip-path="url(#p670c02e692)" style="fill: none; stroke-dasharray: 9.6,2.4,1.5,2.4; stroke-dashoffset: 0; stroke: #008000; stroke-width: 1.5"/>
   </g>
   <g id="line2d_27">
    <path d="M 2307.272727 6914.550444 
L 2329.424375 6929.482616 
L 2750.305677 6929.482616 
L 2772.457324 7146.38998 
L 2794.608972 5524.103556 
L 2816.760619 5531.605141 
L 2838.912267 5223.321967 
L 2861.063914 5323.266526 
L 2883.215562 5016.057039 
L 2905.367209 4563.578632 
L 2927.518857 4445.49116 
L 2949.670504 4237.168451 
L 2971.822152 3934.656562 
L 2993.973799 4501.639772 
L 3016.125447 3545.407752 
L 3038.277094 5032.517899 
L 3060.428742 4034.48643 
L 3082.580389 3972.50478 
L 3104.732037 3402.3023 
L 3126.883684 3639.481677 
L 3149.035331 3485.830033 
L 3171.186979 3870.86962 
L 3193.338626 3345.539525 
L 3215.490274 3337.93417 
L 3237.641921 2920.757886 
L 3259.793569 2843.498515 
L 3281.945216 3122.50504 
L 3304.096864 2679.712742 
L 3326.248511 2979.254188 
L 3348.400159 3337.483526 
L 3370.551806 2588.626552 
L 3392.703454 3126.80458 
L 3414.855101 3184.852919 
L 3437.006749 3153.370384 
L 3459.158396 3395.6542 
L 3481.310044 3464.412579 
L 3503.461691 2899.52034 
L 3525.613339 2882.783397 
L 3547.764986 3121.85162 
L 3569.916634 2923.597833 
L 3592.068281 3017.529734 
L 3614.219929 3027.841987 
L 3636.371576 3580.819803 
L 3658.523224 3206.350964 
L 3680.674871 3039.012221 
L 3702.826518 3740.294974 
L 3724.978166 2956.908858 
L 3747.129813 3271.009267 
L 3769.281461 3221.587515 
L 3791.433108 2953.84867 
L 3813.584756 3177.174212 
L 3835.736403 3099.710433 
L 3857.888051 3185.363204 
L 3880.039698 3066.319823 
L 3902.191346 3104.476771 
L 3924.342993 3176.57312 
L 3946.494641 3441.195328 
L 3968.646288 2826.811844 
L 3990.797936 2571.865055 
L 4012.949583 3295.45041 
L 4035.101231 3221.897184 
L 4057.252878 3006.523158 
L 4079.404526 2990.784134 
L 4101.556173 3147.996306 
L 4123.707821 3193.830016 
L 4145.859468 3376.363803 
L 4168.011116 2893.619496 
L 4190.162763 3147.387997 
L 4212.31441 3012.358266 
L 4234.466058 2925.16342 
L 4256.617705 3080.639151 
L 4278.769353 3093.876512 
L 4300.921 3090.700391 
L 4323.072648 2887.039078 
L 4345.224295 2761.683956 
L 4367.375943 2844.433303 
L 4389.52759 2987.956995 
L 4411.679238 3185.87255 
L 4433.830885 2831.086225 
L 4455.982533 3146.764408 
L 4478.13418 2906.522867 
L 4500.285828 3408.528668 
L 4522.437475 3272.639017 
L 4544.589123 2926.937894 
L 4566.74077 3675.070682 
L 4588.892418 3324.236176 
L 4611.044065 3367.294072 
L 4633.195713 3112.506917 
L 4655.34736 3269.966077 
L 4677.499008 2936.403349 
L 4699.650655 3092.255649 
L 4721.802303 2604.951193 
L 4743.95395 3598.151548 
L 4766.105597 2723.736586 
L 4788.257245 2682.984118 
L 4810.408892 2918.235675 
L 4832.56054 2743.45713 
L 4854.712187 2935.759956 
L 4876.863835 3019.370372 
L 4899.015482 2999.94138 
L 4921.16713 2246.152308 
L 4943.318777 3120.80723 
L 4965.470425 2634.515505 
L 4987.622072 2805.785056 
L 5009.77372 2505.937078 
L 5031.925367 2681.347216 
L 5054.077015 2950.78435 
L 5076.228662 2938.027156 
L 5098.38031 2596.359049 
L 5120.531957 2668.358939 
L 5142.683605 3077.627315 
L 5164.835252 2947.47388 
L 5186.9869 3174.003658 
L 5209.138547 2838.668071 
L 5231.290195 2462.206 
L 5253.441842 2797.223715 
L 5275.593489 2713.205049 
L 5297.745137 3163.71981 
L 5319.896784 2888.739484 
L 5342.048432 2918.080248 
L 5364.200079 3003.250983 
L 5386.351727 2721.919039 
L 5408.503374 3512.985175 
L 5430.655022 3467.065665 
L 5452.806669 2741.406398 
L 5474.958317 2618.141848 
L 5497.109964 3174.364825 
L 5519.261612 2836.177532 
L 5541.413259 2811.847445 
L 5563.564907 2712.53483 
L 5585.716554 2873.3525 
L 5607.868202 2949.8578 
L 5630.019849 2675.09963 
L 5652.171497 2854.198127 
L 5674.323144 2748.465556 
L 5696.474792 2584.732362 
L 5718.626439 3290.539332 
L 5740.778087 2691.882493 
L 5762.929734 2983.560631 
L 5785.081382 2844.134855 
L 5807.233029 2232 
L 5829.384676 2657.608204 
L 5851.536324 3267.103709 
L 5873.687971 2814.157826 
L 5895.839619 3031.596546 
L 5917.991266 2678.789653 
L 5940.142914 2589.112034 
L 5962.294561 2798.05374 
L 5984.446209 2690.38488 
L 6006.597856 2626.903355 
L 6028.749504 2868.702224 
L 6050.901151 2706.398026 
L 6073.052799 2849.74404 
L 6095.204446 2560.163736 
L 6117.356094 2767.963728 
L 6139.507741 2904.020595 
L 6161.659389 2769.935041 
L 6183.811036 2989.280497 
L 6205.962684 2628.910368 
L 6228.114331 2729.215404 
L 6250.265979 2981.124496 
L 6272.417626 2957.771445 
L 6294.569274 2593.337946 
L 6316.720921 2833.677397 
L 6338.872568 2487.030958 
L 6361.024216 3128.889246 
L 6383.175863 2782.487764 
L 6405.327511 2873.229478 
L 6427.479158 2675.83634 
L 6449.630806 2723.737442 
L 6471.782453 3037.8607 
L 6493.934101 2996.998232 
L 6516.085748 2793.636355 
L 6538.237396 3251.572082 
L 6560.389043 2806.939009 
L 6582.540691 2852.155117 
L 6604.692338 2917.273021 
L 6626.843986 2949.152539 
L 6648.995633 2789.650269 
L 6671.147281 2867.295719 
L 6693.298928 2971.437811 
L 6715.450576 3016.264727 
L 6737.602223 3426.553218 
L 6759.753871 3330.970371 
L 6781.905518 2982.221791 
L 6804.057166 2717.309949 
L 6826.208813 2677.363526 
L 6848.360461 3040.33865 
L 6870.512108 3066.545661 
L 6892.663755 2966.870108 
L 6914.815403 2781.222531 
L 6936.96705 2938.74614 
L 6959.118698 2960.830652 
L 6981.270345 2861.128849 
L 7003.421993 2754.236404 
L 7025.57364 2899.984576 
L 7047.725288 2618.429832 
L 7069.876935 2754.906105 
L 7092.028583 2972.173151 
L 7114.18023 2765.934384 
L 7136.331878 2678.167022 
L 7158.483525 2922.370644 
L 7180.635173 2627.341529 
L 7202.78682 2731.400059 
L 7224.938468 2576.720184 
L 7247.090115 3332.389624 
L 7269.241763 2545.66329 
L 7291.39341 3096.48202 
L 7313.545058 2671.428429 
L 7335.696705 2950.288199 
L 7357.848353 2967.25951 
L 7380 2510.776141 
L 7402.151647 2712.108793 
L 7424.303295 2601.540729 
L 7446.454942 2923.542912 
L 7468.60659 2827.32342 
L 7490.758237 2689.335139 
L 7512.909885 2956.382853 
L 7535.061532 2973.050086 
L 7557.21318 2785.725847 
L 7579.364827 2712.349037 
L 7601.516475 3067.969803 
L 7623.668122 3361.470531 
L 7645.81977 2734.688787 
L 7667.971417 3205.710794 
L 7690.123065 2583.328316 
L 7712.274712 3094.852271 
L 7734.42636 2376.44479 
L 7756.578007 3340.424544 
L 7778.729655 3230.767225 
L 7800.881302 3123.279992 
L 7823.03295 2778.703314 
L 7845.184597 2951.503359 
L 7867.336245 2912.612844 
L 7889.487892 2946.508232 
L 7911.639539 2669.532628 
L 7933.791187 2526.551466 
L 7955.942834 2976.953282 
L 7978.094482 2815.415477 
L 8000.246129 2868.870899 
L 8022.397777 2709.247837 
L 8044.549424 2788.450769 
L 8066.701072 2922.151567 
L 8088.852719 3180.189743 
L 8111.004367 2975.826165 
L 8133.156014 2958.735532 
L 8155.307662 2698.634109 
L 8177.459309 3042.269284 
L 8199.610957 2617.462676 
L 8221.762604 3034.193454 
L 8243.914252 3310.59281 
L 8266.065899 2972.149442 
L 8288.217547 3107.938938 
L 8310.369194 2822.949517 
L 8332.520842 2969.277959 
L 8354.672489 2978.127563 
L 8376.824137 3172.614012 
L 8398.975784 2649.612291 
L 8421.127432 2793.05063 
L 8443.279079 3022.308051 
L 8465.430726 2658.334004 
L 8487.582374 2527.662052 
L 8509.734021 3147.790953 
L 8531.885669 3319.635072 
L 8554.037316 2614.596159 
L 8576.188964 3329.761463 
L 8598.340611 2991.778532 
L 8620.492259 2645.116334 
L 8642.643906 2960.930333 
L 8664.795554 3027.282982 
L 8686.947201 2710.956163 
L 8709.098849 2850.054246 
L 8731.250496 2684.563608 
L 8753.402144 3106.197064 
L 8775.553791 2990.568398 
L 8797.705439 2976.278929 
L 8819.857086 3259.512959 
L 8842.008734 2944.229359 
L 8864.160381 3008.992445 
L 8886.312029 2819.938432 
L 8908.463676 2795.515569 
L 8930.615324 2741.026285 
L 8952.766971 2857.137099 
L 8974.918618 3037.134372 
L 8997.070266 2856.146594 
L 9019.221913 2856.964375 
L 9041.373561 3259.748823 
L 9063.525208 2822.816867 
L 9085.676856 3441.333775 
L 9107.828503 2704.807501 
L 9129.980151 3061.546716 
L 9152.131798 2950.817429 
L 9174.283446 2451.78583 
L 9196.435093 2847.794549 
L 9218.586741 2623.165336 
L 9240.738388 3026.36765 
L 9262.890036 2923.858747 
L 9285.041683 3040.973806 
L 9307.193331 2828.928327 
L 9329.344978 2994.07031 
L 9351.496626 2956.222197 
L 9373.648273 2618.686187 
L 9395.799921 2962.419193 
L 9417.951568 3233.514907 
L 9440.103216 2760.325559 
L 9462.254863 2849.293423 
L 9484.406511 2547.894756 
L 9506.558158 2984.242222 
L 9528.709805 3228.983637 
L 9550.861453 3043.002717 
L 9573.0131 2722.992076 
L 9595.164748 2650.737787 
L 9617.316395 2829.620524 
L 9639.468043 2593.747501 
L 9661.61969 3241.668228 
L 9683.771338 3156.524615 
L 9705.922985 3222.690959 
L 9728.074633 3034.494169 
L 9750.22628 2731.683165 
L 9772.377928 2744.529476 
L 9794.529575 2937.192193 
L 9816.681223 2644.239563 
L 9838.83287 3088.650458 
L 9860.984518 2992.298649 
L 9883.136165 2739.706515 
L 9905.287813 3009.46567 
L 9927.43946 2678.676649 
L 9949.591108 2837.943338 
L 9971.742755 2914.022494 
L 9993.894403 2914.762761 
L 10016.04605 2969.21388 
L 10038.197697 3198.226399 
L 10060.349345 2720.887236 
L 10082.500992 2857.964973 
L 10104.65264 2864.723245 
L 10126.804287 3030.729147 
L 10148.955935 3121.805449 
L 10171.107582 2889.574548 
L 10193.25923 3166.252676 
L 10215.410877 3033.706012 
L 10237.562525 2684.722933 
L 10259.714172 3233.747358 
L 10281.86582 3077.604673 
L 10304.017467 3034.442125 
L 10326.169115 2643.141312 
L 10348.320762 3090.955521 
L 10370.47241 2991.079167 
L 10392.624057 2774.621141 
L 10414.775705 2917.390627 
L 10436.927352 2902.942445 
L 10459.079 3454.846413 
L 10481.230647 2897.168854 
L 10503.382295 2938.969431 
L 10525.533942 2878.194715 
L 10547.68559 3318.337775 
L 10569.837237 3220.793034 
L 10591.988884 3229.441692 
L 10614.140532 2414.402531 
L 10636.292179 2484.84956 
L 10658.443827 2789.305749 
L 10680.595474 3209.535896 
L 10702.747122 2891.05079 
L 10724.898769 2948.982008 
L 10747.050417 3092.580014 
L 10769.202064 2659.056565 
L 10791.353712 3118.838418 
L 10813.505359 3294.44614 
L 10835.657007 2891.909819 
L 10857.808654 2761.097529 
L 10879.960302 2664.710951 
L 10902.111949 2623.377427 
L 10924.263597 3036.202993 
L 10946.415244 2517.097731 
L 10968.566892 3037.896058 
L 10990.718539 3241.579768 
L 11012.870187 2742.160228 
L 11035.021834 2859.847229 
L 11057.173482 2733.422899 
L 11079.325129 2683.014416 
L 11101.476776 2679.603317 
L 11123.628424 3867.680252 
L 11145.780071 3563.228463 
L 11167.931719 2700.414747 
L 11190.083366 2690.659544 
L 11212.235014 2638.173255 
L 11234.386661 3004.726461 
L 11256.538309 3100.119952 
L 11278.689956 2854.000886 
L 11300.841604 3150.811974 
L 11322.993251 2633.269136 
L 11345.144899 2840.98393 
L 11367.296546 2746.808732 
L 11389.448194 2889.968141 
L 11411.599841 2489.285097 
L 11433.751489 2734.903102 
L 11455.903136 2590.917422 
L 11478.054784 3134.368117 
L 11500.206431 2557.624546 
L 11522.358079 2735.052622 
L 11544.509726 2890.696856 
L 11566.661374 2739.610946 
L 11588.813021 2688.438293 
L 11610.964669 3176.040986 
L 11633.116316 2779.982296 
L 11655.267963 2526.945261 
L 11677.419611 2580.340664 
L 11699.571258 2724.434154 
L 11721.722906 3195.498337 
L 11743.874553 2590.69537 
L 11766.026201 2356.53979 
L 11788.177848 3001.522508 
L 11810.329496 2802.777692 
L 11832.481143 2777.002306 
L 11854.632791 3161.515689 
L 11876.784438 2965.88703 
L 11898.936086 2679.911688 
L 11921.087733 2555.630011 
L 11943.239381 2798.652393 
L 11965.391028 3129.330842 
L 11987.542676 2774.561769 
L 12009.694323 3010.828697 
L 12031.845971 2890.428786 
L 12053.997618 2938.625735 
L 12076.149266 2720.883985 
L 12098.300913 2565.131414 
L 12120.452561 2712.163235 
L 12142.604208 2967.860748 
L 12164.755855 2757.838288 
L 12186.907503 3124.149347 
L 12209.05915 2900.56308 
L 12231.210798 2542.178954 
L 12253.362445 2727.353373 
L 12275.514093 2674.569847 
L 12297.66574 2907.614791 
L 12319.817388 2889.444584 
L 12341.969035 2616.369247 
L 12364.120683 3016.629471 
L 12386.27233 3005.052879 
L 12408.423978 2938.129919 
L 12430.575625 2691.342854 
L 12452.727273 2518.175404 
L 12452.727273 2518.175404 
" clip-path="url(#p670c02e692)" style="fill: none; stroke-dasharray: 9.6,2.4,1.5,2.4; stroke-dashoffset: 0; stroke: #008000; stroke-width: 1.5"/>
   </g>
   <g id="line2d_28">
    <path d="M 2307.272727 4303.954452 
L 2329.424375 4261.860628 
L 2772.457324 4261.860628 
L 2794.608972 3952.363385 
L 2816.760619 3708.495013 
L 2883.215562 3708.495013 
L 2905.367209 3673.842917 
L 2927.518857 3662.271697 
L 2949.670504 3603.639179 
L 2971.822152 3569.439552 
L 2993.973799 3569.439552 
L 3016.125447 3555.34315 
L 3060.428742 3555.34315 
L 3082.580389 3492.475984 
L 3104.732037 3433.834689 
L 3215.490274 3433.834689 
L 3237.641921 3407.625576 
L 3304.096864 3407.625576 
L 3326.248511 3399.868211 
L 3680.674871 3399.868211 
L 3702.826518 3398.975167 
L 5607.868202 3398.975167 
L 5630.019849 3397.666923 
L 5873.687971 3397.666923 
L 5895.839619 3396.486974 
L 5917.991266 3396.486974 
L 5940.142914 3385.465879 
L 10813.505359 3385.465879 
L 10835.657007 3378.52303 
L 12076.149266 3378.52303 
L 12098.300913 3373.233663 
L 12430.575625 3373.233663 
L 12452.727273 3318.280433 
L 12452.727273 3318.280433 
" clip-path="url(#p670c02e692)" style="fill: none; stroke: #ff0000; stroke-width: 1.5; stroke-linecap: square"/>
   </g>
   <g id="patch_3">
    <path d="M 1800 12816 
L 1800 1728 
" style="fill: none; stroke: #000000; stroke-width: 0.8; stroke-linejoin: miter; stroke-linecap: square"/>
   </g>
   <g id="patch_4">
    <path d="M 12960 12816 
L 12960 1728 
" style="fill: none; stroke: #000000; stroke-width: 0.8; stroke-linejoin: miter; stroke-linecap: square"/>
   </g>
   <g id="patch_5">
    <path d="M 1800 12816 
L 12960 12816 
" style="fill: none; stroke: #000000; stroke-width: 0.8; stroke-linejoin: miter; stroke-linecap: square"/>
   </g>
   <g id="patch_6">
    <path d="M 1800 1728 
L 12960 1728 
" style="fill: none; stroke: #000000; stroke-width: 0.8; stroke-linejoin: miter; stroke-linecap: square"/>
   </g>
   <g id="text_15">
    <!-- Population's average and best fitness -->
    <g transform="translate(7267.369687 1722) scale(0.12 -0.12)">
     <defs>
      <path id="DejaVuSans-50" d="M 1259 4147 
L 1259 2394 
L 2053 2394 
Q 2494 2394 2734 2622 
Q 2975 2850 2975 3272 
Q 2975 3691 2734 3919 
Q 2494 4147 2053 4147 
L 1259 4147 
z
M 628 4666 
L 2053 4666 
Q 2838 4666 3239 4311 
Q 3641 3956 3641 3272 
Q 3641 2581 3239 2228 
Q 2838 1875 2053 1875 
L 1259 1875 
L 1259 0 
L 628 0 
L 628 4666 
z
" transform="scale(0.015625)"/>
      <path id="DejaVuSans-70" d="M 1159 525 
L 1159 -1331 
L 581 -1331 
L 581 3500 
L 1159 3500 
L 1159 2969 
Q 1341 3281 1617 3432 
Q 1894 3584 2278 3584 
Q 2916 3584 3314 3078 
Q 3713 2572 3713 1747 
Q 3713 922 3314 415 
Q 2916 -91 2278 -91 
Q 1894 -91 1617 61 
Q 1341 213 1159 525 
z
M 3116 1747 
Q 3116 2381 2855 2742 
Q 2594 3103 2138 3103 
Q 1681 3103 1420 2742 
Q 1159 2381 1159 1747 
Q 1159 1113 1420 752 
Q 1681 391 2138 391 
Q 2594 391 2855 752 
Q 3116 1113 3116 1747 
z
" transform="scale(0.015625)"/>
      <path id="DejaVuSans-75" d="M 544 1381 
L 544 3500 
L 1119 3500 
L 1119 1403 
Q 1119 906 1312 657 
Q 1506 409 1894 409 
Q 2359 409 2629 706 
Q 2900 1003 2900 1516 
L 2900 3500 
L 3475 3500 
L 3475 0 
L 2900 0 
L 2900 538 
Q 2691 219 2414 64 
Q 2138 -91 1772 -91 
Q 1169 -91 856 284 
Q 544 659 544 1381 
z
M 1991 3584 
L 1991 3584 
z
" transform="scale(0.015625)"/>
      <path id="DejaVuSans-6c" d="M 603 4863 
L 1178 4863 
L 1178 0 
L 603 0 
L 603 4863 
z
" transform="scale(0.015625)"/>
      <path id="DejaVuSans-27" d="M 1147 4666 
L 1147 2931 
L 616 2931 
L 616 4666 
L 1147 4666 
z
" transform="scale(0.015625)"/>
      <path id="DejaVuSans-20" transform="scale(0.015625)"/>
      <path id="DejaVuSans-76" d="M 191 3500 
L 800 3500 
L 1894 563 
L 2988 3500 
L 3597 3500 
L 2284 0 
L 1503 0 
L 191 3500 
z
" transform="scale(0.015625)"/>
      <path id="DejaVuSans-67" d="M 2906 1791 
Q 2906 2416 2648 2759 
Q 2391 3103 1925 3103 
Q 1463 3103 1205 2759 
Q 947 2416 947 1791 
Q 947 1169 1205 825 
Q 1463 481 1925 481 
Q 2391 481 2648 825 
Q 2906 1169 2906 1791 
z
M 3481 434 
Q 3481 -459 3084 -895 
Q 2688 -1331 1869 -1331 
Q 1566 -1331 1297 -1286 
Q 1028 -1241 775 -1147 
L 775 -588 
Q 1028 -725 1275 -790 
Q 1522 -856 1778 -856 
Q 2344 -856 2625 -561 
Q 2906 -266 2906 331 
L 2906 616 
Q 2728 306 2450 153 
Q 2172 0 1784 0 
Q 1141 0 747 490 
Q 353 981 353 1791 
Q 353 2603 747 3093 
Q 1141 3584 1784 3584 
Q 2172 3584 2450 3431 
Q 2728 3278 2906 2969 
L 2906 3500 
L 3481 3500 
L 3481 434 
z
" transform="scale(0.015625)"/>
      <path id="DejaVuSans-64" d="M 2906 2969 
L 2906 4863 
L 3481 4863 
L 3481 0 
L 2906 0 
L 2906 525 
Q 2725 213 2448 61 
Q 2172 -91 1784 -91 
Q 1150 -91 751 415 
Q 353 922 353 1747 
Q 353 2572 751 3078 
Q 1150 3584 1784 3584 
Q 2172 3584 2448 3432 
Q 2725 3281 2906 2969 
z
M 947 1747 
Q 947 1113 1208 752 
Q 1469 391 1925 391 
Q 2381 391 2643 752 
Q 2906 1113 2906 1747 
Q 2906 2381 2643 2742 
Q 2381 3103 1925 3103 
Q 1469 3103 1208 2742 
Q 947 2381 947 1747 
z
" transform="scale(0.015625)"/>
      <path id="DejaVuSans-62" d="M 3116 1747 
Q 3116 2381 2855 2742 
Q 2594 3103 2138 3103 
Q 1681 3103 1420 2742 
Q 1159 2381 1159 1747 
Q 1159 1113 1420 752 
Q 1681 391 2138 391 
Q 2594 391 2855 752 
Q 3116 1113 3116 1747 
z
M 1159 2969 
Q 1341 3281 1617 3432 
Q 1894 3584 2278 3584 
Q 2916 3584 3314 3078 
Q 3713 2572 3713 1747 
Q 3713 922 3314 415 
Q 2916 -91 2278 -91 
Q 1894 -91 1617 61 
Q 1341 213 1159 525 
L 1159 0 
L 581 0 
L 581 4863 
L 1159 4863 
L 1159 2969 
z
" transform="scale(0.015625)"/>
      <path id="DejaVuSans-66" d="M 2375 4863 
L 2375 4384 
L 1825 4384 
Q 1516 4384 1395 4259 
Q 1275 4134 1275 3809 
L 1275 3500 
L 2222 3500 
L 2222 3053 
L 1275 3053 
L 1275 0 
L 697 0 
L 697 3053 
L 147 3053 
L 147 3500 
L 697 3500 
L 697 3744 
Q 697 4328 969 4595 
Q 1241 4863 1831 4863 
L 2375 4863 
z
" transform="scale(0.015625)"/>
     </defs>
     <use xlink:href="#DejaVuSans-50"/>
     <use xlink:href="#DejaVuSans-6f" x="56.677734"/>
     <use xlink:href="#DejaVuSans-70" x="117.859375"/>
     <use xlink:href="#DejaVuSans-75" x="181.335938"/>
     <use xlink:href="#DejaVuSans-6c" x="244.714844"/>
     <use xlink:href="#DejaVuSans-61" x="272.498047"/>
     <use xlink:href="#DejaVuSans-74" x="333.777344"/>
     <use xlink:href="#DejaVuSans-69" x="372.986328"/>
     <use xlink:href="#DejaVuSans-6f" x="400.769531"/>
     <use xlink:href="#DejaVuSans-6e" x="461.951172"/>
     <use xlink:href="#DejaVuSans-27" x="525.330078"/>
     <use xlink:href="#DejaVuSans-73" x="552.820312"/>
     <use xlink:href="#DejaVuSans-20" x="604.919922"/>
     <use xlink:href="#DejaVuSans-61" x="636.707031"/>
     <use xlink:href="#DejaVuSans-76" x="697.986328"/>
     <use xlink:href="#DejaVuSans-65" x="757.166016"/>
     <use xlink:href="#DejaVuSans-72" x="818.689453"/>
     <use xlink:href="#DejaVuSans-61" x="859.802734"/>
     <use xlink:href="#DejaVuSans-67" x="921.082031"/>
     <use xlink:href="#DejaVuSans-65" x="984.558594"/>
     <use xlink:href="#DejaVuSans-20" x="1046.082031"/>
     <use xlink:href="#DejaVuSans-61" x="1077.869141"/>
     <use xlink:href="#DejaVuSans-6e" x="1139.148438"/>
     <use xlink:href="#DejaVuSans-64" x="1202.527344"/>
     <use xlink:href="#DejaVuSans-20" x="1266.003906"/>
     <use xlink:href="#DejaVuSans-62" x="1297.791016"/>
     <use xlink:href="#DejaVuSans-65" x="1361.267578"/>
     <use xlink:href="#DejaVuSans-73" x="1422.791016"/>
     <use xlink:href="#DejaVuSans-74" x="1474.890625"/>
     <use xlink:href="#DejaVuSans-20" x="1514.099609"/>
     <use xlink:href="#DejaVuSans-66" x="1545.886719"/>
     <use xlink:href="#DejaVuSans-69" x="1581.091797"/>
     <use xlink:href="#DejaVuSans-74" x="1608.875"/>
     <use xlink:href="#DejaVuSans-6e" x="1648.083984"/>
     <use xlink:href="#DejaVuSans-65" x="1711.462891"/>
     <use xlink:href="#DejaVuSans-73" x="1772.986328"/>
     <use xlink:href="#DejaVuSans-73" x="1825.085938"/>
    </g>
   </g>
   <g id="legend_1">
    <g id="patch_7">
     <path d="M 12880.059375 1794.7125 
L 12953 1794.7125 
Q 12955 1794.7125 12955 1792.7125 
L 12955 1735 
Q 12955 1733 12953 1733 
L 12880.059375 1733 
Q 12878.059375 1733 12878.059375 1735 
L 12878.059375 1792.7125 
Q 12878.059375 1794.7125 12880.059375 1794.7125 
z
" style="fill: #ffffff; opacity: 0.8; stroke: #cccccc; stroke-linejoin: miter"/>
    </g>
    <g id="line2d_29">
     <path d="M 12882.059375 1741.098437 
L 12892.059375 1741.098437 
L 12902.059375 1741.098437 
" style="fill: none; stroke: #0000ff; stroke-width: 1.5; stroke-linecap: square"/>
    </g>
    <g id="text_16">
     <!-- average -->
     <g transform="translate(12910.059375 1744.598437) scale(0.1 -0.1)">
      <use xlink:href="#DejaVuSans-61"/>
      <use xlink:href="#DejaVuSans-76" x="61.279297"/>
      <use xlink:href="#DejaVuSans-65" x="120.458984"/>
      <use xlink:href="#DejaVuSans-72" x="181.982422"/>
      <use xlink:href="#DejaVuSans-61" x="223.095703"/>
      <use xlink:href="#DejaVuSans-67" x="284.375"/>
      <use xlink:href="#DejaVuSans-65" x="347.851562"/>
     </g>
    </g>
    <g id="line2d_30">
     <path d="M 12882.059375 1755.776562 
L 12892.059375 1755.776562 
L 12902.059375 1755.776562 
" style="fill: none; stroke-dasharray: 9.6,2.4,1.5,2.4; stroke-dashoffset: 0; stroke: #008000; stroke-width: 1.5"/>
    </g>
    <g id="text_17">
     <!-- -1 sd -->
     <g transform="translate(12910.059375 1759.276562) scale(0.1 -0.1)">
      <defs>
       <path id="DejaVuSans-2d" d="M 313 2009 
L 1997 2009 
L 1997 1497 
L 313 1497 
L 313 2009 
z
" transform="scale(0.015625)"/>
      </defs>
      <use xlink:href="#DejaVuSans-2d"/>
      <use xlink:href="#DejaVuSans-31" x="36.083984"/>
      <use xlink:href="#DejaVuSans-20" x="99.707031"/>
      <use xlink:href="#DejaVuSans-73" x="131.494141"/>
      <use xlink:href="#DejaVuSans-64" x="183.59375"/>
     </g>
    </g>
    <g id="line2d_31">
     <path d="M 12882.059375 1770.454687 
L 12892.059375 1770.454687 
L 12902.059375 1770.454687 
" style="fill: none; stroke-dasharray: 9.6,2.4,1.5,2.4; stroke-dashoffset: 0; stroke: #008000; stroke-width: 1.5"/>
    </g>
    <g id="text_18">
     <!-- +1 sd -->
     <g transform="translate(12910.059375 1773.954687) scale(0.1 -0.1)">
      <defs>
       <path id="DejaVuSans-2b" d="M 2944 4013 
L 2944 2272 
L 4684 2272 
L 4684 1741 
L 2944 1741 
L 2944 0 
L 2419 0 
L 2419 1741 
L 678 1741 
L 678 2272 
L 2419 2272 
L 2419 4013 
L 2944 4013 
z
" transform="scale(0.015625)"/>
      </defs>
      <use xlink:href="#DejaVuSans-2b"/>
      <use xlink:href="#DejaVuSans-31" x="83.789062"/>
      <use xlink:href="#DejaVuSans-20" x="147.412109"/>
      <use xlink:href="#DejaVuSans-73" x="179.199219"/>
      <use xlink:href="#DejaVuSans-64" x="231.298828"/>
     </g>
    </g>
    <g id="line2d_32">
     <path d="M 12882.059375 1785.132812 
L 12892.059375 1785.132812 
L 12902.059375 1785.132812 
" style="fill: none; stroke: #ff0000; stroke-width: 1.5; stroke-linecap: square"/>
    </g>
    <g id="text_19">
     <!-- best -->
     <g transform="translate(12910.059375 1788.632812) scale(0.1 -0.1)">
      <use xlink:href="#DejaVuSans-62"/>
      <use xlink:href="#DejaVuSans-65" x="63.476562"/>
      <use xlink:href="#DejaVuSans-73" x="125"/>
      <use xlink:href="#DejaVuSans-74" x="177.099609"/>
     </g>
    </g>
   </g>
  </g>
 </g>
 <defs>
  <clipPath id="p670c02e692">
   <rect x="1800" y="1728" width="11160" height="11088"/>
  </clipPath>
 </defs>
</svg>
