<?xml version="1.0" encoding="UTF-8" standalone="no"?>
<!DOCTYPE svg PUBLIC "-//W3C//DTD SVG 1.1//EN"
 "http://www.w3.org/Graphics/SVG/1.1/DTD/svg11.dtd">
<!-- Generated by graphviz version 8.0.3 (20230416.2022)
 -->
<!-- Pages: 1 -->
<svg width="368pt" height="92pt"
 viewBox="0.00 0.00 368.00 91.70" xmlns="http://www.w3.org/2000/svg" xmlns:xlink="http://www.w3.org/1999/xlink">
<g id="graph0" class="graph" transform="scale(1 1) rotate(0) translate(4 87.7)">
<polygon fill="white" stroke="none" points="-4,4 -4,-87.7 364,-87.7 364,4 -4,4"/>
<!-- &#45;1 -->
<g id="node1" class="node">
<title>&#45;1</title>
<polygon fill="lightgray" stroke="black" points="150,-83.7 126,-83.7 126,-65.7 150,-65.7 150,-83.7"/>
<text text-anchor="middle" x="138" y="-72.5" font-family="Times New Roman,serif" font-size="9.00">&#45;1</text>
</g>
<!-- 0 -->
<g id="node10" class="node">
<title>0</title>
<ellipse fill="lightblue" stroke="black" cx="156" cy="-14.85" rx="14.7" ry="14.7"/>
<text text-anchor="middle" x="156" y="-12.65" font-family="Times New Roman,serif" font-size="9.00">0</text>
</g>
<!-- &#45;1&#45;&gt;0 -->
<g id="edge1" class="edge">
<title>&#45;1&#45;&gt;0</title>
<path fill="none" stroke="green" stroke-width="0.43" d="M140.5,-65.65C142.68,-58.65 145.95,-48.15 148.92,-38.59"/>
<polygon fill="green" stroke="green" stroke-width="0.43" points="152.23,-39.75 151.86,-29.16 145.55,-37.67 152.23,-39.75"/>
</g>
<!-- 1 -->
<g id="node11" class="node">
<title>1</title>
<ellipse fill="lightblue" stroke="black" cx="204" cy="-14.85" rx="14.7" ry="14.7"/>
<text text-anchor="middle" x="204" y="-12.65" font-family="Times New Roman,serif" font-size="9.00">1</text>
</g>
<!-- &#45;1&#45;&gt;1 -->
<g id="edge2" class="edge">
<title>&#45;1&#45;&gt;1</title>
<path fill="none" stroke="red" stroke-width="0.27" d="M147.46,-65.41C157.49,-56.61 173.59,-42.5 186.05,-31.58"/>
<polygon fill="red" stroke="red" stroke-width="0.27" points="188.03,-34.5 193.25,-25.27 183.42,-29.23 188.03,-34.5"/>
</g>
<!-- &#45;2 -->
<g id="node2" class="node">
<title>&#45;2</title>
<polygon fill="lightgray" stroke="black" points="192,-83.7 168,-83.7 168,-65.7 192,-65.7 192,-83.7"/>
<text text-anchor="middle" x="180" y="-72.5" font-family="Times New Roman,serif" font-size="9.00">&#45;2</text>
</g>
<!-- &#45;2&#45;&gt;0 -->
<g id="edge3" class="edge">
<title>&#45;2&#45;&gt;0</title>
<path fill="none" stroke="red" stroke-width="0.1" d="M176.66,-65.65C173.69,-58.48 169.19,-47.64 165.15,-37.91"/>
<polygon fill="red" stroke="red" stroke-width="0.1" points="168.4,-36.61 161.34,-28.71 161.94,-39.29 168.4,-36.61"/>
</g>
<!-- &#45;2&#45;&gt;1 -->
<g id="edge4" class="edge">
<title>&#45;2&#45;&gt;1</title>
<path fill="none" stroke="green" stroke-width="0.21" d="M183.34,-65.65C186.31,-58.48 190.81,-47.64 194.85,-37.91"/>
<polygon fill="green" stroke="green" stroke-width="0.21" points="198.06,-39.29 198.66,-28.71 191.6,-36.61 198.06,-39.29"/>
</g>
<!-- &#45;3 -->
<g id="node3" class="node">
<title>&#45;3</title>
<polygon fill="lightgray" stroke="black" points="234,-83.7 210,-83.7 210,-65.7 234,-65.7 234,-83.7"/>
<text text-anchor="middle" x="222" y="-72.5" font-family="Times New Roman,serif" font-size="9.00">&#45;3</text>
</g>
<!-- &#45;3&#45;&gt;0 -->
<g id="edge5" class="edge">
<title>&#45;3&#45;&gt;0</title>
<path fill="none" stroke="green" stroke-width="0.2" d="M212.54,-65.41C202.51,-56.61 186.41,-42.5 173.95,-31.58"/>
<polygon fill="green" stroke="green" stroke-width="0.2" points="176.58,-29.23 166.75,-25.27 171.97,-34.5 176.58,-29.23"/>
</g>
<!-- &#45;3&#45;&gt;1 -->
<g id="edge6" class="edge">
<title>&#45;3&#45;&gt;1</title>
<path fill="none" stroke="green" stroke-width="0.54" d="M219.5,-65.65C217.32,-58.65 214.05,-48.15 211.08,-38.59"/>
<polygon fill="green" stroke="green" stroke-width="0.54" points="214.45,-37.67 208.14,-29.16 207.77,-39.75 214.45,-37.67"/>
</g>
<!-- &#45;4 -->
<g id="node4" class="node">
<title>&#45;4</title>
<polygon fill="lightgray" stroke="black" points="276,-83.7 252,-83.7 252,-65.7 276,-65.7 276,-83.7"/>
<text text-anchor="middle" x="264" y="-72.5" font-family="Times New Roman,serif" font-size="9.00">&#45;4</text>
</g>
<!-- &#45;4&#45;&gt;0 -->
<g id="edge7" class="edge">
<title>&#45;4&#45;&gt;0</title>
<path fill="none" stroke="green" stroke-width="0.3" d="M251.67,-67.44C235.23,-59.05 205.24,-43.59 180,-29.7 178.91,-29.1 177.79,-28.48 176.67,-27.85"/>
<polygon fill="green" stroke="green" stroke-width="0.3" points="178.58,-24.91 168.15,-22.99 175.11,-30.99 178.58,-24.91"/>
</g>
<!-- &#45;4&#45;&gt;1 -->
<g id="edge8" class="edge">
<title>&#45;4&#45;&gt;1</title>
<path fill="none" stroke="red" stroke-width="0.24" d="M255.4,-65.41C246.56,-56.88 232.53,-43.36 221.36,-32.59"/>
<polygon fill="red" stroke="red" stroke-width="0.24" points="223.81,-30.09 214.19,-25.67 218.96,-35.13 223.81,-30.09"/>
</g>
<!-- &#45;5 -->
<g id="node5" class="node">
<title>&#45;5</title>
<polygon fill="lightgray" stroke="black" points="318,-83.7 294,-83.7 294,-65.7 318,-65.7 318,-83.7"/>
<text text-anchor="middle" x="306" y="-72.5" font-family="Times New Roman,serif" font-size="9.00">&#45;5</text>
</g>
<!-- &#45;5&#45;&gt;0 -->
<g id="edge9" class="edge">
<title>&#45;5&#45;&gt;0</title>
<path fill="none" stroke="green" stroke-width="0.25" d="M293.59,-68.89C290.77,-67.82 287.79,-66.71 285,-65.7 238.61,-48.91 224.91,-50.12 180,-29.7 178.87,-29.18 177.72,-28.63 176.57,-28.05"/>
<polygon fill="green" stroke="green" stroke-width="0.25" points="178.42,-25.08 167.97,-23.36 175.07,-31.22 178.42,-25.08"/>
</g>
<!-- &#45;5&#45;&gt;1 -->
<g id="edge10" class="edge">
<title>&#45;5&#45;&gt;1</title>
<path fill="none" stroke="red" stroke-width="0.14" d="M293.9,-66.84C276.98,-57.24 246.01,-39.67 225.21,-27.88"/>
<polygon fill="red" stroke="red" stroke-width="0.14" points="227.15,-24.96 216.72,-23.07 223.7,-31.04 227.15,-24.96"/>
</g>
<!-- &#45;6 -->
<g id="node6" class="node">
<title>&#45;6</title>
<polygon fill="lightgray" stroke="black" points="360,-83.7 336,-83.7 336,-65.7 360,-65.7 360,-83.7"/>
<text text-anchor="middle" x="348" y="-72.5" font-family="Times New Roman,serif" font-size="9.00">&#45;6</text>
</g>
<!-- &#45;6&#45;&gt;0 -->
<g id="edge11" class="edge">
<title>&#45;6&#45;&gt;0</title>
<path fill="none" stroke="green" stroke-width="0.19" d="M335.65,-68.7C332.83,-67.64 329.83,-66.58 327,-65.7 262.78,-45.69 242.42,-54.76 180,-29.7 178.84,-29.23 177.68,-28.72 176.51,-28.18"/>
<polygon fill="green" stroke="green" stroke-width="0.19" points="178.35,-25.19 167.87,-23.59 175.06,-31.37 178.35,-25.19"/>
</g>
<!-- &#45;6&#45;&gt;1 -->
<g id="edge12" class="edge">
<title>&#45;6&#45;&gt;1</title>
<path fill="none" stroke="green" stroke-width="0.18" d="M335.72,-68.77C311.54,-59.05 257.43,-37.31 226.61,-24.93"/>
<polygon fill="green" stroke="green" stroke-width="0.18" points="228.08,-21.75 217.49,-21.27 225.47,-28.25 228.08,-21.75"/>
</g>
<!-- &#45;7 -->
<g id="node7" class="node">
<title>&#45;7</title>
<polygon fill="lightgray" stroke="black" points="24,-83.7 0,-83.7 0,-65.7 24,-65.7 24,-83.7"/>
<text text-anchor="middle" x="12" y="-72.5" font-family="Times New Roman,serif" font-size="9.00">&#45;7</text>
</g>
<!-- &#45;7&#45;&gt;0 -->
<g id="edge13" class="edge">
<title>&#45;7&#45;&gt;0</title>
<path fill="none" stroke="red" stroke-width="0.23" d="M24.28,-68.77C48.46,-59.05 102.57,-37.31 133.39,-24.93"/>
<polygon fill="red" stroke="red" stroke-width="0.23" points="134.53,-28.25 142.51,-21.27 131.92,-21.75 134.53,-28.25"/>
</g>
<!-- &#45;7&#45;&gt;1 -->
<g id="edge14" class="edge">
<title>&#45;7&#45;&gt;1</title>
<path fill="none" stroke="green" stroke-width="0.22" d="M24.35,-68.7C27.17,-67.64 30.17,-66.58 33,-65.7 97.22,-45.69 117.58,-54.76 180,-29.7 181.16,-29.23 182.32,-28.72 183.49,-28.18"/>
<polygon fill="green" stroke="green" stroke-width="0.22" points="184.94,-31.37 192.13,-23.59 181.65,-25.19 184.94,-31.37"/>
</g>
<!-- &#45;8 -->
<g id="node8" class="node">
<title>&#45;8</title>
<polygon fill="lightgray" stroke="black" points="66,-83.7 42,-83.7 42,-65.7 66,-65.7 66,-83.7"/>
<text text-anchor="middle" x="54" y="-72.5" font-family="Times New Roman,serif" font-size="9.00">&#45;8</text>
</g>
<!-- &#45;8&#45;&gt;0 -->
<g id="edge15" class="edge">
<title>&#45;8&#45;&gt;0</title>
<path fill="none" stroke="green" stroke-width="0.16" d="M66.1,-66.84C83.02,-57.24 113.99,-39.67 134.79,-27.88"/>
<polygon fill="green" stroke="green" stroke-width="0.16" points="136.3,-31.04 143.28,-23.07 132.85,-24.96 136.3,-31.04"/>
</g>
<!-- &#45;8&#45;&gt;1 -->
<g id="edge16" class="edge">
<title>&#45;8&#45;&gt;1</title>
<path fill="none" stroke="red" stroke-width="0.43" d="M66.41,-68.89C69.23,-67.82 72.21,-66.71 75,-65.7 121.39,-48.91 135.09,-50.12 180,-29.7 181.13,-29.18 182.28,-28.63 183.43,-28.05"/>
<polygon fill="red" stroke="red" stroke-width="0.43" points="184.93,-31.22 192.03,-23.36 181.58,-25.08 184.93,-31.22"/>
</g>
<!-- &#45;9 -->
<g id="node9" class="node">
<title>&#45;9</title>
<polygon fill="lightgray" stroke="black" points="108,-83.7 84,-83.7 84,-65.7 108,-65.7 108,-83.7"/>
<text text-anchor="middle" x="96" y="-72.5" font-family="Times New Roman,serif" font-size="9.00">&#45;9</text>
</g>
<!-- &#45;9&#45;&gt;0 -->
<g id="edge17" class="edge">
<title>&#45;9&#45;&gt;0</title>
<path fill="none" stroke="green" stroke-width="0.24" d="M104.6,-65.41C113.44,-56.88 127.47,-43.36 138.64,-32.59"/>
<polygon fill="green" stroke="green" stroke-width="0.24" points="141.04,-35.13 145.81,-25.67 136.19,-30.09 141.04,-35.13"/>
</g>
<!-- &#45;9&#45;&gt;1 -->
<g id="edge18" class="edge">
<title>&#45;9&#45;&gt;1</title>
<path fill="none" stroke="red" stroke-width="0.11" d="M108.33,-67.44C124.77,-59.05 154.76,-43.59 180,-29.7 181.09,-29.1 182.21,-28.48 183.33,-27.85"/>
<polygon fill="red" stroke="red" stroke-width="0.11" points="184.89,-30.99 191.85,-22.99 181.42,-24.91 184.89,-30.99"/>
</g>
</g>
</svg>
