<?xml version="1.0" encoding="UTF-8" standalone="no"?>
<!DOCTYPE svg PUBLIC "-//W3C//DTD SVG 1.1//EN"
 "http://www.w3.org/Graphics/SVG/1.1/DTD/svg11.dtd">
<!-- Generated by graphviz version 8.0.3 (20230416.2022)
 -->
<!-- Pages: 1 -->
<svg width="940pt" height="420pt"
 viewBox="0.00 0.00 939.54 419.55" xmlns="http://www.w3.org/2000/svg" xmlns:xlink="http://www.w3.org/1999/xlink">
<g id="graph0" class="graph" transform="scale(1 1) rotate(0) translate(4 415.55)">
<polygon fill="white" stroke="none" points="-4,4 -4,-415.55 935.54,-415.55 935.54,4 -4,4"/>
<!-- &#45;1 -->
<g id="node1" class="node">
<title>&#45;1</title>
<polygon fill="lightgray" stroke="black" points="370.83,-341.8 346.83,-341.8 346.83,-323.8 370.83,-323.8 370.83,-341.8"/>
<text text-anchor="middle" x="358.83" y="-330.6" font-family="Times New Roman,serif" font-size="9.00">&#45;1</text>
</g>
<!-- 293 -->
<g id="node12" class="node">
<title>293</title>
<ellipse fill="white" stroke="black" cx="278.83" cy="-165.34" rx="21.43" ry="21.43"/>
<text text-anchor="middle" x="278.83" y="-163.14" font-family="Times New Roman,serif" font-size="9.00">293</text>
</g>
<!-- &#45;1&#45;&gt;293 -->
<g id="edge1" class="edge">
<title>&#45;1&#45;&gt;293</title>
<path fill="none" stroke="red" stroke-width="0.4" stroke-dasharray="1,5" d="M354.75,-323.36C343.32,-299.71 310.56,-231.96 292.02,-193.63"/>
<polygon fill="red" stroke="red" stroke-width="0.4" points="295.36,-192.49 287.86,-185.01 289.06,-195.54 295.36,-192.49"/>
</g>
<!-- 294 -->
<g id="node13" class="node">
<title>294</title>
<ellipse fill="white" stroke="black" cx="327.83" cy="-86.91" rx="21.43" ry="21.43"/>
<text text-anchor="middle" x="327.83" y="-84.71" font-family="Times New Roman,serif" font-size="9.00">294</text>
</g>
<!-- &#45;1&#45;&gt;294 -->
<g id="edge44" class="edge">
<title>&#45;1&#45;&gt;294</title>
<path fill="none" stroke="red" stroke-width="0.38" d="M358.54,-323.51C357.5,-297.13 353.43,-212.84 341.83,-144.12 340.36,-135.43 338.26,-126.09 336.13,-117.58"/>
<polygon fill="red" stroke="red" stroke-width="0.38" points="339.55,-116.84 333.64,-108.05 332.78,-118.61 339.55,-116.84"/>
</g>
<!-- 295 -->
<g id="node14" class="node">
<title>295</title>
<ellipse fill="white" stroke="black" cx="240.83" cy="-247.3" rx="21.43" ry="21.43"/>
<text text-anchor="middle" x="240.83" y="-245.1" font-family="Times New Roman,serif" font-size="9.00">295</text>
</g>
<!-- &#45;1&#45;&gt;295 -->
<g id="edge2" class="edge">
<title>&#45;1&#45;&gt;295</title>
<path fill="none" stroke="red" stroke-width="0.48" d="M352.78,-323.72C348.86,-318.82 343.45,-312.65 337.83,-308.05 313.18,-287.85 302.81,-289 275.83,-272.05 272.73,-270.1 269.5,-268 266.32,-265.9"/>
<polygon fill="red" stroke="red" stroke-width="0.48" points="268.37,-263.06 258.12,-260.38 264.46,-268.87 268.37,-263.06"/>
</g>
<!-- &#45;2 -->
<g id="node2" class="node">
<title>&#45;2</title>
<polygon fill="lightgray" stroke="black" points="94.83,-341.8 70.83,-341.8 70.83,-323.8 94.83,-323.8 94.83,-341.8"/>
<text text-anchor="middle" x="82.83" y="-330.6" font-family="Times New Roman,serif" font-size="9.00">&#45;2</text>
</g>
<!-- &#45;2&#45;&gt;293 -->
<g id="edge3" class="edge">
<title>&#45;2&#45;&gt;293</title>
<path fill="none" stroke="red" stroke-width="0.19" d="M78.81,-323.34C69.99,-303.46 51.55,-253.11 74.83,-222.55 95.75,-195.09 195.93,-177.65 247.7,-170.32"/>
<polygon fill="red" stroke="red" stroke-width="0.19" points="247.94,-173.82 257.37,-168.99 246.99,-166.88 247.94,-173.82"/>
</g>
<!-- &#45;2&#45;&gt;294 -->
<g id="edge4" class="edge">
<title>&#45;2&#45;&gt;294</title>
<path fill="none" stroke="green" stroke-width="0.24" stroke-dasharray="1,5" d="M77.38,-323.5C65.57,-304.35 40.19,-256.19 59.83,-222.55 110.72,-135.42 238.13,-103.05 297.06,-92.46"/>
<polygon fill="green" stroke="green" stroke-width="0.24" points="297.3,-95.97 306.57,-90.84 296.12,-89.07 297.3,-95.97"/>
</g>
<!-- &#45;2&#45;&gt;295 -->
<g id="edge5" class="edge">
<title>&#45;2&#45;&gt;295</title>
<path fill="none" stroke="green" stroke-width="0.13" d="M95.23,-325.25C120.54,-311.87 178.68,-281.14 213.35,-262.82"/>
<polygon fill="green" stroke="green" stroke-width="0.13" points="214.84,-266 222.04,-258.23 211.57,-259.81 214.84,-266"/>
</g>
<!-- 297 -->
<g id="node16" class="node">
<title>297</title>
<ellipse fill="white" stroke="black" cx="104.83" cy="-247.3" rx="21.43" ry="21.43"/>
<text text-anchor="middle" x="104.83" y="-245.1" font-family="Times New Roman,serif" font-size="9.00">297</text>
</g>
<!-- &#45;2&#45;&gt;297 -->
<g id="edge6" class="edge">
<title>&#45;2&#45;&gt;297</title>
<path fill="none" stroke="red" stroke-width="0.46" d="M85.02,-323.49C87.79,-312.97 92.72,-294.27 96.97,-278.15"/>
<polygon fill="red" stroke="red" stroke-width="0.46" points="100.33,-279.11 99.5,-268.55 93.56,-277.32 100.33,-279.11"/>
</g>
<!-- &#45;3 -->
<g id="node3" class="node">
<title>&#45;3</title>
<polygon fill="lightgray" stroke="black" points="464.83,-341.8 440.83,-341.8 440.83,-323.8 464.83,-323.8 464.83,-341.8"/>
<text text-anchor="middle" x="452.83" y="-330.6" font-family="Times New Roman,serif" font-size="9.00">&#45;3</text>
</g>
<!-- &#45;3&#45;&gt;293 -->
<g id="edge7" class="edge">
<title>&#45;3&#45;&gt;293</title>
<path fill="none" stroke="red" stroke-width="0.29" stroke-dasharray="1,5" d="M443.96,-323.36C417.73,-298.42 339.95,-224.45 301.23,-187.64"/>
<polygon fill="red" stroke="red" stroke-width="0.29" points="303.7,-185.15 294.04,-180.8 298.87,-190.23 303.7,-185.15"/>
</g>
<!-- &#45;3&#45;&gt;294 -->
<g id="edge8" class="edge">
<title>&#45;3&#45;&gt;294</title>
<path fill="none" stroke="red" stroke-width="0.17" stroke-dasharray="1,5" d="M458.85,-323.54C471.66,-304.89 499.15,-258.34 482.83,-222.55 456.62,-165.05 392.37,-122.62 355.35,-101.96"/>
<polygon fill="red" stroke="red" stroke-width="0.17" points="357.45,-99.13 347,-97.42 354.11,-105.27 357.45,-99.13"/>
</g>
<!-- &#45;3&#45;&gt;295 -->
<g id="edge9" class="edge">
<title>&#45;3&#45;&gt;295</title>
<path fill="none" stroke="red" stroke-width="1.08" d="M440.52,-326.95C407.8,-314.06 318.02,-278.7 270.78,-260.1"/>
<polygon fill="red" stroke="red" stroke-width="1.08" points="272.15,-256.48 261.57,-256.07 269.59,-262.99 272.15,-256.48"/>
</g>
<!-- 299 -->
<g id="node17" class="node">
<title>299</title>
<ellipse fill="white" stroke="black" cx="664.83" cy="-247.3" rx="21.43" ry="21.43"/>
<text text-anchor="middle" x="664.83" y="-245.1" font-family="Times New Roman,serif" font-size="9.00">299</text>
</g>
<!-- &#45;3&#45;&gt;299 -->
<g id="edge10" class="edge">
<title>&#45;3&#45;&gt;299</title>
<path fill="none" stroke="green" stroke-width="0.4" stroke-dasharray="1,5" d="M465.15,-326.95C498.13,-313.96 589.16,-278.1 636.06,-259.63"/>
<polygon fill="green" stroke="green" stroke-width="0.4" points="637.08,-262.99 645.1,-256.07 634.51,-256.48 637.08,-262.99"/>
</g>
<!-- &#45;4 -->
<g id="node4" class="node">
<title>&#45;4</title>
<polygon fill="lightgray" stroke="black" points="626.83,-411.55 602.83,-411.55 602.83,-393.55 626.83,-393.55 626.83,-411.55"/>
<text text-anchor="middle" x="614.83" y="-400.35" font-family="Times New Roman,serif" font-size="9.00">&#45;4</text>
</g>
<!-- &#45;4&#45;&gt;293 -->
<g id="edge11" class="edge">
<title>&#45;4&#45;&gt;293</title>
<path fill="none" stroke="red" stroke-width="0.3" d="M602.56,-401.63C520.21,-402.09 49.84,-402.71 7.83,-357.55 -16.37,-331.52 23.92,-229.2 30.83,-222.55 61.75,-192.84 188.55,-175.85 247.91,-169.39"/>
<polygon fill="red" stroke="red" stroke-width="0.3" points="247.93,-172.9 257.51,-168.37 247.19,-165.94 247.93,-172.9"/>
</g>
<!-- &#45;4&#45;&gt;294 -->
<g id="edge12" class="edge">
<title>&#45;4&#45;&gt;294</title>
<path fill="none" stroke="red" stroke-width="0.53" d="M627.21,-400.96C675.48,-397.9 851.62,-379.48 915.83,-272.05 945.9,-221.74 930.77,-179.22 883.83,-144.12 841.64,-112.57 470.74,-94.09 359.34,-89.22"/>
<polygon fill="red" stroke="red" stroke-width="0.53" points="359.82,-85.74 349.68,-88.8 359.52,-92.73 359.82,-85.74"/>
</g>
<!-- 4295 -->
<g id="node15" class="node">
<title>4295</title>
<ellipse fill="white" stroke="black" cx="667.83" cy="-332.8" rx="25" ry="25"/>
<text text-anchor="middle" x="667.83" y="-330.6" font-family="Times New Roman,serif" font-size="9.00">4295</text>
</g>
<!-- &#45;4&#45;&gt;4295 -->
<g id="edge49" class="edge">
<title>&#45;4&#45;&gt;4295</title>
<path fill="none" stroke="green" stroke-width="0.14" d="M621.33,-393.24C627.62,-385.2 637.5,-372.57 646.54,-361.01"/>
<polygon fill="green" stroke="green" stroke-width="0.14" points="649.2,-363.29 652.61,-353.26 643.69,-358.98 649.2,-363.29"/>
</g>
<!-- &#45;4&#45;&gt;299 -->
<g id="edge13" class="edge">
<title>&#45;4&#45;&gt;299</title>
<path fill="none" stroke="red" stroke-width="1.04" stroke-dasharray="1,5" d="M615.75,-393.08C617.74,-376.42 623.13,-338.35 633.83,-308.05 637.74,-296.97 643.36,-285.39 648.74,-275.4"/>
<polygon fill="red" stroke="red" stroke-width="1.04" points="652.16,-277.45 653.97,-267.02 646.05,-274.04 652.16,-277.45"/>
</g>
<!-- 688 -->
<g id="node18" class="node">
<title>688</title>
<ellipse fill="white" stroke="black" cx="307.83" cy="-332.8" rx="21.43" ry="21.43"/>
<text text-anchor="middle" x="307.83" y="-330.6" font-family="Times New Roman,serif" font-size="9.00">688</text>
</g>
<!-- &#45;4&#45;&gt;688 -->
<g id="edge42" class="edge">
<title>&#45;4&#45;&gt;688</title>
<path fill="none" stroke="red" stroke-width="0.18" d="M602.33,-401.77C562.1,-402.02 433.03,-399.33 337.83,-357.55 335.54,-356.54 333.28,-355.32 331.08,-353.97"/>
<polygon fill="red" stroke="red" stroke-width="0.18" points="333.21,-351.19 323.03,-348.27 329.17,-356.9 333.21,-351.19"/>
</g>
<!-- &#45;5 -->
<g id="node5" class="node">
<title>&#45;5</title>
<polygon fill="lightgray" stroke="black" points="40.83,-341.8 16.83,-341.8 16.83,-323.8 40.83,-323.8 40.83,-341.8"/>
<text text-anchor="middle" x="28.83" y="-330.6" font-family="Times New Roman,serif" font-size="9.00">&#45;5</text>
</g>
<!-- 0 -->
<g id="node10" class="node">
<title>0</title>
<ellipse fill="lightblue" stroke="black" cx="302.83" cy="-14.85" rx="14.7" ry="14.7"/>
<text text-anchor="middle" x="302.83" y="-12.65" font-family="Times New Roman,serif" font-size="9.00">0</text>
</g>
<!-- &#45;5&#45;&gt;0 -->
<g id="edge39" class="edge">
<title>&#45;5&#45;&gt;0</title>
<path fill="none" stroke="green" stroke-width="0.38" d="M26.98,-323.44C21.12,-294.63 5.97,-198.2 51.83,-144.12 114.19,-70.61 229.2,-34.28 278.91,-21.44"/>
<polygon fill="green" stroke="green" stroke-width="0.38" points="279.63,-24.86 288.48,-19.05 277.93,-18.07 279.63,-24.86"/>
</g>
<!-- &#45;5&#45;&gt;293 -->
<g id="edge14" class="edge">
<title>&#45;5&#45;&gt;293</title>
<path fill="none" stroke="green" stroke-width="1.01" stroke-dasharray="1,5" d="M28.58,-323.58C28.45,-303.33 31.04,-250.63 59.83,-222.55 86.33,-196.71 192.63,-178.44 246.78,-170.6"/>
<polygon fill="green" stroke="green" stroke-width="1.01" points="247.09,-173.95 256.5,-169.09 246.11,-167.02 247.09,-173.95"/>
</g>
<!-- &#45;5&#45;&gt;294 -->
<g id="edge15" class="edge">
<title>&#45;5&#45;&gt;294</title>
<path fill="none" stroke="red" stroke-width="0.26" d="M28.49,-323.67C27.72,-293.94 29.46,-190.34 87.83,-144.12 149.54,-95.27 246.45,-87.6 296.14,-87.15"/>
<polygon fill="red" stroke="red" stroke-width="0.26" points="296,-90.65 306,-87.15 296,-83.65 296,-90.65"/>
</g>
<!-- &#45;5&#45;&gt;295 -->
<g id="edge16" class="edge">
<title>&#45;5&#45;&gt;295</title>
<path fill="none" stroke="green" stroke-width="0.82" d="M38.72,-323.47C45.02,-318.47 53.54,-312.29 61.83,-308.05 110.86,-282.96 172.69,-265.06 209.36,-255.72"/>
<polygon fill="green" stroke="green" stroke-width="0.82" points="210.03,-258.91 218.89,-253.1 208.34,-252.12 210.03,-258.91"/>
</g>
<!-- &#45;5&#45;&gt;297 -->
<g id="edge17" class="edge">
<title>&#45;5&#45;&gt;297</title>
<path fill="none" stroke="red" stroke-width="0.26" d="M36.4,-323.49C47.43,-311.36 68.36,-288.37 84.18,-270.99"/>
<polygon fill="red" stroke="red" stroke-width="0.26" points="86.46,-273.68 90.6,-263.93 81.28,-268.97 86.46,-273.68"/>
</g>
<!-- 535 -->
<g id="node19" class="node">
<title>535</title>
<ellipse fill="white" stroke="black" cx="452.83" cy="-247.3" rx="21.43" ry="21.43"/>
<text text-anchor="middle" x="452.83" y="-245.1" font-family="Times New Roman,serif" font-size="9.00">535</text>
</g>
<!-- &#45;5&#45;&gt;535 -->
<g id="edge51" class="edge">
<title>&#45;5&#45;&gt;535</title>
<path fill="none" stroke="green" stroke-width="0.13" d="M37.93,-323.43C44.19,-318.15 52.94,-311.68 61.83,-308.05 95.05,-294.48 334.65,-263.24 421.5,-252.23"/>
<polygon fill="green" stroke="green" stroke-width="0.13" points="421.82,-255.72 431.31,-250.99 420.95,-248.77 421.82,-255.72"/>
</g>
<!-- &#45;6 -->
<g id="node6" class="node">
<title>&#45;6</title>
<polygon fill="lightgray" stroke="black" points="586.83,-341.8 562.83,-341.8 562.83,-323.8 586.83,-323.8 586.83,-341.8"/>
<text text-anchor="middle" x="574.83" y="-330.6" font-family="Times New Roman,serif" font-size="9.00">&#45;6</text>
</g>
<!-- &#45;6&#45;&gt;0 -->
<g id="edge41" class="edge">
<title>&#45;6&#45;&gt;0</title>
<path fill="none" stroke="red" stroke-width="0.12" stroke-dasharray="1,5" d="M574.16,-323.45C572.39,-304.61 566.51,-257.71 549.83,-222.55 501.53,-120.75 376.22,-51.14 325.07,-26.12"/>
<polygon fill="red" stroke="red" stroke-width="0.12" points="326.68,-23.01 316.15,-21.84 323.65,-29.32 326.68,-23.01"/>
</g>
<!-- &#45;6&#45;&gt;293 -->
<g id="edge18" class="edge">
<title>&#45;6&#45;&gt;293</title>
<path fill="none" stroke="green" stroke-width="0.37" stroke-dasharray="1,5" d="M570.26,-323.48C558.55,-303.01 525.42,-249.84 482.83,-222.55 428.4,-187.67 352.39,-174.18 310.2,-169.16"/>
<polygon fill="green" stroke="green" stroke-width="0.37" points="310.81,-165.7 300.49,-168.08 310.04,-172.66 310.81,-165.7"/>
</g>
<!-- &#45;6&#45;&gt;294 -->
<g id="edge19" class="edge">
<title>&#45;6&#45;&gt;294</title>
<path fill="none" stroke="red" stroke-width="0.38" d="M571.97,-323.55C561.36,-294.24 521.4,-194.23 453.83,-144.12 424.19,-122.14 384.58,-106.26 357.75,-97.09"/>
<polygon fill="red" stroke="red" stroke-width="0.38" points="359.07,-93.85 348.48,-94.02 356.87,-100.49 359.07,-93.85"/>
</g>
<!-- &#45;6&#45;&gt;295 -->
<g id="edge20" class="edge">
<title>&#45;6&#45;&gt;295</title>
<path fill="none" stroke="red" stroke-width="0.62" d="M562.55,-328.73C514.99,-316.84 342.07,-273.61 271.32,-255.92"/>
<polygon fill="red" stroke="red" stroke-width="0.62" points="272.2,-252.54 261.65,-253.51 270.51,-259.33 272.2,-252.54"/>
</g>
<!-- &#45;6&#45;&gt;299 -->
<g id="edge21" class="edge">
<title>&#45;6&#45;&gt;299</title>
<path fill="none" stroke="green" stroke-width="0.78" d="M583.79,-323.49C597.11,-311.13 622.6,-287.48 641.45,-269.99"/>
<polygon fill="green" stroke="green" stroke-width="0.78" points="644.37,-272.06 649.32,-262.69 639.61,-266.92 644.37,-272.06"/>
</g>
<!-- &#45;7 -->
<g id="node7" class="node">
<title>&#45;7</title>
<polygon fill="lightgray" stroke="black" points="259.83,-341.8 235.83,-341.8 235.83,-323.8 259.83,-323.8 259.83,-341.8"/>
<text text-anchor="middle" x="247.83" y="-330.6" font-family="Times New Roman,serif" font-size="9.00">&#45;7</text>
</g>
<!-- &#45;7&#45;&gt;294 -->
<g id="edge22" class="edge">
<title>&#45;7&#45;&gt;294</title>
<path fill="none" stroke="green" stroke-width="0.32" d="M252.04,-323.51C262.96,-301.67 292.51,-240.48 308.83,-186.55 315.63,-164.09 320.53,-137.99 323.65,-118.29"/>
<polygon fill="green" stroke="green" stroke-width="0.32" points="327.08,-119.03 325.12,-108.62 320.16,-117.98 327.08,-119.03"/>
</g>
<!-- &#45;7&#45;&gt;295 -->
<g id="edge23" class="edge">
<title>&#45;7&#45;&gt;295</title>
<path fill="none" stroke="green" stroke-width="0.19" stroke-dasharray="1,5" d="M247.13,-323.49C246.26,-313.03 244.71,-294.51 243.36,-278.47"/>
<polygon fill="green" stroke="green" stroke-width="0.19" points="246.88,-278.56 242.56,-268.89 239.91,-279.15 246.88,-278.56"/>
</g>
<!-- &#45;7&#45;&gt;297 -->
<g id="edge24" class="edge">
<title>&#45;7&#45;&gt;297</title>
<path fill="none" stroke="red" stroke-width="0.32" stroke-dasharray="1,5" d="M235.64,-324.68C212.77,-311.33 162.95,-282.23 131.82,-264.06"/>
<polygon fill="red" stroke="red" stroke-width="0.32" points="133.59,-261.04 123.19,-259.02 130.06,-267.08 133.59,-261.04"/>
</g>
<!-- &#45;7&#45;&gt;299 -->
<g id="edge25" class="edge">
<title>&#45;7&#45;&gt;299</title>
<path fill="none" stroke="red" stroke-width="0.1" d="M255.97,-323.42C261.6,-318.14 269.55,-311.66 277.83,-308.05 310.35,-293.86 547.19,-263.08 633.49,-252.2"/>
<polygon fill="red" stroke="red" stroke-width="0.1" points="633.76,-255.7 643.24,-250.98 632.88,-248.75 633.76,-255.7"/>
</g>
<!-- &#45;8 -->
<g id="node8" class="node">
<title>&#45;8</title>
<polygon fill="lightgray" stroke="black" points="747.83,-341.8 723.83,-341.8 723.83,-323.8 747.83,-323.8 747.83,-341.8"/>
<text text-anchor="middle" x="735.83" y="-330.6" font-family="Times New Roman,serif" font-size="9.00">&#45;8</text>
</g>
<!-- 1374 -->
<g id="node11" class="node">
<title>1374</title>
<ellipse fill="white" stroke="black" cx="864.83" cy="-247.3" rx="25" ry="25"/>
<text text-anchor="middle" x="864.83" y="-245.1" font-family="Times New Roman,serif" font-size="9.00">1374</text>
</g>
<!-- &#45;8&#45;&gt;1374 -->
<g id="edge48" class="edge">
<title>&#45;8&#45;&gt;1374</title>
<path fill="none" stroke="green" stroke-width="0.46" d="M748.25,-324.25C766.51,-313.1 801.6,-291.43 830.83,-272.05 832.83,-270.73 834.88,-269.35 836.93,-267.95"/>
<polygon fill="green" stroke="green" stroke-width="0.46" points="838.55,-271.08 844.81,-262.53 834.58,-265.31 838.55,-271.08"/>
</g>
<!-- &#45;8&#45;&gt;293 -->
<g id="edge26" class="edge">
<title>&#45;8&#45;&gt;293</title>
<path fill="none" stroke="green" stroke-width="0.1" stroke-dasharray="1,5" d="M735.46,-323.6C734.06,-302.92 727.3,-248.44 694.83,-222.55 664.79,-198.6 401.98,-175.97 310.25,-168.73"/>
<polygon fill="green" stroke="green" stroke-width="0.1" points="310.68,-165.25 300.43,-167.96 310.13,-172.23 310.68,-165.25"/>
</g>
<!-- &#45;8&#45;&gt;294 -->
<g id="edge27" class="edge">
<title>&#45;8&#45;&gt;294</title>
<path fill="none" stroke="red" stroke-width="0.13" d="M737.62,-323.57C741.41,-303.75 748.07,-252.76 723.83,-222.55 631.38,-107.34 435.8,-90.21 359.37,-88.04"/>
<polygon fill="red" stroke="red" stroke-width="0.13" points="359.48,-84.54 349.4,-87.82 359.32,-91.54 359.48,-84.54"/>
</g>
<!-- &#45;8&#45;&gt;297 -->
<g id="edge28" class="edge">
<title>&#45;8&#45;&gt;297</title>
<path fill="none" stroke="green" stroke-width="0.4" d="M726.79,-323.43C720.34,-318.02 711.19,-311.38 701.83,-308.05 495.66,-234.78 427.29,-304.05 210.83,-272.05 185.02,-268.23 156.14,-261.6 135.06,-256.32"/>
<polygon fill="green" stroke="green" stroke-width="0.4" points="135.94,-252.93 125.38,-253.85 134.2,-259.71 135.94,-252.93"/>
</g>
<!-- &#45;8&#45;&gt;299 -->
<g id="edge29" class="edge">
<title>&#45;8&#45;&gt;299</title>
<path fill="none" stroke="green" stroke-width="0.26" stroke-dasharray="1,5" d="M728.76,-323.49C718.6,-311.54 699.48,-289.05 684.78,-271.77"/>
<polygon fill="green" stroke="green" stroke-width="0.26" points="687.54,-269.6 678.39,-264.25 682.2,-274.13 687.54,-269.6"/>
</g>
<!-- &#45;8&#45;&gt;535 -->
<g id="edge38" class="edge">
<title>&#45;8&#45;&gt;535</title>
<path fill="none" stroke="green" stroke-width="0.85" stroke-dasharray="1,5" d="M726.02,-323.45C719.53,-318.33 710.63,-312.01 701.83,-308.05 628.26,-274.96 533.89,-258.76 485.16,-252.13"/>
<polygon fill="green" stroke="green" stroke-width="0.85" points="485.73,-248.55 475.36,-250.72 484.82,-255.49 485.73,-248.55"/>
</g>
<!-- 637 -->
<g id="node20" class="node">
<title>637</title>
<ellipse fill="white" stroke="black" cx="853.83" cy="-165.34" rx="21.43" ry="21.43"/>
<text text-anchor="middle" x="853.83" y="-163.14" font-family="Times New Roman,serif" font-size="9.00">637</text>
</g>
<!-- &#45;8&#45;&gt;637 -->
<g id="edge40" class="edge">
<title>&#45;8&#45;&gt;637</title>
<path fill="none" stroke="green" stroke-width="0.24" stroke-dasharray="1,5" d="M747.99,-331.68C779.4,-330.62 863.28,-322.95 898.83,-272.05 911.43,-254.01 906.12,-243.31 898.83,-222.55 894.26,-209.52 885.25,-197.27 876.49,-187.55"/>
<polygon fill="green" stroke="green" stroke-width="0.24" points="879.04,-185.15 869.61,-180.33 873.98,-189.98 879.04,-185.15"/>
</g>
<!-- 990 -->
<g id="node21" class="node">
<title>990</title>
<ellipse fill="white" stroke="black" cx="800.83" cy="-247.3" rx="21.43" ry="21.43"/>
<text text-anchor="middle" x="800.83" y="-245.1" font-family="Times New Roman,serif" font-size="9.00">990</text>
</g>
<!-- &#45;8&#45;&gt;990 -->
<g id="edge45" class="edge">
<title>&#45;8&#45;&gt;990</title>
<path fill="none" stroke="green" stroke-width="0.38" d="M742.3,-323.49C751.49,-311.68 768.69,-289.58 782.08,-272.39"/>
<polygon fill="green" stroke="green" stroke-width="0.38" points="784.54,-274.93 787.92,-264.89 779.01,-270.63 784.54,-274.93"/>
</g>
<!-- &#45;9 -->
<g id="node9" class="node">
<title>&#45;9</title>
<polygon fill="lightgray" stroke="black" points="184.83,-341.8 160.83,-341.8 160.83,-323.8 184.83,-323.8 184.83,-341.8"/>
<text text-anchor="middle" x="172.83" y="-330.6" font-family="Times New Roman,serif" font-size="9.00">&#45;9</text>
</g>
<!-- &#45;9&#45;&gt;293 -->
<g id="edge30" class="edge">
<title>&#45;9&#45;&gt;293</title>
<path fill="none" stroke="red" stroke-width="0.11" d="M174.15,-323.43C177.51,-304.14 187.8,-255.7 210.83,-222.55 221.87,-206.68 238.55,-192.79 252.63,-182.79"/>
<polygon fill="red" stroke="red" stroke-width="0.11" points="254.28,-185.9 260.56,-177.37 250.33,-180.12 254.28,-185.9"/>
</g>
<!-- &#45;9&#45;&gt;294 -->
<g id="edge31" class="edge">
<title>&#45;9&#45;&gt;294</title>
<path fill="none" stroke="red" stroke-width="0.14" d="M171.95,-323.45C170.31,-304.61 168.16,-257.7 182.83,-222.55 206.07,-166.88 265.66,-124.23 300.79,-102.93"/>
<polygon fill="red" stroke="red" stroke-width="0.14" points="302.34,-106.09 309.16,-97.98 298.77,-100.06 302.34,-106.09"/>
</g>
<!-- &#45;9&#45;&gt;295 -->
<g id="edge32" class="edge">
<title>&#45;9&#45;&gt;295</title>
<path fill="none" stroke="red" stroke-width="0.17" d="M179.6,-323.49C189.27,-311.61 207.43,-289.32 221.47,-272.08"/>
<polygon fill="red" stroke="red" stroke-width="0.17" points="223.98,-274.53 227.58,-264.57 218.56,-270.11 223.98,-274.53"/>
</g>
<!-- &#45;9&#45;&gt;297 -->
<g id="edge33" class="edge">
<title>&#45;9&#45;&gt;297</title>
<path fill="none" stroke="red" stroke-width="0.65" d="M166.06,-323.49C156.39,-311.61 138.23,-289.32 124.19,-272.08"/>
<polygon fill="red" stroke="red" stroke-width="0.65" points="127.11,-270.11 118.08,-264.57 121.68,-274.53 127.11,-270.11"/>
</g>
<!-- 293&#45;&gt;0 -->
<g id="edge34" class="edge">
<title>293&#45;&gt;0</title>
<path fill="none" stroke="red" stroke-width="0.44" d="M282.17,-143.69C286.6,-116.3 294.39,-68.05 299.04,-39.31"/>
<polygon fill="red" stroke="red" stroke-width="0.44" points="302.46,-40.11 300.6,-29.68 295.55,-38.99 302.46,-40.11"/>
</g>
<!-- 293&#45;&gt;294 -->
<g id="edge43" class="edge">
<title>293&#45;&gt;294</title>
<path fill="none" stroke="green" stroke-width="0.9" d="M290.2,-146.61C296.26,-137.16 303.84,-125.33 310.61,-114.77"/>
<polygon fill="green" stroke="green" stroke-width="0.9" points="314.08,-116.85 316.53,-106.54 308.18,-113.07 314.08,-116.85"/>
</g>
<!-- 294&#45;&gt;0 -->
<g id="edge35" class="edge">
<title>294&#45;&gt;0</title>
<path fill="none" stroke="red" stroke-width="0.27" d="M320.87,-66.4C317.73,-57.59 314,-47.15 310.75,-38.06"/>
<polygon fill="red" stroke="red" stroke-width="0.27" points="314.13,-37.09 307.47,-28.85 307.53,-39.44 314.13,-37.09"/>
</g>
<!-- 295&#45;&gt;0 -->
<g id="edge36" class="edge">
<title>295&#45;&gt;0</title>
<path fill="none" stroke="red" stroke-width="1.67" d="M240.53,-225.64C240.67,-204.79 242.11,-171.79 248.83,-144.12 258.19,-105.61 277.72,-63.79 290.55,-38.71"/>
<polygon fill="red" stroke="red" stroke-width="1.67" points="293.55,-40.62 295.08,-30.14 287.34,-37.38 293.55,-40.62"/>
</g>
<!-- 295&#45;&gt;293 -->
<g id="edge47" class="edge">
<title>295&#45;&gt;293</title>
<path fill="none" stroke="red" stroke-width="0.25" d="M249.84,-227.35C254.57,-217.39 260.46,-205 265.69,-193.99"/>
<polygon fill="red" stroke="red" stroke-width="0.25" points="268.76,-195.69 269.89,-185.15 262.44,-192.68 268.76,-195.69"/>
</g>
<!-- 4295&#45;&gt;299 -->
<g id="edge50" class="edge">
<title>4295&#45;&gt;299</title>
<path fill="none" stroke="red" stroke-width="1.09" d="M666.96,-307.65C666.65,-298.95 666.29,-289 665.96,-279.77"/>
<polygon fill="red" stroke="red" stroke-width="1.09" points="669.43,-279.87 665.58,-270 662.44,-280.12 669.43,-279.87"/>
</g>
<!-- 299&#45;&gt;0 -->
<g id="edge37" class="edge">
<title>299&#45;&gt;0</title>
<path fill="none" stroke="green" stroke-width="0.72" d="M669.13,-225.9C675.69,-188.49 683.35,-108.83 640.83,-65.7 597.34,-21.58 399.81,-16.27 328.56,-15.81"/>
<polygon fill="green" stroke="green" stroke-width="0.72" points="328.89,-12.31 318.88,-15.77 328.87,-19.31 328.89,-12.31"/>
</g>
<!-- 990&#45;&gt;637 -->
<g id="edge46" class="edge">
<title>990&#45;&gt;637</title>
<path fill="none" stroke="green" stroke-width="0.39" stroke-dasharray="1,5" d="M812.33,-228.95C819.55,-218.05 828.99,-203.81 837.05,-191.66"/>
<polygon fill="green" stroke="green" stroke-width="0.39" points="839.75,-193.92 842.35,-183.65 833.91,-190.06 839.75,-193.92"/>
</g>
</g>
</svg>
