<?xml version="1.0" encoding="UTF-8" standalone="no"?>
<!DOCTYPE svg PUBLIC "-//W3C//DTD SVG 1.1//EN"
 "http://www.w3.org/Graphics/SVG/1.1/DTD/svg11.dtd">
<!-- Generated by graphviz version 8.0.3 (20230416.2022)
 -->
<!-- Pages: 1 -->
<svg width="444pt" height="284pt"
 viewBox="0.00 0.00 444.23 283.91" xmlns="http://www.w3.org/2000/svg" xmlns:xlink="http://www.w3.org/1999/xlink">
<g id="graph0" class="graph" transform="scale(1 1) rotate(0) translate(4 279.91)">
<polygon fill="white" stroke="none" points="-4,4 -4,-279.91 440.23,-279.91 440.23,4 -4,4"/>
<!-- x0 -->
<g id="node1" class="node">
<title>x0</title>
<polygon fill="lightgray" stroke="black" points="252.08,-275.91 227.08,-275.91 227.08,-257.91 252.08,-257.91 252.08,-275.91"/>
<text text-anchor="middle" x="239.58" y="-264.71" font-family="Times New Roman,serif" font-size="9.00">x0</text>
</g>
<!-- 97 -->
<g id="node11" class="node">
<title>97</title>
<ellipse fill="white" stroke="black" cx="184.58" cy="-203.52" rx="18.27" ry="18.27"/>
<text text-anchor="middle" x="184.58" y="-201.32" font-family="Times New Roman,serif" font-size="9.00">97</text>
</g>
<!-- x0&#45;&gt;97 -->
<g id="edge4" class="edge">
<title>x0&#45;&gt;97</title>
<path fill="none" stroke="green" stroke-width="0.44" d="M232.17,-257.63C224.73,-249.33 213,-236.23 203.04,-225.12"/>
<polygon fill="green" stroke="green" stroke-width="0.44" points="205.78,-222.94 196.5,-217.83 200.57,-227.61 205.78,-222.94"/>
</g>
<!-- 96 -->
<g id="node12" class="node">
<title>96</title>
<ellipse fill="white" stroke="black" cx="155.58" cy="-130.75" rx="18.27" ry="18.27"/>
<text text-anchor="middle" x="155.58" y="-128.55" font-family="Times New Roman,serif" font-size="9.00">96</text>
</g>
<!-- x0&#45;&gt;96 -->
<g id="edge3" class="edge">
<title>x0&#45;&gt;96</title>
<path fill="none" stroke="green" stroke-width="0.14" d="M246.63,-257.79C258.95,-242.59 281.69,-209.17 266.58,-185.14 248.42,-156.24 209.76,-142.63 183.22,-136.47"/>
<polygon fill="green" stroke="green" stroke-width="0.14" points="184.21,-133.1 173.71,-134.46 182.77,-139.95 184.21,-133.1"/>
</g>
<!-- 98 -->
<g id="node13" class="node">
<title>98</title>
<ellipse fill="white" stroke="black" cx="54.58" cy="-203.52" rx="18.27" ry="18.27"/>
<text text-anchor="middle" x="54.58" y="-201.32" font-family="Times New Roman,serif" font-size="9.00">98</text>
</g>
<!-- x0&#45;&gt;98 -->
<g id="edge5" class="edge">
<title>x0&#45;&gt;98</title>
<path fill="none" stroke="green" stroke-width="0.27" d="M226.74,-260.9C224.05,-259.88 221.23,-258.84 218.58,-257.91 170.48,-240.93 113.76,-222.9 81.21,-212.74"/>
<polygon fill="green" stroke="green" stroke-width="0.27" points="82.5,-209.48 71.91,-209.85 80.42,-216.17 82.5,-209.48"/>
</g>
<!-- 91 -->
<g id="node14" class="node">
<title>91</title>
<ellipse fill="white" stroke="black" cx="239.58" cy="-203.52" rx="18.27" ry="18.27"/>
<text text-anchor="middle" x="239.58" y="-201.32" font-family="Times New Roman,serif" font-size="9.00">91</text>
</g>
<!-- x0&#45;&gt;91 -->
<g id="edge1" class="edge">
<title>x0&#45;&gt;91</title>
<path fill="none" stroke="red" stroke-width="0.52" d="M239.58,-257.63C239.58,-250.99 239.58,-241.29 239.58,-231.99"/>
<polygon fill="red" stroke="red" stroke-width="0.52" points="243.08,-232.21 239.58,-222.21 236.08,-232.21 243.08,-232.21"/>
</g>
<!-- 92 -->
<g id="node15" class="node">
<title>92</title>
<ellipse fill="white" stroke="black" cx="369.58" cy="-203.52" rx="18.27" ry="18.27"/>
<text text-anchor="middle" x="369.58" y="-201.32" font-family="Times New Roman,serif" font-size="9.00">92</text>
</g>
<!-- x0&#45;&gt;92 -->
<g id="edge2" class="edge">
<title>x0&#45;&gt;92</title>
<path fill="none" stroke="red" stroke-width="0.26" d="M252.52,-259.8C273.87,-249.72 316.84,-229.42 344.36,-216.43"/>
<polygon fill="red" stroke="red" stroke-width="0.26" points="345.5,-219.76 353.05,-212.33 342.51,-213.43 345.5,-219.76"/>
</g>
<!-- x1 -->
<g id="node2" class="node">
<title>x1</title>
<polygon fill="lightgray" stroke="black" points="37.08,-275.91 12.08,-275.91 12.08,-257.91 37.08,-257.91 37.08,-275.91"/>
<text text-anchor="middle" x="24.58" y="-264.71" font-family="Times New Roman,serif" font-size="9.00">x1</text>
</g>
<!-- x1&#45;&gt;97 -->
<g id="edge8" class="edge">
<title>x1&#45;&gt;97</title>
<path fill="none" stroke="green" stroke-width="0.46" d="M37.41,-260.99C63.57,-250.95 123.57,-227.93 158.34,-214.59"/>
<polygon fill="green" stroke="green" stroke-width="0.46" points="159.35,-217.95 167.43,-211.1 156.84,-211.42 159.35,-217.95"/>
</g>
<!-- x1&#45;&gt;96 -->
<g id="edge7" class="edge">
<title>x1&#45;&gt;96</title>
<path fill="none" stroke="green" stroke-width="0.24" d="M18.79,-257.52C8.77,-241.85 -9.29,-207.69 6.58,-185.14 33.94,-146.28 92.32,-135.56 127.34,-132.69"/>
<polygon fill="green" stroke="green" stroke-width="0.24" points="127.22,-136.21 136.97,-132.05 126.76,-129.22 127.22,-136.21"/>
</g>
<!-- x1&#45;&gt;98 -->
<g id="edge9" class="edge">
<title>x1&#45;&gt;98</title>
<path fill="none" stroke="red" stroke-width="0.62" d="M28.63,-257.63C32.2,-250.31 37.61,-239.26 42.56,-229.13"/>
<polygon fill="red" stroke="red" stroke-width="0.62" points="45.67,-230.74 46.91,-220.22 39.38,-227.67 45.67,-230.74"/>
</g>
<!-- x1&#45;&gt;91 -->
<g id="edge6" class="edge">
<title>x1&#45;&gt;91</title>
<path fill="none" stroke="green" stroke-width="0.26" d="M37.52,-260.88C40.47,-259.82 43.62,-258.77 46.58,-257.91 118.68,-237.03 142.03,-250.11 211.58,-221.91 213.15,-221.27 214.73,-220.55 216.3,-219.77"/>
<polygon fill="green" stroke="green" stroke-width="0.26" points="217.97,-222.85 224.97,-214.89 214.54,-216.74 217.97,-222.85"/>
</g>
<!-- x2 -->
<g id="node3" class="node">
<title>x2</title>
<polygon fill="lightgray" stroke="black" points="80.08,-275.91 55.08,-275.91 55.08,-257.91 80.08,-257.91 80.08,-275.91"/>
<text text-anchor="middle" x="67.58" y="-264.71" font-family="Times New Roman,serif" font-size="9.00">x2</text>
</g>
<!-- x2&#45;&gt;97 -->
<g id="edge12" class="edge">
<title>x2&#45;&gt;97</title>
<path fill="none" stroke="green" stroke-width="0.19" d="M80.55,-259.1C99.65,-249.08 135.69,-230.17 159.92,-217.46"/>
<polygon fill="green" stroke="green" stroke-width="0.19" points="161.34,-220.67 168.57,-212.92 158.09,-214.47 161.34,-220.67"/>
</g>
<!-- x2&#45;&gt;96 -->
<g id="edge11" class="edge">
<title>x2&#45;&gt;96</title>
<path fill="none" stroke="green" stroke-width="0.95" d="M54.73,-259.16C42.35,-251.85 24.37,-238.92 16.58,-221.91 9.78,-207.05 7.33,-198.61 16.58,-185.14 41.14,-149.4 93.18,-137.58 126.16,-133.67"/>
<polygon fill="green" stroke="green" stroke-width="0.95" points="126.35,-137.07 135.95,-132.59 125.65,-130.1 126.35,-137.07"/>
</g>
<!-- x2&#45;&gt;98 -->
<g id="edge13" class="edge">
<title>x2&#45;&gt;98</title>
<path fill="none" stroke="green" stroke-width="0.32" d="M65.83,-257.63C64.39,-250.83 62.27,-240.8 60.25,-231.28"/>
<polygon fill="green" stroke="green" stroke-width="0.32" points="63.72,-230.77 58.22,-221.71 56.87,-232.22 63.72,-230.77"/>
</g>
<!-- x2&#45;&gt;91 -->
<g id="edge10" class="edge">
<title>x2&#45;&gt;91</title>
<path fill="none" stroke="green" stroke-width="0.33" d="M80.57,-261.03C83.52,-259.97 86.65,-258.87 89.58,-257.91 143.28,-240.24 159.99,-245.03 211.58,-221.91 213.13,-221.21 214.69,-220.45 216.24,-219.64"/>
<polygon fill="green" stroke="green" stroke-width="0.33" points="217.95,-222.69 224.88,-214.68 214.47,-216.62 217.95,-222.69"/>
</g>
<!-- x3 -->
<g id="node4" class="node">
<title>x3</title>
<polygon fill="lightgray" stroke="black" points="295.08,-275.91 270.08,-275.91 270.08,-257.91 295.08,-257.91 295.08,-275.91"/>
<text text-anchor="middle" x="282.58" y="-264.71" font-family="Times New Roman,serif" font-size="9.00">x3</text>
</g>
<!-- x3&#45;&gt;97 -->
<g id="edge17" class="edge">
<title>x3&#45;&gt;97</title>
<path fill="none" stroke="red" stroke-width="0.26" d="M269.77,-257.88C254.2,-248.13 227.63,-231.48 208.29,-219.37"/>
<polygon fill="red" stroke="red" stroke-width="0.26" points="210.31,-216.51 199.98,-214.17 206.6,-222.44 210.31,-216.51"/>
</g>
<!-- x3&#45;&gt;96 -->
<g id="edge16" class="edge">
<title>x3&#45;&gt;96</title>
<path fill="none" stroke="red" stroke-width="0.23" stroke-dasharray="1,5" d="M285.38,-257.49C290.03,-241.78 297.48,-207.56 282.58,-185.14 260.58,-152.03 213.62,-139.41 183.37,-134.63"/>
<polygon fill="red" stroke="red" stroke-width="0.23" points="184.21,-131.21 173.82,-133.29 183.24,-138.14 184.21,-131.21"/>
</g>
<!-- x3&#45;&gt;98 -->
<g id="edge18" class="edge">
<title>x3&#45;&gt;98</title>
<path fill="none" stroke="green" stroke-width="0.62" d="M269.78,-260.77C267.09,-259.76 264.26,-258.76 261.58,-257.91 198.14,-237.71 121.97,-219.61 82.06,-210.58"/>
<polygon fill="green" stroke="green" stroke-width="0.62" points="83.02,-207.21 72.49,-208.43 81.49,-214.04 83.02,-207.21"/>
</g>
<!-- x3&#45;&gt;91 -->
<g id="edge14" class="edge">
<title>x3&#45;&gt;91</title>
<path fill="none" stroke="green" stroke-width="0.39" d="M276.78,-257.63C271.28,-249.78 262.77,-237.63 255.28,-226.93"/>
<polygon fill="green" stroke="green" stroke-width="0.39" points="258.17,-224.95 249.56,-218.77 252.43,-228.97 258.17,-224.95"/>
</g>
<!-- x3&#45;&gt;92 -->
<g id="edge15" class="edge">
<title>x3&#45;&gt;92</title>
<path fill="none" stroke="red" stroke-width="0.57" d="M294.32,-257.63C307.79,-248.12 330.2,-232.31 347.07,-220.41"/>
<polygon fill="red" stroke="red" stroke-width="0.57" points="348.69,-223.55 354.84,-214.92 344.66,-217.83 348.69,-223.55"/>
</g>
<!-- x4 -->
<g id="node5" class="node">
<title>x4</title>
<polygon fill="lightgray" stroke="black" points="382.08,-275.91 357.08,-275.91 357.08,-257.91 382.08,-257.91 382.08,-275.91"/>
<text text-anchor="middle" x="369.58" y="-264.71" font-family="Times New Roman,serif" font-size="9.00">x4</text>
</g>
<!-- OUTPUT -->
<g id="node10" class="node">
<title>OUTPUT</title>
<ellipse fill="lightblue" stroke="black" cx="220.58" cy="-38.18" rx="38.37" ry="38.37"/>
<text text-anchor="middle" x="220.58" y="-35.98" font-family="Times New Roman,serif" font-size="9.00">OUTPUT</text>
</g>
<!-- x4&#45;&gt;OUTPUT -->
<g id="edge45" class="edge">
<title>x4&#45;&gt;OUTPUT</title>
<path fill="none" stroke="red" stroke-width="0.35" d="M382.45,-260.92C397.17,-254.43 420.53,-241.55 430.58,-221.91 438.03,-207.36 438.15,-199.62 430.58,-185.14 396.02,-119.02 316.35,-76.81 265.68,-55.62"/>
<polygon fill="red" stroke="red" stroke-width="0.35" points="267.15,-52.44 256.57,-51.9 264.51,-58.92 267.15,-52.44"/>
</g>
<!-- x4&#45;&gt;97 -->
<g id="edge22" class="edge">
<title>x4&#45;&gt;97</title>
<path fill="none" stroke="red" stroke-width="0.12" d="M356.78,-260.78C354.09,-259.78 351.26,-258.77 348.58,-257.91 289.06,-238.75 270,-246.67 212.58,-221.91 211.03,-221.24 209.46,-220.49 207.9,-219.69"/>
<polygon fill="red" stroke="red" stroke-width="0.12" points="209.67,-216.67 199.25,-214.76 206.2,-222.75 209.67,-216.67"/>
</g>
<!-- x4&#45;&gt;96 -->
<g id="edge21" class="edge">
<title>x4&#45;&gt;96</title>
<path fill="none" stroke="red" stroke-width="0.18" d="M382.36,-257.53C392.97,-249.74 407.3,-237.08 413.58,-221.91 419.84,-206.81 423.9,-197.81 413.58,-185.14 384.78,-149.76 244.24,-137.1 183.56,-133.24"/>
<polygon fill="red" stroke="red" stroke-width="0.18" points="184.06,-129.76 173.87,-132.65 183.64,-136.75 184.06,-129.76"/>
</g>
<!-- x4&#45;&gt;91 -->
<g id="edge19" class="edge">
<title>x4&#45;&gt;91</title>
<path fill="none" stroke="green" stroke-width="0.29" d="M356.64,-259.8C335.29,-249.72 292.32,-229.42 264.8,-216.43"/>
<polygon fill="green" stroke="green" stroke-width="0.29" points="266.65,-213.43 256.12,-212.33 263.67,-219.76 266.65,-213.43"/>
</g>
<!-- x4&#45;&gt;92 -->
<g id="edge20" class="edge">
<title>x4&#45;&gt;92</title>
<path fill="none" stroke="green" stroke-width="0.39" d="M369.58,-257.63C369.58,-250.99 369.58,-241.29 369.58,-231.99"/>
<polygon fill="green" stroke="green" stroke-width="0.39" points="373.08,-232.21 369.58,-222.21 366.08,-232.21 373.08,-232.21"/>
</g>
<!-- x5 -->
<g id="node6" class="node">
<title>x5</title>
<polygon fill="lightgray" stroke="black" points="166.08,-275.91 141.08,-275.91 141.08,-257.91 166.08,-257.91 166.08,-275.91"/>
<text text-anchor="middle" x="153.58" y="-264.71" font-family="Times New Roman,serif" font-size="9.00">x5</text>
</g>
<!-- x5&#45;&gt;97 -->
<g id="edge26" class="edge">
<title>x5&#45;&gt;97</title>
<path fill="none" stroke="green" stroke-width="0.12" d="M157.76,-257.63C161.46,-250.31 167.04,-239.26 172.16,-229.13"/>
<polygon fill="green" stroke="green" stroke-width="0.12" points="175.27,-230.72 176.66,-220.22 169.02,-227.57 175.27,-230.72"/>
</g>
<!-- x5&#45;&gt;96 -->
<g id="edge25" class="edge">
<title>x5&#45;&gt;96</title>
<path fill="none" stroke="green" stroke-width="0.64" d="M145.91,-257.59C138.81,-249.27 128.74,-235.75 124.58,-221.91 119.89,-206.25 120.33,-200.92 124.58,-185.14 127.54,-174.16 133.37,-163.11 139.18,-153.94"/>
<polygon fill="green" stroke="green" stroke-width="0.64" points="141.99,-156.03 144.66,-145.78 136.18,-152.13 141.99,-156.03"/>
</g>
<!-- x5&#45;&gt;98 -->
<g id="edge27" class="edge">
<title>x5&#45;&gt;98</title>
<path fill="none" stroke="green" stroke-width="0.12" d="M140.64,-257.88C124.82,-248.07 97.75,-231.29 78.19,-219.16"/>
<polygon fill="green" stroke="green" stroke-width="0.12" points="80.14,-216.25 69.8,-213.96 76.46,-222.2 80.14,-216.25"/>
</g>
<!-- x5&#45;&gt;91 -->
<g id="edge23" class="edge">
<title>x5&#45;&gt;91</title>
<path fill="none" stroke="red" stroke-width="0.41" d="M165.18,-257.63C178.5,-248.12 200.65,-232.31 217.33,-220.41"/>
<polygon fill="red" stroke="red" stroke-width="0.41" points="218.91,-223.58 225.01,-214.92 214.84,-217.88 218.91,-223.58"/>
</g>
<!-- x5&#45;&gt;92 -->
<g id="edge24" class="edge">
<title>x5&#45;&gt;92</title>
<path fill="none" stroke="red" stroke-width="0.17" d="M166.55,-260.99C169.51,-259.93 172.64,-258.84 175.58,-257.91 234.55,-239.11 304.81,-220.76 342.5,-211.24"/>
<polygon fill="red" stroke="red" stroke-width="0.17" points="342.94,-214.74 351.79,-208.91 341.24,-207.95 342.94,-214.74"/>
</g>
<!-- x6 -->
<g id="node7" class="node">
<title>x6</title>
<polygon fill="lightgray" stroke="black" points="209.08,-275.91 184.08,-275.91 184.08,-257.91 209.08,-257.91 209.08,-275.91"/>
<text text-anchor="middle" x="196.58" y="-264.71" font-family="Times New Roman,serif" font-size="9.00">x6</text>
</g>
<!-- x6&#45;&gt;97 -->
<g id="edge30" class="edge">
<title>x6&#45;&gt;97</title>
<path fill="none" stroke="green" stroke-width="0.16" d="M194.96,-257.63C193.64,-250.88 191.7,-240.94 189.85,-231.49"/>
<polygon fill="green" stroke="green" stroke-width="0.16" points="193.35,-231.1 187.99,-221.96 186.48,-232.45 193.35,-231.1"/>
</g>
<!-- x6&#45;&gt;96 -->
<g id="edge29" class="edge">
<title>x6&#45;&gt;96</title>
<path fill="none" stroke="green" stroke-width="0.52" d="M185.68,-257.49C176.27,-249.49 163.32,-236.54 157.58,-221.91 149.71,-201.83 149.73,-177.26 151.43,-158.84"/>
<polygon fill="green" stroke="green" stroke-width="0.52" points="154.89,-159.38 152.54,-149.05 147.93,-158.59 154.89,-159.38"/>
</g>
<!-- x6&#45;&gt;91 -->
<g id="edge28" class="edge">
<title>x6&#45;&gt;91</title>
<path fill="none" stroke="green" stroke-width="0.18" stroke-dasharray="1,5" d="M202.38,-257.63C207.88,-249.78 216.39,-237.63 223.89,-226.93"/>
<polygon fill="green" stroke="green" stroke-width="0.18" points="226.73,-228.97 229.6,-218.77 221,-224.95 226.73,-228.97"/>
</g>
<!-- x7 -->
<g id="node8" class="node">
<title>x7</title>
<polygon fill="lightgray" stroke="black" points="123.08,-275.91 98.08,-275.91 98.08,-257.91 123.08,-257.91 123.08,-275.91"/>
<text text-anchor="middle" x="110.58" y="-264.71" font-family="Times New Roman,serif" font-size="9.00">x7</text>
</g>
<!-- x7&#45;&gt;97 -->
<g id="edge33" class="edge">
<title>x7&#45;&gt;97</title>
<path fill="none" stroke="red" stroke-width="0.18" stroke-dasharray="1,5" d="M120.56,-257.63C131.48,-248.57 149.3,-233.79 163.37,-222.12"/>
<polygon fill="red" stroke="red" stroke-width="0.18" points="165.27,-225.09 170.73,-216.01 160.8,-219.7 165.27,-225.09"/>
</g>
<!-- x7&#45;&gt;96 -->
<g id="edge32" class="edge">
<title>x7&#45;&gt;96</title>
<path fill="none" stroke="green" stroke-width="0.62" d="M97.8,-261.02C76.54,-252.61 35.49,-235.04 27.58,-221.91 19.16,-207.9 18.52,-198.74 27.58,-185.14 49.78,-151.84 97.11,-139.27 127.58,-134.56"/>
<polygon fill="green" stroke="green" stroke-width="0.62" points="127.77,-138.06 137.21,-133.24 126.83,-131.13 127.77,-138.06"/>
</g>
<!-- x7&#45;&gt;98 -->
<g id="edge34" class="edge">
<title>x7&#45;&gt;98</title>
<path fill="none" stroke="red" stroke-width="0.15" d="M103.03,-257.63C95.46,-249.33 83.51,-236.23 73.37,-225.12"/>
<polygon fill="red" stroke="red" stroke-width="0.15" points="76.05,-222.86 66.72,-217.83 70.88,-227.57 76.05,-222.86"/>
</g>
<!-- x7&#45;&gt;91 -->
<g id="edge31" class="edge">
<title>x7&#45;&gt;91</title>
<path fill="none" stroke="red" stroke-width="0.3" d="M123.3,-261.06C142.71,-253.5 180.76,-238.08 211.58,-221.91 213.05,-221.14 214.54,-220.32 216.03,-219.48"/>
<polygon fill="red" stroke="red" stroke-width="0.3" points="217.6,-222.61 224.41,-214.5 214.03,-216.6 217.6,-222.61"/>
</g>
<!-- x8 -->
<g id="node9" class="node">
<title>x8</title>
<polygon fill="lightgray" stroke="black" points="339.08,-275.91 314.08,-275.91 314.08,-257.91 339.08,-257.91 339.08,-275.91"/>
<text text-anchor="middle" x="326.58" y="-264.71" font-family="Times New Roman,serif" font-size="9.00">x8</text>
</g>
<!-- x8&#45;&gt;97 -->
<g id="edge38" class="edge">
<title>x8&#45;&gt;97</title>
<path fill="none" stroke="red" stroke-width="0.14" d="M313.97,-261.19C286.32,-250.83 222.08,-226.63 212.58,-221.91 211.1,-221.17 209.6,-220.38 208.1,-219.55"/>
<polygon fill="red" stroke="red" stroke-width="0.14" points="210.09,-216.66 199.69,-214.62 206.54,-222.7 210.09,-216.66"/>
</g>
<!-- x8&#45;&gt;96 -->
<g id="edge37" class="edge">
<title>x8&#45;&gt;96</title>
<path fill="none" stroke="red" stroke-width="0.17" d="M339.47,-259.72C357.91,-250.56 390.3,-233.28 396.58,-221.91 404.49,-207.6 406.81,-197.88 396.58,-185.14 370.19,-152.26 242.01,-138.39 184.09,-133.72"/>
<polygon fill="red" stroke="red" stroke-width="0.17" points="184.37,-130.24 174.14,-132.96 183.84,-137.21 184.37,-130.24"/>
</g>
<!-- x8&#45;&gt;91 -->
<g id="edge35" class="edge">
<title>x8&#45;&gt;91</title>
<path fill="none" stroke="red" stroke-width="1.16" stroke-dasharray="1,5" d="M314.85,-257.63C301.62,-248.3 279.78,-232.88 263.02,-221.06"/>
<polygon fill="red" stroke="red" stroke-width="1.16" points="265.51,-218.83 255.32,-215.92 261.47,-224.55 265.51,-218.83"/>
</g>
<!-- x8&#45;&gt;92 -->
<g id="edge36" class="edge">
<title>x8&#45;&gt;92</title>
<path fill="none" stroke="green" stroke-width="0.19" d="M332.38,-257.63C337.88,-249.78 346.39,-237.63 353.89,-226.93"/>
<polygon fill="green" stroke="green" stroke-width="0.19" points="356.73,-228.97 359.6,-218.77 351,-224.95 356.73,-228.97"/>
</g>
<!-- 97&#45;&gt;OUTPUT -->
<g id="edge42" class="edge">
<title>97&#45;&gt;OUTPUT</title>
<path fill="none" stroke="green" d="M188.37,-185.35C193.5,-162.07 202.86,-119.59 210.18,-86.4"/>
<polygon fill="green" stroke="green" points="213.74,-87.51 212.47,-76.99 206.9,-86 213.74,-87.51"/>
</g>
<!-- 97&#45;&gt;96 -->
<g id="edge44" class="edge">
<title>97&#45;&gt;96</title>
<path fill="none" stroke="green" stroke-width="0.36" d="M177.86,-186.11C174.34,-177.53 169.96,-166.85 166.02,-157.23"/>
<polygon fill="green" stroke="green" stroke-width="0.36" points="169.3,-156 162.27,-148.08 162.83,-158.66 169.3,-156"/>
</g>
<!-- 96&#45;&gt;OUTPUT -->
<g id="edge41" class="edge">
<title>96&#45;&gt;OUTPUT</title>
<path fill="none" stroke="green" stroke-width="1.25" d="M166.03,-115.2C173.14,-105.29 182.93,-91.65 192.25,-78.67"/>
<polygon fill="green" stroke="green" stroke-width="1.25" points="194.6,-81 197.59,-70.83 188.91,-76.92 194.6,-81"/>
</g>
<!-- 98&#45;&gt;OUTPUT -->
<g id="edge43" class="edge">
<title>98&#45;&gt;OUTPUT</title>
<path fill="none" stroke="green" stroke-width="0.37" stroke-dasharray="1,5" d="M65,-187.99C78.6,-169.48 103.62,-136.95 128.58,-112.37 144.98,-96.22 164.77,-80.11 181.8,-67.12"/>
<polygon fill="green" stroke="green" stroke-width="0.37" points="183.52,-70.2 189.4,-61.39 179.31,-64.61 183.52,-70.2"/>
</g>
<!-- 91&#45;&gt;OUTPUT -->
<g id="edge39" class="edge">
<title>91&#45;&gt;OUTPUT</title>
<path fill="none" stroke="red" stroke-width="0.76" d="M237.55,-185.04C234.86,-161.9 230,-120.18 226.18,-87.27"/>
<polygon fill="red" stroke="red" stroke-width="0.76" points="229.55,-87.01 224.92,-77.48 222.6,-87.82 229.55,-87.01"/>
</g>
<!-- 92&#45;&gt;OUTPUT -->
<g id="edge40" class="edge">
<title>92&#45;&gt;OUTPUT</title>
<path fill="none" stroke="red" stroke-width="0.42" d="M357.64,-189.43C335.05,-164.66 285.36,-110.19 252.43,-74.1"/>
<polygon fill="red" stroke="red" stroke-width="0.42" points="255.41,-72.17 246.08,-67.14 250.24,-76.89 255.41,-72.17"/>
</g>
</g>
</svg>
